G04*
G04 #@! TF.GenerationSoftware,Altium Limited,Altium Designer,21.0.8 (223)*
G04*
G04 Layer_Physical_Order=1*
G04 Layer_Color=255*
%FSLAX25Y25*%
%MOIN*%
G70*
G04*
G04 #@! TF.SameCoordinates,9A741BFF-CE4B-45F5-BAAB-659130A2A11A*
G04*
G04*
G04 #@! TF.FilePolarity,Positive*
G04*
G01*
G75*
%ADD10C,0.01000*%
%ADD14R,0.22835X0.25197*%
%ADD15R,0.04724X0.08661*%
%ADD16R,0.06693X0.05906*%
%ADD17R,0.05906X0.06693*%
%ADD18R,0.07874X0.04000*%
%ADD19R,0.04000X0.07874*%
%ADD33C,0.05000*%
%ADD34C,0.03500*%
%ADD35C,0.06000*%
G04:AMPARAMS|DCode=36|XSize=100mil|YSize=100mil|CornerRadius=25mil|HoleSize=0mil|Usage=FLASHONLY|Rotation=0.000|XOffset=0mil|YOffset=0mil|HoleType=Round|Shape=RoundedRectangle|*
%AMROUNDEDRECTD36*
21,1,0.10000,0.05000,0,0,0.0*
21,1,0.05000,0.10000,0,0,0.0*
1,1,0.05000,0.02500,-0.02500*
1,1,0.05000,-0.02500,-0.02500*
1,1,0.05000,-0.02500,0.02500*
1,1,0.05000,0.02500,0.02500*
%
%ADD36ROUNDEDRECTD36*%
%ADD37C,0.11811*%
%ADD38C,0.10000*%
%ADD39R,0.10000X0.10000*%
%ADD40C,0.02756*%
%ADD41C,0.23622*%
G36*
X370000Y360000D02*
Y15000D01*
X357500Y2500D01*
X17500Y2500D01*
X2500Y17500D01*
X2500Y360000D01*
X12500Y370000D01*
X360000D01*
X370000Y360000D01*
D02*
G37*
%LPC*%
G36*
X20508Y367311D02*
X20000D01*
Y355000D01*
X32311D01*
Y355508D01*
X31996Y357500D01*
X31372Y359418D01*
X30457Y361214D01*
X29272Y362846D01*
X27846Y364272D01*
X26214Y365457D01*
X24418Y366372D01*
X22500Y366996D01*
X20508Y367311D01*
D02*
G37*
G36*
X19000D02*
X18492D01*
X16500Y366996D01*
X14582Y366372D01*
X12786Y365457D01*
X11154Y364272D01*
X9728Y362846D01*
X8543Y361214D01*
X7628Y359418D01*
X7004Y357500D01*
X6689Y355508D01*
Y355000D01*
X19000D01*
Y367311D01*
D02*
G37*
G36*
X355339Y367142D02*
X354831D01*
Y354831D01*
X367142D01*
Y355339D01*
X366826Y357331D01*
X366203Y359248D01*
X365288Y361045D01*
X364102Y362677D01*
X362677Y364102D01*
X361045Y365288D01*
X359248Y366203D01*
X357331Y366826D01*
X355339Y367142D01*
D02*
G37*
G36*
X353831D02*
X353323D01*
X351331Y366826D01*
X349413Y366203D01*
X347616Y365288D01*
X345985Y364102D01*
X344559Y362677D01*
X343374Y361045D01*
X342458Y359248D01*
X341835Y357331D01*
X341520Y355339D01*
Y354831D01*
X353831D01*
Y367142D01*
D02*
G37*
G36*
X115591Y351000D02*
X115500D01*
Y345500D01*
X121000D01*
Y345591D01*
X120769Y346750D01*
X120317Y347842D01*
X119660Y348825D01*
X118825Y349660D01*
X117842Y350317D01*
X116750Y350769D01*
X115591Y351000D01*
D02*
G37*
G36*
X310527Y349000D02*
X310500D01*
Y345500D01*
X314000D01*
Y345527D01*
X313727Y346544D01*
X313201Y347456D01*
X312456Y348201D01*
X311544Y348727D01*
X310527Y349000D01*
D02*
G37*
G36*
X309500D02*
X309473D01*
X308456Y348727D01*
X307544Y348201D01*
X306799Y347456D01*
X306273Y346544D01*
X306000Y345527D01*
Y345500D01*
X309500D01*
Y349000D01*
D02*
G37*
G36*
X114500Y351000D02*
X114409D01*
X113250Y350769D01*
X112158Y350317D01*
X111175Y349660D01*
X110339Y348825D01*
X109683Y347842D01*
X109231Y346750D01*
X109000Y345591D01*
Y345500D01*
X114500D01*
Y351000D01*
D02*
G37*
G36*
X32311Y354000D02*
X20000D01*
Y341689D01*
X20508D01*
X22500Y342004D01*
X24418Y342628D01*
X26214Y343543D01*
X27846Y344728D01*
X29272Y346154D01*
X30457Y347786D01*
X31372Y349582D01*
X31996Y351500D01*
X32311Y353492D01*
Y354000D01*
D02*
G37*
G36*
X19000D02*
X6689D01*
Y353492D01*
X7004Y351500D01*
X7628Y349582D01*
X8543Y347786D01*
X9728Y346154D01*
X11154Y344728D01*
X12786Y343543D01*
X14582Y342628D01*
X16500Y342004D01*
X18492Y341689D01*
X19000D01*
Y354000D01*
D02*
G37*
G36*
X367142Y353831D02*
X354831D01*
Y341520D01*
X355339D01*
X357331Y341835D01*
X359248Y342458D01*
X361045Y343374D01*
X362677Y344559D01*
X364102Y345985D01*
X365288Y347616D01*
X366203Y349413D01*
X366826Y351331D01*
X367142Y353323D01*
Y353831D01*
D02*
G37*
G36*
X353831D02*
X341520D01*
Y353323D01*
X341835Y351331D01*
X342458Y349413D01*
X343374Y347616D01*
X344559Y345985D01*
X345985Y344559D01*
X347616Y343374D01*
X349413Y342458D01*
X351331Y341835D01*
X353323Y341520D01*
X353831D01*
Y353831D01*
D02*
G37*
G36*
X314000Y344500D02*
X310500D01*
Y341000D01*
X310527D01*
X311544Y341273D01*
X312456Y341799D01*
X313201Y342544D01*
X313727Y343456D01*
X314000Y344473D01*
Y344500D01*
D02*
G37*
G36*
X309500D02*
X306000D01*
Y344473D01*
X306273Y343456D01*
X306799Y342544D01*
X307544Y341799D01*
X308456Y341273D01*
X309473Y341000D01*
X309500D01*
Y344500D01*
D02*
G37*
G36*
X300551Y349181D02*
X299449D01*
X298386Y348896D01*
X297433Y348346D01*
X296654Y347567D01*
X296104Y346614D01*
X295819Y345550D01*
Y344449D01*
X296104Y343386D01*
X296654Y342433D01*
X297433Y341654D01*
X298386Y341104D01*
X299449Y340819D01*
X300551D01*
X301614Y341104D01*
X302567Y341654D01*
X303346Y342433D01*
X303896Y343386D01*
X304181Y344449D01*
Y345550D01*
X303896Y346614D01*
X303346Y347567D01*
X302567Y348346D01*
X301614Y348896D01*
X300551Y349181D01*
D02*
G37*
G36*
X121000Y344500D02*
X115500D01*
Y339000D01*
X115591D01*
X116750Y339231D01*
X117842Y339683D01*
X118825Y340339D01*
X119660Y341175D01*
X120317Y342158D01*
X120769Y343250D01*
X121000Y344409D01*
Y344500D01*
D02*
G37*
G36*
X114500D02*
X109000D01*
Y344409D01*
X109231Y343250D01*
X109683Y342158D01*
X110339Y341175D01*
X111175Y340339D01*
X112158Y339683D01*
X113250Y339231D01*
X114409Y339000D01*
X114500D01*
Y344500D01*
D02*
G37*
G36*
X141181Y351181D02*
X128819D01*
Y338819D01*
X141181D01*
Y351181D01*
D02*
G37*
G36*
X249753Y352087D02*
X248357D01*
X246988Y351814D01*
X245698Y351280D01*
X244538Y350504D01*
X243551Y349517D01*
X242775Y348357D01*
X242241Y347067D01*
X241968Y345698D01*
Y344302D01*
X242241Y342933D01*
X242775Y341643D01*
X243551Y340482D01*
X244538Y339495D01*
X245698Y338720D01*
X246988Y338186D01*
X248357Y337913D01*
X249753D01*
X251122Y338186D01*
X252412Y338720D01*
X253573Y339495D01*
X254560Y340482D01*
X255335Y341643D01*
X255869Y342933D01*
X256142Y344302D01*
Y345698D01*
X255869Y347067D01*
X255335Y348357D01*
X254560Y349517D01*
X253573Y350504D01*
X252412Y351280D01*
X251122Y351814D01*
X249753Y352087D01*
D02*
G37*
G36*
X190698D02*
X189302D01*
X187933Y351814D01*
X186643Y351280D01*
X185483Y350504D01*
X184495Y349517D01*
X183720Y348357D01*
X183186Y347067D01*
X182913Y345698D01*
Y344302D01*
X183186Y342933D01*
X183720Y341643D01*
X184495Y340482D01*
X185483Y339495D01*
X186643Y338720D01*
X187933Y338186D01*
X189302Y337913D01*
X190698D01*
X192067Y338186D01*
X193357Y338720D01*
X194518Y339495D01*
X195504Y340482D01*
X196280Y341643D01*
X196814Y342933D01*
X197087Y344302D01*
Y345698D01*
X196814Y347067D01*
X196280Y348357D01*
X195504Y349517D01*
X194518Y350504D01*
X193357Y351280D01*
X192067Y351814D01*
X190698Y352087D01*
D02*
G37*
G36*
X70500Y334867D02*
Y333000D01*
X72367D01*
X72016Y333847D01*
X71347Y334516D01*
X70500Y334867D01*
D02*
G37*
G36*
X69500D02*
X68653Y334516D01*
X67984Y333847D01*
X67633Y333000D01*
X69500D01*
Y334867D01*
D02*
G37*
G36*
X63000D02*
Y333000D01*
X64867D01*
X64516Y333847D01*
X63847Y334516D01*
X63000Y334867D01*
D02*
G37*
G36*
X62000D02*
X61153Y334516D01*
X60484Y333847D01*
X60133Y333000D01*
X62000D01*
Y334867D01*
D02*
G37*
G36*
X55500D02*
Y333000D01*
X57367D01*
X57016Y333847D01*
X56347Y334516D01*
X55500Y334867D01*
D02*
G37*
G36*
X54500D02*
X53653Y334516D01*
X52984Y333847D01*
X52633Y333000D01*
X54500D01*
Y334867D01*
D02*
G37*
G36*
X48000D02*
Y333000D01*
X49867D01*
X49516Y333847D01*
X48847Y334516D01*
X48000Y334867D01*
D02*
G37*
G36*
X47000D02*
X46153Y334516D01*
X45484Y333847D01*
X45133Y333000D01*
X47000D01*
Y334867D01*
D02*
G37*
G36*
X40500D02*
Y333000D01*
X42367D01*
X42016Y333847D01*
X41347Y334516D01*
X40500Y334867D01*
D02*
G37*
G36*
X39500D02*
X38653Y334516D01*
X37984Y333847D01*
X37633Y333000D01*
X39500D01*
Y334867D01*
D02*
G37*
G36*
X72367Y332000D02*
X70500D01*
Y330133D01*
X71347Y330484D01*
X72016Y331153D01*
X72367Y332000D01*
D02*
G37*
G36*
X69500D02*
X67633D01*
X67984Y331153D01*
X68653Y330484D01*
X69500Y330133D01*
Y332000D01*
D02*
G37*
G36*
X64867D02*
X63000D01*
Y330133D01*
X63847Y330484D01*
X64516Y331153D01*
X64867Y332000D01*
D02*
G37*
G36*
X62000D02*
X60133D01*
X60484Y331153D01*
X61153Y330484D01*
X62000Y330133D01*
Y332000D01*
D02*
G37*
G36*
X57367D02*
X55500D01*
Y330133D01*
X56347Y330484D01*
X57016Y331153D01*
X57367Y332000D01*
D02*
G37*
G36*
X54500D02*
X52633D01*
X52984Y331153D01*
X53653Y330484D01*
X54500Y330133D01*
Y332000D01*
D02*
G37*
G36*
X49867D02*
X48000D01*
Y330133D01*
X48847Y330484D01*
X49516Y331153D01*
X49867Y332000D01*
D02*
G37*
G36*
X47000D02*
X45133D01*
X45484Y331153D01*
X46153Y330484D01*
X47000Y330133D01*
Y332000D01*
D02*
G37*
G36*
X42367D02*
X40500D01*
Y330133D01*
X41347Y330484D01*
X42016Y331153D01*
X42367Y332000D01*
D02*
G37*
G36*
X39500D02*
X37633D01*
X37984Y331153D01*
X38653Y330484D01*
X39500Y330133D01*
Y332000D01*
D02*
G37*
G36*
X358000Y327367D02*
Y325500D01*
X359867D01*
X359516Y326347D01*
X358847Y327016D01*
X358000Y327367D01*
D02*
G37*
G36*
X357000D02*
X356153Y327016D01*
X355484Y326347D01*
X355133Y325500D01*
X357000D01*
Y327367D01*
D02*
G37*
G36*
X350500D02*
Y325500D01*
X352367D01*
X352016Y326347D01*
X351347Y327016D01*
X350500Y327367D01*
D02*
G37*
G36*
X349500D02*
X348653Y327016D01*
X347984Y326347D01*
X347633Y325500D01*
X349500D01*
Y327367D01*
D02*
G37*
G36*
X343000D02*
Y325500D01*
X344867D01*
X344516Y326347D01*
X343847Y327016D01*
X343000Y327367D01*
D02*
G37*
G36*
X342000D02*
X341153Y327016D01*
X340484Y326347D01*
X340133Y325500D01*
X342000D01*
Y327367D01*
D02*
G37*
G36*
X70500D02*
Y325500D01*
X72367D01*
X72016Y326347D01*
X71347Y327016D01*
X70500Y327367D01*
D02*
G37*
G36*
X69500D02*
X68653Y327016D01*
X67984Y326347D01*
X67633Y325500D01*
X69500D01*
Y327367D01*
D02*
G37*
G36*
X63000D02*
Y325500D01*
X64867D01*
X64516Y326347D01*
X63847Y327016D01*
X63000Y327367D01*
D02*
G37*
G36*
X62000D02*
X61153Y327016D01*
X60484Y326347D01*
X60133Y325500D01*
X62000D01*
Y327367D01*
D02*
G37*
G36*
X55500D02*
Y325500D01*
X57367D01*
X57016Y326347D01*
X56347Y327016D01*
X55500Y327367D01*
D02*
G37*
G36*
X54500D02*
X53653Y327016D01*
X52984Y326347D01*
X52633Y325500D01*
X54500D01*
Y327367D01*
D02*
G37*
G36*
X48000D02*
Y325500D01*
X49867D01*
X49516Y326347D01*
X48847Y327016D01*
X48000Y327367D01*
D02*
G37*
G36*
X47000D02*
X46153Y327016D01*
X45484Y326347D01*
X45133Y325500D01*
X47000D01*
Y327367D01*
D02*
G37*
G36*
X40500D02*
Y325500D01*
X42367D01*
X42016Y326347D01*
X41347Y327016D01*
X40500Y327367D01*
D02*
G37*
G36*
X39500D02*
X38653Y327016D01*
X37984Y326347D01*
X37633Y325500D01*
X39500D01*
Y327367D01*
D02*
G37*
G36*
X359867Y324500D02*
X358000D01*
Y322633D01*
X358847Y322984D01*
X359516Y323653D01*
X359867Y324500D01*
D02*
G37*
G36*
X357000D02*
X355133D01*
X355484Y323653D01*
X356153Y322984D01*
X357000Y322633D01*
Y324500D01*
D02*
G37*
G36*
X352367D02*
X350500D01*
Y322633D01*
X351347Y322984D01*
X352016Y323653D01*
X352367Y324500D01*
D02*
G37*
G36*
X349500D02*
X347633D01*
X347984Y323653D01*
X348653Y322984D01*
X349500Y322633D01*
Y324500D01*
D02*
G37*
G36*
X344867D02*
X343000D01*
Y322633D01*
X343847Y322984D01*
X344516Y323653D01*
X344867Y324500D01*
D02*
G37*
G36*
X342000D02*
X340133D01*
X340484Y323653D01*
X341153Y322984D01*
X342000Y322633D01*
Y324500D01*
D02*
G37*
G36*
X72367D02*
X70500D01*
Y322633D01*
X71347Y322984D01*
X72016Y323653D01*
X72367Y324500D01*
D02*
G37*
G36*
X69500D02*
X67633D01*
X67984Y323653D01*
X68653Y322984D01*
X69500Y322633D01*
Y324500D01*
D02*
G37*
G36*
X64867D02*
X63000D01*
Y322633D01*
X63847Y322984D01*
X64516Y323653D01*
X64867Y324500D01*
D02*
G37*
G36*
X62000D02*
X60133D01*
X60484Y323653D01*
X61153Y322984D01*
X62000Y322633D01*
Y324500D01*
D02*
G37*
G36*
X57367D02*
X55500D01*
Y322633D01*
X56347Y322984D01*
X57016Y323653D01*
X57367Y324500D01*
D02*
G37*
G36*
X54500D02*
X52633D01*
X52984Y323653D01*
X53653Y322984D01*
X54500Y322633D01*
Y324500D01*
D02*
G37*
G36*
X49867D02*
X48000D01*
Y322633D01*
X48847Y322984D01*
X49516Y323653D01*
X49867Y324500D01*
D02*
G37*
G36*
X47000D02*
X45133D01*
X45484Y323653D01*
X46153Y322984D01*
X47000Y322633D01*
Y324500D01*
D02*
G37*
G36*
X42367D02*
X40500D01*
Y322633D01*
X41347Y322984D01*
X42016Y323653D01*
X42367Y324500D01*
D02*
G37*
G36*
X39500D02*
X37633D01*
X37984Y323653D01*
X38653Y322984D01*
X39500Y322633D01*
Y324500D01*
D02*
G37*
G36*
X358000Y319867D02*
Y318000D01*
X359867D01*
X359516Y318847D01*
X358847Y319516D01*
X358000Y319867D01*
D02*
G37*
G36*
X357000D02*
X356153Y319516D01*
X355484Y318847D01*
X355133Y318000D01*
X357000D01*
Y319867D01*
D02*
G37*
G36*
X350500D02*
Y318000D01*
X352367D01*
X352016Y318847D01*
X351347Y319516D01*
X350500Y319867D01*
D02*
G37*
G36*
X349500D02*
X348653Y319516D01*
X347984Y318847D01*
X347633Y318000D01*
X349500D01*
Y319867D01*
D02*
G37*
G36*
X343000D02*
Y318000D01*
X344867D01*
X344516Y318847D01*
X343847Y319516D01*
X343000Y319867D01*
D02*
G37*
G36*
X342000D02*
X341153Y319516D01*
X340484Y318847D01*
X340133Y318000D01*
X342000D01*
Y319867D01*
D02*
G37*
G36*
X70500D02*
Y318000D01*
X72367D01*
X72016Y318847D01*
X71347Y319516D01*
X70500Y319867D01*
D02*
G37*
G36*
X69500D02*
X68653Y319516D01*
X67984Y318847D01*
X67633Y318000D01*
X69500D01*
Y319867D01*
D02*
G37*
G36*
X63000D02*
Y318000D01*
X64867D01*
X64516Y318847D01*
X63847Y319516D01*
X63000Y319867D01*
D02*
G37*
G36*
X62000D02*
X61153Y319516D01*
X60484Y318847D01*
X60133Y318000D01*
X62000D01*
Y319867D01*
D02*
G37*
G36*
X55500D02*
Y318000D01*
X57367D01*
X57016Y318847D01*
X56347Y319516D01*
X55500Y319867D01*
D02*
G37*
G36*
X54500D02*
X53653Y319516D01*
X52984Y318847D01*
X52633Y318000D01*
X54500D01*
Y319867D01*
D02*
G37*
G36*
X48000D02*
Y318000D01*
X49867D01*
X49516Y318847D01*
X48847Y319516D01*
X48000Y319867D01*
D02*
G37*
G36*
X47000D02*
X46153Y319516D01*
X45484Y318847D01*
X45133Y318000D01*
X47000D01*
Y319867D01*
D02*
G37*
G36*
X40500D02*
Y318000D01*
X42367D01*
X42016Y318847D01*
X41347Y319516D01*
X40500Y319867D01*
D02*
G37*
G36*
X39500D02*
X38653Y319516D01*
X37984Y318847D01*
X37633Y318000D01*
X39500D01*
Y319867D01*
D02*
G37*
G36*
X233000Y317367D02*
Y315500D01*
X234867D01*
X234516Y316347D01*
X233847Y317016D01*
X233000Y317367D01*
D02*
G37*
G36*
X232000D02*
X231153Y317016D01*
X230484Y316347D01*
X230133Y315500D01*
X232000D01*
Y317367D01*
D02*
G37*
G36*
X225500D02*
Y315500D01*
X227367D01*
X227016Y316347D01*
X226347Y317016D01*
X225500Y317367D01*
D02*
G37*
G36*
X224500D02*
X223653Y317016D01*
X222984Y316347D01*
X222633Y315500D01*
X224500D01*
Y317367D01*
D02*
G37*
G36*
X218000D02*
Y315500D01*
X219867D01*
X219516Y316347D01*
X218847Y317016D01*
X218000Y317367D01*
D02*
G37*
G36*
X217000D02*
X216153Y317016D01*
X215484Y316347D01*
X215133Y315500D01*
X217000D01*
Y317367D01*
D02*
G37*
G36*
X210500D02*
Y315500D01*
X212367D01*
X212016Y316347D01*
X211347Y317016D01*
X210500Y317367D01*
D02*
G37*
G36*
X209500D02*
X208653Y317016D01*
X207984Y316347D01*
X207633Y315500D01*
X209500D01*
Y317367D01*
D02*
G37*
G36*
X203000D02*
Y315500D01*
X204867D01*
X204516Y316347D01*
X203847Y317016D01*
X203000Y317367D01*
D02*
G37*
G36*
X202000D02*
X201153Y317016D01*
X200484Y316347D01*
X200133Y315500D01*
X202000D01*
Y317367D01*
D02*
G37*
G36*
X195500D02*
Y315500D01*
X197367D01*
X197016Y316347D01*
X196347Y317016D01*
X195500Y317367D01*
D02*
G37*
G36*
X194500D02*
X193653Y317016D01*
X192984Y316347D01*
X192633Y315500D01*
X194500D01*
Y317367D01*
D02*
G37*
G36*
X188000D02*
Y315500D01*
X189867D01*
X189516Y316347D01*
X188847Y317016D01*
X188000Y317367D01*
D02*
G37*
G36*
X187000D02*
X186153Y317016D01*
X185484Y316347D01*
X185133Y315500D01*
X187000D01*
Y317367D01*
D02*
G37*
G36*
X180500D02*
Y315500D01*
X182367D01*
X182016Y316347D01*
X181347Y317016D01*
X180500Y317367D01*
D02*
G37*
G36*
X179500D02*
X178653Y317016D01*
X177984Y316347D01*
X177633Y315500D01*
X179500D01*
Y317367D01*
D02*
G37*
G36*
X173000D02*
Y315500D01*
X174867D01*
X174516Y316347D01*
X173847Y317016D01*
X173000Y317367D01*
D02*
G37*
G36*
X172000D02*
X171153Y317016D01*
X170484Y316347D01*
X170133Y315500D01*
X172000D01*
Y317367D01*
D02*
G37*
G36*
X165500D02*
Y315500D01*
X167367D01*
X167016Y316347D01*
X166347Y317016D01*
X165500Y317367D01*
D02*
G37*
G36*
X164500D02*
X163653Y317016D01*
X162984Y316347D01*
X162633Y315500D01*
X164500D01*
Y317367D01*
D02*
G37*
G36*
X158000D02*
Y315500D01*
X159867D01*
X159516Y316347D01*
X158847Y317016D01*
X158000Y317367D01*
D02*
G37*
G36*
X157000D02*
X156153Y317016D01*
X155484Y316347D01*
X155133Y315500D01*
X157000D01*
Y317367D01*
D02*
G37*
G36*
X150500D02*
Y315500D01*
X152367D01*
X152016Y316347D01*
X151347Y317016D01*
X150500Y317367D01*
D02*
G37*
G36*
X149500D02*
X148653Y317016D01*
X147984Y316347D01*
X147633Y315500D01*
X149500D01*
Y317367D01*
D02*
G37*
G36*
X143000D02*
Y315500D01*
X144867D01*
X144516Y316347D01*
X143847Y317016D01*
X143000Y317367D01*
D02*
G37*
G36*
X142000D02*
X141153Y317016D01*
X140484Y316347D01*
X140133Y315500D01*
X142000D01*
Y317367D01*
D02*
G37*
G36*
X135500D02*
Y315500D01*
X137367D01*
X137016Y316347D01*
X136347Y317016D01*
X135500Y317367D01*
D02*
G37*
G36*
X134500D02*
X133653Y317016D01*
X132984Y316347D01*
X132633Y315500D01*
X134500D01*
Y317367D01*
D02*
G37*
G36*
X128000D02*
Y315500D01*
X129867D01*
X129516Y316347D01*
X128847Y317016D01*
X128000Y317367D01*
D02*
G37*
G36*
X127000D02*
X126153Y317016D01*
X125484Y316347D01*
X125133Y315500D01*
X127000D01*
Y317367D01*
D02*
G37*
G36*
X120500D02*
Y315500D01*
X122367D01*
X122016Y316347D01*
X121347Y317016D01*
X120500Y317367D01*
D02*
G37*
G36*
X119500D02*
X118653Y317016D01*
X117984Y316347D01*
X117633Y315500D01*
X119500D01*
Y317367D01*
D02*
G37*
G36*
X113000D02*
Y315500D01*
X114867D01*
X114516Y316347D01*
X113847Y317016D01*
X113000Y317367D01*
D02*
G37*
G36*
X112000D02*
X111153Y317016D01*
X110484Y316347D01*
X110133Y315500D01*
X112000D01*
Y317367D01*
D02*
G37*
G36*
X359867Y317000D02*
X358000D01*
Y315133D01*
X358847Y315484D01*
X359516Y316153D01*
X359867Y317000D01*
D02*
G37*
G36*
X357000D02*
X355133D01*
X355484Y316153D01*
X356153Y315484D01*
X357000Y315133D01*
Y317000D01*
D02*
G37*
G36*
X352367D02*
X350500D01*
Y315133D01*
X351347Y315484D01*
X352016Y316153D01*
X352367Y317000D01*
D02*
G37*
G36*
X349500D02*
X347633D01*
X347984Y316153D01*
X348653Y315484D01*
X349500Y315133D01*
Y317000D01*
D02*
G37*
G36*
X344867D02*
X343000D01*
Y315133D01*
X343847Y315484D01*
X344516Y316153D01*
X344867Y317000D01*
D02*
G37*
G36*
X342000D02*
X340133D01*
X340484Y316153D01*
X341153Y315484D01*
X342000Y315133D01*
Y317000D01*
D02*
G37*
G36*
X72367D02*
X70500D01*
Y315133D01*
X71347Y315484D01*
X72016Y316153D01*
X72367Y317000D01*
D02*
G37*
G36*
X69500D02*
X67633D01*
X67984Y316153D01*
X68653Y315484D01*
X69500Y315133D01*
Y317000D01*
D02*
G37*
G36*
X64867D02*
X63000D01*
Y315133D01*
X63847Y315484D01*
X64516Y316153D01*
X64867Y317000D01*
D02*
G37*
G36*
X62000D02*
X60133D01*
X60484Y316153D01*
X61153Y315484D01*
X62000Y315133D01*
Y317000D01*
D02*
G37*
G36*
X57367D02*
X55500D01*
Y315133D01*
X56347Y315484D01*
X57016Y316153D01*
X57367Y317000D01*
D02*
G37*
G36*
X54500D02*
X52633D01*
X52984Y316153D01*
X53653Y315484D01*
X54500Y315133D01*
Y317000D01*
D02*
G37*
G36*
X49867D02*
X48000D01*
Y315133D01*
X48847Y315484D01*
X49516Y316153D01*
X49867Y317000D01*
D02*
G37*
G36*
X47000D02*
X45133D01*
X45484Y316153D01*
X46153Y315484D01*
X47000Y315133D01*
Y317000D01*
D02*
G37*
G36*
X42367D02*
X40500D01*
Y315133D01*
X41347Y315484D01*
X42016Y316153D01*
X42367Y317000D01*
D02*
G37*
G36*
X39500D02*
X37633D01*
X37984Y316153D01*
X38653Y315484D01*
X39500Y315133D01*
Y317000D01*
D02*
G37*
G36*
X234867Y314500D02*
X233000D01*
Y312633D01*
X233847Y312984D01*
X234516Y313653D01*
X234867Y314500D01*
D02*
G37*
G36*
X232000D02*
X230133D01*
X230484Y313653D01*
X231153Y312984D01*
X232000Y312633D01*
Y314500D01*
D02*
G37*
G36*
X227367D02*
X225500D01*
Y312633D01*
X226347Y312984D01*
X227016Y313653D01*
X227367Y314500D01*
D02*
G37*
G36*
X224500D02*
X222633D01*
X222984Y313653D01*
X223653Y312984D01*
X224500Y312633D01*
Y314500D01*
D02*
G37*
G36*
X219867D02*
X218000D01*
Y312633D01*
X218847Y312984D01*
X219516Y313653D01*
X219867Y314500D01*
D02*
G37*
G36*
X217000D02*
X215133D01*
X215484Y313653D01*
X216153Y312984D01*
X217000Y312633D01*
Y314500D01*
D02*
G37*
G36*
X212367D02*
X210500D01*
Y312633D01*
X211347Y312984D01*
X212016Y313653D01*
X212367Y314500D01*
D02*
G37*
G36*
X209500D02*
X207633D01*
X207984Y313653D01*
X208653Y312984D01*
X209500Y312633D01*
Y314500D01*
D02*
G37*
G36*
X204867D02*
X203000D01*
Y312633D01*
X203847Y312984D01*
X204516Y313653D01*
X204867Y314500D01*
D02*
G37*
G36*
X202000D02*
X200133D01*
X200484Y313653D01*
X201153Y312984D01*
X202000Y312633D01*
Y314500D01*
D02*
G37*
G36*
X197367D02*
X195500D01*
Y312633D01*
X196347Y312984D01*
X197016Y313653D01*
X197367Y314500D01*
D02*
G37*
G36*
X194500D02*
X192633D01*
X192984Y313653D01*
X193653Y312984D01*
X194500Y312633D01*
Y314500D01*
D02*
G37*
G36*
X189867D02*
X188000D01*
Y312633D01*
X188847Y312984D01*
X189516Y313653D01*
X189867Y314500D01*
D02*
G37*
G36*
X187000D02*
X185133D01*
X185484Y313653D01*
X186153Y312984D01*
X187000Y312633D01*
Y314500D01*
D02*
G37*
G36*
X182367D02*
X180500D01*
Y312633D01*
X181347Y312984D01*
X182016Y313653D01*
X182367Y314500D01*
D02*
G37*
G36*
X179500D02*
X177633D01*
X177984Y313653D01*
X178653Y312984D01*
X179500Y312633D01*
Y314500D01*
D02*
G37*
G36*
X174867D02*
X173000D01*
Y312633D01*
X173847Y312984D01*
X174516Y313653D01*
X174867Y314500D01*
D02*
G37*
G36*
X172000D02*
X170133D01*
X170484Y313653D01*
X171153Y312984D01*
X172000Y312633D01*
Y314500D01*
D02*
G37*
G36*
X167367D02*
X165500D01*
Y312633D01*
X166347Y312984D01*
X167016Y313653D01*
X167367Y314500D01*
D02*
G37*
G36*
X164500D02*
X162633D01*
X162984Y313653D01*
X163653Y312984D01*
X164500Y312633D01*
Y314500D01*
D02*
G37*
G36*
X159867D02*
X158000D01*
Y312633D01*
X158847Y312984D01*
X159516Y313653D01*
X159867Y314500D01*
D02*
G37*
G36*
X157000D02*
X155133D01*
X155484Y313653D01*
X156153Y312984D01*
X157000Y312633D01*
Y314500D01*
D02*
G37*
G36*
X152367D02*
X150500D01*
Y312633D01*
X151347Y312984D01*
X152016Y313653D01*
X152367Y314500D01*
D02*
G37*
G36*
X149500D02*
X147633D01*
X147984Y313653D01*
X148653Y312984D01*
X149500Y312633D01*
Y314500D01*
D02*
G37*
G36*
X144867D02*
X143000D01*
Y312633D01*
X143847Y312984D01*
X144516Y313653D01*
X144867Y314500D01*
D02*
G37*
G36*
X142000D02*
X140133D01*
X140484Y313653D01*
X141153Y312984D01*
X142000Y312633D01*
Y314500D01*
D02*
G37*
G36*
X137367D02*
X135500D01*
Y312633D01*
X136347Y312984D01*
X137016Y313653D01*
X137367Y314500D01*
D02*
G37*
G36*
X134500D02*
X132633D01*
X132984Y313653D01*
X133653Y312984D01*
X134500Y312633D01*
Y314500D01*
D02*
G37*
G36*
X129867D02*
X128000D01*
Y312633D01*
X128847Y312984D01*
X129516Y313653D01*
X129867Y314500D01*
D02*
G37*
G36*
X127000D02*
X125133D01*
X125484Y313653D01*
X126153Y312984D01*
X127000Y312633D01*
Y314500D01*
D02*
G37*
G36*
X122367D02*
X120500D01*
Y312633D01*
X121347Y312984D01*
X122016Y313653D01*
X122367Y314500D01*
D02*
G37*
G36*
X119500D02*
X117633D01*
X117984Y313653D01*
X118653Y312984D01*
X119500Y312633D01*
Y314500D01*
D02*
G37*
G36*
X114867D02*
X113000D01*
Y312633D01*
X113847Y312984D01*
X114516Y313653D01*
X114867Y314500D01*
D02*
G37*
G36*
X112000D02*
X110133D01*
X110484Y313653D01*
X111153Y312984D01*
X112000Y312633D01*
Y314500D01*
D02*
G37*
G36*
X358000Y312367D02*
Y310500D01*
X359867D01*
X359516Y311347D01*
X358847Y312016D01*
X358000Y312367D01*
D02*
G37*
G36*
X357000D02*
X356153Y312016D01*
X355484Y311347D01*
X355133Y310500D01*
X357000D01*
Y312367D01*
D02*
G37*
G36*
X350500D02*
Y310500D01*
X352367D01*
X352016Y311347D01*
X351347Y312016D01*
X350500Y312367D01*
D02*
G37*
G36*
X349500D02*
X348653Y312016D01*
X347984Y311347D01*
X347633Y310500D01*
X349500D01*
Y312367D01*
D02*
G37*
G36*
X343000D02*
Y310500D01*
X344867D01*
X344516Y311347D01*
X343847Y312016D01*
X343000Y312367D01*
D02*
G37*
G36*
X342000D02*
X341153Y312016D01*
X340484Y311347D01*
X340133Y310500D01*
X342000D01*
Y312367D01*
D02*
G37*
G36*
X298000Y309867D02*
Y308000D01*
X299867D01*
X299516Y308847D01*
X298847Y309516D01*
X298000Y309867D01*
D02*
G37*
G36*
X297000D02*
X296153Y309516D01*
X295484Y308847D01*
X295133Y308000D01*
X297000D01*
Y309867D01*
D02*
G37*
G36*
X290500D02*
Y308000D01*
X292367D01*
X292016Y308847D01*
X291347Y309516D01*
X290500Y309867D01*
D02*
G37*
G36*
X289500D02*
X288653Y309516D01*
X287984Y308847D01*
X287633Y308000D01*
X289500D01*
Y309867D01*
D02*
G37*
G36*
X233000D02*
Y308000D01*
X234867D01*
X234516Y308847D01*
X233847Y309516D01*
X233000Y309867D01*
D02*
G37*
G36*
X232000D02*
X231153Y309516D01*
X230484Y308847D01*
X230133Y308000D01*
X232000D01*
Y309867D01*
D02*
G37*
G36*
X225500D02*
Y308000D01*
X227367D01*
X227016Y308847D01*
X226347Y309516D01*
X225500Y309867D01*
D02*
G37*
G36*
X224500D02*
X223653Y309516D01*
X222984Y308847D01*
X222633Y308000D01*
X224500D01*
Y309867D01*
D02*
G37*
G36*
X218000D02*
Y308000D01*
X219867D01*
X219516Y308847D01*
X218847Y309516D01*
X218000Y309867D01*
D02*
G37*
G36*
X217000D02*
X216153Y309516D01*
X215484Y308847D01*
X215133Y308000D01*
X217000D01*
Y309867D01*
D02*
G37*
G36*
X210500D02*
Y308000D01*
X212367D01*
X212016Y308847D01*
X211347Y309516D01*
X210500Y309867D01*
D02*
G37*
G36*
X209500D02*
X208653Y309516D01*
X207984Y308847D01*
X207633Y308000D01*
X209500D01*
Y309867D01*
D02*
G37*
G36*
X203000D02*
Y308000D01*
X204867D01*
X204516Y308847D01*
X203847Y309516D01*
X203000Y309867D01*
D02*
G37*
G36*
X202000D02*
X201153Y309516D01*
X200484Y308847D01*
X200133Y308000D01*
X202000D01*
Y309867D01*
D02*
G37*
G36*
X195500D02*
Y308000D01*
X197367D01*
X197016Y308847D01*
X196347Y309516D01*
X195500Y309867D01*
D02*
G37*
G36*
X194500D02*
X193653Y309516D01*
X192984Y308847D01*
X192633Y308000D01*
X194500D01*
Y309867D01*
D02*
G37*
G36*
X188000D02*
Y308000D01*
X189867D01*
X189516Y308847D01*
X188847Y309516D01*
X188000Y309867D01*
D02*
G37*
G36*
X187000D02*
X186153Y309516D01*
X185484Y308847D01*
X185133Y308000D01*
X187000D01*
Y309867D01*
D02*
G37*
G36*
X180500D02*
Y308000D01*
X182367D01*
X182016Y308847D01*
X181347Y309516D01*
X180500Y309867D01*
D02*
G37*
G36*
X179500D02*
X178653Y309516D01*
X177984Y308847D01*
X177633Y308000D01*
X179500D01*
Y309867D01*
D02*
G37*
G36*
X173000D02*
Y308000D01*
X174867D01*
X174516Y308847D01*
X173847Y309516D01*
X173000Y309867D01*
D02*
G37*
G36*
X172000D02*
X171153Y309516D01*
X170484Y308847D01*
X170133Y308000D01*
X172000D01*
Y309867D01*
D02*
G37*
G36*
X165500D02*
Y308000D01*
X167367D01*
X167016Y308847D01*
X166347Y309516D01*
X165500Y309867D01*
D02*
G37*
G36*
X164500D02*
X163653Y309516D01*
X162984Y308847D01*
X162633Y308000D01*
X164500D01*
Y309867D01*
D02*
G37*
G36*
X158000D02*
Y308000D01*
X159867D01*
X159516Y308847D01*
X158847Y309516D01*
X158000Y309867D01*
D02*
G37*
G36*
X157000D02*
X156153Y309516D01*
X155484Y308847D01*
X155133Y308000D01*
X157000D01*
Y309867D01*
D02*
G37*
G36*
X150500D02*
Y308000D01*
X152367D01*
X152016Y308847D01*
X151347Y309516D01*
X150500Y309867D01*
D02*
G37*
G36*
X149500D02*
X148653Y309516D01*
X147984Y308847D01*
X147633Y308000D01*
X149500D01*
Y309867D01*
D02*
G37*
G36*
X143000D02*
Y308000D01*
X144867D01*
X144516Y308847D01*
X143847Y309516D01*
X143000Y309867D01*
D02*
G37*
G36*
X142000D02*
X141153Y309516D01*
X140484Y308847D01*
X140133Y308000D01*
X142000D01*
Y309867D01*
D02*
G37*
G36*
X135500D02*
Y308000D01*
X137367D01*
X137016Y308847D01*
X136347Y309516D01*
X135500Y309867D01*
D02*
G37*
G36*
X134500D02*
X133653Y309516D01*
X132984Y308847D01*
X132633Y308000D01*
X134500D01*
Y309867D01*
D02*
G37*
G36*
X128000D02*
Y308000D01*
X129867D01*
X129516Y308847D01*
X128847Y309516D01*
X128000Y309867D01*
D02*
G37*
G36*
X127000D02*
X126153Y309516D01*
X125484Y308847D01*
X125133Y308000D01*
X127000D01*
Y309867D01*
D02*
G37*
G36*
X120500D02*
Y308000D01*
X122367D01*
X122016Y308847D01*
X121347Y309516D01*
X120500Y309867D01*
D02*
G37*
G36*
X119500D02*
X118653Y309516D01*
X117984Y308847D01*
X117633Y308000D01*
X119500D01*
Y309867D01*
D02*
G37*
G36*
X113000D02*
Y308000D01*
X114867D01*
X114516Y308847D01*
X113847Y309516D01*
X113000Y309867D01*
D02*
G37*
G36*
X112000D02*
X111153Y309516D01*
X110484Y308847D01*
X110133Y308000D01*
X112000D01*
Y309867D01*
D02*
G37*
G36*
X359867Y309500D02*
X358000D01*
Y307633D01*
X358847Y307984D01*
X359516Y308653D01*
X359867Y309500D01*
D02*
G37*
G36*
X357000D02*
X355133D01*
X355484Y308653D01*
X356153Y307984D01*
X357000Y307633D01*
Y309500D01*
D02*
G37*
G36*
X352367D02*
X350500D01*
Y307633D01*
X351347Y307984D01*
X352016Y308653D01*
X352367Y309500D01*
D02*
G37*
G36*
X349500D02*
X347633D01*
X347984Y308653D01*
X348653Y307984D01*
X349500Y307633D01*
Y309500D01*
D02*
G37*
G36*
X344867D02*
X343000D01*
Y307633D01*
X343847Y307984D01*
X344516Y308653D01*
X344867Y309500D01*
D02*
G37*
G36*
X342000D02*
X340133D01*
X340484Y308653D01*
X341153Y307984D01*
X342000Y307633D01*
Y309500D01*
D02*
G37*
G36*
X299867Y307000D02*
X298000D01*
Y305133D01*
X298847Y305484D01*
X299516Y306153D01*
X299867Y307000D01*
D02*
G37*
G36*
X297000D02*
X295133D01*
X295484Y306153D01*
X296153Y305484D01*
X297000Y305133D01*
Y307000D01*
D02*
G37*
G36*
X292367D02*
X290500D01*
Y305133D01*
X291347Y305484D01*
X292016Y306153D01*
X292367Y307000D01*
D02*
G37*
G36*
X289500D02*
X287633D01*
X287984Y306153D01*
X288653Y305484D01*
X289500Y305133D01*
Y307000D01*
D02*
G37*
G36*
X234867D02*
X233000D01*
Y305133D01*
X233847Y305484D01*
X234516Y306153D01*
X234867Y307000D01*
D02*
G37*
G36*
X232000D02*
X230133D01*
X230484Y306153D01*
X231153Y305484D01*
X232000Y305133D01*
Y307000D01*
D02*
G37*
G36*
X227367D02*
X225500D01*
Y305133D01*
X226347Y305484D01*
X227016Y306153D01*
X227367Y307000D01*
D02*
G37*
G36*
X224500D02*
X222633D01*
X222984Y306153D01*
X223653Y305484D01*
X224500Y305133D01*
Y307000D01*
D02*
G37*
G36*
X219867D02*
X218000D01*
Y305133D01*
X218847Y305484D01*
X219516Y306153D01*
X219867Y307000D01*
D02*
G37*
G36*
X217000D02*
X215133D01*
X215484Y306153D01*
X216153Y305484D01*
X217000Y305133D01*
Y307000D01*
D02*
G37*
G36*
X212367D02*
X210500D01*
Y305133D01*
X211347Y305484D01*
X212016Y306153D01*
X212367Y307000D01*
D02*
G37*
G36*
X209500D02*
X207633D01*
X207984Y306153D01*
X208653Y305484D01*
X209500Y305133D01*
Y307000D01*
D02*
G37*
G36*
X204867D02*
X203000D01*
Y305133D01*
X203847Y305484D01*
X204516Y306153D01*
X204867Y307000D01*
D02*
G37*
G36*
X202000D02*
X200133D01*
X200484Y306153D01*
X201153Y305484D01*
X202000Y305133D01*
Y307000D01*
D02*
G37*
G36*
X197367D02*
X195500D01*
Y305133D01*
X196347Y305484D01*
X197016Y306153D01*
X197367Y307000D01*
D02*
G37*
G36*
X194500D02*
X192633D01*
X192984Y306153D01*
X193653Y305484D01*
X194500Y305133D01*
Y307000D01*
D02*
G37*
G36*
X189867D02*
X188000D01*
Y305133D01*
X188847Y305484D01*
X189516Y306153D01*
X189867Y307000D01*
D02*
G37*
G36*
X187000D02*
X185133D01*
X185484Y306153D01*
X186153Y305484D01*
X187000Y305133D01*
Y307000D01*
D02*
G37*
G36*
X182367D02*
X180500D01*
Y305133D01*
X181347Y305484D01*
X182016Y306153D01*
X182367Y307000D01*
D02*
G37*
G36*
X179500D02*
X177633D01*
X177984Y306153D01*
X178653Y305484D01*
X179500Y305133D01*
Y307000D01*
D02*
G37*
G36*
X174867D02*
X173000D01*
Y305133D01*
X173847Y305484D01*
X174516Y306153D01*
X174867Y307000D01*
D02*
G37*
G36*
X172000D02*
X170133D01*
X170484Y306153D01*
X171153Y305484D01*
X172000Y305133D01*
Y307000D01*
D02*
G37*
G36*
X167367D02*
X165500D01*
Y305133D01*
X166347Y305484D01*
X167016Y306153D01*
X167367Y307000D01*
D02*
G37*
G36*
X164500D02*
X162633D01*
X162984Y306153D01*
X163653Y305484D01*
X164500Y305133D01*
Y307000D01*
D02*
G37*
G36*
X159867D02*
X158000D01*
Y305133D01*
X158847Y305484D01*
X159516Y306153D01*
X159867Y307000D01*
D02*
G37*
G36*
X157000D02*
X155133D01*
X155484Y306153D01*
X156153Y305484D01*
X157000Y305133D01*
Y307000D01*
D02*
G37*
G36*
X152367D02*
X150500D01*
Y305133D01*
X151347Y305484D01*
X152016Y306153D01*
X152367Y307000D01*
D02*
G37*
G36*
X149500D02*
X147633D01*
X147984Y306153D01*
X148653Y305484D01*
X149500Y305133D01*
Y307000D01*
D02*
G37*
G36*
X144867D02*
X143000D01*
Y305133D01*
X143847Y305484D01*
X144516Y306153D01*
X144867Y307000D01*
D02*
G37*
G36*
X142000D02*
X140133D01*
X140484Y306153D01*
X141153Y305484D01*
X142000Y305133D01*
Y307000D01*
D02*
G37*
G36*
X137367D02*
X135500D01*
Y305133D01*
X136347Y305484D01*
X137016Y306153D01*
X137367Y307000D01*
D02*
G37*
G36*
X134500D02*
X132633D01*
X132984Y306153D01*
X133653Y305484D01*
X134500Y305133D01*
Y307000D01*
D02*
G37*
G36*
X129867D02*
X128000D01*
Y305133D01*
X128847Y305484D01*
X129516Y306153D01*
X129867Y307000D01*
D02*
G37*
G36*
X127000D02*
X125133D01*
X125484Y306153D01*
X126153Y305484D01*
X127000Y305133D01*
Y307000D01*
D02*
G37*
G36*
X122367D02*
X120500D01*
Y305133D01*
X121347Y305484D01*
X122016Y306153D01*
X122367Y307000D01*
D02*
G37*
G36*
X119500D02*
X117633D01*
X117984Y306153D01*
X118653Y305484D01*
X119500Y305133D01*
Y307000D01*
D02*
G37*
G36*
X114867D02*
X113000D01*
Y305133D01*
X113847Y305484D01*
X114516Y306153D01*
X114867Y307000D01*
D02*
G37*
G36*
X112000D02*
X110133D01*
X110484Y306153D01*
X111153Y305484D01*
X112000Y305133D01*
Y307000D01*
D02*
G37*
G36*
X358000Y304867D02*
Y303000D01*
X359867D01*
X359516Y303847D01*
X358847Y304516D01*
X358000Y304867D01*
D02*
G37*
G36*
X357000D02*
X356153Y304516D01*
X355484Y303847D01*
X355133Y303000D01*
X357000D01*
Y304867D01*
D02*
G37*
G36*
X350500D02*
Y303000D01*
X352367D01*
X352016Y303847D01*
X351347Y304516D01*
X350500Y304867D01*
D02*
G37*
G36*
X349500D02*
X348653Y304516D01*
X347984Y303847D01*
X347633Y303000D01*
X349500D01*
Y304867D01*
D02*
G37*
G36*
X330710Y304937D02*
X328210D01*
Y300500D01*
X330710D01*
Y304937D01*
D02*
G37*
G36*
X327210D02*
X324710D01*
Y300500D01*
X327210D01*
Y304937D01*
D02*
G37*
G36*
X359867Y302000D02*
X358000D01*
Y300133D01*
X358847Y300484D01*
X359516Y301153D01*
X359867Y302000D01*
D02*
G37*
G36*
X357000D02*
X355133D01*
X355484Y301153D01*
X356153Y300484D01*
X357000Y300133D01*
Y302000D01*
D02*
G37*
G36*
X352367D02*
X350500D01*
Y300133D01*
X351347Y300484D01*
X352016Y301153D01*
X352367Y302000D01*
D02*
G37*
G36*
X349500D02*
X347633D01*
X347984Y301153D01*
X348653Y300484D01*
X349500Y300133D01*
Y302000D01*
D02*
G37*
G36*
X358000Y297367D02*
Y295500D01*
X359867D01*
X359516Y296347D01*
X358847Y297016D01*
X358000Y297367D01*
D02*
G37*
G36*
X357000D02*
X356153Y297016D01*
X355484Y296347D01*
X355133Y295500D01*
X357000D01*
Y297367D01*
D02*
G37*
G36*
X350500D02*
Y295500D01*
X352367D01*
X352016Y296347D01*
X351347Y297016D01*
X350500Y297367D01*
D02*
G37*
G36*
X349500D02*
X348653Y297016D01*
X347984Y296347D01*
X347633Y295500D01*
X349500D01*
Y297367D01*
D02*
G37*
G36*
X330710Y299500D02*
X328210D01*
Y295063D01*
X330710D01*
Y299500D01*
D02*
G37*
G36*
X327210D02*
X324710D01*
Y295063D01*
X327210D01*
Y299500D01*
D02*
G37*
G36*
X359867Y294500D02*
X358000D01*
Y292633D01*
X358847Y292984D01*
X359516Y293653D01*
X359867Y294500D01*
D02*
G37*
G36*
X357000D02*
X355133D01*
X355484Y293653D01*
X356153Y292984D01*
X357000Y292633D01*
Y294500D01*
D02*
G37*
G36*
X352367D02*
X350500D01*
Y292633D01*
X351347Y292984D01*
X352016Y293653D01*
X352367Y294500D01*
D02*
G37*
G36*
X349500D02*
X347633D01*
X347984Y293653D01*
X348653Y292984D01*
X349500Y292633D01*
Y294500D01*
D02*
G37*
G36*
X307937Y291710D02*
X303500D01*
Y289210D01*
X307937D01*
Y291710D01*
D02*
G37*
G36*
X302500D02*
X298063D01*
Y289210D01*
X302500D01*
Y291710D01*
D02*
G37*
G36*
X358000Y289867D02*
Y288000D01*
X359867D01*
X359516Y288847D01*
X358847Y289516D01*
X358000Y289867D01*
D02*
G37*
G36*
X357000D02*
X356153Y289516D01*
X355484Y288847D01*
X355133Y288000D01*
X357000D01*
Y289867D01*
D02*
G37*
G36*
X350500D02*
Y288000D01*
X352367D01*
X352016Y288847D01*
X351347Y289516D01*
X350500Y289867D01*
D02*
G37*
G36*
X349500D02*
X348653Y289516D01*
X347984Y288847D01*
X347633Y288000D01*
X349500D01*
Y289867D01*
D02*
G37*
G36*
X307937Y288210D02*
X303500D01*
Y285710D01*
X307937D01*
Y288210D01*
D02*
G37*
G36*
X302500D02*
X298063D01*
Y285710D01*
X302500D01*
Y288210D01*
D02*
G37*
G36*
X289000Y287367D02*
Y285500D01*
X290867D01*
X290516Y286347D01*
X289847Y287016D01*
X289000Y287367D01*
D02*
G37*
G36*
X288000D02*
X287153Y287016D01*
X286484Y286347D01*
X286133Y285500D01*
X288000D01*
Y287367D01*
D02*
G37*
G36*
X359867Y287000D02*
X358000D01*
Y285133D01*
X358847Y285484D01*
X359516Y286153D01*
X359867Y287000D01*
D02*
G37*
G36*
X357000D02*
X355133D01*
X355484Y286153D01*
X356153Y285484D01*
X357000Y285133D01*
Y287000D01*
D02*
G37*
G36*
X352367D02*
X350500D01*
Y285133D01*
X351347Y285484D01*
X352016Y286153D01*
X352367Y287000D01*
D02*
G37*
G36*
X349500D02*
X347633D01*
X347984Y286153D01*
X348653Y285484D01*
X349500Y285133D01*
Y287000D01*
D02*
G37*
G36*
X290867Y284500D02*
X289000D01*
Y282633D01*
X289847Y282984D01*
X290516Y283653D01*
X290867Y284500D01*
D02*
G37*
G36*
X288000D02*
X286133D01*
X286484Y283653D01*
X287153Y282984D01*
X288000Y282633D01*
Y284500D01*
D02*
G37*
G36*
X289000Y279867D02*
Y278000D01*
X290867D01*
X290516Y278847D01*
X289847Y279516D01*
X289000Y279867D01*
D02*
G37*
G36*
X288000D02*
X287153Y279516D01*
X286484Y278847D01*
X286133Y278000D01*
X288000D01*
Y279867D01*
D02*
G37*
G36*
X219051Y285181D02*
X217950D01*
X216886Y284896D01*
X215933Y284346D01*
X215154Y283567D01*
X214604Y282614D01*
X214319Y281551D01*
Y280450D01*
X214604Y279386D01*
X215154Y278433D01*
X215933Y277654D01*
X216886Y277104D01*
X217950Y276819D01*
X219051D01*
X220114Y277104D01*
X221067Y277654D01*
X221846Y278433D01*
X222396Y279386D01*
X222681Y280450D01*
Y281551D01*
X222396Y282614D01*
X221846Y283567D01*
X221067Y284346D01*
X220114Y284896D01*
X219051Y285181D01*
D02*
G37*
G36*
X290867Y277000D02*
X289000D01*
Y275133D01*
X289847Y275484D01*
X290516Y276153D01*
X290867Y277000D01*
D02*
G37*
G36*
X288000D02*
X286133D01*
X286484Y276153D01*
X287153Y275484D01*
X288000Y275133D01*
Y277000D01*
D02*
G37*
G36*
X192891Y300118D02*
X186529D01*
Y296901D01*
X186495Y296856D01*
X186124Y295961D01*
X185997Y295000D01*
Y292638D01*
X186124Y291677D01*
X186495Y290781D01*
X186529Y290737D01*
Y289882D01*
X187215D01*
X194787Y282310D01*
Y280931D01*
X194604Y280614D01*
X194319Y279551D01*
Y278450D01*
X194604Y277386D01*
X195154Y276433D01*
X195933Y275654D01*
X196886Y275104D01*
X197950Y274819D01*
X199050D01*
X200114Y275104D01*
X201067Y275654D01*
X201846Y276433D01*
X202396Y277386D01*
X202681Y278450D01*
Y279551D01*
X202396Y280614D01*
X202213Y280931D01*
Y283848D01*
X202086Y284809D01*
X201715Y285704D01*
X201125Y286473D01*
X193423Y294176D01*
Y295000D01*
X193297Y295961D01*
X192926Y296856D01*
X192891Y296901D01*
Y300118D01*
D02*
G37*
G36*
X179181D02*
X172819D01*
Y296901D01*
X172785Y296856D01*
X172414Y295961D01*
X172287Y295000D01*
Y294176D01*
X165875Y287763D01*
X165285Y286994D01*
X164914Y286099D01*
X164787Y285138D01*
Y280931D01*
X164604Y280614D01*
X164319Y279551D01*
Y278450D01*
X164604Y277386D01*
X165154Y276433D01*
X165933Y275654D01*
X166886Y275104D01*
X167949Y274819D01*
X169051D01*
X170114Y275104D01*
X171067Y275654D01*
X171846Y276433D01*
X172396Y277386D01*
X172681Y278450D01*
Y279551D01*
X172396Y280614D01*
X172213Y280931D01*
Y283600D01*
X178495Y289882D01*
X179181D01*
Y290737D01*
X179215Y290781D01*
X179586Y291677D01*
X179713Y292638D01*
Y295000D01*
X179586Y295961D01*
X179215Y296856D01*
X179181Y296901D01*
Y300118D01*
D02*
G37*
G36*
X219027Y275000D02*
X219000D01*
Y271500D01*
X222500D01*
Y271527D01*
X222227Y272544D01*
X221701Y273456D01*
X220956Y274201D01*
X220044Y274727D01*
X219027Y275000D01*
D02*
G37*
G36*
X218000D02*
X217973D01*
X216956Y274727D01*
X216044Y274201D01*
X215299Y273456D01*
X214773Y272544D01*
X214500Y271527D01*
Y271500D01*
X218000D01*
Y275000D01*
D02*
G37*
G36*
X275891Y305118D02*
X269529D01*
Y294882D01*
X270996D01*
Y293583D01*
X257402D01*
Y268176D01*
X256940Y267984D01*
X255714Y269210D01*
Y278536D01*
X255584Y279192D01*
X255212Y279748D01*
X252151Y282809D01*
Y287635D01*
X252118Y287801D01*
Y290694D01*
X256306Y294882D01*
X262181D01*
Y305118D01*
X255819D01*
Y299070D01*
X255299Y298723D01*
X248960Y292384D01*
X248631Y291891D01*
X241882D01*
Y285529D01*
X248723D01*
Y282099D01*
X248853Y281443D01*
X249225Y280887D01*
X251469Y278643D01*
X251278Y278181D01*
X241882D01*
Y271819D01*
X244044D01*
Y270158D01*
X242472D01*
Y261890D01*
X248011D01*
X248203Y261864D01*
X248955D01*
X251185Y259634D01*
X250978Y259134D01*
X243617D01*
X239125Y263625D01*
X238356Y264215D01*
X237461Y264586D01*
X236500Y264713D01*
X208538D01*
X202067Y271183D01*
X201846Y271567D01*
X201067Y272346D01*
X200114Y272896D01*
X199050Y273181D01*
X197950D01*
X196886Y272896D01*
X195933Y272346D01*
X195154Y271567D01*
X194604Y270614D01*
X194319Y269550D01*
Y268449D01*
X194604Y267386D01*
X195154Y266433D01*
X195933Y265654D01*
X196886Y265104D01*
X197923Y264826D01*
X199081Y263669D01*
X198861Y263181D01*
X197950D01*
X196886Y262896D01*
X195933Y262346D01*
X195154Y261567D01*
X194604Y260614D01*
X194319Y259550D01*
Y258450D01*
X194604Y257386D01*
X195154Y256433D01*
X195933Y255654D01*
X196886Y255104D01*
X197950Y254819D01*
X199050D01*
X200114Y255104D01*
X200658Y255418D01*
X214363Y241713D01*
X214319Y241550D01*
Y240450D01*
X214604Y239386D01*
X215154Y238433D01*
X215933Y237654D01*
X216886Y237104D01*
X217950Y236819D01*
X219051D01*
X220002Y237074D01*
X226288Y230788D01*
X226844Y230416D01*
X227500Y230286D01*
X273000D01*
X273656Y230416D01*
X274212Y230788D01*
X278759Y235335D01*
X278851Y235472D01*
X284134D01*
Y244528D01*
X280714D01*
Y249488D01*
X282543D01*
Y260512D01*
X277881D01*
X275275Y263117D01*
X275212Y263212D01*
X274212Y264212D01*
X273656Y264584D01*
X273000Y264714D01*
X260210D01*
X259362Y265562D01*
X259554Y266024D01*
X282598D01*
Y293583D01*
X274424D01*
Y294882D01*
X275891D01*
Y305118D01*
D02*
G37*
G36*
X222500Y270500D02*
X219000D01*
Y267000D01*
X219027D01*
X220044Y267273D01*
X220956Y267799D01*
X221701Y268544D01*
X222227Y269456D01*
X222500Y270473D01*
Y270500D01*
D02*
G37*
G36*
X218000D02*
X214500D01*
Y270473D01*
X214773Y269456D01*
X215299Y268544D01*
X216044Y267799D01*
X216956Y267273D01*
X217973Y267000D01*
X218000D01*
Y270500D01*
D02*
G37*
G36*
X317181Y305118D02*
X310819D01*
Y294882D01*
X312286D01*
Y292181D01*
X312402Y291600D01*
Y266024D01*
X337598D01*
Y293583D01*
X315714D01*
Y294882D01*
X317181D01*
Y305118D01*
D02*
G37*
G36*
X143051Y284181D02*
X141949D01*
X140886Y283896D01*
X139933Y283346D01*
X139154Y282567D01*
X138662Y281714D01*
X101000D01*
X100344Y281584D01*
X99788Y281212D01*
X89788Y271212D01*
X89416Y270656D01*
X89286Y270000D01*
Y244000D01*
X89416Y243344D01*
X89788Y242788D01*
X96074Y236502D01*
X95819Y235550D01*
Y234450D01*
X96104Y233386D01*
X96654Y232433D01*
X97433Y231654D01*
X98386Y231104D01*
X99449Y230819D01*
X100550D01*
X101614Y231104D01*
X102567Y231654D01*
X103346Y232433D01*
X103896Y233386D01*
X104181Y234450D01*
Y235550D01*
X103896Y236614D01*
X103346Y237567D01*
X102567Y238346D01*
X101614Y238896D01*
X100550Y239181D01*
X99449D01*
X98498Y238926D01*
X92714Y244710D01*
Y269290D01*
X101710Y278286D01*
X138662D01*
X139154Y277433D01*
X139933Y276654D01*
X140886Y276104D01*
X141949Y275819D01*
X143051D01*
X144002Y276074D01*
X152288Y267788D01*
X152844Y267416D01*
X153500Y267286D01*
X164662D01*
X165154Y266433D01*
X165933Y265654D01*
X166886Y265104D01*
X167949Y264819D01*
X169051D01*
X170114Y265104D01*
X171067Y265654D01*
X171846Y266433D01*
X172396Y267386D01*
X172681Y268449D01*
Y269550D01*
X172396Y270614D01*
X171846Y271567D01*
X171067Y272346D01*
X170114Y272896D01*
X169051Y273181D01*
X167949D01*
X166886Y272896D01*
X165933Y272346D01*
X165154Y271567D01*
X164662Y270714D01*
X154210D01*
X146426Y278498D01*
X146681Y279450D01*
Y280551D01*
X146396Y281614D01*
X145846Y282567D01*
X145067Y283346D01*
X144114Y283896D01*
X143051Y284181D01*
D02*
G37*
G36*
X100550Y269181D02*
X99449D01*
X98386Y268896D01*
X97433Y268346D01*
X96654Y267567D01*
X96104Y266614D01*
X95819Y265550D01*
Y264450D01*
X96104Y263386D01*
X96654Y262433D01*
X97433Y261654D01*
X98386Y261104D01*
X99449Y260819D01*
X100550D01*
X101614Y261104D01*
X102567Y261654D01*
X103346Y262433D01*
X103896Y263386D01*
X104181Y264450D01*
Y265550D01*
X103896Y266614D01*
X103346Y267567D01*
X102567Y268346D01*
X101614Y268896D01*
X100550Y269181D01*
D02*
G37*
G36*
X40551D02*
X39450D01*
X38386Y268896D01*
X37433Y268346D01*
X36654Y267567D01*
X36104Y266614D01*
X35819Y265550D01*
Y264450D01*
X36104Y263386D01*
X36654Y262433D01*
X37433Y261654D01*
X38386Y261104D01*
X39450Y260819D01*
X40551D01*
X41614Y261104D01*
X42567Y261654D01*
X43346Y262433D01*
X43896Y263386D01*
X44181Y264450D01*
Y265550D01*
X43896Y266614D01*
X43346Y267567D01*
X42567Y268346D01*
X41614Y268896D01*
X40551Y269181D01*
D02*
G37*
G36*
X337362Y260331D02*
X334500D01*
Y255500D01*
X337362D01*
Y260331D01*
D02*
G37*
G36*
X333500D02*
X330638D01*
Y255500D01*
X333500D01*
Y260331D01*
D02*
G37*
G36*
X169051Y263181D02*
X167949D01*
X166886Y262896D01*
X165933Y262346D01*
X165154Y261567D01*
X164604Y260614D01*
X164319Y259550D01*
Y258450D01*
X164604Y257386D01*
X165154Y256433D01*
X165933Y255654D01*
X166886Y255104D01*
X167949Y254819D01*
X169051D01*
X170114Y255104D01*
X171067Y255654D01*
X171846Y256433D01*
X172396Y257386D01*
X172681Y258450D01*
Y259550D01*
X172396Y260614D01*
X171846Y261567D01*
X171067Y262346D01*
X170114Y262896D01*
X169051Y263181D01*
D02*
G37*
G36*
X40551Y259181D02*
X39450D01*
X38386Y258896D01*
X37433Y258346D01*
X36654Y257567D01*
X36104Y256614D01*
X35819Y255551D01*
Y254450D01*
X36104Y253386D01*
X36654Y252433D01*
X37433Y251654D01*
X38386Y251104D01*
X39450Y250819D01*
X40551D01*
X41614Y251104D01*
X42567Y251654D01*
X43346Y252433D01*
X43896Y253386D01*
X44181Y254450D01*
Y255551D01*
X43896Y256614D01*
X43346Y257567D01*
X42567Y258346D01*
X41614Y258896D01*
X40551Y259181D01*
D02*
G37*
G36*
X337362Y254500D02*
X334500D01*
Y249669D01*
X337362D01*
Y254500D01*
D02*
G37*
G36*
X333500D02*
X330638D01*
Y249669D01*
X333500D01*
Y254500D01*
D02*
G37*
G36*
X169027Y253000D02*
X169000D01*
Y249500D01*
X172500D01*
Y249527D01*
X172227Y250544D01*
X171701Y251456D01*
X170956Y252201D01*
X170044Y252727D01*
X169027Y253000D01*
D02*
G37*
G36*
X168000D02*
X167973D01*
X166956Y252727D01*
X166044Y252201D01*
X165299Y251456D01*
X164773Y250544D01*
X164500Y249527D01*
Y249500D01*
X168000D01*
Y253000D01*
D02*
G37*
G36*
X143051Y254181D02*
X141949D01*
X140886Y253896D01*
X139933Y253346D01*
X139154Y252567D01*
X138604Y251614D01*
X138319Y250551D01*
Y249449D01*
X138604Y248386D01*
X139154Y247433D01*
X139933Y246654D01*
X140886Y246104D01*
X141949Y245819D01*
X143051D01*
X144114Y246104D01*
X145067Y246654D01*
X145846Y247433D01*
X146396Y248386D01*
X146681Y249449D01*
Y250551D01*
X146396Y251614D01*
X145846Y252567D01*
X145067Y253346D01*
X144114Y253896D01*
X143051Y254181D01*
D02*
G37*
G36*
X172500Y248500D02*
X169000D01*
Y245000D01*
X169027D01*
X170044Y245273D01*
X170956Y245799D01*
X171701Y246544D01*
X172227Y247456D01*
X172500Y248473D01*
Y248500D01*
D02*
G37*
G36*
X168000D02*
X164500D01*
Y248473D01*
X164773Y247456D01*
X165299Y246544D01*
X166044Y245799D01*
X166956Y245273D01*
X167973Y245000D01*
X168000D01*
Y248500D01*
D02*
G37*
G36*
X100550Y249181D02*
X99449D01*
X98386Y248896D01*
X97433Y248346D01*
X96654Y247567D01*
X96104Y246614D01*
X95819Y245550D01*
Y244449D01*
X96104Y243386D01*
X96654Y242433D01*
X97433Y241654D01*
X98386Y241104D01*
X99449Y240819D01*
X100550D01*
X101614Y241104D01*
X102567Y241654D01*
X103346Y242433D01*
X103896Y243386D01*
X104181Y244449D01*
Y245550D01*
X103896Y246614D01*
X103346Y247567D01*
X102567Y248346D01*
X101614Y248896D01*
X100550Y249181D01*
D02*
G37*
G36*
X40551D02*
X39450D01*
X38386Y248896D01*
X37433Y248346D01*
X36654Y247567D01*
X36104Y246614D01*
X35819Y245550D01*
Y244449D01*
X36104Y243386D01*
X36654Y242433D01*
X37433Y241654D01*
X38386Y241104D01*
X39450Y240819D01*
X40551D01*
X41614Y241104D01*
X42567Y241654D01*
X43346Y242433D01*
X43896Y243386D01*
X44181Y244449D01*
Y245550D01*
X43896Y246614D01*
X43346Y247567D01*
X42567Y248346D01*
X41614Y248896D01*
X40551Y249181D01*
D02*
G37*
G36*
X338976Y244346D02*
X335524D01*
Y240500D01*
X338976D01*
Y244346D01*
D02*
G37*
G36*
X334524D02*
X331071D01*
Y240500D01*
X334524D01*
Y244346D01*
D02*
G37*
G36*
X346550Y244181D02*
X345449D01*
X344386Y243896D01*
X343433Y243346D01*
X342654Y242567D01*
X342104Y241614D01*
X341819Y240550D01*
Y239450D01*
X342104Y238386D01*
X342654Y237433D01*
X343433Y236654D01*
X344386Y236104D01*
X345449Y235819D01*
X346550D01*
X347614Y236104D01*
X348567Y236654D01*
X349346Y237433D01*
X349896Y238386D01*
X350181Y239450D01*
Y240550D01*
X349896Y241614D01*
X349346Y242567D01*
X348567Y243346D01*
X347614Y243896D01*
X346550Y244181D01*
D02*
G37*
G36*
X292550D02*
X291449D01*
X290386Y243896D01*
X289433Y243346D01*
X288654Y242567D01*
X288104Y241614D01*
X287819Y240550D01*
Y239450D01*
X288104Y238386D01*
X288654Y237433D01*
X289433Y236654D01*
X290386Y236104D01*
X291449Y235819D01*
X292550D01*
X293614Y236104D01*
X294567Y236654D01*
X295346Y237433D01*
X295896Y238386D01*
X296181Y239450D01*
Y240550D01*
X295896Y241614D01*
X295346Y242567D01*
X294567Y243346D01*
X293614Y243896D01*
X292550Y244181D01*
D02*
G37*
G36*
X338976Y239500D02*
X335524D01*
Y235653D01*
X338976D01*
Y239500D01*
D02*
G37*
G36*
X334524D02*
X331071D01*
Y235653D01*
X334524D01*
Y239500D01*
D02*
G37*
G36*
X308118Y278181D02*
X297882D01*
Y271819D01*
X299044D01*
Y270158D01*
X298472D01*
Y261890D01*
X304011D01*
X304203Y261864D01*
X306923D01*
X312431Y256356D01*
Y255612D01*
X312457Y255420D01*
Y249488D01*
X313044D01*
Y245118D01*
X312819D01*
Y234882D01*
X319181D01*
Y237044D01*
X319866D01*
Y235472D01*
X328134D01*
Y244528D01*
X319866D01*
Y242956D01*
X319181D01*
Y245118D01*
X318956D01*
Y249488D01*
X319543D01*
Y260512D01*
X316638D01*
X310238Y266911D01*
X309626Y267381D01*
X308913Y267676D01*
X308148Y267777D01*
X307528D01*
Y270158D01*
X304956D01*
Y271819D01*
X308118D01*
Y278181D01*
D02*
G37*
G36*
X21346Y237929D02*
X17500D01*
Y234476D01*
X21346D01*
Y237929D01*
D02*
G37*
G36*
X16500D02*
X12653D01*
Y234476D01*
X16500D01*
Y237929D01*
D02*
G37*
G36*
X21346Y233476D02*
X17500D01*
Y230024D01*
X21346D01*
Y233476D01*
D02*
G37*
G36*
X16500D02*
X12653D01*
Y230024D01*
X16500D01*
Y233476D01*
D02*
G37*
G36*
X307528Y259134D02*
X298472D01*
Y255103D01*
X298414Y254961D01*
X298287Y254000D01*
Y240290D01*
X298414Y239329D01*
X298577Y238935D01*
Y238176D01*
X289114Y228713D01*
X216538D01*
X202213Y243038D01*
Y247069D01*
X202396Y247386D01*
X202681Y248449D01*
Y249551D01*
X202396Y250614D01*
X201846Y251567D01*
X201067Y252346D01*
X200114Y252896D01*
X199050Y253181D01*
X197950D01*
X196886Y252896D01*
X195933Y252346D01*
X195154Y251567D01*
X194604Y250614D01*
X194319Y249551D01*
Y248449D01*
X194604Y247386D01*
X194787Y247069D01*
Y241500D01*
X194914Y240539D01*
X195285Y239644D01*
X195875Y238875D01*
X212375Y222375D01*
X213144Y221785D01*
X214039Y221414D01*
X215000Y221287D01*
X290652D01*
X291613Y221414D01*
X292508Y221785D01*
X293277Y222375D01*
X303840Y232938D01*
X303840Y232938D01*
X304915Y234012D01*
X305505Y234781D01*
X305876Y235677D01*
X306003Y236638D01*
Y240000D01*
X305876Y240961D01*
X305713Y241355D01*
Y250866D01*
X307528D01*
Y259134D01*
D02*
G37*
G36*
X40551Y229181D02*
X39450D01*
X38386Y228896D01*
X37433Y228346D01*
X36654Y227567D01*
X36162Y226714D01*
X21528D01*
Y229134D01*
X12472D01*
Y220866D01*
X21528D01*
Y223286D01*
X36162D01*
X36654Y222433D01*
X37433Y221654D01*
X38386Y221104D01*
X39450Y220819D01*
X40551D01*
X41502Y221074D01*
X73286Y189290D01*
Y85000D01*
X73416Y84344D01*
X73788Y83788D01*
X86074Y71502D01*
X85819Y70551D01*
Y69450D01*
X86104Y68386D01*
X86654Y67433D01*
X87433Y66654D01*
X88386Y66104D01*
X89450Y65819D01*
X90551D01*
X91614Y66104D01*
X92567Y66654D01*
X93346Y67433D01*
X93896Y68386D01*
X94181Y69450D01*
Y70551D01*
X93896Y71614D01*
X93346Y72567D01*
X92567Y73346D01*
X91614Y73896D01*
X90551Y74181D01*
X89450D01*
X88498Y73926D01*
X76714Y85710D01*
Y190000D01*
X76584Y190656D01*
X76212Y191212D01*
X43926Y223498D01*
X44181Y224449D01*
Y225551D01*
X43896Y226614D01*
X43346Y227567D01*
X42567Y228346D01*
X41614Y228896D01*
X40551Y229181D01*
D02*
G37*
G36*
X100550D02*
X99449D01*
X98386Y228896D01*
X97433Y228346D01*
X96654Y227567D01*
X96104Y226614D01*
X95819Y225551D01*
Y224449D01*
X96104Y223386D01*
X96654Y222433D01*
X97433Y221654D01*
X98386Y221104D01*
X99449Y220819D01*
X100550D01*
X101614Y221104D01*
X102567Y221654D01*
X103346Y222433D01*
X103896Y223386D01*
X104181Y224449D01*
Y225551D01*
X103896Y226614D01*
X103346Y227567D01*
X102567Y228346D01*
X101614Y228896D01*
X100550Y229181D01*
D02*
G37*
G36*
X298000Y219867D02*
Y218000D01*
X299867D01*
X299516Y218847D01*
X298847Y219516D01*
X298000Y219867D01*
D02*
G37*
G36*
X297000D02*
X296153Y219516D01*
X295484Y218847D01*
X295133Y218000D01*
X297000D01*
Y219867D01*
D02*
G37*
G36*
X290500D02*
Y218000D01*
X292367D01*
X292016Y218847D01*
X291347Y219516D01*
X290500Y219867D01*
D02*
G37*
G36*
X289500D02*
X288653Y219516D01*
X287984Y218847D01*
X287633Y218000D01*
X289500D01*
Y219867D01*
D02*
G37*
G36*
X299867Y217000D02*
X298000D01*
Y215133D01*
X298847Y215484D01*
X299516Y216153D01*
X299867Y217000D01*
D02*
G37*
G36*
X297000D02*
X295133D01*
X295484Y216153D01*
X296153Y215484D01*
X297000Y215133D01*
Y217000D01*
D02*
G37*
G36*
X292367D02*
X290500D01*
Y215133D01*
X291347Y215484D01*
X292016Y216153D01*
X292367Y217000D01*
D02*
G37*
G36*
X289500D02*
X287633D01*
X287984Y216153D01*
X288653Y215484D01*
X289500Y215133D01*
Y217000D01*
D02*
G37*
G36*
X21346Y217929D02*
X17500D01*
Y214476D01*
X21346D01*
Y217929D01*
D02*
G37*
G36*
X16500D02*
X12653D01*
Y214476D01*
X16500D01*
Y217929D01*
D02*
G37*
G36*
X100550Y219181D02*
X99449D01*
X98386Y218896D01*
X97433Y218346D01*
X96654Y217567D01*
X96104Y216614D01*
X95819Y215550D01*
Y214450D01*
X96104Y213386D01*
X96654Y212433D01*
X97433Y211654D01*
X98386Y211104D01*
X99449Y210819D01*
X100550D01*
X101614Y211104D01*
X102567Y211654D01*
X103346Y212433D01*
X103896Y213386D01*
X104181Y214450D01*
Y215550D01*
X103896Y216614D01*
X103346Y217567D01*
X102567Y218346D01*
X101614Y218896D01*
X100550Y219181D01*
D02*
G37*
G36*
X330710Y214937D02*
X328210D01*
Y210500D01*
X330710D01*
Y214937D01*
D02*
G37*
G36*
X327210D02*
X324710D01*
Y210500D01*
X327210D01*
Y214937D01*
D02*
G37*
G36*
X21346Y213476D02*
X17500D01*
Y210024D01*
X21346D01*
Y213476D01*
D02*
G37*
G36*
X16500D02*
X12653D01*
Y210024D01*
X16500D01*
Y213476D01*
D02*
G37*
G36*
X131976Y209347D02*
X128524D01*
Y205500D01*
X131976D01*
Y209347D01*
D02*
G37*
G36*
X127524D02*
X124071D01*
Y205500D01*
X127524D01*
Y209347D01*
D02*
G37*
G36*
X330710Y209500D02*
X328210D01*
Y205063D01*
X330710D01*
Y209500D01*
D02*
G37*
G36*
X327210D02*
X324710D01*
Y205063D01*
X327210D01*
Y209500D01*
D02*
G37*
G36*
X276181Y215118D02*
X269819D01*
Y204882D01*
X271286D01*
Y203780D01*
X257871D01*
X257563Y203780D01*
X257323Y204247D01*
X257925Y204849D01*
X258215D01*
X258381Y204882D01*
X262471D01*
Y215118D01*
X256109D01*
Y207846D01*
X256003Y207775D01*
X250119Y201891D01*
X241882D01*
Y195529D01*
X248723D01*
Y191563D01*
X248853Y190907D01*
X249225Y190351D01*
X250933Y188643D01*
X250742Y188181D01*
X241882D01*
Y181819D01*
X244044D01*
Y180157D01*
X242472D01*
Y171890D01*
X248011D01*
X248203Y171864D01*
X248955D01*
X251185Y169634D01*
X250978Y169134D01*
X248963D01*
X248856Y169215D01*
X247961Y169586D01*
X247000Y169713D01*
X243538D01*
X237625Y175625D01*
X236856Y176215D01*
X235961Y176586D01*
X235000Y176713D01*
X208538D01*
X202067Y183184D01*
X201846Y183567D01*
X201067Y184346D01*
X200114Y184896D01*
X199050Y185181D01*
X197950D01*
X196886Y184896D01*
X195933Y184346D01*
X195154Y183567D01*
X194604Y182614D01*
X194319Y181551D01*
Y180449D01*
X194604Y179386D01*
X195154Y178433D01*
X195933Y177654D01*
X196886Y177104D01*
X197923Y176826D01*
X199081Y175669D01*
X198861Y175181D01*
X197950D01*
X196886Y174896D01*
X195933Y174346D01*
X195154Y173567D01*
X194604Y172614D01*
X194319Y171551D01*
Y170449D01*
X194604Y169386D01*
X195154Y168433D01*
X195933Y167654D01*
X196886Y167104D01*
X197950Y166819D01*
X199050D01*
X200114Y167104D01*
X200658Y167418D01*
X214363Y153713D01*
X214319Y153551D01*
Y152450D01*
X214604Y151386D01*
X215154Y150433D01*
X215933Y149654D01*
X216886Y149104D01*
X217950Y148819D01*
X219051D01*
X220002Y149074D01*
X227288Y141788D01*
X227844Y141416D01*
X228500Y141286D01*
X273000D01*
X273656Y141416D01*
X274212Y141788D01*
X277896Y145473D01*
X284134D01*
Y154527D01*
X280714D01*
Y159685D01*
X282543D01*
Y170709D01*
X277881D01*
X274377Y174212D01*
X273821Y174584D01*
X273165Y174714D01*
X260210D01*
X259166Y175759D01*
X259357Y176221D01*
X282598D01*
Y203780D01*
X274714D01*
Y204882D01*
X276181D01*
Y215118D01*
D02*
G37*
G36*
X100550Y209181D02*
X99449D01*
X98386Y208896D01*
X97433Y208346D01*
X96654Y207567D01*
X96104Y206614D01*
X95819Y205551D01*
Y204450D01*
X96104Y203386D01*
X96654Y202433D01*
X97433Y201654D01*
X98386Y201104D01*
X99449Y200819D01*
X100550D01*
X101614Y201104D01*
X102567Y201654D01*
X103346Y202433D01*
X103896Y203386D01*
X104181Y204450D01*
Y205551D01*
X103896Y206614D01*
X103346Y207567D01*
X102567Y208346D01*
X101614Y208896D01*
X100550Y209181D01*
D02*
G37*
G36*
X40551D02*
X39450D01*
X38386Y208896D01*
X37433Y208346D01*
X36654Y207567D01*
X36104Y206614D01*
X35819Y205551D01*
Y204450D01*
X36104Y203386D01*
X36654Y202433D01*
X37433Y201654D01*
X38386Y201104D01*
X39450Y200819D01*
X40551D01*
X41614Y201104D01*
X42567Y201654D01*
X43346Y202433D01*
X43896Y203386D01*
X44181Y204450D01*
Y205551D01*
X43896Y206614D01*
X43346Y207567D01*
X42567Y208346D01*
X41614Y208896D01*
X40551Y209181D01*
D02*
G37*
G36*
X131976Y204500D02*
X128524D01*
Y200654D01*
X131976D01*
Y204500D01*
D02*
G37*
G36*
X127524D02*
X124071D01*
Y200654D01*
X127524D01*
Y204500D01*
D02*
G37*
G36*
X121134Y209528D02*
X112866D01*
Y200472D01*
X121134D01*
Y209528D01*
D02*
G37*
G36*
X307937Y201710D02*
X303500D01*
Y199210D01*
X307937D01*
Y201710D01*
D02*
G37*
G36*
X302500D02*
X298063D01*
Y199210D01*
X302500D01*
Y201710D01*
D02*
G37*
G36*
X307937Y198210D02*
X303500D01*
Y195710D01*
X307937D01*
Y198210D01*
D02*
G37*
G36*
X302500D02*
X298063D01*
Y195710D01*
X302500D01*
Y198210D01*
D02*
G37*
G36*
X289000Y197367D02*
Y195500D01*
X290867D01*
X290516Y196347D01*
X289847Y197016D01*
X289000Y197367D01*
D02*
G37*
G36*
X288000D02*
X287153Y197016D01*
X286484Y196347D01*
X286133Y195500D01*
X288000D01*
Y197367D01*
D02*
G37*
G36*
X21346Y197929D02*
X17500D01*
Y194476D01*
X21346D01*
Y197929D01*
D02*
G37*
G36*
X16500D02*
X12653D01*
Y194476D01*
X16500D01*
Y197929D01*
D02*
G37*
G36*
X290867Y194500D02*
X289000D01*
Y192633D01*
X289847Y192984D01*
X290516Y193653D01*
X290867Y194500D01*
D02*
G37*
G36*
X288000D02*
X286133D01*
X286484Y193653D01*
X287153Y192984D01*
X288000Y192633D01*
Y194500D01*
D02*
G37*
G36*
X100550Y199181D02*
X99449D01*
X98386Y198896D01*
X97433Y198346D01*
X96654Y197567D01*
X96104Y196614D01*
X95819Y195551D01*
Y194449D01*
X96104Y193386D01*
X96654Y192433D01*
X97433Y191654D01*
X98386Y191104D01*
X99449Y190819D01*
X100550D01*
X101614Y191104D01*
X102567Y191654D01*
X103346Y192433D01*
X103896Y193386D01*
X104181Y194449D01*
Y195551D01*
X103896Y196614D01*
X103346Y197567D01*
X102567Y198346D01*
X101614Y198896D01*
X100550Y199181D01*
D02*
G37*
G36*
X40551D02*
X39450D01*
X38386Y198896D01*
X37433Y198346D01*
X36654Y197567D01*
X36104Y196614D01*
X35819Y195551D01*
Y194449D01*
X36104Y193386D01*
X36654Y192433D01*
X37433Y191654D01*
X38386Y191104D01*
X39450Y190819D01*
X40551D01*
X41614Y191104D01*
X42567Y191654D01*
X43346Y192433D01*
X43896Y193386D01*
X44181Y194449D01*
Y195551D01*
X43896Y196614D01*
X43346Y197567D01*
X42567Y198346D01*
X41614Y198896D01*
X40551Y199181D01*
D02*
G37*
G36*
X21346Y193476D02*
X17500D01*
Y190024D01*
X21346D01*
Y193476D01*
D02*
G37*
G36*
X16500D02*
X12653D01*
Y190024D01*
X16500D01*
Y193476D01*
D02*
G37*
G36*
X219051Y197181D02*
X217950D01*
X216886Y196896D01*
X215933Y196346D01*
X215154Y195567D01*
X214604Y194614D01*
X214319Y193551D01*
Y192449D01*
X214604Y191386D01*
X215154Y190433D01*
X215933Y189654D01*
X216886Y189104D01*
X217950Y188819D01*
X219051D01*
X220114Y189104D01*
X221067Y189654D01*
X221846Y190433D01*
X222396Y191386D01*
X222681Y192449D01*
Y193551D01*
X222396Y194614D01*
X221846Y195567D01*
X221067Y196346D01*
X220114Y196896D01*
X219051Y197181D01*
D02*
G37*
G36*
X289000Y189867D02*
Y188000D01*
X290867D01*
X290516Y188847D01*
X289847Y189516D01*
X289000Y189867D01*
D02*
G37*
G36*
X288000D02*
X287153Y189516D01*
X286484Y188847D01*
X286133Y188000D01*
X288000D01*
Y189867D01*
D02*
G37*
G36*
X192891Y212118D02*
X186529D01*
Y208901D01*
X186495Y208856D01*
X186124Y207961D01*
X185997Y207000D01*
Y204638D01*
X186124Y203677D01*
X186495Y202781D01*
X186529Y202737D01*
Y201882D01*
X187215D01*
X194787Y194310D01*
Y192931D01*
X194604Y192614D01*
X194319Y191551D01*
Y190450D01*
X194604Y189386D01*
X195154Y188433D01*
X195933Y187654D01*
X196886Y187104D01*
X197950Y186819D01*
X199050D01*
X200114Y187104D01*
X201067Y187654D01*
X201846Y188433D01*
X202396Y189386D01*
X202681Y190450D01*
Y191551D01*
X202396Y192614D01*
X202213Y192931D01*
Y195848D01*
X202086Y196809D01*
X201715Y197705D01*
X201125Y198473D01*
X193423Y206176D01*
Y207000D01*
X193297Y207961D01*
X192926Y208856D01*
X192891Y208901D01*
Y212118D01*
D02*
G37*
G36*
X179181D02*
X172819D01*
Y208901D01*
X172785Y208856D01*
X172414Y207961D01*
X172287Y207000D01*
Y206176D01*
X165875Y199763D01*
X165285Y198994D01*
X164914Y198099D01*
X164787Y197138D01*
Y192931D01*
X164604Y192614D01*
X164319Y191551D01*
Y190450D01*
X164604Y189386D01*
X165154Y188433D01*
X165933Y187654D01*
X166886Y187104D01*
X167949Y186819D01*
X169051D01*
X170114Y187104D01*
X171067Y187654D01*
X171846Y188433D01*
X172396Y189386D01*
X172681Y190450D01*
Y191551D01*
X172396Y192614D01*
X172213Y192931D01*
Y195600D01*
X178495Y201882D01*
X179181D01*
Y202737D01*
X179215Y202781D01*
X179586Y203677D01*
X179713Y204638D01*
Y207000D01*
X179586Y207961D01*
X179215Y208856D01*
X179181Y208901D01*
Y212118D01*
D02*
G37*
G36*
X290867Y187000D02*
X289000D01*
Y185133D01*
X289847Y185484D01*
X290516Y186153D01*
X290867Y187000D01*
D02*
G37*
G36*
X288000D02*
X286133D01*
X286484Y186153D01*
X287153Y185484D01*
X288000Y185133D01*
Y187000D01*
D02*
G37*
G36*
X219027D02*
X219000D01*
Y183500D01*
X222500D01*
Y183527D01*
X222227Y184544D01*
X221701Y185456D01*
X220956Y186201D01*
X220044Y186727D01*
X219027Y187000D01*
D02*
G37*
G36*
X218000D02*
X217973D01*
X216956Y186727D01*
X216044Y186201D01*
X215299Y185456D01*
X214773Y184544D01*
X214500Y183527D01*
Y183500D01*
X218000D01*
Y187000D01*
D02*
G37*
G36*
X100550Y189181D02*
X99449D01*
X98386Y188896D01*
X97433Y188346D01*
X96654Y187567D01*
X96104Y186614D01*
X95819Y185550D01*
Y184450D01*
X96104Y183386D01*
X96654Y182433D01*
X97433Y181654D01*
X98386Y181104D01*
X99449Y180819D01*
X100550D01*
X101614Y181104D01*
X102567Y181654D01*
X103346Y182433D01*
X103896Y183386D01*
X104181Y184450D01*
Y185550D01*
X103896Y186614D01*
X103346Y187567D01*
X102567Y188346D01*
X101614Y188896D01*
X100550Y189181D01*
D02*
G37*
G36*
X40551D02*
X39450D01*
X38386Y188896D01*
X37433Y188346D01*
X36654Y187567D01*
X36104Y186614D01*
X35819Y185550D01*
Y184450D01*
X36104Y183386D01*
X36654Y182433D01*
X37433Y181654D01*
X38386Y181104D01*
X39450Y180819D01*
X40551D01*
X41614Y181104D01*
X42567Y181654D01*
X43346Y182433D01*
X43896Y183386D01*
X44181Y184450D01*
Y185550D01*
X43896Y186614D01*
X43346Y187567D01*
X42567Y188346D01*
X41614Y188896D01*
X40551Y189181D01*
D02*
G37*
G36*
X222500Y182500D02*
X219000D01*
Y179000D01*
X219027D01*
X220044Y179273D01*
X220956Y179799D01*
X221701Y180544D01*
X222227Y181456D01*
X222500Y182473D01*
Y182500D01*
D02*
G37*
G36*
X218000D02*
X214500D01*
Y182473D01*
X214773Y181456D01*
X215299Y180544D01*
X216044Y179799D01*
X216956Y179273D01*
X217973Y179000D01*
X218000D01*
Y182500D01*
D02*
G37*
G36*
X129337Y235559D02*
X128663D01*
X128012Y235385D01*
X127429Y235048D01*
X126952Y234571D01*
X126615Y233988D01*
X126441Y233337D01*
Y232663D01*
X126615Y232012D01*
X126952Y231429D01*
X127429Y230952D01*
X128012Y230615D01*
X128663Y230441D01*
X129135D01*
X138286Y221290D01*
Y195536D01*
X138416Y194880D01*
X138754Y194374D01*
X138604Y194114D01*
X138319Y193051D01*
Y191949D01*
X138604Y190886D01*
X139154Y189933D01*
X139933Y189154D01*
X140886Y188604D01*
X141949Y188319D01*
X143051D01*
X144002Y188574D01*
X152788Y179788D01*
X153344Y179416D01*
X154000Y179286D01*
X164662D01*
X165154Y178433D01*
X165933Y177654D01*
X166886Y177104D01*
X167949Y176819D01*
X169051D01*
X170114Y177104D01*
X171067Y177654D01*
X171846Y178433D01*
X172396Y179386D01*
X172681Y180449D01*
Y181551D01*
X172396Y182614D01*
X171846Y183567D01*
X171067Y184346D01*
X170114Y184896D01*
X169051Y185181D01*
X167949D01*
X166886Y184896D01*
X165933Y184346D01*
X165154Y183567D01*
X164662Y182714D01*
X154710D01*
X146426Y190998D01*
X146681Y191949D01*
Y193051D01*
X146396Y194114D01*
X145846Y195067D01*
X145067Y195846D01*
X144114Y196396D01*
X143051Y196681D01*
X141950D01*
X141714Y196862D01*
Y222000D01*
X141584Y222656D01*
X141212Y223212D01*
X131559Y232865D01*
Y233337D01*
X131385Y233988D01*
X131048Y234571D01*
X130571Y235048D01*
X129988Y235385D01*
X129337Y235559D01*
D02*
G37*
G36*
X317181Y215118D02*
X310819D01*
Y204882D01*
X312286D01*
Y202181D01*
X312402Y201600D01*
Y176677D01*
X312402Y176409D01*
X311915Y176189D01*
X311192Y176911D01*
X310580Y177381D01*
X309867Y177676D01*
X309102Y177777D01*
X307528D01*
Y180157D01*
X304956D01*
Y181819D01*
X308118D01*
Y188181D01*
X297882D01*
Y181819D01*
X299044D01*
Y180157D01*
X298472D01*
Y171890D01*
X304404D01*
X304596Y171864D01*
X307877D01*
X312431Y167310D01*
Y165809D01*
X312457Y165617D01*
Y159685D01*
X313044D01*
Y155118D01*
X312819D01*
Y144882D01*
X319181D01*
Y147044D01*
X319866D01*
Y145473D01*
X328134D01*
Y154527D01*
X319866D01*
Y152956D01*
X319181D01*
Y155118D01*
X318956D01*
Y159685D01*
X319543D01*
Y170709D01*
X317395D01*
X312370Y175733D01*
X312590Y176221D01*
X312823Y176221D01*
X337598D01*
Y203780D01*
X315714D01*
Y204882D01*
X317181D01*
Y215118D01*
D02*
G37*
G36*
X40551Y179181D02*
X39450D01*
X38386Y178896D01*
X37433Y178346D01*
X36654Y177567D01*
X36104Y176614D01*
X35819Y175550D01*
Y174450D01*
X36104Y173386D01*
X36654Y172433D01*
X37433Y171654D01*
X38386Y171104D01*
X39450Y170819D01*
X40551D01*
X41614Y171104D01*
X42567Y171654D01*
X43346Y172433D01*
X43896Y173386D01*
X44181Y174450D01*
Y175550D01*
X43896Y176614D01*
X43346Y177567D01*
X42567Y178346D01*
X41614Y178896D01*
X40551Y179181D01*
D02*
G37*
G36*
X169051Y175181D02*
X167949D01*
X166886Y174896D01*
X165933Y174346D01*
X165154Y173567D01*
X164604Y172614D01*
X164319Y171551D01*
Y170449D01*
X164604Y169386D01*
X165154Y168433D01*
X165933Y167654D01*
X166886Y167104D01*
X167949Y166819D01*
X169051D01*
X170114Y167104D01*
X171067Y167654D01*
X171846Y168433D01*
X172396Y169386D01*
X172681Y170449D01*
Y171551D01*
X172396Y172614D01*
X171846Y173567D01*
X171067Y174346D01*
X170114Y174896D01*
X169051Y175181D01*
D02*
G37*
G36*
X337362Y170528D02*
X334500D01*
Y165697D01*
X337362D01*
Y170528D01*
D02*
G37*
G36*
X333500D02*
X330638D01*
Y165697D01*
X333500D01*
Y170528D01*
D02*
G37*
G36*
X169027Y165000D02*
X169000D01*
Y161500D01*
X172500D01*
Y161527D01*
X172227Y162544D01*
X171701Y163456D01*
X170956Y164201D01*
X170044Y164727D01*
X169027Y165000D01*
D02*
G37*
G36*
X168000D02*
X167973D01*
X166956Y164727D01*
X166044Y164201D01*
X165299Y163456D01*
X164773Y162544D01*
X164500Y161527D01*
Y161500D01*
X168000D01*
Y165000D01*
D02*
G37*
G36*
X100550Y169181D02*
X99449D01*
X98386Y168896D01*
X97433Y168346D01*
X96654Y167567D01*
X96104Y166614D01*
X95819Y165550D01*
Y164450D01*
X96104Y163386D01*
X96654Y162433D01*
X97433Y161654D01*
X98386Y161104D01*
X99449Y160819D01*
X100550D01*
X101614Y161104D01*
X102567Y161654D01*
X103346Y162433D01*
X103896Y163386D01*
X104181Y164450D01*
Y165550D01*
X103896Y166614D01*
X103346Y167567D01*
X102567Y168346D01*
X101614Y168896D01*
X100550Y169181D01*
D02*
G37*
G36*
X40551D02*
X39450D01*
X38386Y168896D01*
X37433Y168346D01*
X36654Y167567D01*
X36104Y166614D01*
X35819Y165550D01*
Y164450D01*
X36104Y163386D01*
X36654Y162433D01*
X37433Y161654D01*
X38386Y161104D01*
X39450Y160819D01*
X40551D01*
X41614Y161104D01*
X42567Y161654D01*
X43346Y162433D01*
X43896Y163386D01*
X44181Y164450D01*
Y165550D01*
X43896Y166614D01*
X43346Y167567D01*
X42567Y168346D01*
X41614Y168896D01*
X40551Y169181D01*
D02*
G37*
G36*
X337362Y164697D02*
X334500D01*
Y159866D01*
X337362D01*
Y164697D01*
D02*
G37*
G36*
X333500D02*
X330638D01*
Y159866D01*
X333500D01*
Y164697D01*
D02*
G37*
G36*
X172500Y160500D02*
X169000D01*
Y157000D01*
X169027D01*
X170044Y157273D01*
X170956Y157799D01*
X171701Y158544D01*
X172227Y159456D01*
X172500Y160473D01*
Y160500D01*
D02*
G37*
G36*
X168000D02*
X164500D01*
Y160473D01*
X164773Y159456D01*
X165299Y158544D01*
X166044Y157799D01*
X166956Y157273D01*
X167973Y157000D01*
X168000D01*
Y160500D01*
D02*
G37*
G36*
X143051Y164181D02*
X141949D01*
X140886Y163896D01*
X139933Y163346D01*
X139154Y162567D01*
X138604Y161614D01*
X138319Y160550D01*
Y159450D01*
X138604Y158386D01*
X139154Y157433D01*
X139933Y156654D01*
X140886Y156104D01*
X141949Y155819D01*
X143051D01*
X144114Y156104D01*
X145067Y156654D01*
X145846Y157433D01*
X146396Y158386D01*
X146681Y159450D01*
Y160550D01*
X146396Y161614D01*
X145846Y162567D01*
X145067Y163346D01*
X144114Y163896D01*
X143051Y164181D01*
D02*
G37*
G36*
X100527Y159000D02*
X100500D01*
Y155500D01*
X104000D01*
Y155527D01*
X103727Y156544D01*
X103201Y157456D01*
X102456Y158201D01*
X101544Y158727D01*
X100527Y159000D01*
D02*
G37*
G36*
X99500D02*
X99473D01*
X98456Y158727D01*
X97544Y158201D01*
X96799Y157456D01*
X96273Y156544D01*
X96000Y155527D01*
Y155500D01*
X99500D01*
Y159000D01*
D02*
G37*
G36*
X104000Y154500D02*
X100500D01*
Y151000D01*
X100527D01*
X101544Y151273D01*
X102456Y151799D01*
X103201Y152544D01*
X103727Y153456D01*
X104000Y154473D01*
Y154500D01*
D02*
G37*
G36*
X99500D02*
X96000D01*
Y154473D01*
X96273Y153456D01*
X96799Y152544D01*
X97544Y151799D01*
X98456Y151273D01*
X99473Y151000D01*
X99500D01*
Y154500D01*
D02*
G37*
G36*
X40551Y159181D02*
X39450D01*
X38386Y158896D01*
X37433Y158346D01*
X36654Y157567D01*
X36162Y156714D01*
X27000D01*
X26344Y156584D01*
X25788Y156212D01*
X15788Y146212D01*
X15416Y145656D01*
X15286Y145000D01*
Y138838D01*
X14433Y138346D01*
X13654Y137567D01*
X13104Y136614D01*
X12819Y135550D01*
Y134450D01*
X13104Y133386D01*
X13654Y132433D01*
X14433Y131654D01*
X15386Y131104D01*
X16450Y130819D01*
X17550D01*
X18614Y131104D01*
X19567Y131654D01*
X20346Y132433D01*
X20896Y133386D01*
X21181Y134450D01*
Y135550D01*
X20896Y136614D01*
X20346Y137567D01*
X19567Y138346D01*
X18714Y138838D01*
Y144290D01*
X27710Y153286D01*
X36162D01*
X36654Y152433D01*
X37433Y151654D01*
X38386Y151104D01*
X39450Y150819D01*
X40551D01*
X41614Y151104D01*
X42567Y151654D01*
X43346Y152433D01*
X43896Y153386D01*
X44181Y154449D01*
Y155551D01*
X43896Y156614D01*
X43346Y157567D01*
X42567Y158346D01*
X41614Y158896D01*
X40551Y159181D01*
D02*
G37*
G36*
X338976Y154347D02*
X335524D01*
Y150500D01*
X338976D01*
Y154347D01*
D02*
G37*
G36*
X334524D02*
X331071D01*
Y150500D01*
X334524D01*
Y154347D01*
D02*
G37*
G36*
X307528Y169134D02*
X298472D01*
Y166103D01*
X298414Y165961D01*
X298287Y165000D01*
Y150290D01*
X298334Y149933D01*
X296045Y147644D01*
X295645Y147951D01*
X295896Y148386D01*
X296181Y149450D01*
Y150550D01*
X295896Y151614D01*
X295346Y152567D01*
X294567Y153346D01*
X293614Y153896D01*
X292550Y154181D01*
X291449D01*
X290386Y153896D01*
X289433Y153346D01*
X288654Y152567D01*
X288104Y151614D01*
X287819Y150550D01*
Y149450D01*
X288104Y148386D01*
X288654Y147433D01*
X289433Y146654D01*
X290386Y146104D01*
X291449Y145819D01*
X292550D01*
X293614Y146104D01*
X294049Y146355D01*
X294356Y145955D01*
X287114Y138713D01*
X218538D01*
X202213Y155038D01*
Y159069D01*
X202396Y159386D01*
X202681Y160450D01*
Y161550D01*
X202396Y162614D01*
X201846Y163567D01*
X201067Y164346D01*
X200114Y164896D01*
X199050Y165181D01*
X197950D01*
X196886Y164896D01*
X195933Y164346D01*
X195154Y163567D01*
X194604Y162614D01*
X194319Y161550D01*
Y160450D01*
X194604Y159386D01*
X194787Y159069D01*
Y153500D01*
X194914Y152539D01*
X195285Y151644D01*
X195875Y150875D01*
X214375Y132375D01*
X215144Y131785D01*
X216039Y131414D01*
X217000Y131287D01*
X288652D01*
X289613Y131414D01*
X290508Y131785D01*
X291277Y132375D01*
X303785Y144882D01*
X305471D01*
Y146737D01*
X305505Y146781D01*
X305876Y147677D01*
X306003Y148638D01*
Y150290D01*
X305876Y151251D01*
X305713Y151645D01*
Y160866D01*
X307528D01*
Y169134D01*
D02*
G37*
G36*
X346550Y154181D02*
X345449D01*
X344386Y153896D01*
X343433Y153346D01*
X342654Y152567D01*
X342104Y151614D01*
X341819Y150550D01*
Y149450D01*
X342104Y148386D01*
X342654Y147433D01*
X343433Y146654D01*
X344386Y146104D01*
X345449Y145819D01*
X346550D01*
X347614Y146104D01*
X348567Y146654D01*
X349346Y147433D01*
X349896Y148386D01*
X350181Y149450D01*
Y150550D01*
X349896Y151614D01*
X349346Y152567D01*
X348567Y153346D01*
X347614Y153896D01*
X346550Y154181D01*
D02*
G37*
G36*
X338976Y149500D02*
X335524D01*
Y145653D01*
X338976D01*
Y149500D01*
D02*
G37*
G36*
X334524D02*
X331071D01*
Y145653D01*
X334524D01*
Y149500D01*
D02*
G37*
G36*
X100550Y149181D02*
X99449D01*
X98386Y148896D01*
X97433Y148346D01*
X96654Y147567D01*
X96104Y146614D01*
X95819Y145551D01*
Y144449D01*
X96104Y143386D01*
X96654Y142433D01*
X97433Y141654D01*
X98386Y141104D01*
X99449Y140819D01*
X100550D01*
X101614Y141104D01*
X102567Y141654D01*
X103346Y142433D01*
X103896Y143386D01*
X104181Y144449D01*
Y145551D01*
X103896Y146614D01*
X103346Y147567D01*
X102567Y148346D01*
X101614Y148896D01*
X100550Y149181D01*
D02*
G37*
G36*
X40551D02*
X39450D01*
X38386Y148896D01*
X37433Y148346D01*
X36654Y147567D01*
X36104Y146614D01*
X35819Y145551D01*
Y144449D01*
X36104Y143386D01*
X36654Y142433D01*
X37433Y141654D01*
X38386Y141104D01*
X39450Y140819D01*
X40551D01*
X41614Y141104D01*
X42567Y141654D01*
X43346Y142433D01*
X43896Y143386D01*
X44181Y144449D01*
Y145551D01*
X43896Y146614D01*
X43346Y147567D01*
X42567Y148346D01*
X41614Y148896D01*
X40551Y149181D01*
D02*
G37*
G36*
X166000Y142367D02*
Y140500D01*
X167867D01*
X167516Y141347D01*
X166847Y142016D01*
X166000Y142367D01*
D02*
G37*
G36*
X165000D02*
X164153Y142016D01*
X163484Y141347D01*
X163133Y140500D01*
X165000D01*
Y142367D01*
D02*
G37*
G36*
X158500D02*
Y140500D01*
X160367D01*
X160016Y141347D01*
X159347Y142016D01*
X158500Y142367D01*
D02*
G37*
G36*
X157500D02*
X156653Y142016D01*
X155984Y141347D01*
X155633Y140500D01*
X157500D01*
Y142367D01*
D02*
G37*
G36*
X151000D02*
Y140500D01*
X152867D01*
X152516Y141347D01*
X151847Y142016D01*
X151000Y142367D01*
D02*
G37*
G36*
X150000D02*
X149153Y142016D01*
X148484Y141347D01*
X148133Y140500D01*
X150000D01*
Y142367D01*
D02*
G37*
G36*
X143500D02*
Y140500D01*
X145367D01*
X145016Y141347D01*
X144347Y142016D01*
X143500Y142367D01*
D02*
G37*
G36*
X142500D02*
X141653Y142016D01*
X140984Y141347D01*
X140633Y140500D01*
X142500D01*
Y142367D01*
D02*
G37*
G36*
X136000D02*
Y140500D01*
X137867D01*
X137516Y141347D01*
X136847Y142016D01*
X136000Y142367D01*
D02*
G37*
G36*
X135000D02*
X134153Y142016D01*
X133484Y141347D01*
X133133Y140500D01*
X135000D01*
Y142367D01*
D02*
G37*
G36*
X167867Y139500D02*
X166000D01*
Y137633D01*
X166847Y137984D01*
X167516Y138653D01*
X167867Y139500D01*
D02*
G37*
G36*
X165000D02*
X163133D01*
X163484Y138653D01*
X164153Y137984D01*
X165000Y137633D01*
Y139500D01*
D02*
G37*
G36*
X160367D02*
X158500D01*
Y137633D01*
X159347Y137984D01*
X160016Y138653D01*
X160367Y139500D01*
D02*
G37*
G36*
X157500D02*
X155633D01*
X155984Y138653D01*
X156653Y137984D01*
X157500Y137633D01*
Y139500D01*
D02*
G37*
G36*
X152867D02*
X151000D01*
Y137633D01*
X151847Y137984D01*
X152516Y138653D01*
X152867Y139500D01*
D02*
G37*
G36*
X150000D02*
X148133D01*
X148484Y138653D01*
X149153Y137984D01*
X150000Y137633D01*
Y139500D01*
D02*
G37*
G36*
X145367D02*
X143500D01*
Y137633D01*
X144347Y137984D01*
X145016Y138653D01*
X145367Y139500D01*
D02*
G37*
G36*
X142500D02*
X140633D01*
X140984Y138653D01*
X141653Y137984D01*
X142500Y137633D01*
Y139500D01*
D02*
G37*
G36*
X137867D02*
X136000D01*
Y137633D01*
X136847Y137984D01*
X137516Y138653D01*
X137867Y139500D01*
D02*
G37*
G36*
X135000D02*
X133133D01*
X133484Y138653D01*
X134153Y137984D01*
X135000Y137633D01*
Y139500D01*
D02*
G37*
G36*
X40527Y139000D02*
X40500D01*
Y135500D01*
X44000D01*
Y135527D01*
X43727Y136544D01*
X43201Y137456D01*
X42456Y138201D01*
X41544Y138727D01*
X40527Y139000D01*
D02*
G37*
G36*
X39500D02*
X39473D01*
X38456Y138727D01*
X37544Y138201D01*
X36799Y137456D01*
X36273Y136544D01*
X36000Y135527D01*
Y135500D01*
X39500D01*
Y139000D01*
D02*
G37*
G36*
X166000Y134867D02*
Y133000D01*
X167867D01*
X167516Y133847D01*
X166847Y134516D01*
X166000Y134867D01*
D02*
G37*
G36*
X165000D02*
X164153Y134516D01*
X163484Y133847D01*
X163133Y133000D01*
X165000D01*
Y134867D01*
D02*
G37*
G36*
X158500D02*
Y133000D01*
X160367D01*
X160016Y133847D01*
X159347Y134516D01*
X158500Y134867D01*
D02*
G37*
G36*
X157500D02*
X156653Y134516D01*
X155984Y133847D01*
X155633Y133000D01*
X157500D01*
Y134867D01*
D02*
G37*
G36*
X151000D02*
Y133000D01*
X152867D01*
X152516Y133847D01*
X151847Y134516D01*
X151000Y134867D01*
D02*
G37*
G36*
X150000D02*
X149153Y134516D01*
X148484Y133847D01*
X148133Y133000D01*
X150000D01*
Y134867D01*
D02*
G37*
G36*
X143500D02*
Y133000D01*
X145367D01*
X145016Y133847D01*
X144347Y134516D01*
X143500Y134867D01*
D02*
G37*
G36*
X142500D02*
X141653Y134516D01*
X140984Y133847D01*
X140633Y133000D01*
X142500D01*
Y134867D01*
D02*
G37*
G36*
X136000D02*
Y133000D01*
X137867D01*
X137516Y133847D01*
X136847Y134516D01*
X136000Y134867D01*
D02*
G37*
G36*
X135000D02*
X134153Y134516D01*
X133484Y133847D01*
X133133Y133000D01*
X135000D01*
Y134867D01*
D02*
G37*
G36*
X44000Y134500D02*
X40500D01*
Y131000D01*
X40527D01*
X41544Y131273D01*
X42456Y131799D01*
X43201Y132544D01*
X43727Y133456D01*
X44000Y134473D01*
Y134500D01*
D02*
G37*
G36*
X39500D02*
X36000D01*
Y134473D01*
X36273Y133456D01*
X36799Y132544D01*
X37544Y131799D01*
X38456Y131273D01*
X39473Y131000D01*
X39500D01*
Y134500D01*
D02*
G37*
G36*
X100550Y139181D02*
X99449D01*
X98386Y138896D01*
X97433Y138346D01*
X96654Y137567D01*
X96104Y136614D01*
X95819Y135550D01*
Y134450D01*
X96104Y133386D01*
X96654Y132433D01*
X97433Y131654D01*
X98386Y131104D01*
X99449Y130819D01*
X100550D01*
X101614Y131104D01*
X102567Y131654D01*
X103346Y132433D01*
X103896Y133386D01*
X104181Y134450D01*
Y135550D01*
X103896Y136614D01*
X103346Y137567D01*
X102567Y138346D01*
X101614Y138896D01*
X100550Y139181D01*
D02*
G37*
G36*
X167867Y132000D02*
X166000D01*
Y130133D01*
X166847Y130484D01*
X167516Y131153D01*
X167867Y132000D01*
D02*
G37*
G36*
X165000D02*
X163133D01*
X163484Y131153D01*
X164153Y130484D01*
X165000Y130133D01*
Y132000D01*
D02*
G37*
G36*
X160367D02*
X158500D01*
Y130133D01*
X159347Y130484D01*
X160016Y131153D01*
X160367Y132000D01*
D02*
G37*
G36*
X157500D02*
X155633D01*
X155984Y131153D01*
X156653Y130484D01*
X157500Y130133D01*
Y132000D01*
D02*
G37*
G36*
X152867D02*
X151000D01*
Y130133D01*
X151847Y130484D01*
X152516Y131153D01*
X152867Y132000D01*
D02*
G37*
G36*
X150000D02*
X148133D01*
X148484Y131153D01*
X149153Y130484D01*
X150000Y130133D01*
Y132000D01*
D02*
G37*
G36*
X145367D02*
X143500D01*
Y130133D01*
X144347Y130484D01*
X145016Y131153D01*
X145367Y132000D01*
D02*
G37*
G36*
X142500D02*
X140633D01*
X140984Y131153D01*
X141653Y130484D01*
X142500Y130133D01*
Y132000D01*
D02*
G37*
G36*
X137867D02*
X136000D01*
Y130133D01*
X136847Y130484D01*
X137516Y131153D01*
X137867Y132000D01*
D02*
G37*
G36*
X135000D02*
X133133D01*
X133484Y131153D01*
X134153Y130484D01*
X135000Y130133D01*
Y132000D01*
D02*
G37*
G36*
X298000Y129867D02*
Y128000D01*
X299867D01*
X299516Y128847D01*
X298847Y129516D01*
X298000Y129867D01*
D02*
G37*
G36*
X297000D02*
X296153Y129516D01*
X295484Y128847D01*
X295133Y128000D01*
X297000D01*
Y129867D01*
D02*
G37*
G36*
X290500D02*
Y128000D01*
X292367D01*
X292016Y128847D01*
X291347Y129516D01*
X290500Y129867D01*
D02*
G37*
G36*
X289500D02*
X288653Y129516D01*
X287984Y128847D01*
X287633Y128000D01*
X289500D01*
Y129867D01*
D02*
G37*
G36*
X166000Y127367D02*
Y125500D01*
X167867D01*
X167516Y126347D01*
X166847Y127016D01*
X166000Y127367D01*
D02*
G37*
G36*
X165000D02*
X164153Y127016D01*
X163484Y126347D01*
X163133Y125500D01*
X165000D01*
Y127367D01*
D02*
G37*
G36*
X158500D02*
Y125500D01*
X160367D01*
X160016Y126347D01*
X159347Y127016D01*
X158500Y127367D01*
D02*
G37*
G36*
X157500D02*
X156653Y127016D01*
X155984Y126347D01*
X155633Y125500D01*
X157500D01*
Y127367D01*
D02*
G37*
G36*
X151000D02*
Y125500D01*
X152867D01*
X152516Y126347D01*
X151847Y127016D01*
X151000Y127367D01*
D02*
G37*
G36*
X150000D02*
X149153Y127016D01*
X148484Y126347D01*
X148133Y125500D01*
X150000D01*
Y127367D01*
D02*
G37*
G36*
X143500D02*
Y125500D01*
X145367D01*
X145016Y126347D01*
X144347Y127016D01*
X143500Y127367D01*
D02*
G37*
G36*
X142500D02*
X141653Y127016D01*
X140984Y126347D01*
X140633Y125500D01*
X142500D01*
Y127367D01*
D02*
G37*
G36*
X136000D02*
Y125500D01*
X137867D01*
X137516Y126347D01*
X136847Y127016D01*
X136000Y127367D01*
D02*
G37*
G36*
X135000D02*
X134153Y127016D01*
X133484Y126347D01*
X133133Y125500D01*
X135000D01*
Y127367D01*
D02*
G37*
G36*
X299867Y127000D02*
X298000D01*
Y125133D01*
X298847Y125484D01*
X299516Y126153D01*
X299867Y127000D01*
D02*
G37*
G36*
X297000D02*
X295133D01*
X295484Y126153D01*
X296153Y125484D01*
X297000Y125133D01*
Y127000D01*
D02*
G37*
G36*
X292367D02*
X290500D01*
Y125133D01*
X291347Y125484D01*
X292016Y126153D01*
X292367Y127000D01*
D02*
G37*
G36*
X289500D02*
X287633D01*
X287984Y126153D01*
X288653Y125484D01*
X289500Y125133D01*
Y127000D01*
D02*
G37*
G36*
X167867Y124500D02*
X166000D01*
Y122633D01*
X166847Y122984D01*
X167516Y123653D01*
X167867Y124500D01*
D02*
G37*
G36*
X165000D02*
X163133D01*
X163484Y123653D01*
X164153Y122984D01*
X165000Y122633D01*
Y124500D01*
D02*
G37*
G36*
X160367D02*
X158500D01*
Y122633D01*
X159347Y122984D01*
X160016Y123653D01*
X160367Y124500D01*
D02*
G37*
G36*
X157500D02*
X155633D01*
X155984Y123653D01*
X156653Y122984D01*
X157500Y122633D01*
Y124500D01*
D02*
G37*
G36*
X152867D02*
X151000D01*
Y122633D01*
X151847Y122984D01*
X152516Y123653D01*
X152867Y124500D01*
D02*
G37*
G36*
X150000D02*
X148133D01*
X148484Y123653D01*
X149153Y122984D01*
X150000Y122633D01*
Y124500D01*
D02*
G37*
G36*
X145367D02*
X143500D01*
Y122633D01*
X144347Y122984D01*
X145016Y123653D01*
X145367Y124500D01*
D02*
G37*
G36*
X142500D02*
X140633D01*
X140984Y123653D01*
X141653Y122984D01*
X142500Y122633D01*
Y124500D01*
D02*
G37*
G36*
X137867D02*
X136000D01*
Y122633D01*
X136847Y122984D01*
X137516Y123653D01*
X137867Y124500D01*
D02*
G37*
G36*
X135000D02*
X133133D01*
X133484Y123653D01*
X134153Y122984D01*
X135000Y122633D01*
Y124500D01*
D02*
G37*
G36*
X100550Y129181D02*
X99449D01*
X98386Y128896D01*
X97433Y128346D01*
X96654Y127567D01*
X96104Y126614D01*
X95819Y125550D01*
Y124450D01*
X96104Y123386D01*
X96654Y122433D01*
X97433Y121654D01*
X98386Y121104D01*
X99449Y120819D01*
X100550D01*
X101614Y121104D01*
X102567Y121654D01*
X103346Y122433D01*
X103896Y123386D01*
X104181Y124450D01*
Y125550D01*
X103896Y126614D01*
X103346Y127567D01*
X102567Y128346D01*
X101614Y128896D01*
X100550Y129181D01*
D02*
G37*
G36*
X40551D02*
X39450D01*
X38386Y128896D01*
X37433Y128346D01*
X36654Y127567D01*
X36104Y126614D01*
X35819Y125550D01*
Y124450D01*
X36104Y123386D01*
X36654Y122433D01*
X37433Y121654D01*
X38386Y121104D01*
X39450Y120819D01*
X40551D01*
X41614Y121104D01*
X42567Y121654D01*
X43346Y122433D01*
X43896Y123386D01*
X44181Y124450D01*
Y125550D01*
X43896Y126614D01*
X43346Y127567D01*
X42567Y128346D01*
X41614Y128896D01*
X40551Y129181D01*
D02*
G37*
G36*
X17550D02*
X16450D01*
X15386Y128896D01*
X14433Y128346D01*
X13654Y127567D01*
X13104Y126614D01*
X12819Y125550D01*
Y124450D01*
X13104Y123386D01*
X13654Y122433D01*
X14433Y121654D01*
X15386Y121104D01*
X16450Y120819D01*
X17550D01*
X18614Y121104D01*
X19567Y121654D01*
X20346Y122433D01*
X20896Y123386D01*
X21181Y124450D01*
Y125550D01*
X20896Y126614D01*
X20346Y127567D01*
X19567Y128346D01*
X18614Y128896D01*
X17550Y129181D01*
D02*
G37*
G36*
X330710Y124937D02*
X328210D01*
Y120500D01*
X330710D01*
Y124937D01*
D02*
G37*
G36*
X327210D02*
X324710D01*
Y120500D01*
X327210D01*
Y124937D01*
D02*
G37*
G36*
X17527Y119000D02*
X17500D01*
Y115500D01*
X21000D01*
Y115527D01*
X20727Y116544D01*
X20201Y117456D01*
X19456Y118201D01*
X18544Y118727D01*
X17527Y119000D01*
D02*
G37*
G36*
X16500D02*
X16473D01*
X15456Y118727D01*
X14544Y118201D01*
X13799Y117456D01*
X13273Y116544D01*
X13000Y115527D01*
Y115500D01*
X16500D01*
Y119000D01*
D02*
G37*
G36*
X330710Y119500D02*
X328210D01*
Y115063D01*
X330710D01*
Y119500D01*
D02*
G37*
G36*
X327210D02*
X324710D01*
Y115063D01*
X327210D01*
Y119500D01*
D02*
G37*
G36*
X276181Y125118D02*
X269819D01*
Y114882D01*
X271286D01*
Y113779D01*
X257871D01*
X257563Y113779D01*
X257323Y114247D01*
X257925Y114849D01*
X258215D01*
X258381Y114882D01*
X262471D01*
Y125118D01*
X256109D01*
Y117846D01*
X256003Y117775D01*
X250119Y111891D01*
X241882D01*
Y105529D01*
X248723D01*
Y102599D01*
X248853Y101943D01*
X249225Y101387D01*
X251931Y98681D01*
X251724Y98181D01*
X241882D01*
Y91819D01*
X244044D01*
Y90158D01*
X242472D01*
Y81890D01*
X248011D01*
X248203Y81865D01*
X248955D01*
X251185Y79634D01*
X250978Y79134D01*
X243117D01*
X237625Y84625D01*
X236856Y85215D01*
X235961Y85586D01*
X235000Y85713D01*
X208538D01*
X202067Y92184D01*
X201846Y92567D01*
X201067Y93346D01*
X200114Y93896D01*
X199050Y94181D01*
X197950D01*
X196886Y93896D01*
X195933Y93346D01*
X195154Y92567D01*
X194604Y91614D01*
X194319Y90551D01*
Y89450D01*
X194604Y88386D01*
X195154Y87433D01*
X195933Y86654D01*
X196886Y86104D01*
X197923Y85826D01*
X199081Y84669D01*
X198861Y84181D01*
X197950D01*
X196886Y83896D01*
X195933Y83346D01*
X195154Y82567D01*
X194604Y81614D01*
X194319Y80550D01*
Y79449D01*
X194604Y78386D01*
X195154Y77433D01*
X195933Y76654D01*
X196886Y76104D01*
X197950Y75819D01*
X199050D01*
X200114Y76104D01*
X200658Y76418D01*
X214363Y62713D01*
X214319Y62550D01*
Y61449D01*
X214604Y60386D01*
X215154Y59433D01*
X215933Y58654D01*
X216886Y58104D01*
X217950Y57819D01*
X219051D01*
X220002Y58074D01*
X226288Y51788D01*
X226400Y51713D01*
X226249Y51213D01*
X215038D01*
X202213Y64038D01*
Y68069D01*
X202396Y68386D01*
X202681Y69450D01*
Y70551D01*
X202396Y71614D01*
X201846Y72567D01*
X201067Y73346D01*
X200114Y73896D01*
X199050Y74181D01*
X197950D01*
X196886Y73896D01*
X195933Y73346D01*
X195154Y72567D01*
X194604Y71614D01*
X194319Y70551D01*
Y69450D01*
X194604Y68386D01*
X194787Y68069D01*
Y62500D01*
X194914Y61539D01*
X195285Y60644D01*
X195875Y59875D01*
X210875Y44875D01*
X211644Y44285D01*
X212539Y43914D01*
X213500Y43787D01*
X292152D01*
X293113Y43914D01*
X294008Y44285D01*
X294777Y44875D01*
X303840Y53938D01*
X303840Y53938D01*
X304785Y54882D01*
X305471D01*
Y55737D01*
X305505Y55781D01*
X305876Y56677D01*
X306003Y57638D01*
Y70866D01*
X307528D01*
Y79134D01*
X298472D01*
Y70866D01*
X298577D01*
Y59176D01*
X290614Y51213D01*
X274251D01*
X274100Y51713D01*
X274212Y51788D01*
X277896Y55472D01*
X284134D01*
Y64527D01*
X280714D01*
Y69685D01*
X282543D01*
Y80709D01*
X277881D01*
X274377Y84212D01*
X273821Y84584D01*
X273165Y84714D01*
X260210D01*
X259166Y85759D01*
X259357Y86221D01*
X282598D01*
Y113779D01*
X274714D01*
Y114882D01*
X276181D01*
Y125118D01*
D02*
G37*
G36*
X21000Y114500D02*
X17500D01*
Y111000D01*
X17527D01*
X18544Y111273D01*
X19456Y111799D01*
X20201Y112544D01*
X20727Y113456D01*
X21000Y114473D01*
Y114500D01*
D02*
G37*
G36*
X16500D02*
X13000D01*
Y114473D01*
X13273Y113456D01*
X13799Y112544D01*
X14544Y111799D01*
X15456Y111273D01*
X16473Y111000D01*
X16500D01*
Y114500D01*
D02*
G37*
G36*
X307937Y111710D02*
X303500D01*
Y109210D01*
X307937D01*
Y111710D01*
D02*
G37*
G36*
X302500D02*
X298063D01*
Y109210D01*
X302500D01*
Y111710D01*
D02*
G37*
G36*
X307937Y108210D02*
X303500D01*
Y105710D01*
X307937D01*
Y108210D01*
D02*
G37*
G36*
X302500D02*
X298063D01*
Y105710D01*
X302500D01*
Y108210D01*
D02*
G37*
G36*
X289000Y107367D02*
Y105500D01*
X290867D01*
X290516Y106347D01*
X289847Y107016D01*
X289000Y107367D01*
D02*
G37*
G36*
X288000D02*
X287153Y107016D01*
X286484Y106347D01*
X286133Y105500D01*
X288000D01*
Y107367D01*
D02*
G37*
G36*
X290867Y104500D02*
X289000D01*
Y102633D01*
X289847Y102984D01*
X290516Y103653D01*
X290867Y104500D01*
D02*
G37*
G36*
X288000D02*
X286133D01*
X286484Y103653D01*
X287153Y102984D01*
X288000Y102633D01*
Y104500D01*
D02*
G37*
G36*
X289118Y99842D02*
Y97975D01*
X290985D01*
X290634Y98822D01*
X289965Y99491D01*
X289118Y99842D01*
D02*
G37*
G36*
X288118D02*
X287271Y99491D01*
X286602Y98822D01*
X286251Y97975D01*
X288118D01*
Y99842D01*
D02*
G37*
G36*
X219051Y106181D02*
X217950D01*
X216886Y105896D01*
X215933Y105346D01*
X215154Y104567D01*
X214604Y103614D01*
X214319Y102550D01*
Y101450D01*
X214604Y100386D01*
X215154Y99433D01*
X215933Y98654D01*
X216886Y98104D01*
X217950Y97819D01*
X219051D01*
X220114Y98104D01*
X221067Y98654D01*
X221846Y99433D01*
X222396Y100386D01*
X222681Y101450D01*
Y102550D01*
X222396Y103614D01*
X221846Y104567D01*
X221067Y105346D01*
X220114Y105896D01*
X219051Y106181D01*
D02*
G37*
G36*
X192891Y121118D02*
X186529D01*
Y117901D01*
X186495Y117856D01*
X186124Y116961D01*
X185997Y116000D01*
Y113638D01*
X186124Y112677D01*
X186495Y111781D01*
X186529Y111737D01*
Y110882D01*
X187215D01*
X194787Y103310D01*
Y101931D01*
X194604Y101614D01*
X194319Y100550D01*
Y99449D01*
X194604Y98386D01*
X195154Y97433D01*
X195933Y96654D01*
X196886Y96104D01*
X197950Y95819D01*
X199050D01*
X200114Y96104D01*
X201067Y96654D01*
X201846Y97433D01*
X202396Y98386D01*
X202681Y99449D01*
Y100550D01*
X202396Y101614D01*
X202213Y101931D01*
Y104848D01*
X202086Y105809D01*
X201715Y106704D01*
X201125Y107473D01*
X193423Y115176D01*
Y116000D01*
X193297Y116961D01*
X192926Y117856D01*
X192891Y117901D01*
Y121118D01*
D02*
G37*
G36*
X179181D02*
X172819D01*
Y117901D01*
X172785Y117856D01*
X172414Y116961D01*
X172287Y116000D01*
Y115176D01*
X165875Y108763D01*
X165285Y107994D01*
X164914Y107099D01*
X164787Y106138D01*
Y101931D01*
X164604Y101614D01*
X164319Y100550D01*
Y99449D01*
X164604Y98386D01*
X165154Y97433D01*
X165933Y96654D01*
X166886Y96104D01*
X167949Y95819D01*
X169051D01*
X170114Y96104D01*
X171067Y96654D01*
X171846Y97433D01*
X172396Y98386D01*
X172681Y99449D01*
Y100550D01*
X172396Y101614D01*
X172213Y101931D01*
Y104600D01*
X178495Y110882D01*
X179181D01*
Y111737D01*
X179215Y111781D01*
X179586Y112677D01*
X179713Y113638D01*
Y116000D01*
X179586Y116961D01*
X179215Y117856D01*
X179181Y117901D01*
Y121118D01*
D02*
G37*
G36*
X290985Y96975D02*
X289118D01*
Y95109D01*
X289965Y95460D01*
X290634Y96128D01*
X290985Y96975D01*
D02*
G37*
G36*
X288118D02*
X286251D01*
X286602Y96128D01*
X287271Y95460D01*
X288118Y95109D01*
Y96975D01*
D02*
G37*
G36*
X25500Y94867D02*
Y93000D01*
X27367D01*
X27016Y93847D01*
X26347Y94516D01*
X25500Y94867D01*
D02*
G37*
G36*
X24500D02*
X23653Y94516D01*
X22984Y93847D01*
X22633Y93000D01*
X24500D01*
Y94867D01*
D02*
G37*
G36*
X18000D02*
Y93000D01*
X19867D01*
X19516Y93847D01*
X18847Y94516D01*
X18000Y94867D01*
D02*
G37*
G36*
X17000D02*
X16153Y94516D01*
X15484Y93847D01*
X15133Y93000D01*
X17000D01*
Y94867D01*
D02*
G37*
G36*
X219027Y96000D02*
X219000D01*
Y92500D01*
X222500D01*
Y92527D01*
X222227Y93544D01*
X221701Y94456D01*
X220956Y95201D01*
X220044Y95727D01*
X219027Y96000D01*
D02*
G37*
G36*
X218000D02*
X217973D01*
X216956Y95727D01*
X216044Y95201D01*
X215299Y94456D01*
X214773Y93544D01*
X214500Y92527D01*
Y92500D01*
X218000D01*
Y96000D01*
D02*
G37*
G36*
X27367Y92000D02*
X25500D01*
Y90133D01*
X26347Y90484D01*
X27016Y91153D01*
X27367Y92000D01*
D02*
G37*
G36*
X24500D02*
X22633D01*
X22984Y91153D01*
X23653Y90484D01*
X24500Y90133D01*
Y92000D01*
D02*
G37*
G36*
X19867D02*
X18000D01*
Y90133D01*
X18847Y90484D01*
X19516Y91153D01*
X19867Y92000D01*
D02*
G37*
G36*
X17000D02*
X15133D01*
X15484Y91153D01*
X16153Y90484D01*
X17000Y90133D01*
Y92000D01*
D02*
G37*
G36*
X222500Y91500D02*
X219000D01*
Y88000D01*
X219027D01*
X220044Y88273D01*
X220956Y88799D01*
X221701Y89544D01*
X222227Y90456D01*
X222500Y91473D01*
Y91500D01*
D02*
G37*
G36*
X218000D02*
X214500D01*
Y91473D01*
X214773Y90456D01*
X215299Y89544D01*
X216044Y88799D01*
X216956Y88273D01*
X217973Y88000D01*
X218000D01*
Y91500D01*
D02*
G37*
G36*
X317181Y125118D02*
X310819D01*
Y114882D01*
X312286D01*
Y112181D01*
X312402Y111600D01*
Y86221D01*
X337598D01*
Y113779D01*
X315714D01*
Y114882D01*
X317181D01*
Y125118D01*
D02*
G37*
G36*
X100550Y259181D02*
X99449D01*
X98386Y258896D01*
X97433Y258346D01*
X96654Y257567D01*
X96104Y256614D01*
X95819Y255551D01*
Y254450D01*
X96104Y253386D01*
X96654Y252433D01*
X97433Y251654D01*
X98386Y251104D01*
X99449Y250819D01*
X100550D01*
X101502Y251074D01*
X107286Y245290D01*
Y201000D01*
X107416Y200344D01*
X107788Y199788D01*
X114286Y193290D01*
Y124000D01*
X114416Y123344D01*
X114788Y122788D01*
X138574Y99002D01*
X138319Y98050D01*
Y96949D01*
X138604Y95886D01*
X139154Y94933D01*
X139933Y94154D01*
X140886Y93604D01*
X141949Y93319D01*
X143051D01*
X144002Y93574D01*
X148788Y88788D01*
X149344Y88416D01*
X150000Y88286D01*
X164662D01*
X165154Y87433D01*
X165933Y86654D01*
X166886Y86104D01*
X167949Y85819D01*
X169051D01*
X170114Y86104D01*
X171067Y86654D01*
X171846Y87433D01*
X172396Y88386D01*
X172681Y89450D01*
Y90551D01*
X172396Y91614D01*
X171846Y92567D01*
X171067Y93346D01*
X170114Y93896D01*
X169051Y94181D01*
X167949D01*
X166886Y93896D01*
X165933Y93346D01*
X165154Y92567D01*
X164662Y91714D01*
X150710D01*
X146426Y95998D01*
X146681Y96949D01*
Y98050D01*
X146396Y99114D01*
X145846Y100067D01*
X145067Y100846D01*
X144114Y101396D01*
X143051Y101681D01*
X141949D01*
X141615Y101592D01*
X141000Y101714D01*
X140710D01*
X117714Y124710D01*
Y194000D01*
X117584Y194656D01*
X117212Y195212D01*
X110714Y201710D01*
Y246000D01*
X110584Y246656D01*
X110212Y247212D01*
X103926Y253498D01*
X104181Y254450D01*
Y255551D01*
X103896Y256614D01*
X103346Y257567D01*
X102567Y258346D01*
X101614Y258896D01*
X100550Y259181D01*
D02*
G37*
G36*
X25500Y87367D02*
Y85500D01*
X27367D01*
X27016Y86347D01*
X26347Y87016D01*
X25500Y87367D01*
D02*
G37*
G36*
X24500D02*
X23653Y87016D01*
X22984Y86347D01*
X22633Y85500D01*
X24500D01*
Y87367D01*
D02*
G37*
G36*
X18000D02*
Y85500D01*
X19867D01*
X19516Y86347D01*
X18847Y87016D01*
X18000Y87367D01*
D02*
G37*
G36*
X17000D02*
X16153Y87016D01*
X15484Y86347D01*
X15133Y85500D01*
X17000D01*
Y87367D01*
D02*
G37*
G36*
X27367Y84500D02*
X25500D01*
Y82633D01*
X26347Y82984D01*
X27016Y83653D01*
X27367Y84500D01*
D02*
G37*
G36*
X24500D02*
X22633D01*
X22984Y83653D01*
X23653Y82984D01*
X24500Y82633D01*
Y84500D01*
D02*
G37*
G36*
X19867D02*
X18000D01*
Y82633D01*
X18847Y82984D01*
X19516Y83653D01*
X19867Y84500D01*
D02*
G37*
G36*
X17000D02*
X15133D01*
X15484Y83653D01*
X16153Y82984D01*
X17000Y82633D01*
Y84500D01*
D02*
G37*
G36*
X25500Y79867D02*
Y78000D01*
X27367D01*
X27016Y78847D01*
X26347Y79516D01*
X25500Y79867D01*
D02*
G37*
G36*
X24500D02*
X23653Y79516D01*
X22984Y78847D01*
X22633Y78000D01*
X24500D01*
Y79867D01*
D02*
G37*
G36*
X18000D02*
Y78000D01*
X19867D01*
X19516Y78847D01*
X18847Y79516D01*
X18000Y79867D01*
D02*
G37*
G36*
X17000D02*
X16153Y79516D01*
X15484Y78847D01*
X15133Y78000D01*
X17000D01*
Y79867D01*
D02*
G37*
G36*
X100550Y179181D02*
X99449D01*
X98386Y178896D01*
X97433Y178346D01*
X96654Y177567D01*
X96104Y176614D01*
X95819Y175550D01*
Y174450D01*
X96104Y173386D01*
X96654Y172433D01*
X97433Y171654D01*
X98386Y171104D01*
X99449Y170819D01*
X100550D01*
X101502Y171074D01*
X110286Y162290D01*
Y103000D01*
X110416Y102344D01*
X110788Y101788D01*
X133788Y78788D01*
X134344Y78416D01*
X135000Y78286D01*
X140786D01*
Y73838D01*
X139933Y73346D01*
X139154Y72567D01*
X138604Y71614D01*
X138319Y70551D01*
Y69450D01*
X138604Y68386D01*
X139154Y67433D01*
X139933Y66654D01*
X140886Y66104D01*
X141949Y65819D01*
X143051D01*
X144114Y66104D01*
X145067Y66654D01*
X145846Y67433D01*
X146396Y68386D01*
X146681Y69450D01*
Y70551D01*
X146396Y71614D01*
X145846Y72567D01*
X145067Y73346D01*
X144214Y73838D01*
Y78286D01*
X164662D01*
X165154Y77433D01*
X165933Y76654D01*
X166886Y76104D01*
X167949Y75819D01*
X169051D01*
X170114Y76104D01*
X171067Y76654D01*
X171846Y77433D01*
X172396Y78386D01*
X172681Y79449D01*
Y80550D01*
X172396Y81614D01*
X171846Y82567D01*
X171067Y83346D01*
X170114Y83896D01*
X169051Y84181D01*
X167949D01*
X166886Y83896D01*
X165933Y83346D01*
X165154Y82567D01*
X164662Y81714D01*
X135710D01*
X113714Y103710D01*
Y163000D01*
X113584Y163656D01*
X113212Y164212D01*
X103926Y173498D01*
X104181Y174450D01*
Y175550D01*
X103896Y176614D01*
X103346Y177567D01*
X102567Y178346D01*
X101614Y178896D01*
X100550Y179181D01*
D02*
G37*
G36*
X337362Y80528D02*
X334500D01*
Y75697D01*
X337362D01*
Y80528D01*
D02*
G37*
G36*
X333500D02*
X330638D01*
Y75697D01*
X333500D01*
Y80528D01*
D02*
G37*
G36*
X27367Y77000D02*
X25500D01*
Y75133D01*
X26347Y75484D01*
X27016Y76153D01*
X27367Y77000D01*
D02*
G37*
G36*
X24500D02*
X22633D01*
X22984Y76153D01*
X23653Y75484D01*
X24500Y75133D01*
Y77000D01*
D02*
G37*
G36*
X19867D02*
X18000D01*
Y75133D01*
X18847Y75484D01*
X19516Y76153D01*
X19867Y77000D01*
D02*
G37*
G36*
X17000D02*
X15133D01*
X15484Y76153D01*
X16153Y75484D01*
X17000Y75133D01*
Y77000D01*
D02*
G37*
G36*
X169027Y74000D02*
X169000D01*
Y70500D01*
X172500D01*
Y70527D01*
X172227Y71544D01*
X171701Y72456D01*
X170956Y73201D01*
X170044Y73727D01*
X169027Y74000D01*
D02*
G37*
G36*
X168000D02*
X167973D01*
X166956Y73727D01*
X166044Y73201D01*
X165299Y72456D01*
X164773Y71544D01*
X164500Y70527D01*
Y70500D01*
X168000D01*
Y74000D01*
D02*
G37*
G36*
X25500Y72367D02*
Y70500D01*
X27367D01*
X27016Y71347D01*
X26347Y72016D01*
X25500Y72367D01*
D02*
G37*
G36*
X24500D02*
X23653Y72016D01*
X22984Y71347D01*
X22633Y70500D01*
X24500D01*
Y72367D01*
D02*
G37*
G36*
X18000D02*
Y70500D01*
X19867D01*
X19516Y71347D01*
X18847Y72016D01*
X18000Y72367D01*
D02*
G37*
G36*
X17000D02*
X16153Y72016D01*
X15484Y71347D01*
X15133Y70500D01*
X17000D01*
Y72367D01*
D02*
G37*
G36*
X337362Y74697D02*
X334500D01*
Y69866D01*
X337362D01*
Y74697D01*
D02*
G37*
G36*
X333500D02*
X330638D01*
Y69866D01*
X333500D01*
Y74697D01*
D02*
G37*
G36*
X27367Y69500D02*
X25500D01*
Y67633D01*
X26347Y67984D01*
X27016Y68653D01*
X27367Y69500D01*
D02*
G37*
G36*
X24500D02*
X22633D01*
X22984Y68653D01*
X23653Y67984D01*
X24500Y67633D01*
Y69500D01*
D02*
G37*
G36*
X19867D02*
X18000D01*
Y67633D01*
X18847Y67984D01*
X19516Y68653D01*
X19867Y69500D01*
D02*
G37*
G36*
X17000D02*
X15133D01*
X15484Y68653D01*
X16153Y67984D01*
X17000Y67633D01*
Y69500D01*
D02*
G37*
G36*
X172500D02*
X169000D01*
Y66000D01*
X169027D01*
X170044Y66273D01*
X170956Y66799D01*
X171701Y67544D01*
X172227Y68456D01*
X172500Y69473D01*
Y69500D01*
D02*
G37*
G36*
X168000D02*
X164500D01*
Y69473D01*
X164773Y68456D01*
X165299Y67544D01*
X166044Y66799D01*
X166956Y66273D01*
X167973Y66000D01*
X168000D01*
Y69500D01*
D02*
G37*
G36*
X21528Y249134D02*
X12472D01*
Y240866D01*
X21528D01*
Y243286D01*
X29290D01*
X36074Y236502D01*
X35819Y235550D01*
Y234450D01*
X36104Y233386D01*
X36654Y232433D01*
X37433Y231654D01*
X38386Y231104D01*
X39450Y230819D01*
X40551D01*
X41502Y231074D01*
X78286Y194290D01*
Y103000D01*
X78416Y102344D01*
X78788Y101788D01*
X109074Y71502D01*
X108819Y70551D01*
Y69450D01*
X109104Y68386D01*
X109654Y67433D01*
X110433Y66654D01*
X111386Y66104D01*
X112450Y65819D01*
X113550D01*
X114614Y66104D01*
X115567Y66654D01*
X116346Y67433D01*
X116896Y68386D01*
X117181Y69450D01*
Y70551D01*
X116896Y71614D01*
X116346Y72567D01*
X115567Y73346D01*
X114614Y73896D01*
X113550Y74181D01*
X112450D01*
X111498Y73926D01*
X81714Y103710D01*
Y195000D01*
X81584Y195656D01*
X81212Y196212D01*
X43926Y233498D01*
X44181Y234450D01*
Y235550D01*
X43896Y236614D01*
X43346Y237567D01*
X42567Y238346D01*
X41614Y238896D01*
X40551Y239181D01*
X39450D01*
X38498Y238926D01*
X31212Y246212D01*
X30656Y246584D01*
X30000Y246714D01*
X21528D01*
Y249134D01*
D02*
G37*
G36*
X362500Y220213D02*
X357500D01*
X356539Y220086D01*
X355644Y219715D01*
X354875Y219125D01*
X354285Y218356D01*
X353914Y217461D01*
X353787Y216500D01*
Y211500D01*
X353914Y210539D01*
X353973Y210397D01*
X344788Y201212D01*
X344416Y200656D01*
X344286Y200000D01*
Y161000D01*
X344416Y160344D01*
X344788Y159788D01*
X352286Y152290D01*
Y55710D01*
X338290Y41714D01*
X174710D01*
X162212Y54212D01*
X161656Y54584D01*
X161000Y54714D01*
X77024D01*
X76368Y54584D01*
X75812Y54212D01*
X70127Y48528D01*
X63890D01*
Y39472D01*
X72158D01*
Y45710D01*
X77734Y51286D01*
X159953D01*
X159996Y51214D01*
X159713Y50714D01*
X109024D01*
X108368Y50584D01*
X107812Y50212D01*
X105127Y47528D01*
X98890D01*
Y38472D01*
X107158D01*
Y44710D01*
X109734Y47286D01*
X122866D01*
Y38472D01*
X125286D01*
Y35528D01*
X122866D01*
Y26472D01*
X128710D01*
X130193Y24990D01*
X130001Y24528D01*
X122866D01*
Y15714D01*
X107158D01*
Y24528D01*
X100736D01*
X100571Y24561D01*
X100470D01*
X98739Y26291D01*
X99084Y26654D01*
X99566Y26654D01*
X102524D01*
Y30500D01*
X99071D01*
Y27153D01*
X99071Y26667D01*
X98708Y26322D01*
X96134Y28896D01*
Y35528D01*
X93714D01*
Y38472D01*
X96134D01*
Y47528D01*
X87866D01*
Y38472D01*
X90286D01*
Y35528D01*
X87866D01*
Y26472D01*
X93710D01*
X95193Y24990D01*
X95002Y24528D01*
X87866D01*
Y15714D01*
X59770D01*
X59542Y15999D01*
X59750Y16473D01*
X61134D01*
Y24395D01*
X61596Y24587D01*
X63548Y22635D01*
X63890Y22406D01*
Y16473D01*
X72158D01*
Y25528D01*
X65737D01*
X65571Y25561D01*
X65470D01*
X63740Y27291D01*
X64084Y27654D01*
X64565Y27654D01*
X67524D01*
Y31500D01*
X64071D01*
Y28153D01*
X64071Y27667D01*
X63708Y27322D01*
X61134Y29896D01*
Y36528D01*
X58714D01*
Y39472D01*
X61134D01*
Y48528D01*
X58714D01*
Y58790D01*
X65998Y66074D01*
X66949Y65819D01*
X68050D01*
X69114Y66104D01*
X70067Y66654D01*
X70429Y67016D01*
X70462Y67038D01*
X70484Y67071D01*
X70846Y67433D01*
X71396Y68386D01*
X71681Y69450D01*
Y70551D01*
X71396Y71614D01*
X70964Y72362D01*
Y188750D01*
X70834Y189406D01*
X70462Y189962D01*
X45169Y215255D01*
X44613Y215627D01*
X44135Y215722D01*
X43896Y216614D01*
X43346Y217567D01*
X42567Y218346D01*
X41614Y218896D01*
X40551Y219181D01*
X39450D01*
X38386Y218896D01*
X37433Y218346D01*
X36654Y217567D01*
X36104Y216614D01*
X35819Y215550D01*
Y214450D01*
X36074Y213498D01*
X29290Y206714D01*
X21528D01*
Y209134D01*
X12472D01*
Y200866D01*
X21528D01*
Y203286D01*
X30000D01*
X30656Y203416D01*
X31212Y203788D01*
X38498Y211074D01*
X39450Y210819D01*
X40551D01*
X41614Y211104D01*
X42567Y211654D01*
X43242Y212329D01*
X43247D01*
X67536Y188040D01*
Y74181D01*
X66949D01*
X65886Y73896D01*
X64933Y73346D01*
X64154Y72567D01*
X63604Y71614D01*
X63319Y70551D01*
Y69450D01*
X63574Y68498D01*
X55788Y60712D01*
X55416Y60156D01*
X55286Y59500D01*
Y48528D01*
X52866D01*
Y39472D01*
X55286D01*
Y36528D01*
X52866D01*
Y28211D01*
X52404Y28020D01*
X44214Y36210D01*
Y66162D01*
X45067Y66654D01*
X45846Y67433D01*
X46396Y68386D01*
X46681Y69450D01*
Y70551D01*
X46396Y71614D01*
X45846Y72567D01*
X45067Y73346D01*
X44114Y73896D01*
X43051Y74181D01*
X41949D01*
X40886Y73896D01*
X39933Y73346D01*
X39154Y72567D01*
X38604Y71614D01*
X38319Y70551D01*
Y69450D01*
X38604Y68386D01*
X39154Y67433D01*
X39933Y66654D01*
X40786Y66162D01*
Y35500D01*
X40916Y34844D01*
X41288Y34288D01*
X52866Y22710D01*
Y16473D01*
X55286D01*
Y16000D01*
X55416Y15344D01*
X55788Y14788D01*
X57788Y12788D01*
X58344Y12416D01*
X59000Y12286D01*
X125000D01*
X125656Y12416D01*
X126212Y12788D01*
X127951Y14527D01*
X128323Y15083D01*
X128400Y15473D01*
X131134D01*
Y23395D01*
X131596Y23586D01*
X133548Y21634D01*
X133890Y21406D01*
Y15473D01*
X142157D01*
Y24528D01*
X135737D01*
X135571Y24561D01*
X135470D01*
X133739Y26291D01*
X134084Y26654D01*
X134565Y26654D01*
X137524D01*
Y30500D01*
X134071D01*
Y27153D01*
X134071Y26667D01*
X133708Y26322D01*
X131134Y28896D01*
Y35528D01*
X128714D01*
Y38472D01*
X131134D01*
Y47286D01*
X133890D01*
Y38472D01*
X142157D01*
Y41286D01*
X159290D01*
X166788Y33788D01*
X167344Y33416D01*
X168000Y33286D01*
X342000D01*
X342656Y33416D01*
X343212Y33788D01*
X361212Y51788D01*
X361584Y52344D01*
X361714Y53000D01*
Y159787D01*
X362500D01*
X363461Y159914D01*
X364356Y160285D01*
X365125Y160875D01*
X365715Y161644D01*
X366086Y162539D01*
X366213Y163500D01*
Y168500D01*
X366086Y169461D01*
X365715Y170356D01*
X365125Y171125D01*
X364356Y171715D01*
X363461Y172086D01*
X362500Y172213D01*
X357500D01*
X356539Y172086D01*
X355644Y171715D01*
X354875Y171125D01*
X354285Y170356D01*
X353914Y169461D01*
X353787Y168500D01*
Y163500D01*
X353914Y162539D01*
X354285Y161644D01*
X354875Y160875D01*
X355644Y160285D01*
X356539Y159914D01*
X357500Y159787D01*
X358286D01*
Y156845D01*
X357786Y156638D01*
X352714Y161710D01*
Y180290D01*
X356397Y183973D01*
X356539Y183914D01*
X357500Y183787D01*
X362500D01*
X363461Y183914D01*
X364356Y184285D01*
X365125Y184875D01*
X365715Y185644D01*
X366086Y186539D01*
X366213Y187500D01*
Y192500D01*
X366086Y193461D01*
X365715Y194356D01*
X365125Y195125D01*
X364356Y195715D01*
X363461Y196086D01*
X362500Y196213D01*
X357500D01*
X356539Y196086D01*
X355644Y195715D01*
X354875Y195125D01*
X354285Y194356D01*
X353914Y193461D01*
X353787Y192500D01*
Y187500D01*
X353914Y186539D01*
X353973Y186397D01*
X349788Y182212D01*
X349416Y181656D01*
X349286Y181000D01*
Y161000D01*
X349324Y160807D01*
X348864Y160560D01*
X347714Y161710D01*
Y199290D01*
X356397Y207973D01*
X356539Y207914D01*
X357500Y207787D01*
X362500D01*
X363461Y207914D01*
X364356Y208285D01*
X365125Y208875D01*
X365715Y209644D01*
X366086Y210539D01*
X366213Y211500D01*
Y216500D01*
X366086Y217461D01*
X365715Y218356D01*
X365125Y219125D01*
X364356Y219715D01*
X363461Y220086D01*
X362500Y220213D01*
D02*
G37*
G36*
X25500Y64867D02*
Y63000D01*
X27367D01*
X27016Y63847D01*
X26347Y64516D01*
X25500Y64867D01*
D02*
G37*
G36*
X24500D02*
X23653Y64516D01*
X22984Y63847D01*
X22633Y63000D01*
X24500D01*
Y64867D01*
D02*
G37*
G36*
X18000D02*
Y63000D01*
X19867D01*
X19516Y63847D01*
X18847Y64516D01*
X18000Y64867D01*
D02*
G37*
G36*
X17000D02*
X16153Y64516D01*
X15484Y63847D01*
X15133Y63000D01*
X17000D01*
Y64867D01*
D02*
G37*
G36*
X338976Y64346D02*
X335524D01*
Y60500D01*
X338976D01*
Y64346D01*
D02*
G37*
G36*
X334524D02*
X331071D01*
Y60500D01*
X334524D01*
Y64346D01*
D02*
G37*
G36*
X27367Y62000D02*
X25500D01*
Y60133D01*
X26347Y60484D01*
X27016Y61153D01*
X27367Y62000D01*
D02*
G37*
G36*
X24500D02*
X22633D01*
X22984Y61153D01*
X23653Y60484D01*
X24500Y60133D01*
Y62000D01*
D02*
G37*
G36*
X19867D02*
X18000D01*
Y60133D01*
X18847Y60484D01*
X19516Y61153D01*
X19867Y62000D01*
D02*
G37*
G36*
X17000D02*
X15133D01*
X15484Y61153D01*
X16153Y60484D01*
X17000Y60133D01*
Y62000D01*
D02*
G37*
G36*
X346550Y64181D02*
X345449D01*
X344386Y63896D01*
X343433Y63346D01*
X342654Y62567D01*
X342104Y61614D01*
X341819Y60550D01*
Y59449D01*
X342104Y58386D01*
X342654Y57433D01*
X343433Y56654D01*
X344386Y56104D01*
X345449Y55819D01*
X346550D01*
X347614Y56104D01*
X348567Y56654D01*
X349346Y57433D01*
X349896Y58386D01*
X350181Y59449D01*
Y60550D01*
X349896Y61614D01*
X349346Y62567D01*
X348567Y63346D01*
X347614Y63896D01*
X346550Y64181D01*
D02*
G37*
G36*
X292550D02*
X291449D01*
X290386Y63896D01*
X289433Y63346D01*
X288654Y62567D01*
X288104Y61614D01*
X287819Y60550D01*
Y59449D01*
X288104Y58386D01*
X288654Y57433D01*
X289433Y56654D01*
X290386Y56104D01*
X291449Y55819D01*
X292550D01*
X293614Y56104D01*
X294567Y56654D01*
X295346Y57433D01*
X295896Y58386D01*
X296181Y59449D01*
Y60550D01*
X295896Y61614D01*
X295346Y62567D01*
X294567Y63346D01*
X293614Y63896D01*
X292550Y64181D01*
D02*
G37*
G36*
X338976Y59500D02*
X335524D01*
Y55654D01*
X338976D01*
Y59500D01*
D02*
G37*
G36*
X334524D02*
X331071D01*
Y55654D01*
X334524D01*
Y59500D01*
D02*
G37*
G36*
X25500Y57367D02*
Y55500D01*
X27367D01*
X27016Y56347D01*
X26347Y57016D01*
X25500Y57367D01*
D02*
G37*
G36*
X24500D02*
X23653Y57016D01*
X22984Y56347D01*
X22633Y55500D01*
X24500D01*
Y57367D01*
D02*
G37*
G36*
X18000D02*
Y55500D01*
X19867D01*
X19516Y56347D01*
X18847Y57016D01*
X18000Y57367D01*
D02*
G37*
G36*
X17000D02*
X16153Y57016D01*
X15484Y56347D01*
X15133Y55500D01*
X17000D01*
Y57367D01*
D02*
G37*
G36*
X308118Y98181D02*
X297882D01*
Y91819D01*
X299437D01*
Y90158D01*
X298472D01*
Y81890D01*
X304011D01*
X304203Y81865D01*
X307120D01*
X312457Y76528D01*
Y69685D01*
X313044D01*
Y65118D01*
X312819D01*
Y54882D01*
X319181D01*
Y57044D01*
X319866D01*
Y55472D01*
X328134D01*
Y64527D01*
X319866D01*
Y62956D01*
X319181D01*
Y65118D01*
X318956D01*
Y69685D01*
X319543D01*
Y80709D01*
X316638D01*
X310725Y86621D01*
X310435Y86911D01*
X309823Y87381D01*
X309110Y87677D01*
X308345Y87777D01*
X307528D01*
Y90158D01*
X305350D01*
Y91819D01*
X308118D01*
Y98181D01*
D02*
G37*
G36*
X27367Y54500D02*
X25500D01*
Y52633D01*
X26347Y52984D01*
X27016Y53653D01*
X27367Y54500D01*
D02*
G37*
G36*
X24500D02*
X22633D01*
X22984Y53653D01*
X23653Y52984D01*
X24500Y52633D01*
Y54500D01*
D02*
G37*
G36*
X19867D02*
X18000D01*
Y52633D01*
X18847Y52984D01*
X19516Y53653D01*
X19867Y54500D01*
D02*
G37*
G36*
X17000D02*
X15133D01*
X15484Y53653D01*
X16153Y52984D01*
X17000Y52633D01*
Y54500D01*
D02*
G37*
G36*
X71976Y36346D02*
X68524D01*
Y32500D01*
X71976D01*
Y36346D01*
D02*
G37*
G36*
X67524D02*
X64071D01*
Y32500D01*
X67524D01*
Y36346D01*
D02*
G37*
G36*
X141976Y35346D02*
X138524D01*
Y31500D01*
X141976D01*
Y35346D01*
D02*
G37*
G36*
X106976D02*
X103524D01*
Y31500D01*
X106976D01*
Y35346D01*
D02*
G37*
G36*
X137524D02*
X134071D01*
Y31500D01*
X137524D01*
Y35346D01*
D02*
G37*
G36*
X102524D02*
X99071D01*
Y31500D01*
X102524D01*
Y35346D01*
D02*
G37*
G36*
X270500Y29867D02*
Y28000D01*
X272367D01*
X272016Y28847D01*
X271347Y29516D01*
X270500Y29867D01*
D02*
G37*
G36*
X269500D02*
X268653Y29516D01*
X267984Y28847D01*
X267633Y28000D01*
X269500D01*
Y29867D01*
D02*
G37*
G36*
X263000D02*
Y28000D01*
X264867D01*
X264516Y28847D01*
X263847Y29516D01*
X263000Y29867D01*
D02*
G37*
G36*
X262000D02*
X261153Y29516D01*
X260484Y28847D01*
X260133Y28000D01*
X262000D01*
Y29867D01*
D02*
G37*
G36*
X255500D02*
Y28000D01*
X257367D01*
X257016Y28847D01*
X256347Y29516D01*
X255500Y29867D01*
D02*
G37*
G36*
X254500D02*
X253653Y29516D01*
X252984Y28847D01*
X252633Y28000D01*
X254500D01*
Y29867D01*
D02*
G37*
G36*
X248000D02*
Y28000D01*
X249867D01*
X249516Y28847D01*
X248847Y29516D01*
X248000Y29867D01*
D02*
G37*
G36*
X247000D02*
X246153Y29516D01*
X245484Y28847D01*
X245133Y28000D01*
X247000D01*
Y29867D01*
D02*
G37*
G36*
X240500D02*
Y28000D01*
X242367D01*
X242016Y28847D01*
X241347Y29516D01*
X240500Y29867D01*
D02*
G37*
G36*
X239500D02*
X238653Y29516D01*
X237984Y28847D01*
X237633Y28000D01*
X239500D01*
Y29867D01*
D02*
G37*
G36*
X233000D02*
Y28000D01*
X234867D01*
X234516Y28847D01*
X233847Y29516D01*
X233000Y29867D01*
D02*
G37*
G36*
X232000D02*
X231153Y29516D01*
X230484Y28847D01*
X230133Y28000D01*
X232000D01*
Y29867D01*
D02*
G37*
G36*
X225500D02*
Y28000D01*
X227367D01*
X227016Y28847D01*
X226347Y29516D01*
X225500Y29867D01*
D02*
G37*
G36*
X224500D02*
X223653Y29516D01*
X222984Y28847D01*
X222633Y28000D01*
X224500D01*
Y29867D01*
D02*
G37*
G36*
X218000D02*
Y28000D01*
X219867D01*
X219516Y28847D01*
X218847Y29516D01*
X218000Y29867D01*
D02*
G37*
G36*
X217000D02*
X216153Y29516D01*
X215484Y28847D01*
X215133Y28000D01*
X217000D01*
Y29867D01*
D02*
G37*
G36*
X210500D02*
Y28000D01*
X212367D01*
X212016Y28847D01*
X211347Y29516D01*
X210500Y29867D01*
D02*
G37*
G36*
X209500D02*
X208653Y29516D01*
X207984Y28847D01*
X207633Y28000D01*
X209500D01*
Y29867D01*
D02*
G37*
G36*
X203000D02*
Y28000D01*
X204867D01*
X204516Y28847D01*
X203847Y29516D01*
X203000Y29867D01*
D02*
G37*
G36*
X202000D02*
X201153Y29516D01*
X200484Y28847D01*
X200133Y28000D01*
X202000D01*
Y29867D01*
D02*
G37*
G36*
X71976Y31500D02*
X68524D01*
Y27654D01*
X71976D01*
Y31500D01*
D02*
G37*
G36*
X141976Y30500D02*
X138524D01*
Y26654D01*
X141976D01*
Y30500D01*
D02*
G37*
G36*
X106976D02*
X103524D01*
Y26654D01*
X106976D01*
Y30500D01*
D02*
G37*
G36*
X272367Y27000D02*
X270500D01*
Y25133D01*
X271347Y25484D01*
X272016Y26153D01*
X272367Y27000D01*
D02*
G37*
G36*
X269500D02*
X267633D01*
X267984Y26153D01*
X268653Y25484D01*
X269500Y25133D01*
Y27000D01*
D02*
G37*
G36*
X264867D02*
X263000D01*
Y25133D01*
X263847Y25484D01*
X264516Y26153D01*
X264867Y27000D01*
D02*
G37*
G36*
X262000D02*
X260133D01*
X260484Y26153D01*
X261153Y25484D01*
X262000Y25133D01*
Y27000D01*
D02*
G37*
G36*
X257367D02*
X255500D01*
Y25133D01*
X256347Y25484D01*
X257016Y26153D01*
X257367Y27000D01*
D02*
G37*
G36*
X254500D02*
X252633D01*
X252984Y26153D01*
X253653Y25484D01*
X254500Y25133D01*
Y27000D01*
D02*
G37*
G36*
X249867D02*
X248000D01*
Y25133D01*
X248847Y25484D01*
X249516Y26153D01*
X249867Y27000D01*
D02*
G37*
G36*
X247000D02*
X245133D01*
X245484Y26153D01*
X246153Y25484D01*
X247000Y25133D01*
Y27000D01*
D02*
G37*
G36*
X242367D02*
X240500D01*
Y25133D01*
X241347Y25484D01*
X242016Y26153D01*
X242367Y27000D01*
D02*
G37*
G36*
X239500D02*
X237633D01*
X237984Y26153D01*
X238653Y25484D01*
X239500Y25133D01*
Y27000D01*
D02*
G37*
G36*
X234867D02*
X233000D01*
Y25133D01*
X233847Y25484D01*
X234516Y26153D01*
X234867Y27000D01*
D02*
G37*
G36*
X232000D02*
X230133D01*
X230484Y26153D01*
X231153Y25484D01*
X232000Y25133D01*
Y27000D01*
D02*
G37*
G36*
X227367D02*
X225500D01*
Y25133D01*
X226347Y25484D01*
X227016Y26153D01*
X227367Y27000D01*
D02*
G37*
G36*
X224500D02*
X222633D01*
X222984Y26153D01*
X223653Y25484D01*
X224500Y25133D01*
Y27000D01*
D02*
G37*
G36*
X219867D02*
X218000D01*
Y25133D01*
X218847Y25484D01*
X219516Y26153D01*
X219867Y27000D01*
D02*
G37*
G36*
X217000D02*
X215133D01*
X215484Y26153D01*
X216153Y25484D01*
X217000Y25133D01*
Y27000D01*
D02*
G37*
G36*
X212367D02*
X210500D01*
Y25133D01*
X211347Y25484D01*
X212016Y26153D01*
X212367Y27000D01*
D02*
G37*
G36*
X209500D02*
X207633D01*
X207984Y26153D01*
X208653Y25484D01*
X209500Y25133D01*
Y27000D01*
D02*
G37*
G36*
X204867D02*
X203000D01*
Y25133D01*
X203847Y25484D01*
X204516Y26153D01*
X204867Y27000D01*
D02*
G37*
G36*
X202000D02*
X200133D01*
X200484Y26153D01*
X201153Y25484D01*
X202000Y25133D01*
Y27000D01*
D02*
G37*
G36*
X270500Y22367D02*
Y20500D01*
X272367D01*
X272016Y21347D01*
X271347Y22016D01*
X270500Y22367D01*
D02*
G37*
G36*
X269500D02*
X268653Y22016D01*
X267984Y21347D01*
X267633Y20500D01*
X269500D01*
Y22367D01*
D02*
G37*
G36*
X263000D02*
Y20500D01*
X264867D01*
X264516Y21347D01*
X263847Y22016D01*
X263000Y22367D01*
D02*
G37*
G36*
X262000D02*
X261153Y22016D01*
X260484Y21347D01*
X260133Y20500D01*
X262000D01*
Y22367D01*
D02*
G37*
G36*
X255500D02*
Y20500D01*
X257367D01*
X257016Y21347D01*
X256347Y22016D01*
X255500Y22367D01*
D02*
G37*
G36*
X254500D02*
X253653Y22016D01*
X252984Y21347D01*
X252633Y20500D01*
X254500D01*
Y22367D01*
D02*
G37*
G36*
X248000D02*
Y20500D01*
X249867D01*
X249516Y21347D01*
X248847Y22016D01*
X248000Y22367D01*
D02*
G37*
G36*
X247000D02*
X246153Y22016D01*
X245484Y21347D01*
X245133Y20500D01*
X247000D01*
Y22367D01*
D02*
G37*
G36*
X240500D02*
Y20500D01*
X242367D01*
X242016Y21347D01*
X241347Y22016D01*
X240500Y22367D01*
D02*
G37*
G36*
X239500D02*
X238653Y22016D01*
X237984Y21347D01*
X237633Y20500D01*
X239500D01*
Y22367D01*
D02*
G37*
G36*
X233000D02*
Y20500D01*
X234867D01*
X234516Y21347D01*
X233847Y22016D01*
X233000Y22367D01*
D02*
G37*
G36*
X232000D02*
X231153Y22016D01*
X230484Y21347D01*
X230133Y20500D01*
X232000D01*
Y22367D01*
D02*
G37*
G36*
X225500D02*
Y20500D01*
X227367D01*
X227016Y21347D01*
X226347Y22016D01*
X225500Y22367D01*
D02*
G37*
G36*
X224500D02*
X223653Y22016D01*
X222984Y21347D01*
X222633Y20500D01*
X224500D01*
Y22367D01*
D02*
G37*
G36*
X218000D02*
Y20500D01*
X219867D01*
X219516Y21347D01*
X218847Y22016D01*
X218000Y22367D01*
D02*
G37*
G36*
X217000D02*
X216153Y22016D01*
X215484Y21347D01*
X215133Y20500D01*
X217000D01*
Y22367D01*
D02*
G37*
G36*
X210500D02*
Y20500D01*
X212367D01*
X212016Y21347D01*
X211347Y22016D01*
X210500Y22367D01*
D02*
G37*
G36*
X209500D02*
X208653Y22016D01*
X207984Y21347D01*
X207633Y20500D01*
X209500D01*
Y22367D01*
D02*
G37*
G36*
X203000D02*
Y20500D01*
X204867D01*
X204516Y21347D01*
X203847Y22016D01*
X203000Y22367D01*
D02*
G37*
G36*
X202000D02*
X201153Y22016D01*
X200484Y21347D01*
X200133Y20500D01*
X202000D01*
Y22367D01*
D02*
G37*
G36*
X355339Y32496D02*
X354831D01*
Y20185D01*
X367142D01*
Y20693D01*
X366826Y22685D01*
X366203Y24603D01*
X365288Y26399D01*
X364102Y28031D01*
X362677Y29457D01*
X361045Y30642D01*
X359248Y31558D01*
X357331Y32181D01*
X355339Y32496D01*
D02*
G37*
G36*
X353831D02*
X353323D01*
X351331Y32181D01*
X349413Y31558D01*
X347616Y30642D01*
X345985Y29457D01*
X344559Y28031D01*
X343374Y26399D01*
X342458Y24603D01*
X341835Y22685D01*
X341520Y20693D01*
Y20185D01*
X353831D01*
Y32496D01*
D02*
G37*
G36*
X20693D02*
X20185D01*
Y20185D01*
X32496D01*
Y20693D01*
X32181Y22685D01*
X31558Y24603D01*
X30642Y26399D01*
X29457Y28031D01*
X28031Y29457D01*
X26399Y30642D01*
X24603Y31558D01*
X22685Y32181D01*
X20693Y32496D01*
D02*
G37*
G36*
X19185D02*
X18677D01*
X16685Y32181D01*
X14767Y31558D01*
X12971Y30642D01*
X11339Y29457D01*
X9913Y28031D01*
X8728Y26399D01*
X7813Y24603D01*
X7190Y22685D01*
X6874Y20693D01*
Y20185D01*
X19185D01*
Y32496D01*
D02*
G37*
G36*
X272367Y19500D02*
X270500D01*
Y17633D01*
X271347Y17984D01*
X272016Y18653D01*
X272367Y19500D01*
D02*
G37*
G36*
X269500D02*
X267633D01*
X267984Y18653D01*
X268653Y17984D01*
X269500Y17633D01*
Y19500D01*
D02*
G37*
G36*
X264867D02*
X263000D01*
Y17633D01*
X263847Y17984D01*
X264516Y18653D01*
X264867Y19500D01*
D02*
G37*
G36*
X262000D02*
X260133D01*
X260484Y18653D01*
X261153Y17984D01*
X262000Y17633D01*
Y19500D01*
D02*
G37*
G36*
X257367D02*
X255500D01*
Y17633D01*
X256347Y17984D01*
X257016Y18653D01*
X257367Y19500D01*
D02*
G37*
G36*
X254500D02*
X252633D01*
X252984Y18653D01*
X253653Y17984D01*
X254500Y17633D01*
Y19500D01*
D02*
G37*
G36*
X249867D02*
X248000D01*
Y17633D01*
X248847Y17984D01*
X249516Y18653D01*
X249867Y19500D01*
D02*
G37*
G36*
X247000D02*
X245133D01*
X245484Y18653D01*
X246153Y17984D01*
X247000Y17633D01*
Y19500D01*
D02*
G37*
G36*
X242367D02*
X240500D01*
Y17633D01*
X241347Y17984D01*
X242016Y18653D01*
X242367Y19500D01*
D02*
G37*
G36*
X239500D02*
X237633D01*
X237984Y18653D01*
X238653Y17984D01*
X239500Y17633D01*
Y19500D01*
D02*
G37*
G36*
X234867D02*
X233000D01*
Y17633D01*
X233847Y17984D01*
X234516Y18653D01*
X234867Y19500D01*
D02*
G37*
G36*
X232000D02*
X230133D01*
X230484Y18653D01*
X231153Y17984D01*
X232000Y17633D01*
Y19500D01*
D02*
G37*
G36*
X227367D02*
X225500D01*
Y17633D01*
X226347Y17984D01*
X227016Y18653D01*
X227367Y19500D01*
D02*
G37*
G36*
X224500D02*
X222633D01*
X222984Y18653D01*
X223653Y17984D01*
X224500Y17633D01*
Y19500D01*
D02*
G37*
G36*
X219867D02*
X218000D01*
Y17633D01*
X218847Y17984D01*
X219516Y18653D01*
X219867Y19500D01*
D02*
G37*
G36*
X217000D02*
X215133D01*
X215484Y18653D01*
X216153Y17984D01*
X217000Y17633D01*
Y19500D01*
D02*
G37*
G36*
X212367D02*
X210500D01*
Y17633D01*
X211347Y17984D01*
X212016Y18653D01*
X212367Y19500D01*
D02*
G37*
G36*
X209500D02*
X207633D01*
X207984Y18653D01*
X208653Y17984D01*
X209500Y17633D01*
Y19500D01*
D02*
G37*
G36*
X204867D02*
X203000D01*
Y17633D01*
X203847Y17984D01*
X204516Y18653D01*
X204867Y19500D01*
D02*
G37*
G36*
X202000D02*
X200133D01*
X200484Y18653D01*
X201153Y17984D01*
X202000Y17633D01*
Y19500D01*
D02*
G37*
G36*
X270500Y14867D02*
Y13000D01*
X272367D01*
X272016Y13847D01*
X271347Y14516D01*
X270500Y14867D01*
D02*
G37*
G36*
X269500D02*
X268653Y14516D01*
X267984Y13847D01*
X267633Y13000D01*
X269500D01*
Y14867D01*
D02*
G37*
G36*
X263000D02*
Y13000D01*
X264867D01*
X264516Y13847D01*
X263847Y14516D01*
X263000Y14867D01*
D02*
G37*
G36*
X262000D02*
X261153Y14516D01*
X260484Y13847D01*
X260133Y13000D01*
X262000D01*
Y14867D01*
D02*
G37*
G36*
X255500D02*
Y13000D01*
X257367D01*
X257016Y13847D01*
X256347Y14516D01*
X255500Y14867D01*
D02*
G37*
G36*
X254500D02*
X253653Y14516D01*
X252984Y13847D01*
X252633Y13000D01*
X254500D01*
Y14867D01*
D02*
G37*
G36*
X248000D02*
Y13000D01*
X249867D01*
X249516Y13847D01*
X248847Y14516D01*
X248000Y14867D01*
D02*
G37*
G36*
X247000D02*
X246153Y14516D01*
X245484Y13847D01*
X245133Y13000D01*
X247000D01*
Y14867D01*
D02*
G37*
G36*
X240500D02*
Y13000D01*
X242367D01*
X242016Y13847D01*
X241347Y14516D01*
X240500Y14867D01*
D02*
G37*
G36*
X239500D02*
X238653Y14516D01*
X237984Y13847D01*
X237633Y13000D01*
X239500D01*
Y14867D01*
D02*
G37*
G36*
X233000D02*
Y13000D01*
X234867D01*
X234516Y13847D01*
X233847Y14516D01*
X233000Y14867D01*
D02*
G37*
G36*
X232000D02*
X231153Y14516D01*
X230484Y13847D01*
X230133Y13000D01*
X232000D01*
Y14867D01*
D02*
G37*
G36*
X225500D02*
Y13000D01*
X227367D01*
X227016Y13847D01*
X226347Y14516D01*
X225500Y14867D01*
D02*
G37*
G36*
X224500D02*
X223653Y14516D01*
X222984Y13847D01*
X222633Y13000D01*
X224500D01*
Y14867D01*
D02*
G37*
G36*
X218000D02*
Y13000D01*
X219867D01*
X219516Y13847D01*
X218847Y14516D01*
X218000Y14867D01*
D02*
G37*
G36*
X217000D02*
X216153Y14516D01*
X215484Y13847D01*
X215133Y13000D01*
X217000D01*
Y14867D01*
D02*
G37*
G36*
X210500D02*
Y13000D01*
X212367D01*
X212016Y13847D01*
X211347Y14516D01*
X210500Y14867D01*
D02*
G37*
G36*
X209500D02*
X208653Y14516D01*
X207984Y13847D01*
X207633Y13000D01*
X209500D01*
Y14867D01*
D02*
G37*
G36*
X203000D02*
Y13000D01*
X204867D01*
X204516Y13847D01*
X203847Y14516D01*
X203000Y14867D01*
D02*
G37*
G36*
X202000D02*
X201153Y14516D01*
X200484Y13847D01*
X200133Y13000D01*
X202000D01*
Y14867D01*
D02*
G37*
G36*
X272367Y12000D02*
X270500D01*
Y10133D01*
X271347Y10484D01*
X272016Y11153D01*
X272367Y12000D01*
D02*
G37*
G36*
X269500D02*
X267633D01*
X267984Y11153D01*
X268653Y10484D01*
X269500Y10133D01*
Y12000D01*
D02*
G37*
G36*
X264867D02*
X263000D01*
Y10133D01*
X263847Y10484D01*
X264516Y11153D01*
X264867Y12000D01*
D02*
G37*
G36*
X262000D02*
X260133D01*
X260484Y11153D01*
X261153Y10484D01*
X262000Y10133D01*
Y12000D01*
D02*
G37*
G36*
X257367D02*
X255500D01*
Y10133D01*
X256347Y10484D01*
X257016Y11153D01*
X257367Y12000D01*
D02*
G37*
G36*
X254500D02*
X252633D01*
X252984Y11153D01*
X253653Y10484D01*
X254500Y10133D01*
Y12000D01*
D02*
G37*
G36*
X249867D02*
X248000D01*
Y10133D01*
X248847Y10484D01*
X249516Y11153D01*
X249867Y12000D01*
D02*
G37*
G36*
X247000D02*
X245133D01*
X245484Y11153D01*
X246153Y10484D01*
X247000Y10133D01*
Y12000D01*
D02*
G37*
G36*
X242367D02*
X240500D01*
Y10133D01*
X241347Y10484D01*
X242016Y11153D01*
X242367Y12000D01*
D02*
G37*
G36*
X239500D02*
X237633D01*
X237984Y11153D01*
X238653Y10484D01*
X239500Y10133D01*
Y12000D01*
D02*
G37*
G36*
X234867D02*
X233000D01*
Y10133D01*
X233847Y10484D01*
X234516Y11153D01*
X234867Y12000D01*
D02*
G37*
G36*
X232000D02*
X230133D01*
X230484Y11153D01*
X231153Y10484D01*
X232000Y10133D01*
Y12000D01*
D02*
G37*
G36*
X227367D02*
X225500D01*
Y10133D01*
X226347Y10484D01*
X227016Y11153D01*
X227367Y12000D01*
D02*
G37*
G36*
X224500D02*
X222633D01*
X222984Y11153D01*
X223653Y10484D01*
X224500Y10133D01*
Y12000D01*
D02*
G37*
G36*
X219867D02*
X218000D01*
Y10133D01*
X218847Y10484D01*
X219516Y11153D01*
X219867Y12000D01*
D02*
G37*
G36*
X217000D02*
X215133D01*
X215484Y11153D01*
X216153Y10484D01*
X217000Y10133D01*
Y12000D01*
D02*
G37*
G36*
X212367D02*
X210500D01*
Y10133D01*
X211347Y10484D01*
X212016Y11153D01*
X212367Y12000D01*
D02*
G37*
G36*
X209500D02*
X207633D01*
X207984Y11153D01*
X208653Y10484D01*
X209500Y10133D01*
Y12000D01*
D02*
G37*
G36*
X204867D02*
X203000D01*
Y10133D01*
X203847Y10484D01*
X204516Y11153D01*
X204867Y12000D01*
D02*
G37*
G36*
X202000D02*
X200133D01*
X200484Y11153D01*
X201153Y10484D01*
X202000Y10133D01*
Y12000D01*
D02*
G37*
G36*
X367142Y19185D02*
X354831D01*
Y6874D01*
X355339D01*
X357331Y7190D01*
X359248Y7813D01*
X361045Y8728D01*
X362677Y9913D01*
X364102Y11339D01*
X365288Y12971D01*
X366203Y14767D01*
X366826Y16685D01*
X367142Y18677D01*
Y19185D01*
D02*
G37*
G36*
X353831D02*
X341520D01*
Y18677D01*
X341835Y16685D01*
X342458Y14767D01*
X343374Y12971D01*
X344559Y11339D01*
X345985Y9913D01*
X347616Y8728D01*
X349413Y7813D01*
X351331Y7190D01*
X353323Y6874D01*
X353831D01*
Y19185D01*
D02*
G37*
G36*
X32496D02*
X20185D01*
Y6874D01*
X20693D01*
X22685Y7190D01*
X24603Y7813D01*
X26399Y8728D01*
X28031Y9913D01*
X29457Y11339D01*
X30642Y12971D01*
X31558Y14767D01*
X32181Y16685D01*
X32496Y18677D01*
Y19185D01*
D02*
G37*
G36*
X19185D02*
X6874D01*
Y18677D01*
X7190Y16685D01*
X7813Y14767D01*
X8728Y12971D01*
X9913Y11339D01*
X11339Y9913D01*
X12971Y8728D01*
X14767Y7813D01*
X16685Y7190D01*
X18677Y6874D01*
X19185D01*
Y19185D01*
D02*
G37*
%LPD*%
G36*
X272725Y260851D02*
X272788Y260756D01*
X275457Y258088D01*
Y249488D01*
X277286D01*
Y244528D01*
X275866D01*
Y237319D01*
X275859Y237283D01*
X272290Y233714D01*
X228210D01*
X222426Y239498D01*
X222681Y240450D01*
Y241550D01*
X222396Y242614D01*
X221846Y243567D01*
X221067Y244346D01*
X220114Y244896D01*
X219051Y245181D01*
X217950D01*
X216886Y244896D01*
X216342Y244582D01*
X202637Y258287D01*
X202681Y258450D01*
Y259361D01*
X203169Y259581D01*
X204375Y258375D01*
X205144Y257785D01*
X206039Y257414D01*
X207000Y257287D01*
X234962D01*
X239875Y252375D01*
X240644Y251785D01*
X241539Y251414D01*
X242472Y251291D01*
Y250866D01*
X243287D01*
Y240290D01*
X243414Y239329D01*
X243785Y238433D01*
X244109Y238011D01*
Y234882D01*
X250471D01*
Y238099D01*
X250505Y238144D01*
X250876Y239039D01*
X251003Y240000D01*
X250876Y240961D01*
X250713Y241355D01*
Y250866D01*
X251528D01*
Y258584D01*
X252028Y258791D01*
X254079Y256740D01*
X254691Y256270D01*
X255404Y255975D01*
X256169Y255874D01*
X257457D01*
Y249488D01*
X258044D01*
Y245118D01*
X257819D01*
Y234882D01*
X264181D01*
Y237044D01*
X264843D01*
Y235472D01*
X273110D01*
Y244528D01*
X264843D01*
Y242956D01*
X264181D01*
Y245118D01*
X263956D01*
Y249488D01*
X264543D01*
Y260512D01*
X261740D01*
X261505Y260807D01*
X261706Y261286D01*
X272290D01*
X272725Y260851D01*
D02*
G37*
%LPC*%
G36*
X219051Y255181D02*
X217950D01*
X216886Y254896D01*
X215933Y254346D01*
X215154Y253567D01*
X214604Y252614D01*
X214319Y251551D01*
Y250449D01*
X214604Y249386D01*
X215154Y248433D01*
X215933Y247654D01*
X216886Y247104D01*
X217950Y246819D01*
X219051D01*
X220114Y247104D01*
X221067Y247654D01*
X221846Y248433D01*
X222396Y249386D01*
X222681Y250449D01*
Y251551D01*
X222396Y252614D01*
X221846Y253567D01*
X221067Y254346D01*
X220114Y254896D01*
X219051Y255181D01*
D02*
G37*
%LPD*%
G36*
X256970Y203840D02*
X256970Y203840D01*
X257402Y203619D01*
X257402Y203346D01*
Y178176D01*
X256940Y177984D01*
X255714Y179210D01*
Y188000D01*
X255584Y188656D01*
X255212Y189212D01*
X252151Y192273D01*
Y197635D01*
X252118Y197801D01*
Y199042D01*
X256934Y203858D01*
X256970Y203840D01*
D02*
G37*
G36*
X252118Y181819D02*
X252286Y181388D01*
Y178500D01*
X252416Y177844D01*
X252788Y177288D01*
X258288Y171788D01*
X258844Y171416D01*
X259500Y171286D01*
X272455D01*
X275457Y168285D01*
Y159685D01*
X277286D01*
Y154527D01*
X275866D01*
Y148290D01*
X273572Y145996D01*
X273110Y146187D01*
Y154527D01*
X264843D01*
Y152956D01*
X264181D01*
Y155118D01*
X263956D01*
Y159685D01*
X264543D01*
Y170709D01*
X260580D01*
X260388Y170734D01*
X258447D01*
X252270Y176911D01*
X251657Y177381D01*
X251528Y177435D01*
Y180157D01*
X249956D01*
Y181819D01*
X252118D01*
D02*
G37*
G36*
X255132Y165687D02*
X255744Y165217D01*
X256457Y164922D01*
X257223Y164821D01*
X257457D01*
Y159685D01*
X258044D01*
Y155118D01*
X257819D01*
Y144882D01*
X257388Y144714D01*
X250901D01*
X250471Y144882D01*
Y149050D01*
X250586Y149329D01*
X250713Y150290D01*
Y160866D01*
X251528D01*
Y168584D01*
X252028Y168791D01*
X255132Y165687D01*
D02*
G37*
G36*
X204375Y170375D02*
X205144Y169785D01*
X206039Y169414D01*
X207000Y169287D01*
X233462D01*
X239375Y163375D01*
X239375Y163375D01*
X240144Y162785D01*
X241039Y162414D01*
X242000Y162287D01*
X242472D01*
Y160866D01*
X243287D01*
Y150290D01*
X243414Y149329D01*
X243785Y148433D01*
X244109Y148011D01*
Y144882D01*
X243678Y144714D01*
X229210D01*
X222426Y151498D01*
X222681Y152450D01*
Y153551D01*
X222396Y154614D01*
X221846Y155567D01*
X221067Y156346D01*
X220114Y156896D01*
X219051Y157181D01*
X217950D01*
X216886Y156896D01*
X216342Y156582D01*
X202637Y170287D01*
X202681Y170449D01*
Y171361D01*
X203169Y171581D01*
X204375Y170375D01*
D02*
G37*
%LPC*%
G36*
X219051Y167181D02*
X217950D01*
X216886Y166896D01*
X215933Y166346D01*
X215154Y165567D01*
X214604Y164614D01*
X214319Y163550D01*
Y162450D01*
X214604Y161386D01*
X215154Y160433D01*
X215933Y159654D01*
X216886Y159104D01*
X217950Y158819D01*
X219051D01*
X220114Y159104D01*
X221067Y159654D01*
X221846Y160433D01*
X222396Y161386D01*
X222681Y162450D01*
Y163550D01*
X222396Y164614D01*
X221846Y165567D01*
X221067Y166346D01*
X220114Y166896D01*
X219051Y167181D01*
D02*
G37*
%LPD*%
G36*
X256970Y113840D02*
X256970Y113840D01*
X257402Y113619D01*
X257402Y113346D01*
Y88176D01*
X256940Y87984D01*
X255714Y89210D01*
Y99036D01*
X255584Y99692D01*
X255212Y100248D01*
X252151Y103309D01*
Y107635D01*
X252118Y107801D01*
Y109042D01*
X256934Y113858D01*
X256970Y113840D01*
D02*
G37*
G36*
X275457Y78285D02*
Y69685D01*
X277286D01*
Y64527D01*
X275866D01*
Y58290D01*
X273572Y55996D01*
X273110Y56187D01*
Y64527D01*
X264843D01*
Y62956D01*
X264181D01*
Y65118D01*
X263956D01*
Y69685D01*
X264543D01*
Y80709D01*
X261069D01*
X261016Y80786D01*
X261279Y81286D01*
X272455D01*
X275457Y78285D01*
D02*
G37*
G36*
X254079Y76740D02*
X254691Y76270D01*
X255404Y75975D01*
X255787Y75925D01*
X256169Y75874D01*
X257113D01*
X257300Y75687D01*
X257457Y75567D01*
Y69685D01*
X258044D01*
Y65118D01*
X257819D01*
Y54882D01*
X257388Y54714D01*
X250901D01*
X250471Y54882D01*
Y59050D01*
X250586Y59329D01*
X250713Y60290D01*
Y70866D01*
X251528D01*
Y78584D01*
X252028Y78791D01*
X254079Y76740D01*
D02*
G37*
G36*
X204375Y79375D02*
X205144Y78785D01*
X206039Y78414D01*
X207000Y78287D01*
X233462D01*
X239375Y72375D01*
X239375Y72375D01*
X240144Y71785D01*
X241039Y71414D01*
X242000Y71287D01*
X242472D01*
Y70866D01*
X243287D01*
Y60290D01*
X243414Y59329D01*
X243785Y58433D01*
X244109Y58011D01*
Y54882D01*
X243678Y54714D01*
X228210D01*
X222426Y60498D01*
X222681Y61449D01*
Y62550D01*
X222396Y63614D01*
X221846Y64567D01*
X221067Y65346D01*
X220114Y65896D01*
X219051Y66181D01*
X217950D01*
X216886Y65896D01*
X216342Y65582D01*
X202637Y79287D01*
X202681Y79449D01*
Y80361D01*
X203169Y80581D01*
X204375Y79375D01*
D02*
G37*
%LPC*%
G36*
X219051Y76181D02*
X217950D01*
X216886Y75896D01*
X215933Y75346D01*
X215154Y74567D01*
X214604Y73614D01*
X214319Y72550D01*
Y71450D01*
X214604Y70386D01*
X215154Y69433D01*
X215933Y68654D01*
X216886Y68104D01*
X217950Y67819D01*
X219051D01*
X220114Y68104D01*
X221067Y68654D01*
X221846Y69433D01*
X222396Y70386D01*
X222681Y71450D01*
Y72550D01*
X222396Y73614D01*
X221846Y74567D01*
X221067Y75346D01*
X220114Y75896D01*
X219051Y76181D01*
D02*
G37*
%LPD*%
G36*
X169400Y37176D02*
X169209Y36714D01*
X168710D01*
X161212Y44212D01*
X160656Y44584D01*
X160000Y44714D01*
X142157D01*
Y47286D01*
X159290D01*
X169400Y37176D01*
D02*
G37*
D10*
X270000Y190000D02*
Y199598D01*
X270500D01*
X270098Y279902D02*
X272710Y282513D01*
X269000Y100000D02*
X272000Y103000D01*
X273000Y106500D02*
Y120000D01*
Y105000D02*
Y106500D01*
X259500Y263000D02*
X273000D01*
X254000Y268500D02*
Y278536D01*
Y268500D02*
X259500Y263000D01*
X254000Y178500D02*
X259500Y173000D01*
X254000Y178500D02*
Y188000D01*
X259500Y173000D02*
X273165D01*
X259500Y83000D02*
X273165D01*
X254000Y88500D02*
X259500Y83000D01*
X254000Y88500D02*
Y99036D01*
X270500Y199598D02*
X273000Y202098D01*
Y210000D01*
X272000Y103000D02*
X273000D01*
X161000Y53000D02*
X174000Y40000D01*
X339000D02*
X354000Y55000D01*
X174000Y40000D02*
X339000D01*
X171500Y37500D02*
X340500D01*
X160000Y49000D02*
X171500Y37500D01*
X340500D02*
X357000Y54000D01*
X342000Y35000D02*
X360000Y53000D01*
X168000Y35000D02*
X342000D01*
X160000Y43000D02*
X168000Y35000D01*
X314000Y292181D02*
X321019Y285162D01*
Y284178D02*
X325197Y280000D01*
X321019Y284178D02*
Y285162D01*
X325000Y279803D02*
X325197Y280000D01*
X314000Y202181D02*
X316841Y199341D01*
X325000Y191181D01*
X316841Y109341D02*
X325000Y101181D01*
X314000Y112181D02*
X316841Y109341D01*
X325000Y100000D02*
Y101181D01*
X91000Y244000D02*
Y270000D01*
Y244000D02*
X100000Y235000D01*
X142500Y192500D02*
Y193035D01*
X140000Y195536D02*
X142500Y193035D01*
X129000Y233000D02*
X140000Y222000D01*
Y195536D02*
Y222000D01*
X75000Y85000D02*
X90000Y70000D01*
X75000Y85000D02*
Y190000D01*
X69250Y68250D02*
Y188750D01*
X43957Y214043D02*
X69250Y188750D01*
X57000Y44000D02*
Y59500D01*
X67500Y70000D01*
X42500Y35500D02*
X54154Y23846D01*
X42500Y35500D02*
Y70000D01*
X57000Y21000D02*
Y21394D01*
Y16000D02*
Y21000D01*
X142500Y70000D02*
Y80000D01*
X135000D02*
X142500D01*
X168500D01*
X141000Y99000D02*
X150000Y90000D01*
X141000Y99000D02*
Y100000D01*
X150000Y90000D02*
X168500D01*
X140000Y100000D02*
X141000D01*
X116000Y124000D02*
Y194000D01*
Y124000D02*
X140000Y100000D01*
X101000Y280000D02*
X142500D01*
X143250Y279250D01*
X153500Y269000D01*
X91000Y270000D02*
X101000Y280000D01*
X153500Y269000D02*
X168500D01*
X142500Y192500D02*
X154000Y181000D01*
X168500D01*
X54154Y23846D02*
X54547D01*
X57000Y21394D01*
Y32000D02*
Y44000D01*
X30000Y245000D02*
X40000Y235000D01*
X17000Y245000D02*
X30000D01*
X17000Y225000D02*
X40000D01*
X17000Y205000D02*
X30000D01*
X40000Y215000D01*
X80000Y103000D02*
X113000Y70000D01*
X80000Y103000D02*
Y195000D01*
X40000Y235000D02*
X80000Y195000D01*
X40000Y225000D02*
X75000Y190000D01*
X40957Y214043D02*
X43957D01*
X40000Y215000D02*
X40957Y214043D01*
X77024Y53000D02*
X161000D01*
X70870Y46847D02*
X77024Y53000D01*
X105870Y45847D02*
X109024Y49000D01*
X160000D01*
X138024Y43000D02*
X160000D01*
X354000Y55000D02*
Y153000D01*
X357000Y54000D02*
Y155000D01*
X360000Y53000D02*
Y166000D01*
X351000Y161000D02*
Y181000D01*
Y161000D02*
X357000Y155000D01*
X346000Y161000D02*
Y200000D01*
Y161000D02*
X354000Y153000D01*
X346000Y200000D02*
X360000Y214000D01*
X351000Y181000D02*
X360000Y190000D01*
X103024Y43394D02*
X105476Y45847D01*
X105870D01*
X103024Y43000D02*
Y43394D01*
X68024Y44000D02*
Y44394D01*
X70476Y46847D01*
X70870D01*
X279000Y75197D02*
Y77165D01*
Y75000D02*
Y75197D01*
X279394Y239000D02*
X280000D01*
X325000Y190000D02*
Y191181D01*
X109000Y201000D02*
Y246000D01*
X100000Y255000D02*
X109000Y246000D01*
Y201000D02*
X116000Y194000D01*
X100000Y175000D02*
X112000Y163000D01*
Y103000D02*
X135000Y80000D01*
X112000Y103000D02*
Y163000D01*
X227500Y53000D02*
X273000D01*
X228500Y143000D02*
X273000D01*
X227500Y232000D02*
X273000D01*
X279000Y255000D02*
Y256968D01*
X273000Y263000D02*
X274000Y262000D01*
Y261968D02*
X279000Y256968D01*
X274000Y261968D02*
Y262000D01*
X273000Y143000D02*
X277153Y147153D01*
X218500Y153000D02*
X228500Y143000D01*
X280000Y59606D02*
Y60000D01*
X277153Y57153D02*
X277547D01*
X279000Y61000D02*
Y75000D01*
X277547Y57153D02*
X280000Y59606D01*
X273000Y53000D02*
X277153Y57153D01*
X277547Y147153D02*
X280000Y149606D01*
Y150000D01*
X277153Y147153D02*
X277547D01*
Y236547D02*
Y237154D01*
X279394Y239000D01*
X273000Y232000D02*
X277547Y236547D01*
X218500Y241000D02*
X227500Y232000D01*
X273165Y83000D02*
X279000Y77165D01*
X249097Y288710D02*
X249362D01*
X247000D02*
X249097D01*
X250437Y282099D02*
Y287635D01*
Y282099D02*
X254000Y278536D01*
X249362Y288710D02*
X250437Y287635D01*
X249362Y198710D02*
X250437Y197635D01*
Y191563D02*
X254000Y188000D01*
X247000Y198710D02*
X249362D01*
X250437Y191563D02*
Y197635D01*
X273165Y173000D02*
X279000Y167165D01*
Y165197D02*
Y167165D01*
X249362Y108710D02*
X250437Y107635D01*
Y102599D02*
X254000Y99036D01*
X247000Y108710D02*
X249362D01*
X250437Y102599D02*
Y107635D01*
X218500Y62000D02*
X227500Y53000D01*
X249362Y108710D02*
X257215Y116563D01*
X258215D02*
X259290Y117638D01*
Y120000D01*
X257215Y116563D02*
X258215D01*
X249362Y198710D02*
X257215Y206563D01*
X259290Y207638D02*
Y210000D01*
X257215Y206563D02*
X258215D01*
X259290Y207638D01*
X272710Y282513D02*
Y300000D01*
X250172Y289785D02*
Y291172D01*
X256511Y297511D02*
X257925D01*
X259000Y298586D02*
Y300000D01*
X249097Y288710D02*
X250172Y289785D01*
Y291172D02*
X256511Y297511D01*
X257925D02*
X259000Y298586D01*
X27000Y155000D02*
X40000D01*
X17000Y135000D02*
Y145000D01*
X27000Y155000D01*
X314000Y292181D02*
Y300000D01*
Y202181D02*
Y210000D01*
Y112181D02*
Y120000D01*
X217500Y241000D02*
X218500D01*
X198500Y259000D02*
X199500D01*
X217500Y241000D01*
Y153000D02*
X218500D01*
X198500Y171000D02*
X199500D01*
X217500Y153000D01*
X199500Y80000D02*
X217500Y62000D01*
X198500Y80000D02*
X199500D01*
X217500Y62000D02*
X218500D01*
X279000Y61000D02*
X280000Y60000D01*
X279000Y241000D02*
Y255000D01*
Y241000D02*
X280000Y240000D01*
X279000Y151000D02*
Y165197D01*
Y151000D02*
X280000Y150000D01*
X126739Y19739D02*
X127000Y20000D01*
X126739Y15739D02*
Y19739D01*
X91793Y14000D02*
X125000D01*
X126739Y15739D01*
X57000Y16000D02*
X59000Y14000D01*
X91793D01*
X92000Y14207D01*
Y20000D01*
X68024Y21000D02*
Y21394D01*
X57000Y31606D02*
Y32000D01*
Y31606D02*
X64760Y23846D01*
X65571D01*
X68024Y21394D01*
X92000Y30606D02*
X99760Y22847D01*
X103024Y20000D02*
Y20394D01*
X92000Y30606D02*
Y31000D01*
X99760Y22847D02*
X100571D01*
X103024Y20394D01*
X92000Y31000D02*
Y43000D01*
X127000Y30606D02*
X134760Y22847D01*
X135571D01*
X127000Y30606D02*
Y31000D01*
X135571Y22847D02*
X138024Y20394D01*
Y20000D02*
Y20394D01*
X127000Y31000D02*
Y43000D01*
D14*
X270000Y190000D02*
D03*
X325000Y279803D02*
D03*
Y100000D02*
D03*
X270000D02*
D03*
X325000Y190000D02*
D03*
X270000Y279803D02*
D03*
D15*
X261000Y165197D02*
D03*
X279000D02*
D03*
X334000Y255000D02*
D03*
X316000D02*
D03*
Y75197D02*
D03*
X334000D02*
D03*
X261000D02*
D03*
X279000D02*
D03*
X334000Y165197D02*
D03*
X316000D02*
D03*
X279000Y255000D02*
D03*
X261000D02*
D03*
D16*
X17000Y245000D02*
D03*
Y233976D02*
D03*
Y205000D02*
D03*
Y193976D02*
D03*
Y225000D02*
D03*
Y213976D02*
D03*
X303000Y75000D02*
D03*
Y86024D02*
D03*
X247000Y75000D02*
D03*
Y86024D02*
D03*
X303000Y165000D02*
D03*
Y176024D02*
D03*
X247000Y165000D02*
D03*
Y176024D02*
D03*
X303000Y255000D02*
D03*
Y266024D02*
D03*
X247000Y255000D02*
D03*
Y266024D02*
D03*
D17*
X117000Y205000D02*
D03*
X128024D02*
D03*
X57000Y44000D02*
D03*
X68024D02*
D03*
Y32000D02*
D03*
X57000D02*
D03*
Y21000D02*
D03*
X68024D02*
D03*
X92000Y43000D02*
D03*
X103024D02*
D03*
Y31000D02*
D03*
X92000D02*
D03*
Y20000D02*
D03*
X103024D02*
D03*
X127000Y43000D02*
D03*
X138024D02*
D03*
Y31000D02*
D03*
X127000D02*
D03*
Y20000D02*
D03*
X138024D02*
D03*
X280000Y240000D02*
D03*
X268976D02*
D03*
X335024Y60000D02*
D03*
X324000D02*
D03*
X280000D02*
D03*
X268976D02*
D03*
X335024Y150000D02*
D03*
X324000D02*
D03*
X280000D02*
D03*
X268976D02*
D03*
X335024Y240000D02*
D03*
X324000D02*
D03*
D18*
X303000Y95000D02*
D03*
Y108710D02*
D03*
X247000Y95000D02*
D03*
Y108710D02*
D03*
Y185000D02*
D03*
Y198710D02*
D03*
X303000Y185000D02*
D03*
Y198710D02*
D03*
Y275000D02*
D03*
Y288710D02*
D03*
X247000Y275000D02*
D03*
Y288710D02*
D03*
D19*
X327710Y120000D02*
D03*
X314000D02*
D03*
X259290D02*
D03*
X273000D02*
D03*
X259290Y210000D02*
D03*
X273000D02*
D03*
X327710D02*
D03*
X314000D02*
D03*
X327710Y300000D02*
D03*
X314000D02*
D03*
X259000D02*
D03*
X272710D02*
D03*
X302290Y60000D02*
D03*
X316000D02*
D03*
X247290D02*
D03*
X261000D02*
D03*
X302290Y150000D02*
D03*
X316000D02*
D03*
X247290D02*
D03*
X261000D02*
D03*
X302290Y240000D02*
D03*
X316000D02*
D03*
X247290D02*
D03*
X261000D02*
D03*
X189710Y116000D02*
D03*
X176000D02*
D03*
X189710Y295000D02*
D03*
X176000D02*
D03*
X189710Y207000D02*
D03*
X176000D02*
D03*
D33*
X261500Y108500D02*
X263250Y106750D01*
X273000Y106500D02*
X276500Y110000D01*
X270000Y99000D02*
X274000Y95000D01*
X269000Y100000D02*
Y105000D01*
Y99000D02*
Y100000D01*
X270000Y91000D02*
Y96000D01*
X265000Y95000D02*
X269000Y99000D01*
X261500Y90000D02*
X265750Y94250D01*
X261500Y105000D02*
X266500Y100000D01*
X271250Y104750D02*
X273000Y106500D01*
X269000Y100000D02*
X270000D01*
X269000Y105000D02*
Y110000D01*
X270000Y96000D02*
Y99000D01*
X247000Y150290D02*
Y166000D01*
X270000Y100000D02*
X276500D01*
X274000Y95000D02*
X276500D01*
X288652Y135000D02*
X301215Y147563D01*
X198500Y153500D02*
X217000Y135000D01*
X288652D01*
X198500Y241500D02*
X215000Y225000D01*
X290652D01*
X301215Y235563D01*
X242500Y255000D02*
X247000D01*
X207000Y261000D02*
X236500D01*
X242500Y255000D01*
X247000Y254000D02*
Y255000D01*
Y240290D02*
Y254000D01*
X198500Y62500D02*
X213500Y47500D01*
X292152D01*
X301215Y56563D01*
X273000Y103000D02*
X275000Y105000D01*
X261500Y100000D02*
X266500D01*
X269000Y95000D02*
X270000Y96000D01*
X275000Y105000D02*
X276500D01*
Y90000D02*
Y93500D01*
X261500Y108500D02*
Y110000D01*
Y95000D02*
X265000D01*
X269000Y90000D02*
X270000Y91000D01*
X207000Y173000D02*
X235000D01*
X207000Y82000D02*
X235000D01*
X302290Y148638D02*
Y150290D01*
X302000D02*
Y165000D01*
X301215Y147563D02*
X302290Y148638D01*
X302000Y150290D02*
X302290Y150000D01*
X301215Y147563D02*
X301215D01*
X198500Y153500D02*
Y161000D01*
X302000Y240290D02*
Y254000D01*
X302290Y236638D02*
Y240000D01*
X302000Y254000D02*
X303000Y255000D01*
X302290Y74290D02*
X303000Y75000D01*
X302290Y57638D02*
Y74290D01*
X198500Y241500D02*
Y249000D01*
X301215Y235563D02*
X302290Y236638D01*
X301215Y235563D02*
X301215D01*
X198500Y269000D02*
X199000D01*
X207000Y261000D01*
X198500Y181000D02*
X199000D01*
X207000Y173000D01*
X235000D02*
X242000Y166000D01*
X247000D01*
X176000Y292638D02*
Y295000D01*
X168500Y285138D02*
X176000Y292638D01*
X168500Y279000D02*
Y285138D01*
X189710Y292638D02*
Y295000D01*
X198500Y279000D02*
Y283848D01*
X189710Y292638D02*
X198500Y283848D01*
X176000Y204638D02*
Y207000D01*
X168500Y197138D02*
X176000Y204638D01*
X168500Y191000D02*
Y197138D01*
X189710Y204638D02*
Y207000D01*
X198500Y191000D02*
Y195848D01*
X189710Y204638D02*
X198500Y195848D01*
X242000Y75000D02*
X247000D01*
X235000Y82000D02*
X242000Y75000D01*
X199000Y90000D02*
X207000Y82000D01*
X198500Y90000D02*
X199000D01*
X189710Y113638D02*
X198500Y104848D01*
Y100000D02*
Y104848D01*
X189710Y113638D02*
Y116000D01*
X168500Y100000D02*
Y106138D01*
X176000Y113638D01*
Y116000D01*
X301215Y56563D02*
X301215D01*
X302290Y57638D01*
X198500Y62500D02*
Y70000D01*
X247000Y240290D02*
X247290Y240000D01*
X247000Y60290D02*
Y75000D01*
D34*
X308635Y84530D02*
X308635D01*
X303000Y86024D02*
X304203Y84821D01*
X308345D02*
X308635Y84530D01*
X304203Y84821D02*
X308345D01*
X308635Y84530D02*
X316000Y77165D01*
X315388Y165809D02*
X316000Y165197D01*
X309102Y174821D02*
X315388Y168535D01*
X304596Y174821D02*
X309102D01*
X316000Y150000D02*
Y165197D01*
X315388Y165809D02*
Y168535D01*
X303394Y176024D02*
X304596Y174821D01*
X303000Y176024D02*
X303394D01*
X303000Y266024D02*
X304203Y264821D01*
X308148D01*
X315388Y257581D01*
Y255612D02*
X316000Y255000D01*
X303000Y266024D02*
X303394D01*
X315388Y255612D02*
Y257581D01*
X316000Y240000D02*
Y255000D01*
X247000Y266024D02*
X248203Y264821D01*
X256169Y258831D02*
X259138D01*
X250179Y264821D02*
X256169Y258831D01*
X248203Y264821D02*
X250179D01*
X261000Y240000D02*
Y256968D01*
X259138Y258831D02*
X261000Y256968D01*
X248203Y174821D02*
X250179D01*
X257223Y167778D02*
X260388D01*
X247000Y176024D02*
X248203Y174821D01*
X250179D02*
X257223Y167778D01*
X260388D02*
X261000Y167165D01*
Y150000D02*
Y167165D01*
X256169Y78831D02*
X258337D01*
X248203Y84821D02*
X250179D01*
X256169Y78831D01*
X247000Y86024D02*
X248203Y84821D01*
X261000Y60000D02*
Y77165D01*
X259391Y77778D02*
X260388D01*
X258337Y78831D02*
X259391Y77778D01*
X260388D02*
X261000Y77165D01*
X303000Y86024D02*
X303394D01*
X316000Y60000D02*
Y77165D01*
X268976Y240000D02*
X269000D01*
X261000D02*
X268976D01*
Y150000D02*
X269000D01*
X261000D02*
X268976D01*
Y60000D02*
X269000D01*
X261000D02*
X268976D01*
X302394Y94394D02*
X303000Y95000D01*
X302394Y86024D02*
Y94394D01*
X247000Y86024D02*
Y95000D01*
Y176024D02*
Y185000D01*
Y266024D02*
Y275000D01*
X316000Y60000D02*
X324000D01*
X302000Y176024D02*
Y185000D01*
Y176024D02*
X302394D01*
X316000Y150000D02*
X324000D01*
X316000Y240000D02*
X324000D01*
X302000Y266024D02*
X302394D01*
X302000D02*
Y275000D01*
D35*
X113000Y70000D02*
D03*
X90000D02*
D03*
X67500D02*
D03*
X42500D02*
D03*
X142500D02*
D03*
Y97500D02*
D03*
Y160000D02*
D03*
Y192500D02*
D03*
Y250000D02*
D03*
Y280000D02*
D03*
X292000Y240000D02*
D03*
X346000D02*
D03*
Y150000D02*
D03*
Y60000D02*
D03*
X292000Y150000D02*
D03*
Y60000D02*
D03*
X218500Y72000D02*
D03*
Y62000D02*
D03*
Y102000D02*
D03*
Y92000D02*
D03*
X168500Y70000D02*
D03*
Y80000D02*
D03*
Y90000D02*
D03*
Y100000D02*
D03*
X198500Y70000D02*
D03*
Y80000D02*
D03*
Y90000D02*
D03*
Y100000D02*
D03*
X168500Y161000D02*
D03*
Y171000D02*
D03*
Y181000D02*
D03*
Y191000D02*
D03*
X198500Y161000D02*
D03*
Y171000D02*
D03*
Y181000D02*
D03*
Y191000D02*
D03*
X218500Y193000D02*
D03*
Y183000D02*
D03*
Y163000D02*
D03*
Y153000D02*
D03*
X168500Y249000D02*
D03*
Y259000D02*
D03*
Y269000D02*
D03*
Y279000D02*
D03*
X198500Y249000D02*
D03*
Y259000D02*
D03*
Y269000D02*
D03*
Y279000D02*
D03*
X218500Y281000D02*
D03*
Y271000D02*
D03*
Y251000D02*
D03*
Y241000D02*
D03*
X100000Y265000D02*
D03*
Y255000D02*
D03*
Y245000D02*
D03*
Y235000D02*
D03*
Y225000D02*
D03*
Y215000D02*
D03*
Y205000D02*
D03*
Y195000D02*
D03*
Y185000D02*
D03*
Y175000D02*
D03*
Y165000D02*
D03*
Y155000D02*
D03*
Y145000D02*
D03*
Y135000D02*
D03*
Y125000D02*
D03*
X40000Y265000D02*
D03*
Y255000D02*
D03*
Y245000D02*
D03*
Y235000D02*
D03*
Y225000D02*
D03*
Y215000D02*
D03*
Y205000D02*
D03*
Y195000D02*
D03*
Y185000D02*
D03*
Y175000D02*
D03*
Y165000D02*
D03*
Y155000D02*
D03*
Y145000D02*
D03*
Y135000D02*
D03*
Y125000D02*
D03*
X300000Y345000D02*
D03*
X310000D02*
D03*
X17000Y135000D02*
D03*
Y125000D02*
D03*
Y115000D02*
D03*
D36*
X360000Y166000D02*
D03*
Y190000D02*
D03*
Y214000D02*
D03*
D37*
X190000Y345000D02*
D03*
X249055D02*
D03*
D38*
X115000D02*
D03*
D39*
X135000D02*
D03*
D40*
X277500Y185000D02*
D03*
Y190000D02*
D03*
Y195000D02*
D03*
X270000Y200000D02*
D03*
Y195000D02*
D03*
Y185000D02*
D03*
X270000Y180000D02*
D03*
X262500Y185000D02*
D03*
Y190000D02*
D03*
Y195000D02*
D03*
Y180000D02*
D03*
Y200000D02*
D03*
X270000Y190000D02*
D03*
X325000Y280000D02*
D03*
Y190000D02*
D03*
Y100000D02*
D03*
X269000D02*
D03*
X270000Y280000D02*
D03*
X317500Y290000D02*
D03*
Y285000D02*
D03*
Y280000D02*
D03*
Y275000D02*
D03*
Y270000D02*
D03*
X332500D02*
D03*
Y275000D02*
D03*
Y280000D02*
D03*
Y285000D02*
D03*
Y290000D02*
D03*
X325000D02*
D03*
Y285000D02*
D03*
Y275000D02*
D03*
Y270000D02*
D03*
X262500Y290000D02*
D03*
Y285000D02*
D03*
Y280000D02*
D03*
Y275000D02*
D03*
Y270000D02*
D03*
X277500D02*
D03*
Y275000D02*
D03*
Y280000D02*
D03*
Y285000D02*
D03*
Y290000D02*
D03*
X270000D02*
D03*
Y285000D02*
D03*
Y275000D02*
D03*
Y270000D02*
D03*
X277500Y180000D02*
D03*
Y200000D02*
D03*
X317500D02*
D03*
Y195000D02*
D03*
Y190000D02*
D03*
Y185000D02*
D03*
Y180000D02*
D03*
X332500D02*
D03*
Y185000D02*
D03*
Y190000D02*
D03*
Y195000D02*
D03*
Y200000D02*
D03*
X325000D02*
D03*
Y195000D02*
D03*
Y185000D02*
D03*
Y180000D02*
D03*
X276500Y90000D02*
D03*
X269000Y95000D02*
D03*
X276500Y100000D02*
D03*
Y95000D02*
D03*
X261500Y105000D02*
D03*
X269000Y110000D02*
D03*
Y105000D02*
D03*
X288618Y97475D02*
D03*
X276500Y110000D02*
D03*
X269000Y90000D02*
D03*
X261500Y100000D02*
D03*
Y110000D02*
D03*
X276500Y105000D02*
D03*
X261500Y90000D02*
D03*
Y95000D02*
D03*
X288500Y105000D02*
D03*
X317500Y110000D02*
D03*
Y105000D02*
D03*
Y100000D02*
D03*
Y95000D02*
D03*
Y90000D02*
D03*
X332500D02*
D03*
Y95000D02*
D03*
Y100000D02*
D03*
Y105000D02*
D03*
Y110000D02*
D03*
X325000D02*
D03*
Y105000D02*
D03*
Y95000D02*
D03*
Y90000D02*
D03*
X142500Y315000D02*
D03*
X120000D02*
D03*
X135000D02*
D03*
X127500D02*
D03*
X150000D02*
D03*
X112500D02*
D03*
X255000Y20000D02*
D03*
X262500D02*
D03*
X270000D02*
D03*
X255000Y27500D02*
D03*
X262500D02*
D03*
X270000D02*
D03*
X240000D02*
D03*
Y20000D02*
D03*
Y12500D02*
D03*
X247500Y27500D02*
D03*
Y20000D02*
D03*
Y12500D02*
D03*
X270000D02*
D03*
X262500D02*
D03*
X255000D02*
D03*
X29500Y20000D02*
D03*
X27000Y26000D02*
D03*
X11500Y13500D02*
D03*
X27000Y13000D02*
D03*
X19500Y29500D02*
D03*
Y9500D02*
D03*
X9500Y20000D02*
D03*
X12500Y26500D02*
D03*
X364500Y20000D02*
D03*
X362000Y26000D02*
D03*
X346500Y13500D02*
D03*
X362000Y13000D02*
D03*
X354500Y29500D02*
D03*
Y9500D02*
D03*
X344500Y20000D02*
D03*
X347500Y26500D02*
D03*
X364500Y354500D02*
D03*
X362000Y360500D02*
D03*
X346500Y348000D02*
D03*
X362000Y347500D02*
D03*
X354500Y364000D02*
D03*
Y344000D02*
D03*
X344500Y354500D02*
D03*
X347500Y361000D02*
D03*
X12500Y361500D02*
D03*
X9500Y355000D02*
D03*
X19500Y344500D02*
D03*
Y364500D02*
D03*
X27000Y348000D02*
D03*
X11500Y348500D02*
D03*
X27000Y361000D02*
D03*
X29500Y355000D02*
D03*
X187500Y315000D02*
D03*
X165000D02*
D03*
X157500D02*
D03*
X180000D02*
D03*
X172500D02*
D03*
X210000D02*
D03*
X202500D02*
D03*
X195000D02*
D03*
X232500D02*
D03*
X225000D02*
D03*
X217500D02*
D03*
X232500Y307500D02*
D03*
X165000D02*
D03*
X157500D02*
D03*
X150000D02*
D03*
X187500D02*
D03*
X180000D02*
D03*
X172500D02*
D03*
X210000D02*
D03*
X202500D02*
D03*
X195000D02*
D03*
X225000D02*
D03*
X217500D02*
D03*
X120000D02*
D03*
X142500D02*
D03*
X135000D02*
D03*
X127500D02*
D03*
X40000Y317500D02*
D03*
X112500Y307500D02*
D03*
X47500Y317500D02*
D03*
X55000D02*
D03*
X70000D02*
D03*
X62500D02*
D03*
X40000Y325000D02*
D03*
Y332500D02*
D03*
X47500D02*
D03*
Y325000D02*
D03*
X55000D02*
D03*
X62500D02*
D03*
X70000D02*
D03*
X55000Y332500D02*
D03*
X62500D02*
D03*
X70000D02*
D03*
X357500Y287500D02*
D03*
X350000D02*
D03*
Y295000D02*
D03*
X357500D02*
D03*
X350000Y302500D02*
D03*
X357500D02*
D03*
X342500Y325000D02*
D03*
X357500Y317500D02*
D03*
X342500D02*
D03*
X350000D02*
D03*
Y325000D02*
D03*
X342500Y310000D02*
D03*
X350000D02*
D03*
X357500D02*
D03*
Y325000D02*
D03*
X117000Y205000D02*
D03*
X92000Y43000D02*
D03*
X127000D02*
D03*
X129000Y233000D02*
D03*
X25000Y55000D02*
D03*
Y62500D02*
D03*
Y70000D02*
D03*
X17500Y55000D02*
D03*
Y62500D02*
D03*
Y70000D02*
D03*
X217500Y12500D02*
D03*
X225000D02*
D03*
X232500D02*
D03*
X150500Y125000D02*
D03*
X158000D02*
D03*
X165500D02*
D03*
X297500Y307500D02*
D03*
X290000D02*
D03*
X288500Y277500D02*
D03*
Y285000D02*
D03*
Y187500D02*
D03*
Y195000D02*
D03*
X290000Y217500D02*
D03*
X297500D02*
D03*
Y127500D02*
D03*
X290000D02*
D03*
X210000Y12500D02*
D03*
Y20000D02*
D03*
Y27500D02*
D03*
X202500Y12500D02*
D03*
Y20000D02*
D03*
Y27500D02*
D03*
X232500D02*
D03*
X225000D02*
D03*
X217500D02*
D03*
X232500Y20000D02*
D03*
X225000D02*
D03*
X217500D02*
D03*
X150500Y132500D02*
D03*
X158000D02*
D03*
X165500D02*
D03*
X150500Y140000D02*
D03*
X158000D02*
D03*
X165500D02*
D03*
X135500D02*
D03*
Y132500D02*
D03*
Y125000D02*
D03*
X143000Y140000D02*
D03*
Y132500D02*
D03*
Y125000D02*
D03*
X25000Y77500D02*
D03*
Y85000D02*
D03*
Y92500D02*
D03*
X17500Y77500D02*
D03*
Y85000D02*
D03*
Y92500D02*
D03*
X324000Y60000D02*
D03*
X269000D02*
D03*
Y150000D02*
D03*
X324000D02*
D03*
Y240000D02*
D03*
X269000D02*
D03*
X279000Y75000D02*
D03*
Y165000D02*
D03*
Y255000D02*
D03*
D41*
X19500Y354500D02*
D03*
X354331Y354331D02*
D03*
Y19685D02*
D03*
X19685D02*
D03*
M02*
