G04*
G04 #@! TF.GenerationSoftware,Altium Limited,Altium Designer,21.0.8 (223)*
G04*
G04 Layer_Color=128*
%FSLAX25Y25*%
%MOIN*%
G70*
G04*
G04 #@! TF.SameCoordinates,9A741BFF-CE4B-45F5-BAAB-659130A2A11A*
G04*
G04*
G04 #@! TF.FilePolarity,Positive*
G04*
G01*
G75*
%ADD44C,0.00200*%
D44*
X111500Y70000D02*
X114500D01*
X113000Y68500D02*
Y71500D01*
X88500Y70000D02*
X91500D01*
X90000Y68500D02*
Y71500D01*
X66000Y70000D02*
X69000D01*
X67500Y68500D02*
Y71500D01*
X41000Y70000D02*
X44000D01*
X42500Y68500D02*
Y71500D01*
X141000Y70000D02*
X144000D01*
X142500Y68500D02*
Y71500D01*
X141000Y97500D02*
X144000D01*
X142500Y96000D02*
Y99000D01*
X141000Y160000D02*
X144000D01*
X142500Y158500D02*
Y161500D01*
X141000Y192500D02*
X144000D01*
X142500Y191000D02*
Y194000D01*
X141000Y250000D02*
X144000D01*
X142500Y248500D02*
Y251500D01*
X141000Y280000D02*
X144000D01*
X142500Y278500D02*
Y281500D01*
X290500Y240000D02*
X293500D01*
X292000Y238500D02*
Y241500D01*
X344500Y240000D02*
X347500D01*
X346000Y238500D02*
Y241500D01*
X344500Y150000D02*
X347500D01*
X346000Y148500D02*
Y151500D01*
X344500Y60000D02*
X347500D01*
X346000Y58500D02*
Y61500D01*
X290500Y150000D02*
X293500D01*
X292000Y148500D02*
Y151500D01*
X290500Y60000D02*
X293500D01*
X292000Y58500D02*
Y61500D01*
X358500Y166000D02*
X361500D01*
X360000Y164500D02*
Y167500D01*
X358500Y190000D02*
X361500D01*
X360000Y188500D02*
Y191500D01*
X358500Y214000D02*
X361500D01*
X360000Y212500D02*
Y215500D01*
X217000Y72000D02*
X220000D01*
X218500Y70500D02*
Y73500D01*
X217000Y62000D02*
X220000D01*
X218500Y60500D02*
Y63500D01*
X217000Y102000D02*
X220000D01*
X218500Y100500D02*
Y103500D01*
X217000Y92000D02*
X220000D01*
X218500Y90500D02*
Y93500D01*
X167000Y70000D02*
X170000D01*
X168500Y68500D02*
Y71500D01*
X167000Y80000D02*
X170000D01*
X168500Y78500D02*
Y81500D01*
X167000Y90000D02*
X170000D01*
X168500Y88500D02*
Y91500D01*
X167000Y100000D02*
X170000D01*
X168500Y98500D02*
Y101500D01*
X197000Y70000D02*
X200000D01*
X198500Y68500D02*
Y71500D01*
X197000Y80000D02*
X200000D01*
X198500Y78500D02*
Y81500D01*
X197000Y90000D02*
X200000D01*
X198500Y88500D02*
Y91500D01*
X197000Y100000D02*
X200000D01*
X198500Y98500D02*
Y101500D01*
X167000Y161000D02*
X170000D01*
X168500Y159500D02*
Y162500D01*
X167000Y171000D02*
X170000D01*
X168500Y169500D02*
Y172500D01*
X167000Y181000D02*
X170000D01*
X168500Y179500D02*
Y182500D01*
X167000Y191000D02*
X170000D01*
X168500Y189500D02*
Y192500D01*
X197000Y161000D02*
X200000D01*
X198500Y159500D02*
Y162500D01*
X197000Y171000D02*
X200000D01*
X198500Y169500D02*
Y172500D01*
X197000Y181000D02*
X200000D01*
X198500Y179500D02*
Y182500D01*
X197000Y191000D02*
X200000D01*
X198500Y189500D02*
Y192500D01*
X217000Y193000D02*
X220000D01*
X218500Y191500D02*
Y194500D01*
X217000Y183000D02*
X220000D01*
X218500Y181500D02*
Y184500D01*
X217000Y163000D02*
X220000D01*
X218500Y161500D02*
Y164500D01*
X217000Y153000D02*
X220000D01*
X218500Y151500D02*
Y154500D01*
X167000Y249000D02*
X170000D01*
X168500Y247500D02*
Y250500D01*
X167000Y259000D02*
X170000D01*
X168500Y257500D02*
Y260500D01*
X167000Y269000D02*
X170000D01*
X168500Y267500D02*
Y270500D01*
X167000Y279000D02*
X170000D01*
X168500Y277500D02*
Y280500D01*
X197000Y249000D02*
X200000D01*
X198500Y247500D02*
Y250500D01*
X197000Y259000D02*
X200000D01*
X198500Y257500D02*
Y260500D01*
X197000Y269000D02*
X200000D01*
X198500Y267500D02*
Y270500D01*
X197000Y279000D02*
X200000D01*
X198500Y277500D02*
Y280500D01*
X217000Y281000D02*
X220000D01*
X218500Y279500D02*
Y282500D01*
X217000Y271000D02*
X220000D01*
X218500Y269500D02*
Y272500D01*
X217000Y251000D02*
X220000D01*
X218500Y249500D02*
Y252500D01*
X217000Y241000D02*
X220000D01*
X218500Y239500D02*
Y242500D01*
X98500Y265000D02*
X101500D01*
X100000Y263500D02*
Y266500D01*
X98500Y255000D02*
X101500D01*
X100000Y253500D02*
Y256500D01*
X98500Y245000D02*
X101500D01*
X100000Y243500D02*
Y246500D01*
X98500Y235000D02*
X101500D01*
X100000Y233500D02*
Y236500D01*
X98500Y225000D02*
X101500D01*
X100000Y223500D02*
Y226500D01*
X98500Y215000D02*
X101500D01*
X100000Y213500D02*
Y216500D01*
X98500Y205000D02*
X101500D01*
X100000Y203500D02*
Y206500D01*
X98500Y195000D02*
X101500D01*
X100000Y193500D02*
Y196500D01*
X98500Y185000D02*
X101500D01*
X100000Y183500D02*
Y186500D01*
X98500Y175000D02*
X101500D01*
X100000Y173500D02*
Y176500D01*
X98500Y165000D02*
X101500D01*
X100000Y163500D02*
Y166500D01*
X98500Y155000D02*
X101500D01*
X100000Y153500D02*
Y156500D01*
X98500Y145000D02*
X101500D01*
X100000Y143500D02*
Y146500D01*
X98500Y135000D02*
X101500D01*
X100000Y133500D02*
Y136500D01*
X98500Y125000D02*
X101500D01*
X100000Y123500D02*
Y126500D01*
X38500Y265000D02*
X41500D01*
X40000Y263500D02*
Y266500D01*
X38500Y255000D02*
X41500D01*
X40000Y253500D02*
Y256500D01*
X38500Y245000D02*
X41500D01*
X40000Y243500D02*
Y246500D01*
X38500Y235000D02*
X41500D01*
X40000Y233500D02*
Y236500D01*
X38500Y225000D02*
X41500D01*
X40000Y223500D02*
Y226500D01*
X38500Y215000D02*
X41500D01*
X40000Y213500D02*
Y216500D01*
X38500Y205000D02*
X41500D01*
X40000Y203500D02*
Y206500D01*
X38500Y195000D02*
X41500D01*
X40000Y193500D02*
Y196500D01*
X38500Y185000D02*
X41500D01*
X40000Y183500D02*
Y186500D01*
X38500Y175000D02*
X41500D01*
X40000Y173500D02*
Y176500D01*
X38500Y165000D02*
X41500D01*
X40000Y163500D02*
Y166500D01*
X38500Y155000D02*
X41500D01*
X40000Y153500D02*
Y156500D01*
X38500Y145000D02*
X41500D01*
X40000Y143500D02*
Y146500D01*
X38500Y135000D02*
X41500D01*
X40000Y133500D02*
Y136500D01*
X38500Y125000D02*
X41500D01*
X40000Y123500D02*
Y126500D01*
X187047Y345000D02*
X192953D01*
X190000Y342047D02*
Y347953D01*
X246102Y345000D02*
X252008D01*
X249055Y342047D02*
Y347953D01*
X112500Y345000D02*
X117500D01*
X115000Y342500D02*
Y347500D01*
X132500Y345000D02*
X137500D01*
X135000Y342500D02*
Y347500D01*
X298500Y345000D02*
X301500D01*
X300000Y343500D02*
Y346500D01*
X308500Y345000D02*
X311500D01*
X310000Y343500D02*
Y346500D01*
X15500Y135000D02*
X18500D01*
X17000Y133500D02*
Y136500D01*
X15500Y125000D02*
X18500D01*
X17000Y123500D02*
Y126500D01*
X15500Y115000D02*
X18500D01*
X17000Y113500D02*
Y116500D01*
X276516Y185000D02*
X278484D01*
X277500Y184016D02*
Y185984D01*
X276516Y190000D02*
X278484D01*
X277500Y189016D02*
Y190984D01*
X276516Y195000D02*
X278484D01*
X277500Y194016D02*
Y195984D01*
X269016Y200000D02*
X270984D01*
X270000Y199016D02*
Y200984D01*
X269016Y195000D02*
X270984D01*
X270000Y194016D02*
Y195984D01*
X269016Y185000D02*
X270984D01*
X270000Y184016D02*
Y185984D01*
X269016Y180000D02*
X270984D01*
X270000Y179016D02*
Y180984D01*
X261516Y185000D02*
X263484D01*
X262500Y184016D02*
Y185984D01*
X261516Y190000D02*
X263484D01*
X262500Y189016D02*
Y190984D01*
X261516Y195000D02*
X263484D01*
X262500Y194016D02*
Y195984D01*
X261516Y180000D02*
X263484D01*
X262500Y179016D02*
Y180984D01*
X261516Y200000D02*
X263484D01*
X262500Y199016D02*
Y200984D01*
X269016Y190000D02*
X270984D01*
X270000Y189016D02*
Y190984D01*
X324016Y280000D02*
X325984D01*
X325000Y279016D02*
Y280984D01*
X324016Y190000D02*
X325984D01*
X325000Y189016D02*
Y190984D01*
X324016Y100000D02*
X325984D01*
X325000Y99016D02*
Y100984D01*
X268016Y100000D02*
X269984D01*
X269000Y99016D02*
Y100984D01*
X269016Y280000D02*
X270984D01*
X270000Y279016D02*
Y280984D01*
X316516Y290000D02*
X318484D01*
X317500Y289016D02*
Y290984D01*
X316516Y285000D02*
X318484D01*
X317500Y284016D02*
Y285984D01*
X316516Y280000D02*
X318484D01*
X317500Y279016D02*
Y280984D01*
X316516Y275000D02*
X318484D01*
X317500Y274016D02*
Y275984D01*
X316516Y270000D02*
X318484D01*
X317500Y269016D02*
Y270984D01*
X331516Y270000D02*
X333484D01*
X332500Y269016D02*
Y270984D01*
X331516Y275000D02*
X333484D01*
X332500Y274016D02*
Y275984D01*
X331516Y280000D02*
X333484D01*
X332500Y279016D02*
Y280984D01*
X331516Y285000D02*
X333484D01*
X332500Y284016D02*
Y285984D01*
X331516Y290000D02*
X333484D01*
X332500Y289016D02*
Y290984D01*
X324016Y290000D02*
X325984D01*
X325000Y289016D02*
Y290984D01*
X324016Y285000D02*
X325984D01*
X325000Y284016D02*
Y285984D01*
X324016Y275000D02*
X325984D01*
X325000Y274016D02*
Y275984D01*
X324016Y270000D02*
X325984D01*
X325000Y269016D02*
Y270984D01*
X261516Y290000D02*
X263484D01*
X262500Y289016D02*
Y290984D01*
X261516Y285000D02*
X263484D01*
X262500Y284016D02*
Y285984D01*
X261516Y280000D02*
X263484D01*
X262500Y279016D02*
Y280984D01*
X261516Y275000D02*
X263484D01*
X262500Y274016D02*
Y275984D01*
X261516Y270000D02*
X263484D01*
X262500Y269016D02*
Y270984D01*
X276516Y270000D02*
X278484D01*
X277500Y269016D02*
Y270984D01*
X276516Y275000D02*
X278484D01*
X277500Y274016D02*
Y275984D01*
X276516Y280000D02*
X278484D01*
X277500Y279016D02*
Y280984D01*
X276516Y285000D02*
X278484D01*
X277500Y284016D02*
Y285984D01*
X276516Y290000D02*
X278484D01*
X277500Y289016D02*
Y290984D01*
X269016Y290000D02*
X270984D01*
X270000Y289016D02*
Y290984D01*
X269016Y285000D02*
X270984D01*
X270000Y284016D02*
Y285984D01*
X269016Y275000D02*
X270984D01*
X270000Y274016D02*
Y275984D01*
X269016Y270000D02*
X270984D01*
X270000Y269016D02*
Y270984D01*
X276516Y180000D02*
X278484D01*
X277500Y179016D02*
Y180984D01*
X276516Y200000D02*
X278484D01*
X277500Y199016D02*
Y200984D01*
X316516Y200000D02*
X318484D01*
X317500Y199016D02*
Y200984D01*
X316516Y195000D02*
X318484D01*
X317500Y194016D02*
Y195984D01*
X316516Y190000D02*
X318484D01*
X317500Y189016D02*
Y190984D01*
X316516Y185000D02*
X318484D01*
X317500Y184016D02*
Y185984D01*
X316516Y180000D02*
X318484D01*
X317500Y179016D02*
Y180984D01*
X331516Y180000D02*
X333484D01*
X332500Y179016D02*
Y180984D01*
X331516Y185000D02*
X333484D01*
X332500Y184016D02*
Y185984D01*
X331516Y190000D02*
X333484D01*
X332500Y189016D02*
Y190984D01*
X331516Y195000D02*
X333484D01*
X332500Y194016D02*
Y195984D01*
X331516Y200000D02*
X333484D01*
X332500Y199016D02*
Y200984D01*
X324016Y200000D02*
X325984D01*
X325000Y199016D02*
Y200984D01*
X324016Y195000D02*
X325984D01*
X325000Y194016D02*
Y195984D01*
X324016Y185000D02*
X325984D01*
X325000Y184016D02*
Y185984D01*
X324016Y180000D02*
X325984D01*
X325000Y179016D02*
Y180984D01*
X275516Y90000D02*
X277484D01*
X276500Y89016D02*
Y90984D01*
X268016Y95000D02*
X269984D01*
X269000Y94016D02*
Y95984D01*
X275516Y100000D02*
X277484D01*
X276500Y99016D02*
Y100984D01*
X275516Y95000D02*
X277484D01*
X276500Y94016D02*
Y95984D01*
X260516Y105000D02*
X262484D01*
X261500Y104016D02*
Y105984D01*
X268016Y110000D02*
X269984D01*
X269000Y109016D02*
Y110984D01*
X268016Y105000D02*
X269984D01*
X269000Y104016D02*
Y105984D01*
X287633Y97475D02*
X289602D01*
X288618Y96491D02*
Y98460D01*
X275516Y110000D02*
X277484D01*
X276500Y109016D02*
Y110984D01*
X268016Y90000D02*
X269984D01*
X269000Y89016D02*
Y90984D01*
X260516Y100000D02*
X262484D01*
X261500Y99016D02*
Y100984D01*
X260516Y110000D02*
X262484D01*
X261500Y109016D02*
Y110984D01*
X275516Y105000D02*
X277484D01*
X276500Y104016D02*
Y105984D01*
X260516Y90000D02*
X262484D01*
X261500Y89016D02*
Y90984D01*
X260516Y95000D02*
X262484D01*
X261500Y94016D02*
Y95984D01*
X287516Y105000D02*
X289484D01*
X288500Y104016D02*
Y105984D01*
X316516Y110000D02*
X318484D01*
X317500Y109016D02*
Y110984D01*
X316516Y105000D02*
X318484D01*
X317500Y104016D02*
Y105984D01*
X316516Y100000D02*
X318484D01*
X317500Y99016D02*
Y100984D01*
X316516Y95000D02*
X318484D01*
X317500Y94016D02*
Y95984D01*
X316516Y90000D02*
X318484D01*
X317500Y89016D02*
Y90984D01*
X331516Y90000D02*
X333484D01*
X332500Y89016D02*
Y90984D01*
X331516Y95000D02*
X333484D01*
X332500Y94016D02*
Y95984D01*
X331516Y100000D02*
X333484D01*
X332500Y99016D02*
Y100984D01*
X331516Y105000D02*
X333484D01*
X332500Y104016D02*
Y105984D01*
X331516Y110000D02*
X333484D01*
X332500Y109016D02*
Y110984D01*
X324016Y110000D02*
X325984D01*
X325000Y109016D02*
Y110984D01*
X324016Y105000D02*
X325984D01*
X325000Y104016D02*
Y105984D01*
X324016Y95000D02*
X325984D01*
X325000Y94016D02*
Y95984D01*
X324016Y90000D02*
X325984D01*
X325000Y89016D02*
Y90984D01*
X141516Y315000D02*
X143484D01*
X142500Y314016D02*
Y315984D01*
X119016Y315000D02*
X120984D01*
X120000Y314016D02*
Y315984D01*
X134016Y315000D02*
X135984D01*
X135000Y314016D02*
Y315984D01*
X126516Y315000D02*
X128484D01*
X127500Y314016D02*
Y315984D01*
X149016Y315000D02*
X150984D01*
X150000Y314016D02*
Y315984D01*
X111516Y315000D02*
X113484D01*
X112500Y314016D02*
Y315984D01*
X254016Y20000D02*
X255984D01*
X255000Y19016D02*
Y20984D01*
X261516Y20000D02*
X263484D01*
X262500Y19016D02*
Y20984D01*
X269016Y20000D02*
X270984D01*
X270000Y19016D02*
Y20984D01*
X254016Y27500D02*
X255984D01*
X255000Y26516D02*
Y28484D01*
X261516Y27500D02*
X263484D01*
X262500Y26516D02*
Y28484D01*
X269016Y27500D02*
X270984D01*
X270000Y26516D02*
Y28484D01*
X239016Y27500D02*
X240984D01*
X240000Y26516D02*
Y28484D01*
X239016Y20000D02*
X240984D01*
X240000Y19016D02*
Y20984D01*
X239016Y12500D02*
X240984D01*
X240000Y11516D02*
Y13484D01*
X246516Y27500D02*
X248484D01*
X247500Y26516D02*
Y28484D01*
X246516Y20000D02*
X248484D01*
X247500Y19016D02*
Y20984D01*
X246516Y12500D02*
X248484D01*
X247500Y11516D02*
Y13484D01*
X269016Y12500D02*
X270984D01*
X270000Y11516D02*
Y13484D01*
X261516Y12500D02*
X263484D01*
X262500Y11516D02*
Y13484D01*
X254016Y12500D02*
X255984D01*
X255000Y11516D02*
Y13484D01*
X28516Y20000D02*
X30484D01*
X29500Y19016D02*
Y20984D01*
X26016Y26000D02*
X27984D01*
X27000Y25016D02*
Y26984D01*
X10516Y13500D02*
X12484D01*
X11500Y12516D02*
Y14484D01*
X26016Y13000D02*
X27984D01*
X27000Y12016D02*
Y13984D01*
X18516Y29500D02*
X20484D01*
X19500Y28516D02*
Y30484D01*
X18516Y9500D02*
X20484D01*
X19500Y8516D02*
Y10484D01*
X8516Y20000D02*
X10484D01*
X9500Y19016D02*
Y20984D01*
X11516Y26500D02*
X13484D01*
X12500Y25516D02*
Y27484D01*
X363516Y20000D02*
X365484D01*
X364500Y19016D02*
Y20984D01*
X361016Y26000D02*
X362984D01*
X362000Y25016D02*
Y26984D01*
X345516Y13500D02*
X347484D01*
X346500Y12516D02*
Y14484D01*
X361016Y13000D02*
X362984D01*
X362000Y12016D02*
Y13984D01*
X353516Y29500D02*
X355484D01*
X354500Y28516D02*
Y30484D01*
X353516Y9500D02*
X355484D01*
X354500Y8516D02*
Y10484D01*
X343516Y20000D02*
X345484D01*
X344500Y19016D02*
Y20984D01*
X346516Y26500D02*
X348484D01*
X347500Y25516D02*
Y27484D01*
X363516Y354500D02*
X365484D01*
X364500Y353516D02*
Y355484D01*
X361016Y360500D02*
X362984D01*
X362000Y359516D02*
Y361484D01*
X345516Y348000D02*
X347484D01*
X346500Y347016D02*
Y348984D01*
X361016Y347500D02*
X362984D01*
X362000Y346516D02*
Y348484D01*
X353516Y364000D02*
X355484D01*
X354500Y363016D02*
Y364984D01*
X353516Y344000D02*
X355484D01*
X354500Y343016D02*
Y344984D01*
X343516Y354500D02*
X345484D01*
X344500Y353516D02*
Y355484D01*
X346516Y361000D02*
X348484D01*
X347500Y360016D02*
Y361984D01*
X11516Y361500D02*
X13484D01*
X12500Y360516D02*
Y362484D01*
X8516Y355000D02*
X10484D01*
X9500Y354016D02*
Y355984D01*
X11626Y354500D02*
X27374D01*
X19500Y346626D02*
Y362374D01*
X18516Y344500D02*
X20484D01*
X19500Y343516D02*
Y345484D01*
X18516Y364500D02*
X20484D01*
X19500Y363516D02*
Y365484D01*
X26016Y348000D02*
X27984D01*
X27000Y347016D02*
Y348984D01*
X10516Y348500D02*
X12484D01*
X11500Y347516D02*
Y349484D01*
X26016Y361000D02*
X27984D01*
X27000Y360016D02*
Y361984D01*
X28516Y355000D02*
X30484D01*
X29500Y354016D02*
Y355984D01*
X186516Y315000D02*
X188484D01*
X187500Y314016D02*
Y315984D01*
X164016Y315000D02*
X165984D01*
X165000Y314016D02*
Y315984D01*
X156516Y315000D02*
X158484D01*
X157500Y314016D02*
Y315984D01*
X179016Y315000D02*
X180984D01*
X180000Y314016D02*
Y315984D01*
X171516Y315000D02*
X173484D01*
X172500Y314016D02*
Y315984D01*
X209016Y315000D02*
X210984D01*
X210000Y314016D02*
Y315984D01*
X201516Y315000D02*
X203484D01*
X202500Y314016D02*
Y315984D01*
X194016Y315000D02*
X195984D01*
X195000Y314016D02*
Y315984D01*
X231516Y315000D02*
X233484D01*
X232500Y314016D02*
Y315984D01*
X224016Y315000D02*
X225984D01*
X225000Y314016D02*
Y315984D01*
X216516Y315000D02*
X218484D01*
X217500Y314016D02*
Y315984D01*
X231516Y307500D02*
X233484D01*
X232500Y306516D02*
Y308484D01*
X164016Y307500D02*
X165984D01*
X165000Y306516D02*
Y308484D01*
X156516Y307500D02*
X158484D01*
X157500Y306516D02*
Y308484D01*
X149016Y307500D02*
X150984D01*
X150000Y306516D02*
Y308484D01*
X186516Y307500D02*
X188484D01*
X187500Y306516D02*
Y308484D01*
X179016Y307500D02*
X180984D01*
X180000Y306516D02*
Y308484D01*
X171516Y307500D02*
X173484D01*
X172500Y306516D02*
Y308484D01*
X209016Y307500D02*
X210984D01*
X210000Y306516D02*
Y308484D01*
X201516Y307500D02*
X203484D01*
X202500Y306516D02*
Y308484D01*
X194016Y307500D02*
X195984D01*
X195000Y306516D02*
Y308484D01*
X224016Y307500D02*
X225984D01*
X225000Y306516D02*
Y308484D01*
X216516Y307500D02*
X218484D01*
X217500Y306516D02*
Y308484D01*
X119016Y307500D02*
X120984D01*
X120000Y306516D02*
Y308484D01*
X141516Y307500D02*
X143484D01*
X142500Y306516D02*
Y308484D01*
X134016Y307500D02*
X135984D01*
X135000Y306516D02*
Y308484D01*
X126516Y307500D02*
X128484D01*
X127500Y306516D02*
Y308484D01*
X39016Y317500D02*
X40984D01*
X40000Y316516D02*
Y318484D01*
X111516Y307500D02*
X113484D01*
X112500Y306516D02*
Y308484D01*
X46516Y317500D02*
X48484D01*
X47500Y316516D02*
Y318484D01*
X54016Y317500D02*
X55984D01*
X55000Y316516D02*
Y318484D01*
X69016Y317500D02*
X70984D01*
X70000Y316516D02*
Y318484D01*
X61516Y317500D02*
X63484D01*
X62500Y316516D02*
Y318484D01*
X39016Y325000D02*
X40984D01*
X40000Y324016D02*
Y325984D01*
X39016Y332500D02*
X40984D01*
X40000Y331516D02*
Y333484D01*
X46516Y332500D02*
X48484D01*
X47500Y331516D02*
Y333484D01*
X46516Y325000D02*
X48484D01*
X47500Y324016D02*
Y325984D01*
X54016Y325000D02*
X55984D01*
X55000Y324016D02*
Y325984D01*
X61516Y325000D02*
X63484D01*
X62500Y324016D02*
Y325984D01*
X69016Y325000D02*
X70984D01*
X70000Y324016D02*
Y325984D01*
X54016Y332500D02*
X55984D01*
X55000Y331516D02*
Y333484D01*
X61516Y332500D02*
X63484D01*
X62500Y331516D02*
Y333484D01*
X69016Y332500D02*
X70984D01*
X70000Y331516D02*
Y333484D01*
X356516Y287500D02*
X358484D01*
X357500Y286516D02*
Y288484D01*
X349016Y287500D02*
X350984D01*
X350000Y286516D02*
Y288484D01*
X349016Y295000D02*
X350984D01*
X350000Y294016D02*
Y295984D01*
X356516Y295000D02*
X358484D01*
X357500Y294016D02*
Y295984D01*
X349016Y302500D02*
X350984D01*
X350000Y301516D02*
Y303484D01*
X356516Y302500D02*
X358484D01*
X357500Y301516D02*
Y303484D01*
X341516Y325000D02*
X343484D01*
X342500Y324016D02*
Y325984D01*
X356516Y317500D02*
X358484D01*
X357500Y316516D02*
Y318484D01*
X341516Y317500D02*
X343484D01*
X342500Y316516D02*
Y318484D01*
X349016Y317500D02*
X350984D01*
X350000Y316516D02*
Y318484D01*
X349016Y325000D02*
X350984D01*
X350000Y324016D02*
Y325984D01*
X341516Y310000D02*
X343484D01*
X342500Y309016D02*
Y310984D01*
X349016Y310000D02*
X350984D01*
X350000Y309016D02*
Y310984D01*
X356516Y310000D02*
X358484D01*
X357500Y309016D02*
Y310984D01*
X356516Y325000D02*
X358484D01*
X357500Y324016D02*
Y325984D01*
X116016Y205000D02*
X117984D01*
X117000Y204016D02*
Y205984D01*
X91016Y43000D02*
X92984D01*
X92000Y42016D02*
Y43984D01*
X126016Y43000D02*
X127984D01*
X127000Y42016D02*
Y43984D01*
X128016Y233000D02*
X129984D01*
X129000Y232016D02*
Y233984D01*
X24016Y55000D02*
X25984D01*
X25000Y54016D02*
Y55984D01*
X24016Y62500D02*
X25984D01*
X25000Y61516D02*
Y63484D01*
X24016Y70000D02*
X25984D01*
X25000Y69016D02*
Y70984D01*
X16516Y55000D02*
X18484D01*
X17500Y54016D02*
Y55984D01*
X16516Y62500D02*
X18484D01*
X17500Y61516D02*
Y63484D01*
X16516Y70000D02*
X18484D01*
X17500Y69016D02*
Y70984D01*
X216516Y12500D02*
X218484D01*
X217500Y11516D02*
Y13484D01*
X224016Y12500D02*
X225984D01*
X225000Y11516D02*
Y13484D01*
X231516Y12500D02*
X233484D01*
X232500Y11516D02*
Y13484D01*
X149516Y125000D02*
X151484D01*
X150500Y124016D02*
Y125984D01*
X157016Y125000D02*
X158984D01*
X158000Y124016D02*
Y125984D01*
X164516Y125000D02*
X166484D01*
X165500Y124016D02*
Y125984D01*
X296516Y307500D02*
X298484D01*
X297500Y306516D02*
Y308484D01*
X289016Y307500D02*
X290984D01*
X290000Y306516D02*
Y308484D01*
X287516Y277500D02*
X289484D01*
X288500Y276516D02*
Y278484D01*
X287516Y285000D02*
X289484D01*
X288500Y284016D02*
Y285984D01*
X287516Y187500D02*
X289484D01*
X288500Y186516D02*
Y188484D01*
X287516Y195000D02*
X289484D01*
X288500Y194016D02*
Y195984D01*
X289016Y217500D02*
X290984D01*
X290000Y216516D02*
Y218484D01*
X296516Y217500D02*
X298484D01*
X297500Y216516D02*
Y218484D01*
X296516Y127500D02*
X298484D01*
X297500Y126516D02*
Y128484D01*
X289016Y127500D02*
X290984D01*
X290000Y126516D02*
Y128484D01*
X209016Y12500D02*
X210984D01*
X210000Y11516D02*
Y13484D01*
X209016Y20000D02*
X210984D01*
X210000Y19016D02*
Y20984D01*
X209016Y27500D02*
X210984D01*
X210000Y26516D02*
Y28484D01*
X201516Y12500D02*
X203484D01*
X202500Y11516D02*
Y13484D01*
X201516Y20000D02*
X203484D01*
X202500Y19016D02*
Y20984D01*
X201516Y27500D02*
X203484D01*
X202500Y26516D02*
Y28484D01*
X231516Y27500D02*
X233484D01*
X232500Y26516D02*
Y28484D01*
X224016Y27500D02*
X225984D01*
X225000Y26516D02*
Y28484D01*
X216516Y27500D02*
X218484D01*
X217500Y26516D02*
Y28484D01*
X231516Y20000D02*
X233484D01*
X232500Y19016D02*
Y20984D01*
X224016Y20000D02*
X225984D01*
X225000Y19016D02*
Y20984D01*
X216516Y20000D02*
X218484D01*
X217500Y19016D02*
Y20984D01*
X149516Y132500D02*
X151484D01*
X150500Y131516D02*
Y133484D01*
X157016Y132500D02*
X158984D01*
X158000Y131516D02*
Y133484D01*
X164516Y132500D02*
X166484D01*
X165500Y131516D02*
Y133484D01*
X149516Y140000D02*
X151484D01*
X150500Y139016D02*
Y140984D01*
X157016Y140000D02*
X158984D01*
X158000Y139016D02*
Y140984D01*
X164516Y140000D02*
X166484D01*
X165500Y139016D02*
Y140984D01*
X134516Y140000D02*
X136484D01*
X135500Y139016D02*
Y140984D01*
X134516Y132500D02*
X136484D01*
X135500Y131516D02*
Y133484D01*
X134516Y125000D02*
X136484D01*
X135500Y124016D02*
Y125984D01*
X142016Y140000D02*
X143984D01*
X143000Y139016D02*
Y140984D01*
X142016Y132500D02*
X143984D01*
X143000Y131516D02*
Y133484D01*
X142016Y125000D02*
X143984D01*
X143000Y124016D02*
Y125984D01*
X24016Y77500D02*
X25984D01*
X25000Y76516D02*
Y78484D01*
X24016Y85000D02*
X25984D01*
X25000Y84016D02*
Y85984D01*
X24016Y92500D02*
X25984D01*
X25000Y91516D02*
Y93484D01*
X16516Y77500D02*
X18484D01*
X17500Y76516D02*
Y78484D01*
X16516Y85000D02*
X18484D01*
X17500Y84016D02*
Y85984D01*
X16516Y92500D02*
X18484D01*
X17500Y91516D02*
Y93484D01*
X323016Y60000D02*
X324984D01*
X324000Y59016D02*
Y60984D01*
X268016Y60000D02*
X269984D01*
X269000Y59016D02*
Y60984D01*
X268016Y150000D02*
X269984D01*
X269000Y149016D02*
Y150984D01*
X323016Y150000D02*
X324984D01*
X324000Y149016D02*
Y150984D01*
X323016Y240000D02*
X324984D01*
X324000Y239016D02*
Y240984D01*
X268016Y240000D02*
X269984D01*
X269000Y239016D02*
Y240984D01*
X278016Y75000D02*
X279984D01*
X279000Y74016D02*
Y75984D01*
X278016Y165000D02*
X279984D01*
X279000Y164016D02*
Y165984D01*
X278016Y255000D02*
X279984D01*
X279000Y254016D02*
Y255984D01*
X346457Y354331D02*
X362205D01*
X354331Y346457D02*
Y362205D01*
X346457Y19685D02*
X362205D01*
X354331Y11811D02*
Y27559D01*
X11811Y19685D02*
X27559D01*
X19685Y11811D02*
Y27559D01*
M02*
