G04*
G04 #@! TF.GenerationSoftware,Altium Limited,Altium Designer,21.0.8 (223)*
G04*
G04 Layer_Color=8388736*
%FSLAX25Y25*%
%MOIN*%
G70*
G04*
G04 #@! TF.SameCoordinates,9A741BFF-CE4B-45F5-BAAB-659130A2A11A*
G04*
G04*
G04 #@! TF.FilePolarity,Negative*
G04*
G01*
G75*
%ADD20R,0.23635X0.25997*%
%ADD21R,0.05524X0.09461*%
%ADD22R,0.07493X0.06706*%
%ADD23R,0.06706X0.07493*%
%ADD24R,0.08674X0.04800*%
%ADD25R,0.04800X0.08674*%
%ADD26C,0.06800*%
G04:AMPARAMS|DCode=27|XSize=108mil|YSize=108mil|CornerRadius=29mil|HoleSize=0mil|Usage=FLASHONLY|Rotation=0.000|XOffset=0mil|YOffset=0mil|HoleType=Round|Shape=RoundedRectangle|*
%AMROUNDEDRECTD27*
21,1,0.10800,0.05000,0,0,0.0*
21,1,0.05000,0.10800,0,0,0.0*
1,1,0.05800,0.02500,-0.02500*
1,1,0.05800,-0.02500,-0.02500*
1,1,0.05800,-0.02500,0.02500*
1,1,0.05800,0.02500,0.02500*
%
%ADD27ROUNDEDRECTD27*%
%ADD28C,0.12611*%
%ADD29C,0.10800*%
%ADD30R,0.10800X0.10800*%
%ADD31C,0.03556*%
%ADD32C,0.24422*%
D20*
X270000Y190000D02*
D03*
X325000Y279803D02*
D03*
Y100000D02*
D03*
X270000D02*
D03*
X325000Y190000D02*
D03*
X270000Y279803D02*
D03*
D21*
X261000Y165197D02*
D03*
X279000D02*
D03*
X334000Y255000D02*
D03*
X316000D02*
D03*
Y75197D02*
D03*
X334000D02*
D03*
X261000D02*
D03*
X279000D02*
D03*
X334000Y165197D02*
D03*
X316000D02*
D03*
X279000Y255000D02*
D03*
X261000D02*
D03*
D22*
X17000Y245000D02*
D03*
Y233976D02*
D03*
Y205000D02*
D03*
Y193976D02*
D03*
Y225000D02*
D03*
Y213976D02*
D03*
X303000Y75000D02*
D03*
Y86024D02*
D03*
X247000Y75000D02*
D03*
Y86024D02*
D03*
X303000Y165000D02*
D03*
Y176024D02*
D03*
X247000Y165000D02*
D03*
Y176024D02*
D03*
X303000Y255000D02*
D03*
Y266024D02*
D03*
X247000Y255000D02*
D03*
Y266024D02*
D03*
D23*
X117000Y205000D02*
D03*
X128024D02*
D03*
X57000Y44000D02*
D03*
X68024D02*
D03*
Y32000D02*
D03*
X57000D02*
D03*
Y21000D02*
D03*
X68024D02*
D03*
X92000Y43000D02*
D03*
X103024D02*
D03*
Y31000D02*
D03*
X92000D02*
D03*
Y20000D02*
D03*
X103024D02*
D03*
X127000Y43000D02*
D03*
X138024D02*
D03*
Y31000D02*
D03*
X127000D02*
D03*
Y20000D02*
D03*
X138024D02*
D03*
X280000Y240000D02*
D03*
X268976D02*
D03*
X335024Y60000D02*
D03*
X324000D02*
D03*
X280000D02*
D03*
X268976D02*
D03*
X335024Y150000D02*
D03*
X324000D02*
D03*
X280000D02*
D03*
X268976D02*
D03*
X335024Y240000D02*
D03*
X324000D02*
D03*
D24*
X303000Y95000D02*
D03*
Y108710D02*
D03*
X247000Y95000D02*
D03*
Y108710D02*
D03*
Y185000D02*
D03*
Y198710D02*
D03*
X303000Y185000D02*
D03*
Y198710D02*
D03*
Y275000D02*
D03*
Y288710D02*
D03*
X247000Y275000D02*
D03*
Y288710D02*
D03*
D25*
X327710Y120000D02*
D03*
X314000D02*
D03*
X259290D02*
D03*
X273000D02*
D03*
X259290Y210000D02*
D03*
X273000D02*
D03*
X327710D02*
D03*
X314000D02*
D03*
X327710Y300000D02*
D03*
X314000D02*
D03*
X259000D02*
D03*
X272710D02*
D03*
X302290Y60000D02*
D03*
X316000D02*
D03*
X247290D02*
D03*
X261000D02*
D03*
X302290Y150000D02*
D03*
X316000D02*
D03*
X247290D02*
D03*
X261000D02*
D03*
X302290Y240000D02*
D03*
X316000D02*
D03*
X247290D02*
D03*
X261000D02*
D03*
X189710Y116000D02*
D03*
X176000D02*
D03*
X189710Y295000D02*
D03*
X176000D02*
D03*
X189710Y207000D02*
D03*
X176000D02*
D03*
D26*
X113000Y70000D02*
D03*
X90000D02*
D03*
X67500D02*
D03*
X42500D02*
D03*
X142500D02*
D03*
Y97500D02*
D03*
Y160000D02*
D03*
Y192500D02*
D03*
Y250000D02*
D03*
Y280000D02*
D03*
X292000Y240000D02*
D03*
X346000D02*
D03*
Y150000D02*
D03*
Y60000D02*
D03*
X292000Y150000D02*
D03*
Y60000D02*
D03*
X218500Y72000D02*
D03*
Y62000D02*
D03*
Y102000D02*
D03*
Y92000D02*
D03*
X168500Y70000D02*
D03*
Y80000D02*
D03*
Y90000D02*
D03*
Y100000D02*
D03*
X198500Y70000D02*
D03*
Y80000D02*
D03*
Y90000D02*
D03*
Y100000D02*
D03*
X168500Y161000D02*
D03*
Y171000D02*
D03*
Y181000D02*
D03*
Y191000D02*
D03*
X198500Y161000D02*
D03*
Y171000D02*
D03*
Y181000D02*
D03*
Y191000D02*
D03*
X218500Y193000D02*
D03*
Y183000D02*
D03*
Y163000D02*
D03*
Y153000D02*
D03*
X168500Y249000D02*
D03*
Y259000D02*
D03*
Y269000D02*
D03*
Y279000D02*
D03*
X198500Y249000D02*
D03*
Y259000D02*
D03*
Y269000D02*
D03*
Y279000D02*
D03*
X218500Y281000D02*
D03*
Y271000D02*
D03*
Y251000D02*
D03*
Y241000D02*
D03*
X100000Y265000D02*
D03*
Y255000D02*
D03*
Y245000D02*
D03*
Y235000D02*
D03*
Y225000D02*
D03*
Y215000D02*
D03*
Y205000D02*
D03*
Y195000D02*
D03*
Y185000D02*
D03*
Y175000D02*
D03*
Y165000D02*
D03*
Y155000D02*
D03*
Y145000D02*
D03*
Y135000D02*
D03*
Y125000D02*
D03*
X40000Y265000D02*
D03*
Y255000D02*
D03*
Y245000D02*
D03*
Y235000D02*
D03*
Y225000D02*
D03*
Y215000D02*
D03*
Y205000D02*
D03*
Y195000D02*
D03*
Y185000D02*
D03*
Y175000D02*
D03*
Y165000D02*
D03*
Y155000D02*
D03*
Y145000D02*
D03*
Y135000D02*
D03*
Y125000D02*
D03*
X300000Y345000D02*
D03*
X310000D02*
D03*
X17000Y135000D02*
D03*
Y125000D02*
D03*
Y115000D02*
D03*
D27*
X360000Y166000D02*
D03*
Y190000D02*
D03*
Y214000D02*
D03*
D28*
X190000Y345000D02*
D03*
X249055D02*
D03*
D29*
X115000D02*
D03*
D30*
X135000D02*
D03*
D31*
X277500Y185000D02*
D03*
Y190000D02*
D03*
Y195000D02*
D03*
X270000Y200000D02*
D03*
Y195000D02*
D03*
Y185000D02*
D03*
X270000Y180000D02*
D03*
X262500Y185000D02*
D03*
Y190000D02*
D03*
Y195000D02*
D03*
Y180000D02*
D03*
Y200000D02*
D03*
X270000Y190000D02*
D03*
X325000Y280000D02*
D03*
Y190000D02*
D03*
Y100000D02*
D03*
X269000D02*
D03*
X270000Y280000D02*
D03*
X317500Y290000D02*
D03*
Y285000D02*
D03*
Y280000D02*
D03*
Y275000D02*
D03*
Y270000D02*
D03*
X332500D02*
D03*
Y275000D02*
D03*
Y280000D02*
D03*
Y285000D02*
D03*
Y290000D02*
D03*
X325000D02*
D03*
Y285000D02*
D03*
Y275000D02*
D03*
Y270000D02*
D03*
X262500Y290000D02*
D03*
Y285000D02*
D03*
Y280000D02*
D03*
Y275000D02*
D03*
Y270000D02*
D03*
X277500D02*
D03*
Y275000D02*
D03*
Y280000D02*
D03*
Y285000D02*
D03*
Y290000D02*
D03*
X270000D02*
D03*
Y285000D02*
D03*
Y275000D02*
D03*
Y270000D02*
D03*
X277500Y180000D02*
D03*
Y200000D02*
D03*
X317500D02*
D03*
Y195000D02*
D03*
Y190000D02*
D03*
Y185000D02*
D03*
Y180000D02*
D03*
X332500D02*
D03*
Y185000D02*
D03*
Y190000D02*
D03*
Y195000D02*
D03*
Y200000D02*
D03*
X325000D02*
D03*
Y195000D02*
D03*
Y185000D02*
D03*
Y180000D02*
D03*
X276500Y90000D02*
D03*
X269000Y95000D02*
D03*
X276500Y100000D02*
D03*
Y95000D02*
D03*
X261500Y105000D02*
D03*
X269000Y110000D02*
D03*
Y105000D02*
D03*
X288618Y97475D02*
D03*
X276500Y110000D02*
D03*
X269000Y90000D02*
D03*
X261500Y100000D02*
D03*
Y110000D02*
D03*
X276500Y105000D02*
D03*
X261500Y90000D02*
D03*
Y95000D02*
D03*
X288500Y105000D02*
D03*
X317500Y110000D02*
D03*
Y105000D02*
D03*
Y100000D02*
D03*
Y95000D02*
D03*
Y90000D02*
D03*
X332500D02*
D03*
Y95000D02*
D03*
Y100000D02*
D03*
Y105000D02*
D03*
Y110000D02*
D03*
X325000D02*
D03*
Y105000D02*
D03*
Y95000D02*
D03*
Y90000D02*
D03*
X142500Y315000D02*
D03*
X120000D02*
D03*
X135000D02*
D03*
X127500D02*
D03*
X150000D02*
D03*
X112500D02*
D03*
X255000Y20000D02*
D03*
X262500D02*
D03*
X270000D02*
D03*
X255000Y27500D02*
D03*
X262500D02*
D03*
X270000D02*
D03*
X240000D02*
D03*
Y20000D02*
D03*
Y12500D02*
D03*
X247500Y27500D02*
D03*
Y20000D02*
D03*
Y12500D02*
D03*
X270000D02*
D03*
X262500D02*
D03*
X255000D02*
D03*
X29500Y20000D02*
D03*
X27000Y26000D02*
D03*
X11500Y13500D02*
D03*
X27000Y13000D02*
D03*
X19500Y29500D02*
D03*
Y9500D02*
D03*
X9500Y20000D02*
D03*
X12500Y26500D02*
D03*
X364500Y20000D02*
D03*
X362000Y26000D02*
D03*
X346500Y13500D02*
D03*
X362000Y13000D02*
D03*
X354500Y29500D02*
D03*
Y9500D02*
D03*
X344500Y20000D02*
D03*
X347500Y26500D02*
D03*
X364500Y354500D02*
D03*
X362000Y360500D02*
D03*
X346500Y348000D02*
D03*
X362000Y347500D02*
D03*
X354500Y364000D02*
D03*
Y344000D02*
D03*
X344500Y354500D02*
D03*
X347500Y361000D02*
D03*
X12500Y361500D02*
D03*
X9500Y355000D02*
D03*
X19500Y344500D02*
D03*
Y364500D02*
D03*
X27000Y348000D02*
D03*
X11500Y348500D02*
D03*
X27000Y361000D02*
D03*
X29500Y355000D02*
D03*
X187500Y315000D02*
D03*
X165000D02*
D03*
X157500D02*
D03*
X180000D02*
D03*
X172500D02*
D03*
X210000D02*
D03*
X202500D02*
D03*
X195000D02*
D03*
X232500D02*
D03*
X225000D02*
D03*
X217500D02*
D03*
X232500Y307500D02*
D03*
X165000D02*
D03*
X157500D02*
D03*
X150000D02*
D03*
X187500D02*
D03*
X180000D02*
D03*
X172500D02*
D03*
X210000D02*
D03*
X202500D02*
D03*
X195000D02*
D03*
X225000D02*
D03*
X217500D02*
D03*
X120000D02*
D03*
X142500D02*
D03*
X135000D02*
D03*
X127500D02*
D03*
X40000Y317500D02*
D03*
X112500Y307500D02*
D03*
X47500Y317500D02*
D03*
X55000D02*
D03*
X70000D02*
D03*
X62500D02*
D03*
X40000Y325000D02*
D03*
Y332500D02*
D03*
X47500D02*
D03*
Y325000D02*
D03*
X55000D02*
D03*
X62500D02*
D03*
X70000D02*
D03*
X55000Y332500D02*
D03*
X62500D02*
D03*
X70000D02*
D03*
X357500Y287500D02*
D03*
X350000D02*
D03*
Y295000D02*
D03*
X357500D02*
D03*
X350000Y302500D02*
D03*
X357500D02*
D03*
X342500Y325000D02*
D03*
X357500Y317500D02*
D03*
X342500D02*
D03*
X350000D02*
D03*
Y325000D02*
D03*
X342500Y310000D02*
D03*
X350000D02*
D03*
X357500D02*
D03*
Y325000D02*
D03*
X117000Y205000D02*
D03*
X92000Y43000D02*
D03*
X127000D02*
D03*
X129000Y233000D02*
D03*
X25000Y55000D02*
D03*
Y62500D02*
D03*
Y70000D02*
D03*
X17500Y55000D02*
D03*
Y62500D02*
D03*
Y70000D02*
D03*
X217500Y12500D02*
D03*
X225000D02*
D03*
X232500D02*
D03*
X150500Y125000D02*
D03*
X158000D02*
D03*
X165500D02*
D03*
X297500Y307500D02*
D03*
X290000D02*
D03*
X288500Y277500D02*
D03*
Y285000D02*
D03*
Y187500D02*
D03*
Y195000D02*
D03*
X290000Y217500D02*
D03*
X297500D02*
D03*
Y127500D02*
D03*
X290000D02*
D03*
X210000Y12500D02*
D03*
Y20000D02*
D03*
Y27500D02*
D03*
X202500Y12500D02*
D03*
Y20000D02*
D03*
Y27500D02*
D03*
X232500D02*
D03*
X225000D02*
D03*
X217500D02*
D03*
X232500Y20000D02*
D03*
X225000D02*
D03*
X217500D02*
D03*
X150500Y132500D02*
D03*
X158000D02*
D03*
X165500D02*
D03*
X150500Y140000D02*
D03*
X158000D02*
D03*
X165500D02*
D03*
X135500D02*
D03*
Y132500D02*
D03*
Y125000D02*
D03*
X143000Y140000D02*
D03*
Y132500D02*
D03*
Y125000D02*
D03*
X25000Y77500D02*
D03*
Y85000D02*
D03*
Y92500D02*
D03*
X17500Y77500D02*
D03*
Y85000D02*
D03*
Y92500D02*
D03*
X324000Y60000D02*
D03*
X269000D02*
D03*
Y150000D02*
D03*
X324000D02*
D03*
Y240000D02*
D03*
X269000D02*
D03*
X279000Y75000D02*
D03*
Y165000D02*
D03*
Y255000D02*
D03*
D32*
X19500Y354500D02*
D03*
X354331Y354331D02*
D03*
Y19685D02*
D03*
X19685D02*
D03*
M02*
