G04*
G04 #@! TF.GenerationSoftware,Altium Limited,Altium Designer,21.0.8 (223)*
G04*
G04 Layer_Color=32768*
%FSLAX25Y25*%
%MOIN*%
G70*
G04*
G04 #@! TF.SameCoordinates,9A741BFF-CE4B-45F5-BAAB-659130A2A11A*
G04*
G04*
G04 #@! TF.FilePolarity,Positive*
G04*
G01*
G75*
%ADD11C,0.00394*%
D11*
X15032Y239488D02*
X18969D01*
X17098Y237618D02*
Y241555D01*
X15032Y199488D02*
X18969D01*
X17098Y197618D02*
Y201555D01*
X15032Y219488D02*
X18969D01*
X17098Y217618D02*
Y221555D01*
X122512Y203032D02*
Y206969D01*
X120445Y205099D02*
X124382D01*
X60642Y43902D02*
X64579D01*
X62512Y42031D02*
Y45968D01*
X60445Y32098D02*
X64382D01*
X62512Y30032D02*
Y33969D01*
X60642Y20901D02*
X64579D01*
X62512Y19031D02*
Y22968D01*
X95642Y42902D02*
X99579D01*
X97512Y41031D02*
Y44968D01*
X95445Y31098D02*
X99382D01*
X97512Y29032D02*
Y32969D01*
X95642Y19902D02*
X99579D01*
X97512Y18031D02*
Y21968D01*
X130642Y42902D02*
X134579D01*
X132512Y41031D02*
Y44968D01*
X130445Y31098D02*
X134382D01*
X132512Y29032D02*
Y32969D01*
X130642Y19902D02*
X134579D01*
X132512Y18031D02*
Y21968D01*
X272421Y240099D02*
X276358D01*
X274488Y238032D02*
Y241969D01*
X303099Y78642D02*
Y82579D01*
X301032Y80512D02*
X304969D01*
X247098Y78642D02*
Y82579D01*
X245032Y80512D02*
X248969D01*
X303099Y168642D02*
Y172579D01*
X301032Y170512D02*
X304969D01*
X247098Y168642D02*
Y172579D01*
X245032Y170512D02*
X248969D01*
X303099Y258642D02*
Y262579D01*
X301032Y260512D02*
X304969D01*
X247098Y258642D02*
Y262579D01*
X245032Y260512D02*
X248969D01*
X327445Y60098D02*
X331382D01*
X329512Y58032D02*
Y61969D01*
X272421Y60098D02*
X276358D01*
X274488Y58032D02*
Y61969D01*
X327445Y150099D02*
X331382D01*
X329512Y148032D02*
Y151969D01*
X272421Y150099D02*
X276358D01*
X274488Y148032D02*
Y151969D01*
X327445Y240099D02*
X331382D01*
X329512Y238032D02*
Y241969D01*
M02*
