M48
;Layer_Color=9474304
;FILE_FORMAT=2:5
INCH,LZ
;TYPE=PLATED
T1F00S00C0.01968
T2F00S00C0.03000
T3F00S00C0.05000
T4F00S00C0.05906
T5F00S00C0.15748
%
T01
X00115Y00135
X00095Y002
X00125Y00265
X00195Y00295
X0027Y0026
X00295Y002
X0027Y0013
X00195Y00095
X00175Y0055
X0025
Y00625
Y007
X00175
Y00625
Y00775
X0025
Y0085
Y00925
X00175
Y0085
X0092Y0043
X0127
X01355Y0125
Y01325
Y014
X0143
X01505
Y01325
Y0125
X0143
Y01325
X0158
Y0125
X01655
Y01325
Y014
X0158
X0269Y015
Y011
Y0105
Y01
Y0095
Y009
X02765
Y0095
Y01
Y0105
Y011
X02615
Y0105
Y01
Y0095
Y009
X0279Y0075
X0269Y006
X027Y00275
Y002
X02625
X0255
Y00275
X02625
X02475
X024
Y002
Y00125
X02475
Y002
X0255Y00125
X02625
X027
X02325
X0225
X02175
X021
Y002
Y00275
X02025
Y002
Y00125
X02175Y002
Y00275
X0225
X02325
Y002
X0225
X0288618Y0097475
X02885Y0105
X029Y01275
X02975
X03175Y011
Y0105
Y01
Y0095
Y009
X0325
Y0095
Y01
Y0105
Y011
X03325
Y0105
Y01
Y0095
Y009
X0324Y006
X03475Y00265
X03445Y002
X03465Y00135
X03545Y00095
X0362Y0013
X03645Y002
X0362Y0026
X03545Y00295
X0324Y015
X0325Y018
Y0185
Y019
Y0195
Y02
X03175
Y0195
Y019
Y0185
Y018
X03325
Y0185
Y019
Y0195
Y02
X0324Y024
X0325Y027
Y0275
Y028
Y0285
Y029
X03175
Y0285
Y028
Y0275
Y027
X03325
Y0275
Y028
Y0285
Y029
X035Y02875
X03575
Y0295
X035
Y03025
X03575
Y031
X035
X03425
X02975Y03075
X029
X02885Y0285
Y02775
X02775Y0275
Y027
X027
Y0275
Y028
Y0285
Y029
X02625
Y0285
Y028
Y0275
Y027
X02775Y028
Y0285
Y029
X0279Y0255
X0269Y024
X027Y02
Y0195
Y019
Y0185
X027Y018
X02625Y018
Y0185
Y019
Y0195
Y02
X02775
Y0195
Y019
Y0185
Y018
X0279Y0165
X02885Y01875
Y0195
X029Y02175
X02975
X02325Y03075
X0225
X02175
X021
X02025
X0195
X01875
X018
X01725
X0165
X01575
X015
X01425
X0135
X01275
X012
X01125
X0129Y0233
X0117Y0205
X012Y0315
X01275
X0135
X01425
X015
X01125
X007Y03175
X00625
X0055
X00475
X004
Y0325
Y03325
X00475
Y0325
X0055
X00625
X007
Y03325
X00625
X0055
X0027Y0348
X00295Y0355
X0027Y0361
X00195Y03645
X00125Y03615
X00095Y0355
X00115Y03485
X00195Y03445
X01575Y0315
X0165
X01725
X018
X01875
X0195
X02025
X021
X02175
X0225
X02325
X03425Y03175
Y0325
X035
Y03175
X03575
Y0325
X03545Y0344
X0362Y03475
X03645Y03545
X0362Y03605
X03545Y0364
X03475Y0361
X03445Y03545
X03465Y0348
T02
X00425Y007
X00675
X009
X0113
X01425
Y00975
X01Y0125
Y0135
Y0145
Y0155
X004
Y0145
Y0135
Y0125
X0017
Y0135
Y0115
X01685Y01
Y009
Y008
Y007
X01985
Y008
Y009
Y01
X02185Y0102
Y0092
Y0072
Y0062
X0292Y006
Y015
X02185Y0153
X0346Y015
Y006
X036Y0166
Y019
Y0214
X0346Y024
X0292
X02185Y0241
Y0251
Y0271
Y0281
X01985Y0279
Y0269
Y0259
Y0249
X01685
Y0259
Y0269
Y0279
Y0191
Y0181
Y0171
Y0161
X01985
Y0171
Y0181
Y0191
X02185Y0193
Y0183
Y0163
X01425Y016
Y01925
X01Y0195
Y0205
Y0215
Y0225
Y0235
Y0245
Y0255
Y0265
X01425Y025
Y028
X004Y0265
Y0255
Y0245
Y0235
Y0225
Y0215
Y0205
Y0195
Y0185
Y0175
Y0165
X01
Y0175
Y0185
X03Y0345
X031
T03
X0115Y0345
X0135
T04
X019Y0345
X0249055
T05
X0019685Y0019685
X0354331
X00195Y03545
X0354331Y0354331
M30
