G04*
G04 #@! TF.GenerationSoftware,Altium Limited,Altium Designer,21.0.8 (223)*
G04*
G04 Layer_Physical_Order=2*
G04 Layer_Color=16711680*
%FSLAX25Y25*%
%MOIN*%
G70*
G04*
G04 #@! TF.SameCoordinates,9A741BFF-CE4B-45F5-BAAB-659130A2A11A*
G04*
G04*
G04 #@! TF.FilePolarity,Positive*
G04*
G01*
G75*
%ADD10C,0.01000*%
%ADD33C,0.05000*%
%ADD35C,0.06000*%
G04:AMPARAMS|DCode=36|XSize=100mil|YSize=100mil|CornerRadius=25mil|HoleSize=0mil|Usage=FLASHONLY|Rotation=0.000|XOffset=0mil|YOffset=0mil|HoleType=Round|Shape=RoundedRectangle|*
%AMROUNDEDRECTD36*
21,1,0.10000,0.05000,0,0,0.0*
21,1,0.05000,0.10000,0,0,0.0*
1,1,0.05000,0.02500,-0.02500*
1,1,0.05000,-0.02500,-0.02500*
1,1,0.05000,-0.02500,0.02500*
1,1,0.05000,0.02500,0.02500*
%
%ADD36ROUNDEDRECTD36*%
%ADD37C,0.11811*%
%ADD38C,0.10000*%
%ADD39R,0.10000X0.10000*%
%ADD40C,0.02756*%
%ADD41C,0.23622*%
%ADD42C,0.20000*%
%ADD43C,0.15000*%
G36*
X370000Y360000D02*
Y15000D01*
X357500Y2500D01*
X17500Y2500D01*
X2500Y17500D01*
X2500Y360000D01*
X12500Y370000D01*
X360000D01*
X370000Y360000D01*
D02*
G37*
%LPC*%
G36*
X195000Y365204D02*
X195000Y365204D01*
X130000Y365204D01*
X129539Y365113D01*
X129148Y364851D01*
X129148Y364851D01*
X126148Y361852D01*
X126148Y361852D01*
X125887Y361461D01*
X125796Y361000D01*
X125796Y361000D01*
X125796Y329000D01*
X125796Y329000D01*
X125887Y328539D01*
X126148Y328149D01*
X126148Y328149D01*
X129148Y325149D01*
X129148Y325149D01*
X129539Y324887D01*
X130000Y324796D01*
X130000Y324796D01*
X195000Y324796D01*
X195461Y324887D01*
X195852Y325149D01*
X198852Y328149D01*
X199113Y328539D01*
X199204Y329000D01*
X199204Y329000D01*
X199204Y361000D01*
X199113Y361461D01*
X198852Y361852D01*
X198852Y361852D01*
X195852Y364851D01*
X195852Y364851D01*
X195461Y365113D01*
X195000Y365204D01*
D02*
G37*
G36*
X20508Y367311D02*
X20000D01*
Y355000D01*
X32311D01*
Y355508D01*
X31996Y357500D01*
X31372Y359418D01*
X30457Y361214D01*
X29272Y362846D01*
X27846Y364272D01*
X26214Y365457D01*
X24418Y366372D01*
X22500Y366996D01*
X20508Y367311D01*
D02*
G37*
G36*
X19000D02*
X18492D01*
X16500Y366996D01*
X14582Y366372D01*
X12786Y365457D01*
X11154Y364272D01*
X9728Y362846D01*
X8543Y361214D01*
X7628Y359418D01*
X7004Y357500D01*
X6689Y355508D01*
Y355000D01*
X19000D01*
Y367311D01*
D02*
G37*
G36*
X355339Y367142D02*
X354831D01*
Y354831D01*
X367142D01*
Y355339D01*
X366826Y357331D01*
X366203Y359248D01*
X365288Y361045D01*
X364102Y362677D01*
X362677Y364102D01*
X361045Y365288D01*
X359248Y366203D01*
X357331Y366826D01*
X355339Y367142D01*
D02*
G37*
G36*
X353831D02*
X353323D01*
X351331Y366826D01*
X349413Y366203D01*
X347616Y365288D01*
X345985Y364102D01*
X344559Y362677D01*
X343374Y361045D01*
X342458Y359248D01*
X341835Y357331D01*
X341520Y355339D01*
Y354831D01*
X353831D01*
Y367142D01*
D02*
G37*
G36*
X115591Y351000D02*
X115500D01*
Y345500D01*
X121000D01*
Y345591D01*
X120769Y346750D01*
X120317Y347842D01*
X119660Y348825D01*
X118825Y349660D01*
X117842Y350317D01*
X116750Y350769D01*
X115591Y351000D01*
D02*
G37*
G36*
X310527Y349000D02*
X310500D01*
Y345500D01*
X314000D01*
Y345527D01*
X313727Y346544D01*
X313201Y347456D01*
X312456Y348201D01*
X311544Y348727D01*
X310527Y349000D01*
D02*
G37*
G36*
X309500D02*
X309473D01*
X308456Y348727D01*
X307544Y348201D01*
X306799Y347456D01*
X306273Y346544D01*
X306000Y345527D01*
Y345500D01*
X309500D01*
Y349000D01*
D02*
G37*
G36*
X114500Y351000D02*
X114409D01*
X113250Y350769D01*
X112158Y350317D01*
X111175Y349660D01*
X110339Y348825D01*
X109683Y347842D01*
X109231Y346750D01*
X109000Y345591D01*
Y345500D01*
X114500D01*
Y351000D01*
D02*
G37*
G36*
X32311Y354000D02*
X20000D01*
Y341689D01*
X20508D01*
X22500Y342004D01*
X24418Y342628D01*
X26214Y343543D01*
X27846Y344728D01*
X29272Y346154D01*
X30457Y347786D01*
X31372Y349582D01*
X31996Y351500D01*
X32311Y353492D01*
Y354000D01*
D02*
G37*
G36*
X19000D02*
X6689D01*
Y353492D01*
X7004Y351500D01*
X7628Y349582D01*
X8543Y347786D01*
X9728Y346154D01*
X11154Y344728D01*
X12786Y343543D01*
X14582Y342628D01*
X16500Y342004D01*
X18492Y341689D01*
X19000D01*
Y354000D01*
D02*
G37*
G36*
X367142Y353831D02*
X354831D01*
Y341520D01*
X355339D01*
X357331Y341835D01*
X359248Y342458D01*
X361045Y343374D01*
X362677Y344559D01*
X364102Y345985D01*
X365288Y347616D01*
X366203Y349413D01*
X366826Y351331D01*
X367142Y353323D01*
Y353831D01*
D02*
G37*
G36*
X353831D02*
X341520D01*
Y353323D01*
X341835Y351331D01*
X342458Y349413D01*
X343374Y347616D01*
X344559Y345985D01*
X345985Y344559D01*
X347616Y343374D01*
X349413Y342458D01*
X351331Y341835D01*
X353323Y341520D01*
X353831D01*
Y353831D01*
D02*
G37*
G36*
X314000Y344500D02*
X310500D01*
Y341000D01*
X310527D01*
X311544Y341273D01*
X312456Y341799D01*
X313201Y342544D01*
X313727Y343456D01*
X314000Y344473D01*
Y344500D01*
D02*
G37*
G36*
X309500D02*
X306000D01*
Y344473D01*
X306273Y343456D01*
X306799Y342544D01*
X307544Y341799D01*
X308456Y341273D01*
X309473Y341000D01*
X309500D01*
Y344500D01*
D02*
G37*
G36*
X121000D02*
X115500D01*
Y339000D01*
X115591D01*
X116750Y339231D01*
X117842Y339683D01*
X118825Y340339D01*
X119660Y341175D01*
X120317Y342158D01*
X120769Y343250D01*
X121000Y344409D01*
Y344500D01*
D02*
G37*
G36*
X114500D02*
X109000D01*
Y344409D01*
X109231Y343250D01*
X109683Y342158D01*
X110339Y341175D01*
X111175Y340339D01*
X112158Y339683D01*
X113250Y339231D01*
X114409Y339000D01*
X114500D01*
Y344500D01*
D02*
G37*
G36*
X70500Y334867D02*
Y333000D01*
X72367D01*
X72016Y333847D01*
X71347Y334516D01*
X70500Y334867D01*
D02*
G37*
G36*
X69500D02*
X68653Y334516D01*
X67984Y333847D01*
X67633Y333000D01*
X69500D01*
Y334867D01*
D02*
G37*
G36*
X63000D02*
Y333000D01*
X64867D01*
X64516Y333847D01*
X63847Y334516D01*
X63000Y334867D01*
D02*
G37*
G36*
X62000D02*
X61153Y334516D01*
X60484Y333847D01*
X60133Y333000D01*
X62000D01*
Y334867D01*
D02*
G37*
G36*
X55500D02*
Y333000D01*
X57367D01*
X57016Y333847D01*
X56347Y334516D01*
X55500Y334867D01*
D02*
G37*
G36*
X54500D02*
X53653Y334516D01*
X52984Y333847D01*
X52633Y333000D01*
X54500D01*
Y334867D01*
D02*
G37*
G36*
X48000D02*
Y333000D01*
X49867D01*
X49516Y333847D01*
X48847Y334516D01*
X48000Y334867D01*
D02*
G37*
G36*
X47000D02*
X46153Y334516D01*
X45484Y333847D01*
X45133Y333000D01*
X47000D01*
Y334867D01*
D02*
G37*
G36*
X40500D02*
Y333000D01*
X42367D01*
X42016Y333847D01*
X41347Y334516D01*
X40500Y334867D01*
D02*
G37*
G36*
X39500D02*
X38653Y334516D01*
X37984Y333847D01*
X37633Y333000D01*
X39500D01*
Y334867D01*
D02*
G37*
G36*
X72367Y332000D02*
X70500D01*
Y330133D01*
X71347Y330484D01*
X72016Y331153D01*
X72367Y332000D01*
D02*
G37*
G36*
X69500D02*
X67633D01*
X67984Y331153D01*
X68653Y330484D01*
X69500Y330133D01*
Y332000D01*
D02*
G37*
G36*
X64867D02*
X63000D01*
Y330133D01*
X63847Y330484D01*
X64516Y331153D01*
X64867Y332000D01*
D02*
G37*
G36*
X62000D02*
X60133D01*
X60484Y331153D01*
X61153Y330484D01*
X62000Y330133D01*
Y332000D01*
D02*
G37*
G36*
X57367D02*
X55500D01*
Y330133D01*
X56347Y330484D01*
X57016Y331153D01*
X57367Y332000D01*
D02*
G37*
G36*
X54500D02*
X52633D01*
X52984Y331153D01*
X53653Y330484D01*
X54500Y330133D01*
Y332000D01*
D02*
G37*
G36*
X49867D02*
X48000D01*
Y330133D01*
X48847Y330484D01*
X49516Y331153D01*
X49867Y332000D01*
D02*
G37*
G36*
X47000D02*
X45133D01*
X45484Y331153D01*
X46153Y330484D01*
X47000Y330133D01*
Y332000D01*
D02*
G37*
G36*
X42367D02*
X40500D01*
Y330133D01*
X41347Y330484D01*
X42016Y331153D01*
X42367Y332000D01*
D02*
G37*
G36*
X39500D02*
X37633D01*
X37984Y331153D01*
X38653Y330484D01*
X39500Y330133D01*
Y332000D01*
D02*
G37*
G36*
X358000Y327367D02*
Y325500D01*
X359867D01*
X359516Y326347D01*
X358847Y327016D01*
X358000Y327367D01*
D02*
G37*
G36*
X357000D02*
X356153Y327016D01*
X355484Y326347D01*
X355133Y325500D01*
X357000D01*
Y327367D01*
D02*
G37*
G36*
X350500D02*
Y325500D01*
X352367D01*
X352016Y326347D01*
X351347Y327016D01*
X350500Y327367D01*
D02*
G37*
G36*
X349500D02*
X348653Y327016D01*
X347984Y326347D01*
X347633Y325500D01*
X349500D01*
Y327367D01*
D02*
G37*
G36*
X343000D02*
Y325500D01*
X344867D01*
X344516Y326347D01*
X343847Y327016D01*
X343000Y327367D01*
D02*
G37*
G36*
X342000D02*
X341153Y327016D01*
X340484Y326347D01*
X340133Y325500D01*
X342000D01*
Y327367D01*
D02*
G37*
G36*
X70500D02*
Y325500D01*
X72367D01*
X72016Y326347D01*
X71347Y327016D01*
X70500Y327367D01*
D02*
G37*
G36*
X69500D02*
X68653Y327016D01*
X67984Y326347D01*
X67633Y325500D01*
X69500D01*
Y327367D01*
D02*
G37*
G36*
X63000D02*
Y325500D01*
X64867D01*
X64516Y326347D01*
X63847Y327016D01*
X63000Y327367D01*
D02*
G37*
G36*
X62000D02*
X61153Y327016D01*
X60484Y326347D01*
X60133Y325500D01*
X62000D01*
Y327367D01*
D02*
G37*
G36*
X55500D02*
Y325500D01*
X57367D01*
X57016Y326347D01*
X56347Y327016D01*
X55500Y327367D01*
D02*
G37*
G36*
X54500D02*
X53653Y327016D01*
X52984Y326347D01*
X52633Y325500D01*
X54500D01*
Y327367D01*
D02*
G37*
G36*
X48000D02*
Y325500D01*
X49867D01*
X49516Y326347D01*
X48847Y327016D01*
X48000Y327367D01*
D02*
G37*
G36*
X47000D02*
X46153Y327016D01*
X45484Y326347D01*
X45133Y325500D01*
X47000D01*
Y327367D01*
D02*
G37*
G36*
X40500D02*
Y325500D01*
X42367D01*
X42016Y326347D01*
X41347Y327016D01*
X40500Y327367D01*
D02*
G37*
G36*
X39500D02*
X38653Y327016D01*
X37984Y326347D01*
X37633Y325500D01*
X39500D01*
Y327367D01*
D02*
G37*
G36*
X244055Y365204D02*
X243594Y365113D01*
X243204Y364851D01*
X243204Y364851D01*
X240204Y361852D01*
X240204Y361852D01*
X239943Y361461D01*
X239851Y361000D01*
X239851Y361000D01*
X239851Y329000D01*
X239851Y329000D01*
X239943Y328539D01*
X240204Y328149D01*
X240204Y328149D01*
X243203Y325149D01*
X243204Y325149D01*
X243594Y324887D01*
X244055Y324796D01*
X244055Y324796D01*
X256501D01*
X258784Y322513D01*
Y284713D01*
X220431D01*
X220114Y284896D01*
X219760Y284991D01*
X214125Y290625D01*
X213356Y291215D01*
X212461Y291586D01*
X211500Y291713D01*
X177500D01*
X176539Y291586D01*
X175644Y291215D01*
X174875Y290625D01*
X167240Y282991D01*
X166886Y282896D01*
X165933Y282346D01*
X165154Y281567D01*
X164604Y280614D01*
X164319Y279551D01*
Y278450D01*
X164604Y277386D01*
X165154Y276433D01*
X165933Y275654D01*
X166886Y275104D01*
X167949Y274819D01*
X169051D01*
X170114Y275104D01*
X171067Y275654D01*
X171846Y276433D01*
X172396Y277386D01*
X172491Y277740D01*
X179038Y284287D01*
X209962D01*
X214509Y279740D01*
X214604Y279386D01*
X215154Y278433D01*
X215933Y277654D01*
X216886Y277104D01*
X217950Y276819D01*
X219051D01*
X220114Y277104D01*
X220431Y277287D01*
X250773D01*
X250964Y276825D01*
X244069Y269931D01*
X242926Y268592D01*
X242007Y267092D01*
X241333Y265466D01*
X240922Y263755D01*
X240784Y262000D01*
X240784Y262000D01*
Y193713D01*
X223308D01*
X222381Y194641D01*
X221846Y195567D01*
X221067Y196346D01*
X220114Y196896D01*
X219760Y196991D01*
X214125Y202625D01*
X213356Y203215D01*
X212461Y203586D01*
X211500Y203713D01*
X177500D01*
X176539Y203586D01*
X175644Y203215D01*
X174875Y202625D01*
X167240Y194991D01*
X166886Y194896D01*
X165933Y194346D01*
X165154Y193567D01*
X164604Y192614D01*
X164319Y191551D01*
Y190450D01*
X164604Y189386D01*
X165154Y188433D01*
X165933Y187654D01*
X166886Y187104D01*
X167949Y186819D01*
X169051D01*
X170114Y187104D01*
X171067Y187654D01*
X171846Y188433D01*
X172396Y189386D01*
X172491Y189740D01*
X179038Y196287D01*
X209962D01*
X214509Y191740D01*
X214604Y191386D01*
X215154Y190433D01*
X215933Y189654D01*
X216886Y189104D01*
X217610Y188910D01*
X219020Y187500D01*
X219000Y187444D01*
Y183500D01*
X222500D01*
Y183527D01*
X222227Y184544D01*
X221701Y185456D01*
X221314Y185843D01*
X221548Y186317D01*
X221771Y186287D01*
X240784D01*
Y118000D01*
X240784Y118000D01*
X240922Y116245D01*
X241333Y114534D01*
X242007Y112908D01*
X242926Y111408D01*
X244069Y110069D01*
X249964Y104175D01*
X249773Y103713D01*
X222339D01*
X221846Y104567D01*
X221067Y105346D01*
X220114Y105896D01*
X219760Y105991D01*
X214125Y111625D01*
X213356Y112215D01*
X212461Y112586D01*
X211500Y112713D01*
X177500D01*
X176539Y112586D01*
X175644Y112215D01*
X174875Y111625D01*
X167240Y103991D01*
X166886Y103896D01*
X165933Y103346D01*
X165154Y102567D01*
X164604Y101614D01*
X164319Y100550D01*
Y99449D01*
X164604Y98386D01*
X165154Y97433D01*
X165933Y96654D01*
X166886Y96104D01*
X167949Y95819D01*
X169051D01*
X170114Y96104D01*
X171067Y96654D01*
X171846Y97433D01*
X172396Y98386D01*
X172491Y98740D01*
X179038Y105287D01*
X209962D01*
X214509Y100740D01*
X214604Y100386D01*
X215154Y99433D01*
X215933Y98654D01*
X216886Y98104D01*
X217610Y97910D01*
X218145Y97375D01*
X218914Y96785D01*
X219810Y96414D01*
X220771Y96287D01*
X257852D01*
X258941Y95198D01*
Y94663D01*
X259115Y94012D01*
X259452Y93429D01*
X259929Y92952D01*
X260212Y92789D01*
Y92211D01*
X259929Y92048D01*
X259452Y91571D01*
X259115Y90988D01*
X258941Y90337D01*
Y89663D01*
X259115Y89012D01*
X259452Y88429D01*
X259929Y87952D01*
X260512Y87615D01*
X261163Y87441D01*
X261837D01*
X262488Y87615D01*
X263071Y87952D01*
X263548Y88429D01*
X263885Y89012D01*
X264059Y89663D01*
Y90337D01*
X264039Y90411D01*
X264458Y90779D01*
X265534Y90333D01*
X266441Y90116D01*
Y89663D01*
X266615Y89012D01*
X266952Y88429D01*
X267429Y87952D01*
X268012Y87615D01*
X268663Y87441D01*
X269337D01*
X269988Y87615D01*
X270571Y87952D01*
X271048Y88429D01*
X271385Y89012D01*
X271559Y89663D01*
Y90116D01*
X272466Y90333D01*
X273542Y90779D01*
X273961Y90411D01*
X273941Y90337D01*
Y89663D01*
X274115Y89012D01*
X274452Y88429D01*
X274929Y87952D01*
X275512Y87615D01*
X276163Y87441D01*
X276837D01*
X277488Y87615D01*
X278071Y87952D01*
X278548Y88429D01*
X278885Y89012D01*
X279059Y89663D01*
Y90337D01*
X278885Y90988D01*
X278548Y91571D01*
X278071Y92048D01*
X277788Y92211D01*
Y92789D01*
X278071Y92952D01*
X278548Y93429D01*
X278885Y94012D01*
X279059Y94663D01*
Y95337D01*
X278932Y95809D01*
X278993Y95908D01*
X279667Y97534D01*
X280078Y99246D01*
X280216Y101000D01*
X280078Y102754D01*
X279667Y104466D01*
X278993Y106092D01*
X278171Y107433D01*
X278071Y107952D01*
X278548Y108429D01*
X278885Y109012D01*
X279059Y109663D01*
Y110337D01*
X278885Y110988D01*
X278548Y111571D01*
X278071Y112048D01*
X277488Y112385D01*
X276837Y112559D01*
X276163D01*
X275512Y112385D01*
X274929Y112048D01*
X274725Y111844D01*
X274051Y111810D01*
X268681Y117181D01*
X263216Y122646D01*
Y171513D01*
X269254Y177551D01*
X269663Y177441D01*
X270337D01*
X270988Y177615D01*
X271571Y177952D01*
X272048Y178429D01*
X272385Y179012D01*
X272402Y179078D01*
X273466Y179333D01*
X274487Y179756D01*
X275004Y179429D01*
X275115Y179012D01*
X275452Y178429D01*
X275929Y177952D01*
X276512Y177615D01*
X277163Y177441D01*
X277837D01*
X278488Y177615D01*
X279071Y177952D01*
X279548Y178429D01*
X279885Y179012D01*
X280059Y179663D01*
Y180337D01*
X279885Y180988D01*
X279548Y181571D01*
X279071Y182048D01*
X278788Y182211D01*
Y182789D01*
X279071Y182952D01*
X279548Y183429D01*
X279885Y184012D01*
X280059Y184663D01*
Y185067D01*
X280667Y186534D01*
X281078Y188245D01*
X281216Y190000D01*
X281078Y191754D01*
X280667Y193466D01*
X280059Y194933D01*
Y195337D01*
X279885Y195988D01*
X279548Y196571D01*
X279071Y197048D01*
X278788Y197211D01*
Y197789D01*
X279071Y197952D01*
X279548Y198429D01*
X279885Y199012D01*
X280059Y199663D01*
Y200337D01*
X279885Y200988D01*
X279548Y201571D01*
X279071Y202048D01*
X278488Y202385D01*
X277837Y202559D01*
X277163D01*
X276512Y202385D01*
X275929Y202048D01*
X275452Y201571D01*
X275115Y200988D01*
X275004Y200571D01*
X274487Y200244D01*
X273466Y200667D01*
X272402Y200922D01*
X272385Y200988D01*
X272048Y201571D01*
X271571Y202048D01*
X270988Y202385D01*
X270337Y202559D01*
X269663D01*
X269254Y202449D01*
X263216Y208487D01*
Y257354D01*
X269181Y263319D01*
X274675Y268814D01*
X275286Y268717D01*
X275452Y268429D01*
X275929Y267952D01*
X276512Y267615D01*
X277163Y267441D01*
X277837D01*
X278488Y267615D01*
X279071Y267952D01*
X279548Y268429D01*
X279885Y269012D01*
X280059Y269663D01*
Y270337D01*
X279885Y270988D01*
X279548Y271571D01*
X279071Y272048D01*
X278788Y272211D01*
Y272789D01*
X279071Y272952D01*
X279548Y273429D01*
X279885Y274012D01*
X280059Y274663D01*
Y275067D01*
X280667Y276534D01*
X281078Y278245D01*
X281216Y280000D01*
Y322513D01*
X283499Y324796D01*
X299000Y324796D01*
X299461Y324887D01*
X299851Y325149D01*
X299851Y325149D01*
X302852Y328149D01*
X303113Y328539D01*
X303204Y329000D01*
X303204Y329000D01*
X303204Y341036D01*
X303173Y341190D01*
X303163Y341348D01*
X303128Y341419D01*
X303113Y341497D01*
X303025Y341628D01*
X302955Y341769D01*
X303139Y342226D01*
X303346Y342433D01*
X303896Y343386D01*
X304181Y344449D01*
Y345550D01*
X303896Y346614D01*
X303346Y347567D01*
X303139Y347774D01*
X302955Y348231D01*
X303025Y348372D01*
X303113Y348503D01*
X303128Y348581D01*
X303163Y348652D01*
X303173Y348810D01*
X303204Y348964D01*
X303204Y361000D01*
X303113Y361461D01*
X302852Y361852D01*
X299852Y364851D01*
X299852Y364851D01*
X299461Y365112D01*
X299000Y365204D01*
X299000Y365204D01*
X244055Y365204D01*
D02*
G37*
G36*
X359867Y324500D02*
X358000D01*
Y322633D01*
X358847Y322984D01*
X359516Y323653D01*
X359867Y324500D01*
D02*
G37*
G36*
X357000D02*
X355133D01*
X355484Y323653D01*
X356153Y322984D01*
X357000Y322633D01*
Y324500D01*
D02*
G37*
G36*
X352367D02*
X350500D01*
Y322633D01*
X351347Y322984D01*
X352016Y323653D01*
X352367Y324500D01*
D02*
G37*
G36*
X349500D02*
X347633D01*
X347984Y323653D01*
X348653Y322984D01*
X349500Y322633D01*
Y324500D01*
D02*
G37*
G36*
X344867D02*
X343000D01*
Y322633D01*
X343847Y322984D01*
X344516Y323653D01*
X344867Y324500D01*
D02*
G37*
G36*
X342000D02*
X340133D01*
X340484Y323653D01*
X341153Y322984D01*
X342000Y322633D01*
Y324500D01*
D02*
G37*
G36*
X72367D02*
X70500D01*
Y322633D01*
X71347Y322984D01*
X72016Y323653D01*
X72367Y324500D01*
D02*
G37*
G36*
X69500D02*
X67633D01*
X67984Y323653D01*
X68653Y322984D01*
X69500Y322633D01*
Y324500D01*
D02*
G37*
G36*
X64867D02*
X63000D01*
Y322633D01*
X63847Y322984D01*
X64516Y323653D01*
X64867Y324500D01*
D02*
G37*
G36*
X62000D02*
X60133D01*
X60484Y323653D01*
X61153Y322984D01*
X62000Y322633D01*
Y324500D01*
D02*
G37*
G36*
X57367D02*
X55500D01*
Y322633D01*
X56347Y322984D01*
X57016Y323653D01*
X57367Y324500D01*
D02*
G37*
G36*
X54500D02*
X52633D01*
X52984Y323653D01*
X53653Y322984D01*
X54500Y322633D01*
Y324500D01*
D02*
G37*
G36*
X49867D02*
X48000D01*
Y322633D01*
X48847Y322984D01*
X49516Y323653D01*
X49867Y324500D01*
D02*
G37*
G36*
X47000D02*
X45133D01*
X45484Y323653D01*
X46153Y322984D01*
X47000Y322633D01*
Y324500D01*
D02*
G37*
G36*
X42367D02*
X40500D01*
Y322633D01*
X41347Y322984D01*
X42016Y323653D01*
X42367Y324500D01*
D02*
G37*
G36*
X39500D02*
X37633D01*
X37984Y323653D01*
X38653Y322984D01*
X39500Y322633D01*
Y324500D01*
D02*
G37*
G36*
X358000Y319867D02*
Y318000D01*
X359867D01*
X359516Y318847D01*
X358847Y319516D01*
X358000Y319867D01*
D02*
G37*
G36*
X357000D02*
X356153Y319516D01*
X355484Y318847D01*
X355133Y318000D01*
X357000D01*
Y319867D01*
D02*
G37*
G36*
X350500D02*
Y318000D01*
X352367D01*
X352016Y318847D01*
X351347Y319516D01*
X350500Y319867D01*
D02*
G37*
G36*
X349500D02*
X348653Y319516D01*
X347984Y318847D01*
X347633Y318000D01*
X349500D01*
Y319867D01*
D02*
G37*
G36*
X343000D02*
Y318000D01*
X344867D01*
X344516Y318847D01*
X343847Y319516D01*
X343000Y319867D01*
D02*
G37*
G36*
X342000D02*
X341153Y319516D01*
X340484Y318847D01*
X340133Y318000D01*
X342000D01*
Y319867D01*
D02*
G37*
G36*
X70500D02*
Y318000D01*
X72367D01*
X72016Y318847D01*
X71347Y319516D01*
X70500Y319867D01*
D02*
G37*
G36*
X69500D02*
X68653Y319516D01*
X67984Y318847D01*
X67633Y318000D01*
X69500D01*
Y319867D01*
D02*
G37*
G36*
X63000D02*
Y318000D01*
X64867D01*
X64516Y318847D01*
X63847Y319516D01*
X63000Y319867D01*
D02*
G37*
G36*
X62000D02*
X61153Y319516D01*
X60484Y318847D01*
X60133Y318000D01*
X62000D01*
Y319867D01*
D02*
G37*
G36*
X55500D02*
Y318000D01*
X57367D01*
X57016Y318847D01*
X56347Y319516D01*
X55500Y319867D01*
D02*
G37*
G36*
X54500D02*
X53653Y319516D01*
X52984Y318847D01*
X52633Y318000D01*
X54500D01*
Y319867D01*
D02*
G37*
G36*
X48000D02*
Y318000D01*
X49867D01*
X49516Y318847D01*
X48847Y319516D01*
X48000Y319867D01*
D02*
G37*
G36*
X47000D02*
X46153Y319516D01*
X45484Y318847D01*
X45133Y318000D01*
X47000D01*
Y319867D01*
D02*
G37*
G36*
X40500D02*
Y318000D01*
X42367D01*
X42016Y318847D01*
X41347Y319516D01*
X40500Y319867D01*
D02*
G37*
G36*
X39500D02*
X38653Y319516D01*
X37984Y318847D01*
X37633Y318000D01*
X39500D01*
Y319867D01*
D02*
G37*
G36*
X233000Y317367D02*
Y315500D01*
X234867D01*
X234516Y316347D01*
X233847Y317016D01*
X233000Y317367D01*
D02*
G37*
G36*
X232000D02*
X231153Y317016D01*
X230484Y316347D01*
X230133Y315500D01*
X232000D01*
Y317367D01*
D02*
G37*
G36*
X225500D02*
Y315500D01*
X227367D01*
X227016Y316347D01*
X226347Y317016D01*
X225500Y317367D01*
D02*
G37*
G36*
X224500D02*
X223653Y317016D01*
X222984Y316347D01*
X222633Y315500D01*
X224500D01*
Y317367D01*
D02*
G37*
G36*
X218000D02*
Y315500D01*
X219867D01*
X219516Y316347D01*
X218847Y317016D01*
X218000Y317367D01*
D02*
G37*
G36*
X217000D02*
X216153Y317016D01*
X215484Y316347D01*
X215133Y315500D01*
X217000D01*
Y317367D01*
D02*
G37*
G36*
X210500D02*
Y315500D01*
X212367D01*
X212016Y316347D01*
X211347Y317016D01*
X210500Y317367D01*
D02*
G37*
G36*
X209500D02*
X208653Y317016D01*
X207984Y316347D01*
X207633Y315500D01*
X209500D01*
Y317367D01*
D02*
G37*
G36*
X203000D02*
Y315500D01*
X204867D01*
X204516Y316347D01*
X203847Y317016D01*
X203000Y317367D01*
D02*
G37*
G36*
X202000D02*
X201153Y317016D01*
X200484Y316347D01*
X200133Y315500D01*
X202000D01*
Y317367D01*
D02*
G37*
G36*
X195500D02*
Y315500D01*
X197367D01*
X197016Y316347D01*
X196347Y317016D01*
X195500Y317367D01*
D02*
G37*
G36*
X194500D02*
X193653Y317016D01*
X192984Y316347D01*
X192633Y315500D01*
X194500D01*
Y317367D01*
D02*
G37*
G36*
X188000D02*
Y315500D01*
X189867D01*
X189516Y316347D01*
X188847Y317016D01*
X188000Y317367D01*
D02*
G37*
G36*
X187000D02*
X186153Y317016D01*
X185484Y316347D01*
X185133Y315500D01*
X187000D01*
Y317367D01*
D02*
G37*
G36*
X180500D02*
Y315500D01*
X182367D01*
X182016Y316347D01*
X181347Y317016D01*
X180500Y317367D01*
D02*
G37*
G36*
X179500D02*
X178653Y317016D01*
X177984Y316347D01*
X177633Y315500D01*
X179500D01*
Y317367D01*
D02*
G37*
G36*
X173000D02*
Y315500D01*
X174867D01*
X174516Y316347D01*
X173847Y317016D01*
X173000Y317367D01*
D02*
G37*
G36*
X172000D02*
X171153Y317016D01*
X170484Y316347D01*
X170133Y315500D01*
X172000D01*
Y317367D01*
D02*
G37*
G36*
X165500D02*
Y315500D01*
X167367D01*
X167016Y316347D01*
X166347Y317016D01*
X165500Y317367D01*
D02*
G37*
G36*
X164500D02*
X163653Y317016D01*
X162984Y316347D01*
X162633Y315500D01*
X164500D01*
Y317367D01*
D02*
G37*
G36*
X158000D02*
Y315500D01*
X159867D01*
X159516Y316347D01*
X158847Y317016D01*
X158000Y317367D01*
D02*
G37*
G36*
X157000D02*
X156153Y317016D01*
X155484Y316347D01*
X155133Y315500D01*
X157000D01*
Y317367D01*
D02*
G37*
G36*
X150500D02*
Y315500D01*
X152367D01*
X152016Y316347D01*
X151347Y317016D01*
X150500Y317367D01*
D02*
G37*
G36*
X149500D02*
X148653Y317016D01*
X147984Y316347D01*
X147633Y315500D01*
X149500D01*
Y317367D01*
D02*
G37*
G36*
X143000D02*
Y315500D01*
X144867D01*
X144516Y316347D01*
X143847Y317016D01*
X143000Y317367D01*
D02*
G37*
G36*
X142000D02*
X141153Y317016D01*
X140484Y316347D01*
X140133Y315500D01*
X142000D01*
Y317367D01*
D02*
G37*
G36*
X135500D02*
Y315500D01*
X137367D01*
X137016Y316347D01*
X136347Y317016D01*
X135500Y317367D01*
D02*
G37*
G36*
X134500D02*
X133653Y317016D01*
X132984Y316347D01*
X132633Y315500D01*
X134500D01*
Y317367D01*
D02*
G37*
G36*
X128000D02*
Y315500D01*
X129867D01*
X129516Y316347D01*
X128847Y317016D01*
X128000Y317367D01*
D02*
G37*
G36*
X127000D02*
X126153Y317016D01*
X125484Y316347D01*
X125133Y315500D01*
X127000D01*
Y317367D01*
D02*
G37*
G36*
X120500D02*
Y315500D01*
X122367D01*
X122016Y316347D01*
X121347Y317016D01*
X120500Y317367D01*
D02*
G37*
G36*
X119500D02*
X118653Y317016D01*
X117984Y316347D01*
X117633Y315500D01*
X119500D01*
Y317367D01*
D02*
G37*
G36*
X113000D02*
Y315500D01*
X114867D01*
X114516Y316347D01*
X113847Y317016D01*
X113000Y317367D01*
D02*
G37*
G36*
X112000D02*
X111153Y317016D01*
X110484Y316347D01*
X110133Y315500D01*
X112000D01*
Y317367D01*
D02*
G37*
G36*
X359867Y317000D02*
X358000D01*
Y315133D01*
X358847Y315484D01*
X359516Y316153D01*
X359867Y317000D01*
D02*
G37*
G36*
X357000D02*
X355133D01*
X355484Y316153D01*
X356153Y315484D01*
X357000Y315133D01*
Y317000D01*
D02*
G37*
G36*
X352367D02*
X350500D01*
Y315133D01*
X351347Y315484D01*
X352016Y316153D01*
X352367Y317000D01*
D02*
G37*
G36*
X349500D02*
X347633D01*
X347984Y316153D01*
X348653Y315484D01*
X349500Y315133D01*
Y317000D01*
D02*
G37*
G36*
X344867D02*
X343000D01*
Y315133D01*
X343847Y315484D01*
X344516Y316153D01*
X344867Y317000D01*
D02*
G37*
G36*
X342000D02*
X340133D01*
X340484Y316153D01*
X341153Y315484D01*
X342000Y315133D01*
Y317000D01*
D02*
G37*
G36*
X72367D02*
X70500D01*
Y315133D01*
X71347Y315484D01*
X72016Y316153D01*
X72367Y317000D01*
D02*
G37*
G36*
X69500D02*
X67633D01*
X67984Y316153D01*
X68653Y315484D01*
X69500Y315133D01*
Y317000D01*
D02*
G37*
G36*
X64867D02*
X63000D01*
Y315133D01*
X63847Y315484D01*
X64516Y316153D01*
X64867Y317000D01*
D02*
G37*
G36*
X62000D02*
X60133D01*
X60484Y316153D01*
X61153Y315484D01*
X62000Y315133D01*
Y317000D01*
D02*
G37*
G36*
X57367D02*
X55500D01*
Y315133D01*
X56347Y315484D01*
X57016Y316153D01*
X57367Y317000D01*
D02*
G37*
G36*
X54500D02*
X52633D01*
X52984Y316153D01*
X53653Y315484D01*
X54500Y315133D01*
Y317000D01*
D02*
G37*
G36*
X49867D02*
X48000D01*
Y315133D01*
X48847Y315484D01*
X49516Y316153D01*
X49867Y317000D01*
D02*
G37*
G36*
X47000D02*
X45133D01*
X45484Y316153D01*
X46153Y315484D01*
X47000Y315133D01*
Y317000D01*
D02*
G37*
G36*
X42367D02*
X40500D01*
Y315133D01*
X41347Y315484D01*
X42016Y316153D01*
X42367Y317000D01*
D02*
G37*
G36*
X39500D02*
X37633D01*
X37984Y316153D01*
X38653Y315484D01*
X39500Y315133D01*
Y317000D01*
D02*
G37*
G36*
X234867Y314500D02*
X233000D01*
Y312633D01*
X233847Y312984D01*
X234516Y313653D01*
X234867Y314500D01*
D02*
G37*
G36*
X232000D02*
X230133D01*
X230484Y313653D01*
X231153Y312984D01*
X232000Y312633D01*
Y314500D01*
D02*
G37*
G36*
X227367D02*
X225500D01*
Y312633D01*
X226347Y312984D01*
X227016Y313653D01*
X227367Y314500D01*
D02*
G37*
G36*
X224500D02*
X222633D01*
X222984Y313653D01*
X223653Y312984D01*
X224500Y312633D01*
Y314500D01*
D02*
G37*
G36*
X219867D02*
X218000D01*
Y312633D01*
X218847Y312984D01*
X219516Y313653D01*
X219867Y314500D01*
D02*
G37*
G36*
X217000D02*
X215133D01*
X215484Y313653D01*
X216153Y312984D01*
X217000Y312633D01*
Y314500D01*
D02*
G37*
G36*
X212367D02*
X210500D01*
Y312633D01*
X211347Y312984D01*
X212016Y313653D01*
X212367Y314500D01*
D02*
G37*
G36*
X209500D02*
X207633D01*
X207984Y313653D01*
X208653Y312984D01*
X209500Y312633D01*
Y314500D01*
D02*
G37*
G36*
X204867D02*
X203000D01*
Y312633D01*
X203847Y312984D01*
X204516Y313653D01*
X204867Y314500D01*
D02*
G37*
G36*
X202000D02*
X200133D01*
X200484Y313653D01*
X201153Y312984D01*
X202000Y312633D01*
Y314500D01*
D02*
G37*
G36*
X197367D02*
X195500D01*
Y312633D01*
X196347Y312984D01*
X197016Y313653D01*
X197367Y314500D01*
D02*
G37*
G36*
X194500D02*
X192633D01*
X192984Y313653D01*
X193653Y312984D01*
X194500Y312633D01*
Y314500D01*
D02*
G37*
G36*
X189867D02*
X188000D01*
Y312633D01*
X188847Y312984D01*
X189516Y313653D01*
X189867Y314500D01*
D02*
G37*
G36*
X187000D02*
X185133D01*
X185484Y313653D01*
X186153Y312984D01*
X187000Y312633D01*
Y314500D01*
D02*
G37*
G36*
X182367D02*
X180500D01*
Y312633D01*
X181347Y312984D01*
X182016Y313653D01*
X182367Y314500D01*
D02*
G37*
G36*
X179500D02*
X177633D01*
X177984Y313653D01*
X178653Y312984D01*
X179500Y312633D01*
Y314500D01*
D02*
G37*
G36*
X174867D02*
X173000D01*
Y312633D01*
X173847Y312984D01*
X174516Y313653D01*
X174867Y314500D01*
D02*
G37*
G36*
X172000D02*
X170133D01*
X170484Y313653D01*
X171153Y312984D01*
X172000Y312633D01*
Y314500D01*
D02*
G37*
G36*
X167367D02*
X165500D01*
Y312633D01*
X166347Y312984D01*
X167016Y313653D01*
X167367Y314500D01*
D02*
G37*
G36*
X164500D02*
X162633D01*
X162984Y313653D01*
X163653Y312984D01*
X164500Y312633D01*
Y314500D01*
D02*
G37*
G36*
X159867D02*
X158000D01*
Y312633D01*
X158847Y312984D01*
X159516Y313653D01*
X159867Y314500D01*
D02*
G37*
G36*
X157000D02*
X155133D01*
X155484Y313653D01*
X156153Y312984D01*
X157000Y312633D01*
Y314500D01*
D02*
G37*
G36*
X152367D02*
X150500D01*
Y312633D01*
X151347Y312984D01*
X152016Y313653D01*
X152367Y314500D01*
D02*
G37*
G36*
X149500D02*
X147633D01*
X147984Y313653D01*
X148653Y312984D01*
X149500Y312633D01*
Y314500D01*
D02*
G37*
G36*
X144867D02*
X143000D01*
Y312633D01*
X143847Y312984D01*
X144516Y313653D01*
X144867Y314500D01*
D02*
G37*
G36*
X142000D02*
X140133D01*
X140484Y313653D01*
X141153Y312984D01*
X142000Y312633D01*
Y314500D01*
D02*
G37*
G36*
X137367D02*
X135500D01*
Y312633D01*
X136347Y312984D01*
X137016Y313653D01*
X137367Y314500D01*
D02*
G37*
G36*
X134500D02*
X132633D01*
X132984Y313653D01*
X133653Y312984D01*
X134500Y312633D01*
Y314500D01*
D02*
G37*
G36*
X129867D02*
X128000D01*
Y312633D01*
X128847Y312984D01*
X129516Y313653D01*
X129867Y314500D01*
D02*
G37*
G36*
X127000D02*
X125133D01*
X125484Y313653D01*
X126153Y312984D01*
X127000Y312633D01*
Y314500D01*
D02*
G37*
G36*
X122367D02*
X120500D01*
Y312633D01*
X121347Y312984D01*
X122016Y313653D01*
X122367Y314500D01*
D02*
G37*
G36*
X119500D02*
X117633D01*
X117984Y313653D01*
X118653Y312984D01*
X119500Y312633D01*
Y314500D01*
D02*
G37*
G36*
X114867D02*
X113000D01*
Y312633D01*
X113847Y312984D01*
X114516Y313653D01*
X114867Y314500D01*
D02*
G37*
G36*
X112000D02*
X110133D01*
X110484Y313653D01*
X111153Y312984D01*
X112000Y312633D01*
Y314500D01*
D02*
G37*
G36*
X358000Y312367D02*
Y310500D01*
X359867D01*
X359516Y311347D01*
X358847Y312016D01*
X358000Y312367D01*
D02*
G37*
G36*
X357000D02*
X356153Y312016D01*
X355484Y311347D01*
X355133Y310500D01*
X357000D01*
Y312367D01*
D02*
G37*
G36*
X350500D02*
Y310500D01*
X352367D01*
X352016Y311347D01*
X351347Y312016D01*
X350500Y312367D01*
D02*
G37*
G36*
X349500D02*
X348653Y312016D01*
X347984Y311347D01*
X347633Y310500D01*
X349500D01*
Y312367D01*
D02*
G37*
G36*
X343000D02*
Y310500D01*
X344867D01*
X344516Y311347D01*
X343847Y312016D01*
X343000Y312367D01*
D02*
G37*
G36*
X342000D02*
X341153Y312016D01*
X340484Y311347D01*
X340133Y310500D01*
X342000D01*
Y312367D01*
D02*
G37*
G36*
X298000Y309867D02*
Y308000D01*
X299867D01*
X299516Y308847D01*
X298847Y309516D01*
X298000Y309867D01*
D02*
G37*
G36*
X297000D02*
X296153Y309516D01*
X295484Y308847D01*
X295133Y308000D01*
X297000D01*
Y309867D01*
D02*
G37*
G36*
X290500D02*
Y308000D01*
X292367D01*
X292016Y308847D01*
X291347Y309516D01*
X290500Y309867D01*
D02*
G37*
G36*
X289500D02*
X288653Y309516D01*
X287984Y308847D01*
X287633Y308000D01*
X289500D01*
Y309867D01*
D02*
G37*
G36*
X233000D02*
Y308000D01*
X234867D01*
X234516Y308847D01*
X233847Y309516D01*
X233000Y309867D01*
D02*
G37*
G36*
X232000D02*
X231153Y309516D01*
X230484Y308847D01*
X230133Y308000D01*
X232000D01*
Y309867D01*
D02*
G37*
G36*
X225500D02*
Y308000D01*
X227367D01*
X227016Y308847D01*
X226347Y309516D01*
X225500Y309867D01*
D02*
G37*
G36*
X224500D02*
X223653Y309516D01*
X222984Y308847D01*
X222633Y308000D01*
X224500D01*
Y309867D01*
D02*
G37*
G36*
X218000D02*
Y308000D01*
X219867D01*
X219516Y308847D01*
X218847Y309516D01*
X218000Y309867D01*
D02*
G37*
G36*
X217000D02*
X216153Y309516D01*
X215484Y308847D01*
X215133Y308000D01*
X217000D01*
Y309867D01*
D02*
G37*
G36*
X210500D02*
Y308000D01*
X212367D01*
X212016Y308847D01*
X211347Y309516D01*
X210500Y309867D01*
D02*
G37*
G36*
X209500D02*
X208653Y309516D01*
X207984Y308847D01*
X207633Y308000D01*
X209500D01*
Y309867D01*
D02*
G37*
G36*
X203000D02*
Y308000D01*
X204867D01*
X204516Y308847D01*
X203847Y309516D01*
X203000Y309867D01*
D02*
G37*
G36*
X202000D02*
X201153Y309516D01*
X200484Y308847D01*
X200133Y308000D01*
X202000D01*
Y309867D01*
D02*
G37*
G36*
X195500D02*
Y308000D01*
X197367D01*
X197016Y308847D01*
X196347Y309516D01*
X195500Y309867D01*
D02*
G37*
G36*
X194500D02*
X193653Y309516D01*
X192984Y308847D01*
X192633Y308000D01*
X194500D01*
Y309867D01*
D02*
G37*
G36*
X188000D02*
Y308000D01*
X189867D01*
X189516Y308847D01*
X188847Y309516D01*
X188000Y309867D01*
D02*
G37*
G36*
X187000D02*
X186153Y309516D01*
X185484Y308847D01*
X185133Y308000D01*
X187000D01*
Y309867D01*
D02*
G37*
G36*
X180500D02*
Y308000D01*
X182367D01*
X182016Y308847D01*
X181347Y309516D01*
X180500Y309867D01*
D02*
G37*
G36*
X179500D02*
X178653Y309516D01*
X177984Y308847D01*
X177633Y308000D01*
X179500D01*
Y309867D01*
D02*
G37*
G36*
X173000D02*
Y308000D01*
X174867D01*
X174516Y308847D01*
X173847Y309516D01*
X173000Y309867D01*
D02*
G37*
G36*
X172000D02*
X171153Y309516D01*
X170484Y308847D01*
X170133Y308000D01*
X172000D01*
Y309867D01*
D02*
G37*
G36*
X165500D02*
Y308000D01*
X167367D01*
X167016Y308847D01*
X166347Y309516D01*
X165500Y309867D01*
D02*
G37*
G36*
X164500D02*
X163653Y309516D01*
X162984Y308847D01*
X162633Y308000D01*
X164500D01*
Y309867D01*
D02*
G37*
G36*
X158000D02*
Y308000D01*
X159867D01*
X159516Y308847D01*
X158847Y309516D01*
X158000Y309867D01*
D02*
G37*
G36*
X157000D02*
X156153Y309516D01*
X155484Y308847D01*
X155133Y308000D01*
X157000D01*
Y309867D01*
D02*
G37*
G36*
X150500D02*
Y308000D01*
X152367D01*
X152016Y308847D01*
X151347Y309516D01*
X150500Y309867D01*
D02*
G37*
G36*
X149500D02*
X148653Y309516D01*
X147984Y308847D01*
X147633Y308000D01*
X149500D01*
Y309867D01*
D02*
G37*
G36*
X143000D02*
Y308000D01*
X144867D01*
X144516Y308847D01*
X143847Y309516D01*
X143000Y309867D01*
D02*
G37*
G36*
X142000D02*
X141153Y309516D01*
X140484Y308847D01*
X140133Y308000D01*
X142000D01*
Y309867D01*
D02*
G37*
G36*
X135500D02*
Y308000D01*
X137367D01*
X137016Y308847D01*
X136347Y309516D01*
X135500Y309867D01*
D02*
G37*
G36*
X134500D02*
X133653Y309516D01*
X132984Y308847D01*
X132633Y308000D01*
X134500D01*
Y309867D01*
D02*
G37*
G36*
X128000D02*
Y308000D01*
X129867D01*
X129516Y308847D01*
X128847Y309516D01*
X128000Y309867D01*
D02*
G37*
G36*
X127000D02*
X126153Y309516D01*
X125484Y308847D01*
X125133Y308000D01*
X127000D01*
Y309867D01*
D02*
G37*
G36*
X120500D02*
Y308000D01*
X122367D01*
X122016Y308847D01*
X121347Y309516D01*
X120500Y309867D01*
D02*
G37*
G36*
X119500D02*
X118653Y309516D01*
X117984Y308847D01*
X117633Y308000D01*
X119500D01*
Y309867D01*
D02*
G37*
G36*
X113000D02*
Y308000D01*
X114867D01*
X114516Y308847D01*
X113847Y309516D01*
X113000Y309867D01*
D02*
G37*
G36*
X112000D02*
X111153Y309516D01*
X110484Y308847D01*
X110133Y308000D01*
X112000D01*
Y309867D01*
D02*
G37*
G36*
X359867Y309500D02*
X358000D01*
Y307633D01*
X358847Y307984D01*
X359516Y308653D01*
X359867Y309500D01*
D02*
G37*
G36*
X357000D02*
X355133D01*
X355484Y308653D01*
X356153Y307984D01*
X357000Y307633D01*
Y309500D01*
D02*
G37*
G36*
X352367D02*
X350500D01*
Y307633D01*
X351347Y307984D01*
X352016Y308653D01*
X352367Y309500D01*
D02*
G37*
G36*
X349500D02*
X347633D01*
X347984Y308653D01*
X348653Y307984D01*
X349500Y307633D01*
Y309500D01*
D02*
G37*
G36*
X344867D02*
X343000D01*
Y307633D01*
X343847Y307984D01*
X344516Y308653D01*
X344867Y309500D01*
D02*
G37*
G36*
X342000D02*
X340133D01*
X340484Y308653D01*
X341153Y307984D01*
X342000Y307633D01*
Y309500D01*
D02*
G37*
G36*
X299867Y307000D02*
X298000D01*
Y305133D01*
X298847Y305484D01*
X299516Y306153D01*
X299867Y307000D01*
D02*
G37*
G36*
X297000D02*
X295133D01*
X295484Y306153D01*
X296153Y305484D01*
X297000Y305133D01*
Y307000D01*
D02*
G37*
G36*
X292367D02*
X290500D01*
Y305133D01*
X291347Y305484D01*
X292016Y306153D01*
X292367Y307000D01*
D02*
G37*
G36*
X289500D02*
X287633D01*
X287984Y306153D01*
X288653Y305484D01*
X289500Y305133D01*
Y307000D01*
D02*
G37*
G36*
X234867D02*
X233000D01*
Y305133D01*
X233847Y305484D01*
X234516Y306153D01*
X234867Y307000D01*
D02*
G37*
G36*
X232000D02*
X230133D01*
X230484Y306153D01*
X231153Y305484D01*
X232000Y305133D01*
Y307000D01*
D02*
G37*
G36*
X227367D02*
X225500D01*
Y305133D01*
X226347Y305484D01*
X227016Y306153D01*
X227367Y307000D01*
D02*
G37*
G36*
X224500D02*
X222633D01*
X222984Y306153D01*
X223653Y305484D01*
X224500Y305133D01*
Y307000D01*
D02*
G37*
G36*
X219867D02*
X218000D01*
Y305133D01*
X218847Y305484D01*
X219516Y306153D01*
X219867Y307000D01*
D02*
G37*
G36*
X217000D02*
X215133D01*
X215484Y306153D01*
X216153Y305484D01*
X217000Y305133D01*
Y307000D01*
D02*
G37*
G36*
X212367D02*
X210500D01*
Y305133D01*
X211347Y305484D01*
X212016Y306153D01*
X212367Y307000D01*
D02*
G37*
G36*
X209500D02*
X207633D01*
X207984Y306153D01*
X208653Y305484D01*
X209500Y305133D01*
Y307000D01*
D02*
G37*
G36*
X204867D02*
X203000D01*
Y305133D01*
X203847Y305484D01*
X204516Y306153D01*
X204867Y307000D01*
D02*
G37*
G36*
X202000D02*
X200133D01*
X200484Y306153D01*
X201153Y305484D01*
X202000Y305133D01*
Y307000D01*
D02*
G37*
G36*
X197367D02*
X195500D01*
Y305133D01*
X196347Y305484D01*
X197016Y306153D01*
X197367Y307000D01*
D02*
G37*
G36*
X194500D02*
X192633D01*
X192984Y306153D01*
X193653Y305484D01*
X194500Y305133D01*
Y307000D01*
D02*
G37*
G36*
X189867D02*
X188000D01*
Y305133D01*
X188847Y305484D01*
X189516Y306153D01*
X189867Y307000D01*
D02*
G37*
G36*
X187000D02*
X185133D01*
X185484Y306153D01*
X186153Y305484D01*
X187000Y305133D01*
Y307000D01*
D02*
G37*
G36*
X182367D02*
X180500D01*
Y305133D01*
X181347Y305484D01*
X182016Y306153D01*
X182367Y307000D01*
D02*
G37*
G36*
X179500D02*
X177633D01*
X177984Y306153D01*
X178653Y305484D01*
X179500Y305133D01*
Y307000D01*
D02*
G37*
G36*
X174867D02*
X173000D01*
Y305133D01*
X173847Y305484D01*
X174516Y306153D01*
X174867Y307000D01*
D02*
G37*
G36*
X172000D02*
X170133D01*
X170484Y306153D01*
X171153Y305484D01*
X172000Y305133D01*
Y307000D01*
D02*
G37*
G36*
X167367D02*
X165500D01*
Y305133D01*
X166347Y305484D01*
X167016Y306153D01*
X167367Y307000D01*
D02*
G37*
G36*
X164500D02*
X162633D01*
X162984Y306153D01*
X163653Y305484D01*
X164500Y305133D01*
Y307000D01*
D02*
G37*
G36*
X159867D02*
X158000D01*
Y305133D01*
X158847Y305484D01*
X159516Y306153D01*
X159867Y307000D01*
D02*
G37*
G36*
X157000D02*
X155133D01*
X155484Y306153D01*
X156153Y305484D01*
X157000Y305133D01*
Y307000D01*
D02*
G37*
G36*
X152367D02*
X150500D01*
Y305133D01*
X151347Y305484D01*
X152016Y306153D01*
X152367Y307000D01*
D02*
G37*
G36*
X149500D02*
X147633D01*
X147984Y306153D01*
X148653Y305484D01*
X149500Y305133D01*
Y307000D01*
D02*
G37*
G36*
X144867D02*
X143000D01*
Y305133D01*
X143847Y305484D01*
X144516Y306153D01*
X144867Y307000D01*
D02*
G37*
G36*
X142000D02*
X140133D01*
X140484Y306153D01*
X141153Y305484D01*
X142000Y305133D01*
Y307000D01*
D02*
G37*
G36*
X137367D02*
X135500D01*
Y305133D01*
X136347Y305484D01*
X137016Y306153D01*
X137367Y307000D01*
D02*
G37*
G36*
X134500D02*
X132633D01*
X132984Y306153D01*
X133653Y305484D01*
X134500Y305133D01*
Y307000D01*
D02*
G37*
G36*
X129867D02*
X128000D01*
Y305133D01*
X128847Y305484D01*
X129516Y306153D01*
X129867Y307000D01*
D02*
G37*
G36*
X127000D02*
X125133D01*
X125484Y306153D01*
X126153Y305484D01*
X127000Y305133D01*
Y307000D01*
D02*
G37*
G36*
X122367D02*
X120500D01*
Y305133D01*
X121347Y305484D01*
X122016Y306153D01*
X122367Y307000D01*
D02*
G37*
G36*
X119500D02*
X117633D01*
X117984Y306153D01*
X118653Y305484D01*
X119500Y305133D01*
Y307000D01*
D02*
G37*
G36*
X114867D02*
X113000D01*
Y305133D01*
X113847Y305484D01*
X114516Y306153D01*
X114867Y307000D01*
D02*
G37*
G36*
X112000D02*
X110133D01*
X110484Y306153D01*
X111153Y305484D01*
X112000Y305133D01*
Y307000D01*
D02*
G37*
G36*
X358000Y304867D02*
Y303000D01*
X359867D01*
X359516Y303847D01*
X358847Y304516D01*
X358000Y304867D01*
D02*
G37*
G36*
X357000D02*
X356153Y304516D01*
X355484Y303847D01*
X355133Y303000D01*
X357000D01*
Y304867D01*
D02*
G37*
G36*
X350500D02*
Y303000D01*
X352367D01*
X352016Y303847D01*
X351347Y304516D01*
X350500Y304867D01*
D02*
G37*
G36*
X349500D02*
X348653Y304516D01*
X347984Y303847D01*
X347633Y303000D01*
X349500D01*
Y304867D01*
D02*
G37*
G36*
X359867Y302000D02*
X358000D01*
Y300133D01*
X358847Y300484D01*
X359516Y301153D01*
X359867Y302000D01*
D02*
G37*
G36*
X357000D02*
X355133D01*
X355484Y301153D01*
X356153Y300484D01*
X357000Y300133D01*
Y302000D01*
D02*
G37*
G36*
X352367D02*
X350500D01*
Y300133D01*
X351347Y300484D01*
X352016Y301153D01*
X352367Y302000D01*
D02*
G37*
G36*
X349500D02*
X347633D01*
X347984Y301153D01*
X348653Y300484D01*
X349500Y300133D01*
Y302000D01*
D02*
G37*
G36*
X358000Y297367D02*
Y295500D01*
X359867D01*
X359516Y296347D01*
X358847Y297016D01*
X358000Y297367D01*
D02*
G37*
G36*
X357000D02*
X356153Y297016D01*
X355484Y296347D01*
X355133Y295500D01*
X357000D01*
Y297367D01*
D02*
G37*
G36*
X350500D02*
Y295500D01*
X352367D01*
X352016Y296347D01*
X351347Y297016D01*
X350500Y297367D01*
D02*
G37*
G36*
X349500D02*
X348653Y297016D01*
X347984Y296347D01*
X347633Y295500D01*
X349500D01*
Y297367D01*
D02*
G37*
G36*
X359867Y294500D02*
X358000D01*
Y292633D01*
X358847Y292984D01*
X359516Y293653D01*
X359867Y294500D01*
D02*
G37*
G36*
X357000D02*
X355133D01*
X355484Y293653D01*
X356153Y292984D01*
X357000Y292633D01*
Y294500D01*
D02*
G37*
G36*
X352367D02*
X350500D01*
Y292633D01*
X351347Y292984D01*
X352016Y293653D01*
X352367Y294500D01*
D02*
G37*
G36*
X349500D02*
X347633D01*
X347984Y293653D01*
X348653Y292984D01*
X349500Y292633D01*
Y294500D01*
D02*
G37*
G36*
X332837Y292559D02*
X332163D01*
X331512Y292385D01*
X330929Y292048D01*
X330452Y291571D01*
X330115Y290988D01*
X329941Y290337D01*
Y289663D01*
X330059Y289223D01*
X329755Y288723D01*
X327745D01*
X327441Y289223D01*
X327559Y289663D01*
Y290337D01*
X327385Y290988D01*
X327048Y291571D01*
X326571Y292048D01*
X325988Y292385D01*
X325337Y292559D01*
X324663D01*
X324012Y292385D01*
X323429Y292048D01*
X322952Y291571D01*
X322615Y290988D01*
X322441Y290337D01*
Y289663D01*
X322559Y289223D01*
X322255Y288723D01*
X320245D01*
X319941Y289223D01*
X320059Y289663D01*
Y290337D01*
X319885Y290988D01*
X319548Y291571D01*
X319071Y292048D01*
X318488Y292385D01*
X317837Y292559D01*
X317163D01*
X316512Y292385D01*
X315929Y292048D01*
X315452Y291571D01*
X315115Y290988D01*
X314941Y290337D01*
Y289663D01*
X315115Y289012D01*
X315259Y288763D01*
X315030Y288171D01*
X314662Y288059D01*
X313154Y287253D01*
X311832Y286168D01*
X306582Y280918D01*
X289387Y263723D01*
X279000D01*
X277298Y263556D01*
X275662Y263059D01*
X274154Y262253D01*
X272832Y261168D01*
X271747Y259846D01*
X270941Y258338D01*
X270444Y256702D01*
X270277Y255000D01*
X270444Y253298D01*
X270941Y251662D01*
X271747Y250154D01*
X272832Y248832D01*
X274154Y247747D01*
X275662Y246941D01*
X277298Y246445D01*
X279000Y246277D01*
X293000D01*
X294702Y246445D01*
X296338Y246941D01*
X297846Y247747D01*
X299168Y248832D01*
X317777Y267441D01*
X317837D01*
X318488Y267615D01*
X319071Y267952D01*
X319548Y268429D01*
X319885Y269012D01*
X320059Y269663D01*
Y269723D01*
X321613Y271277D01*
X322255D01*
X322559Y270777D01*
X322441Y270337D01*
Y269663D01*
X322615Y269012D01*
X322952Y268429D01*
X323429Y267952D01*
X324012Y267615D01*
X324663Y267441D01*
X325337D01*
X325988Y267615D01*
X326571Y267952D01*
X327048Y268429D01*
X327385Y269012D01*
X327559Y269663D01*
Y270337D01*
X327441Y270777D01*
X327745Y271277D01*
X329755D01*
X330059Y270777D01*
X329941Y270337D01*
Y269663D01*
X330115Y269012D01*
X330452Y268429D01*
X330929Y267952D01*
X331512Y267615D01*
X332163Y267441D01*
X332837D01*
X333488Y267615D01*
X333843Y267821D01*
X351277Y250387D01*
Y215000D01*
X351445Y213298D01*
X351941Y211662D01*
X352747Y210154D01*
X353832Y208832D01*
X355154Y207747D01*
X356662Y206941D01*
X358298Y206445D01*
X360000Y206277D01*
X361702Y206445D01*
X363338Y206941D01*
X364846Y207747D01*
X366168Y208832D01*
X367253Y210154D01*
X368059Y211662D01*
X368555Y213298D01*
X368723Y215000D01*
Y254000D01*
X368555Y255702D01*
X368059Y257338D01*
X367253Y258846D01*
X366168Y260168D01*
X340168Y286168D01*
X338846Y287253D01*
X337338Y288059D01*
X335702Y288556D01*
X335158Y288609D01*
X334918Y289135D01*
X335059Y289663D01*
Y290337D01*
X334885Y290988D01*
X334548Y291571D01*
X334071Y292048D01*
X333488Y292385D01*
X332837Y292559D01*
D02*
G37*
G36*
X358000Y289867D02*
Y288000D01*
X359867D01*
X359516Y288847D01*
X358847Y289516D01*
X358000Y289867D01*
D02*
G37*
G36*
X357000D02*
X356153Y289516D01*
X355484Y288847D01*
X355133Y288000D01*
X357000D01*
Y289867D01*
D02*
G37*
G36*
X350500D02*
Y288000D01*
X352367D01*
X352016Y288847D01*
X351347Y289516D01*
X350500Y289867D01*
D02*
G37*
G36*
X349500D02*
X348653Y289516D01*
X347984Y288847D01*
X347633Y288000D01*
X349500D01*
Y289867D01*
D02*
G37*
G36*
X289000Y287367D02*
Y285500D01*
X290867D01*
X290516Y286347D01*
X289847Y287016D01*
X289000Y287367D01*
D02*
G37*
G36*
X288000D02*
X287153Y287016D01*
X286484Y286347D01*
X286133Y285500D01*
X288000D01*
Y287367D01*
D02*
G37*
G36*
X359867Y287000D02*
X358000D01*
Y285133D01*
X358847Y285484D01*
X359516Y286153D01*
X359867Y287000D01*
D02*
G37*
G36*
X357000D02*
X355133D01*
X355484Y286153D01*
X356153Y285484D01*
X357000Y285133D01*
Y287000D01*
D02*
G37*
G36*
X352367D02*
X350500D01*
Y285133D01*
X351347Y285484D01*
X352016Y286153D01*
X352367Y287000D01*
D02*
G37*
G36*
X349500D02*
X347633D01*
X347984Y286153D01*
X348653Y285484D01*
X349500Y285133D01*
Y287000D01*
D02*
G37*
G36*
X290867Y284500D02*
X289000D01*
Y282633D01*
X289847Y282984D01*
X290516Y283653D01*
X290867Y284500D01*
D02*
G37*
G36*
X288000D02*
X286133D01*
X286484Y283653D01*
X287153Y282984D01*
X288000Y282633D01*
Y284500D01*
D02*
G37*
G36*
X289000Y279867D02*
Y278000D01*
X290867D01*
X290516Y278847D01*
X289847Y279516D01*
X289000Y279867D01*
D02*
G37*
G36*
X288000D02*
X287153Y279516D01*
X286484Y278847D01*
X286133Y278000D01*
X288000D01*
Y279867D01*
D02*
G37*
G36*
X143051Y284181D02*
X141949D01*
X140886Y283896D01*
X139933Y283346D01*
X139154Y282567D01*
X138604Y281614D01*
X138319Y280551D01*
Y279450D01*
X138604Y278386D01*
X139154Y277433D01*
X139933Y276654D01*
X140886Y276104D01*
X141949Y275819D01*
X143051D01*
X144114Y276104D01*
X145067Y276654D01*
X145846Y277433D01*
X146396Y278386D01*
X146681Y279450D01*
Y280551D01*
X146396Y281614D01*
X145846Y282567D01*
X145067Y283346D01*
X144114Y283896D01*
X143051Y284181D01*
D02*
G37*
G36*
X290867Y277000D02*
X289000D01*
Y275133D01*
X289847Y275484D01*
X290516Y276153D01*
X290867Y277000D01*
D02*
G37*
G36*
X288000D02*
X286133D01*
X286484Y276153D01*
X287153Y275484D01*
X288000Y275133D01*
Y277000D01*
D02*
G37*
G36*
X219027Y275000D02*
X219000D01*
Y271500D01*
X222500D01*
Y271527D01*
X222227Y272544D01*
X221701Y273456D01*
X220956Y274201D01*
X220044Y274727D01*
X219027Y275000D01*
D02*
G37*
G36*
X218000D02*
X217973D01*
X216956Y274727D01*
X216044Y274201D01*
X215299Y273456D01*
X214773Y272544D01*
X214500Y271527D01*
Y271500D01*
X218000D01*
Y275000D01*
D02*
G37*
G36*
X222500Y270500D02*
X219000D01*
Y267000D01*
X219027D01*
X220044Y267273D01*
X220956Y267799D01*
X221701Y268544D01*
X222227Y269456D01*
X222500Y270473D01*
Y270500D01*
D02*
G37*
G36*
X218000D02*
X214500D01*
Y270473D01*
X214773Y269456D01*
X215299Y268544D01*
X216044Y267799D01*
X216956Y267273D01*
X217973Y267000D01*
X218000D01*
Y270500D01*
D02*
G37*
G36*
X169051Y273181D02*
X167949D01*
X166886Y272896D01*
X165933Y272346D01*
X165154Y271567D01*
X164604Y270614D01*
X164319Y269550D01*
Y268449D01*
X164604Y267386D01*
X165154Y266433D01*
X165933Y265654D01*
X166886Y265104D01*
X167949Y264819D01*
X169051D01*
X170114Y265104D01*
X171067Y265654D01*
X171846Y266433D01*
X172396Y267386D01*
X172681Y268449D01*
Y269550D01*
X172396Y270614D01*
X171846Y271567D01*
X171067Y272346D01*
X170114Y272896D01*
X169051Y273181D01*
D02*
G37*
G36*
X100550Y269181D02*
X99449D01*
X98386Y268896D01*
X97433Y268346D01*
X96654Y267567D01*
X96104Y266614D01*
X95819Y265550D01*
Y264450D01*
X96104Y263386D01*
X96654Y262433D01*
X97433Y261654D01*
X98386Y261104D01*
X99449Y260819D01*
X100550D01*
X101614Y261104D01*
X102567Y261654D01*
X103346Y262433D01*
X103896Y263386D01*
X104181Y264450D01*
Y265550D01*
X103896Y266614D01*
X103346Y267567D01*
X102567Y268346D01*
X101614Y268896D01*
X100550Y269181D01*
D02*
G37*
G36*
X40551D02*
X39450D01*
X38386Y268896D01*
X37433Y268346D01*
X36654Y267567D01*
X36104Y266614D01*
X35819Y265550D01*
Y264450D01*
X36104Y263386D01*
X36654Y262433D01*
X37433Y261654D01*
X38386Y261104D01*
X39450Y260819D01*
X40551D01*
X41614Y261104D01*
X42567Y261654D01*
X43346Y262433D01*
X43896Y263386D01*
X44181Y264450D01*
Y265550D01*
X43896Y266614D01*
X43346Y267567D01*
X42567Y268346D01*
X41614Y268896D01*
X40551Y269181D01*
D02*
G37*
G36*
X199050Y263181D02*
X197950D01*
X196886Y262896D01*
X195933Y262346D01*
X195154Y261567D01*
X194604Y260614D01*
X194319Y259550D01*
Y258450D01*
X194604Y257386D01*
X195154Y256433D01*
X195933Y255654D01*
X196886Y255104D01*
X197950Y254819D01*
X199050D01*
X200114Y255104D01*
X201067Y255654D01*
X201846Y256433D01*
X202396Y257386D01*
X202681Y258450D01*
Y259550D01*
X202396Y260614D01*
X201846Y261567D01*
X201067Y262346D01*
X200114Y262896D01*
X199050Y263181D01*
D02*
G37*
G36*
X169051D02*
X167949D01*
X166886Y262896D01*
X165933Y262346D01*
X165154Y261567D01*
X164662Y260714D01*
X153000D01*
X152344Y260584D01*
X151788Y260212D01*
X144975Y253399D01*
X144114Y253896D01*
X143051Y254181D01*
X141949D01*
X140886Y253896D01*
X139933Y253346D01*
X139154Y252567D01*
X138604Y251614D01*
X138319Y250551D01*
Y249449D01*
X138604Y248386D01*
X139154Y247433D01*
X139933Y246654D01*
X140786Y246162D01*
Y210210D01*
X127290Y196714D01*
X103838D01*
X103346Y197567D01*
X102567Y198346D01*
X101614Y198896D01*
X100550Y199181D01*
X99449D01*
X98386Y198896D01*
X97433Y198346D01*
X96654Y197567D01*
X96104Y196614D01*
X95819Y195551D01*
Y194449D01*
X96104Y193386D01*
X96654Y192433D01*
X97433Y191654D01*
X98386Y191104D01*
X99449Y190819D01*
X100550D01*
X101614Y191104D01*
X102567Y191654D01*
X103346Y192433D01*
X103838Y193286D01*
X128000D01*
X128656Y193416D01*
X129212Y193788D01*
X143712Y208288D01*
X144084Y208844D01*
X144214Y209500D01*
Y246162D01*
X145067Y246654D01*
X145846Y247433D01*
X146396Y248386D01*
X146681Y249449D01*
Y250257D01*
X153710Y257286D01*
X164662D01*
X165154Y256433D01*
X165933Y255654D01*
X166886Y255104D01*
X167949Y254819D01*
X169051D01*
X170114Y255104D01*
X171067Y255654D01*
X171846Y256433D01*
X172396Y257386D01*
X172681Y258450D01*
Y259550D01*
X172396Y260614D01*
X171846Y261567D01*
X171067Y262346D01*
X170114Y262896D01*
X169051Y263181D01*
D02*
G37*
G36*
X100550Y259181D02*
X99449D01*
X98386Y258896D01*
X97433Y258346D01*
X96654Y257567D01*
X96104Y256614D01*
X95819Y255551D01*
Y254450D01*
X96104Y253386D01*
X96654Y252433D01*
X97433Y251654D01*
X98386Y251104D01*
X99449Y250819D01*
X100550D01*
X101614Y251104D01*
X102567Y251654D01*
X103346Y252433D01*
X103896Y253386D01*
X104181Y254450D01*
Y255551D01*
X103896Y256614D01*
X103346Y257567D01*
X102567Y258346D01*
X101614Y258896D01*
X100550Y259181D01*
D02*
G37*
G36*
X40551D02*
X39450D01*
X38386Y258896D01*
X37433Y258346D01*
X36654Y257567D01*
X36104Y256614D01*
X35819Y255551D01*
Y254450D01*
X36104Y253386D01*
X36654Y252433D01*
X37433Y251654D01*
X38386Y251104D01*
X39450Y250819D01*
X40551D01*
X41614Y251104D01*
X42567Y251654D01*
X43346Y252433D01*
X43896Y253386D01*
X44181Y254450D01*
Y255551D01*
X43896Y256614D01*
X43346Y257567D01*
X42567Y258346D01*
X41614Y258896D01*
X40551Y259181D01*
D02*
G37*
G36*
X169027Y253000D02*
X169000D01*
Y249500D01*
X172500D01*
Y249527D01*
X172227Y250544D01*
X171701Y251456D01*
X170956Y252201D01*
X170044Y252727D01*
X169027Y253000D01*
D02*
G37*
G36*
X168000D02*
X167973D01*
X166956Y252727D01*
X166044Y252201D01*
X165299Y251456D01*
X164773Y250544D01*
X164500Y249527D01*
Y249500D01*
X168000D01*
Y253000D01*
D02*
G37*
G36*
X199050Y283181D02*
X197950D01*
X196886Y282896D01*
X195933Y282346D01*
X195154Y281567D01*
X194604Y280614D01*
X194319Y279551D01*
Y278450D01*
X194604Y277386D01*
X195154Y276433D01*
X195933Y275654D01*
X196886Y275104D01*
X197240Y275009D01*
X198568Y273681D01*
X198361Y273181D01*
X197950D01*
X196886Y272896D01*
X195933Y272346D01*
X195154Y271567D01*
X194604Y270614D01*
X194319Y269550D01*
Y268449D01*
X194604Y267386D01*
X195154Y266433D01*
X195933Y265654D01*
X196886Y265104D01*
X197950Y264819D01*
X199050D01*
X200114Y265104D01*
X201067Y265654D01*
X201846Y266433D01*
X202396Y267386D01*
X202681Y268449D01*
Y268861D01*
X203181Y269068D01*
X205287Y266962D01*
Y260500D01*
X205414Y259539D01*
X205785Y258644D01*
X206375Y257875D01*
X214509Y249740D01*
X214604Y249386D01*
X215154Y248433D01*
X215933Y247654D01*
X216886Y247104D01*
X217950Y246819D01*
X219051D01*
X220114Y247104D01*
X221067Y247654D01*
X221846Y248433D01*
X222396Y249386D01*
X222681Y250449D01*
Y251551D01*
X222396Y252614D01*
X221846Y253567D01*
X221067Y254346D01*
X220114Y254896D01*
X219760Y254991D01*
X212713Y262038D01*
Y268500D01*
X212586Y269461D01*
X212215Y270356D01*
X211625Y271125D01*
X202491Y280260D01*
X202396Y280614D01*
X201846Y281567D01*
X201067Y282346D01*
X200114Y282896D01*
X199050Y283181D01*
D02*
G37*
G36*
X172500Y248500D02*
X169000D01*
Y245000D01*
X169027D01*
X170044Y245273D01*
X170956Y245799D01*
X171701Y246544D01*
X172227Y247456D01*
X172500Y248473D01*
Y248500D01*
D02*
G37*
G36*
X168000D02*
X164500D01*
Y248473D01*
X164773Y247456D01*
X165299Y246544D01*
X166044Y245799D01*
X166956Y245273D01*
X167973Y245000D01*
X168000D01*
Y248500D01*
D02*
G37*
G36*
X199050Y253181D02*
X197950D01*
X196886Y252896D01*
X195933Y252346D01*
X195154Y251567D01*
X194604Y250614D01*
X194319Y249551D01*
Y248449D01*
X194604Y247386D01*
X195154Y246433D01*
X195933Y245654D01*
X196886Y245104D01*
X197950Y244819D01*
X199050D01*
X200114Y245104D01*
X201067Y245654D01*
X201846Y246433D01*
X202396Y247386D01*
X202681Y248449D01*
Y249551D01*
X202396Y250614D01*
X201846Y251567D01*
X201067Y252346D01*
X200114Y252896D01*
X199050Y253181D01*
D02*
G37*
G36*
X346550Y244181D02*
X345449D01*
X344386Y243896D01*
X343433Y243346D01*
X342654Y242567D01*
X342162Y241714D01*
X325905D01*
X325571Y242048D01*
X324988Y242385D01*
X324337Y242559D01*
X323663D01*
X323012Y242385D01*
X322429Y242048D01*
X321952Y241571D01*
X321615Y240988D01*
X321441Y240337D01*
Y239663D01*
X321615Y239012D01*
X321952Y238429D01*
X322429Y237952D01*
X323012Y237615D01*
X323663Y237441D01*
X324337D01*
X324988Y237615D01*
X325571Y237952D01*
X325905Y238286D01*
X342162D01*
X342654Y237433D01*
X343433Y236654D01*
X344386Y236104D01*
X345449Y235819D01*
X346550D01*
X347614Y236104D01*
X348567Y236654D01*
X349346Y237433D01*
X349896Y238386D01*
X350181Y239450D01*
Y240550D01*
X349896Y241614D01*
X349346Y242567D01*
X348567Y243346D01*
X347614Y243896D01*
X346550Y244181D01*
D02*
G37*
G36*
X292550D02*
X291449D01*
X290386Y243896D01*
X289433Y243346D01*
X288654Y242567D01*
X288162Y241714D01*
X270905D01*
X270571Y242048D01*
X269988Y242385D01*
X269337Y242559D01*
X268663D01*
X268012Y242385D01*
X267429Y242048D01*
X266952Y241571D01*
X266615Y240988D01*
X266441Y240337D01*
Y239663D01*
X266615Y239012D01*
X266952Y238429D01*
X267429Y237952D01*
X268012Y237615D01*
X268663Y237441D01*
X269337D01*
X269988Y237615D01*
X270571Y237952D01*
X270905Y238286D01*
X288162D01*
X288654Y237433D01*
X289433Y236654D01*
X290386Y236104D01*
X291449Y235819D01*
X292550D01*
X293614Y236104D01*
X294567Y236654D01*
X295346Y237433D01*
X295896Y238386D01*
X296181Y239450D01*
Y240550D01*
X295896Y241614D01*
X295346Y242567D01*
X294567Y243346D01*
X293614Y243896D01*
X292550Y244181D01*
D02*
G37*
G36*
X40551Y249181D02*
X39450D01*
X38386Y248896D01*
X37433Y248346D01*
X36654Y247567D01*
X36104Y246614D01*
X35819Y245550D01*
Y244449D01*
X36104Y243386D01*
X36654Y242433D01*
X37433Y241654D01*
X38386Y241104D01*
X39450Y240819D01*
X40551D01*
X41614Y241104D01*
X42567Y241654D01*
X43346Y242433D01*
X43896Y243386D01*
X44181Y244449D01*
Y245550D01*
X43896Y246614D01*
X43346Y247567D01*
X42567Y248346D01*
X41614Y248896D01*
X40551Y249181D01*
D02*
G37*
G36*
X219051Y245181D02*
X217950D01*
X216886Y244896D01*
X215933Y244346D01*
X215154Y243567D01*
X214604Y242614D01*
X214319Y241550D01*
Y240450D01*
X214604Y239386D01*
X215154Y238433D01*
X215933Y237654D01*
X216886Y237104D01*
X217950Y236819D01*
X219051D01*
X220114Y237104D01*
X221067Y237654D01*
X221846Y238433D01*
X222396Y239386D01*
X222681Y240450D01*
Y241550D01*
X222396Y242614D01*
X221846Y243567D01*
X221067Y244346D01*
X220114Y244896D01*
X219051Y245181D01*
D02*
G37*
G36*
X100550Y239181D02*
X99449D01*
X98386Y238896D01*
X97433Y238346D01*
X96654Y237567D01*
X96104Y236614D01*
X95819Y235550D01*
Y234450D01*
X96104Y233386D01*
X96654Y232433D01*
X97433Y231654D01*
X98386Y231104D01*
X99449Y230819D01*
X100550D01*
X101614Y231104D01*
X102567Y231654D01*
X103346Y232433D01*
X103896Y233386D01*
X104181Y234450D01*
Y235550D01*
X103896Y236614D01*
X103346Y237567D01*
X102567Y238346D01*
X101614Y238896D01*
X100550Y239181D01*
D02*
G37*
G36*
X40551D02*
X39450D01*
X38386Y238896D01*
X37433Y238346D01*
X36654Y237567D01*
X36104Y236614D01*
X35819Y235550D01*
Y234450D01*
X36104Y233386D01*
X36654Y232433D01*
X37433Y231654D01*
X38386Y231104D01*
X39450Y230819D01*
X40551D01*
X41614Y231104D01*
X42567Y231654D01*
X43346Y232433D01*
X43896Y233386D01*
X44181Y234450D01*
Y235550D01*
X43896Y236614D01*
X43346Y237567D01*
X42567Y238346D01*
X41614Y238896D01*
X40551Y239181D01*
D02*
G37*
G36*
X100550Y249181D02*
X99449D01*
X98386Y248896D01*
X97433Y248346D01*
X96654Y247567D01*
X96104Y246614D01*
X95819Y245550D01*
Y244449D01*
X96104Y243386D01*
X96654Y242433D01*
X97433Y241654D01*
X98386Y241104D01*
X99449Y240819D01*
X100550D01*
X101614Y241104D01*
X102567Y241654D01*
X103346Y242433D01*
X103838Y243286D01*
X116290D01*
X126441Y233135D01*
Y232663D01*
X126615Y232012D01*
X126952Y231429D01*
X127429Y230952D01*
X128012Y230615D01*
X128663Y230441D01*
X129337D01*
X129988Y230615D01*
X130571Y230952D01*
X131048Y231429D01*
X131385Y232012D01*
X131559Y232663D01*
Y233337D01*
X131385Y233988D01*
X131048Y234571D01*
X130571Y235048D01*
X129988Y235385D01*
X129337Y235559D01*
X128865D01*
X118212Y246212D01*
X117656Y246584D01*
X117000Y246714D01*
X103838D01*
X103346Y247567D01*
X102567Y248346D01*
X101614Y248896D01*
X100550Y249181D01*
D02*
G37*
G36*
Y229181D02*
X99449D01*
X98386Y228896D01*
X97433Y228346D01*
X96654Y227567D01*
X96104Y226614D01*
X95819Y225551D01*
Y224449D01*
X96074Y223498D01*
X64788Y192212D01*
X64416Y191656D01*
X64286Y191000D01*
Y132710D01*
X50290Y118714D01*
X30710D01*
X23212Y126212D01*
X22656Y126584D01*
X22000Y126714D01*
X20838D01*
X20346Y127567D01*
X19567Y128346D01*
X18614Y128896D01*
X17550Y129181D01*
X16450D01*
X15386Y128896D01*
X14433Y128346D01*
X13654Y127567D01*
X13104Y126614D01*
X12819Y125550D01*
Y124450D01*
X13104Y123386D01*
X13654Y122433D01*
X14433Y121654D01*
X15386Y121104D01*
X16450Y120819D01*
X17550D01*
X18614Y121104D01*
X19567Y121654D01*
X20346Y122433D01*
X20810Y123237D01*
X21303Y123274D01*
X28788Y115788D01*
X29344Y115416D01*
X30000Y115286D01*
X51000D01*
X51656Y115416D01*
X52212Y115788D01*
X67212Y130788D01*
X67584Y131344D01*
X67714Y132000D01*
Y190290D01*
X98498Y221074D01*
X99449Y220819D01*
X100550D01*
X101614Y221104D01*
X102567Y221654D01*
X103346Y222433D01*
X103896Y223386D01*
X104181Y224449D01*
Y225551D01*
X103896Y226614D01*
X103346Y227567D01*
X102567Y228346D01*
X101614Y228896D01*
X100550Y229181D01*
D02*
G37*
G36*
X40551D02*
X39450D01*
X38386Y228896D01*
X37433Y228346D01*
X36654Y227567D01*
X36104Y226614D01*
X35819Y225551D01*
Y224449D01*
X36104Y223386D01*
X36654Y222433D01*
X37433Y221654D01*
X38386Y221104D01*
X39450Y220819D01*
X40551D01*
X41614Y221104D01*
X42567Y221654D01*
X43346Y222433D01*
X43896Y223386D01*
X44181Y224449D01*
Y225551D01*
X43896Y226614D01*
X43346Y227567D01*
X42567Y228346D01*
X41614Y228896D01*
X40551Y229181D01*
D02*
G37*
G36*
X298000Y219867D02*
Y218000D01*
X299867D01*
X299516Y218847D01*
X298847Y219516D01*
X298000Y219867D01*
D02*
G37*
G36*
X297000D02*
X296153Y219516D01*
X295484Y218847D01*
X295133Y218000D01*
X297000D01*
Y219867D01*
D02*
G37*
G36*
X290500D02*
Y218000D01*
X292367D01*
X292016Y218847D01*
X291347Y219516D01*
X290500Y219867D01*
D02*
G37*
G36*
X289500D02*
X288653Y219516D01*
X287984Y218847D01*
X287633Y218000D01*
X289500D01*
Y219867D01*
D02*
G37*
G36*
X299867Y217000D02*
X298000D01*
Y215133D01*
X298847Y215484D01*
X299516Y216153D01*
X299867Y217000D01*
D02*
G37*
G36*
X297000D02*
X295133D01*
X295484Y216153D01*
X296153Y215484D01*
X297000Y215133D01*
Y217000D01*
D02*
G37*
G36*
X292367D02*
X290500D01*
Y215133D01*
X291347Y215484D01*
X292016Y216153D01*
X292367Y217000D01*
D02*
G37*
G36*
X289500D02*
X287633D01*
X287984Y216153D01*
X288653Y215484D01*
X289500Y215133D01*
Y217000D01*
D02*
G37*
G36*
X100550Y219181D02*
X99449D01*
X98386Y218896D01*
X97433Y218346D01*
X96654Y217567D01*
X96104Y216614D01*
X95819Y215550D01*
Y214450D01*
X96104Y213386D01*
X96654Y212433D01*
X97433Y211654D01*
X98386Y211104D01*
X99449Y210819D01*
X100550D01*
X101614Y211104D01*
X102567Y211654D01*
X103346Y212433D01*
X103896Y213386D01*
X104181Y214450D01*
Y215550D01*
X103896Y216614D01*
X103346Y217567D01*
X102567Y218346D01*
X101614Y218896D01*
X100550Y219181D01*
D02*
G37*
G36*
X40551D02*
X39450D01*
X38386Y218896D01*
X37433Y218346D01*
X36654Y217567D01*
X36104Y216614D01*
X35819Y215550D01*
Y214450D01*
X36104Y213386D01*
X36654Y212433D01*
X37433Y211654D01*
X38386Y211104D01*
X39450Y210819D01*
X40551D01*
X41614Y211104D01*
X42567Y211654D01*
X43346Y212433D01*
X43896Y213386D01*
X44181Y214450D01*
Y215550D01*
X43896Y216614D01*
X43346Y217567D01*
X42567Y218346D01*
X41614Y218896D01*
X40551Y219181D01*
D02*
G37*
G36*
X100550Y209181D02*
X99449D01*
X98386Y208896D01*
X97433Y208346D01*
X96654Y207567D01*
X96104Y206614D01*
X95819Y205551D01*
Y204450D01*
X96074Y203498D01*
X86788Y194212D01*
X86416Y193656D01*
X86286Y193000D01*
Y116210D01*
X44002Y73926D01*
X43051Y74181D01*
X41949D01*
X40886Y73896D01*
X39933Y73346D01*
X39154Y72567D01*
X38604Y71614D01*
X38319Y70551D01*
Y69450D01*
X38604Y68386D01*
X39154Y67433D01*
X39933Y66654D01*
X40886Y66104D01*
X41949Y65819D01*
X43051D01*
X44114Y66104D01*
X45067Y66654D01*
X45846Y67433D01*
X46396Y68386D01*
X46681Y69450D01*
Y70551D01*
X46426Y71502D01*
X89212Y114288D01*
X89584Y114844D01*
X89714Y115500D01*
Y192290D01*
X98498Y201074D01*
X99449Y200819D01*
X100550D01*
X101614Y201104D01*
X102567Y201654D01*
X103346Y202433D01*
X103838Y203286D01*
X115095D01*
X115429Y202952D01*
X116012Y202615D01*
X116663Y202441D01*
X117337D01*
X117988Y202615D01*
X118571Y202952D01*
X119048Y203429D01*
X119385Y204012D01*
X119559Y204663D01*
Y205337D01*
X119385Y205988D01*
X119048Y206571D01*
X118571Y207048D01*
X117988Y207385D01*
X117337Y207559D01*
X116663D01*
X116012Y207385D01*
X115429Y207048D01*
X115095Y206714D01*
X103838D01*
X103346Y207567D01*
X102567Y208346D01*
X101614Y208896D01*
X100550Y209181D01*
D02*
G37*
G36*
X40551D02*
X39450D01*
X38386Y208896D01*
X37433Y208346D01*
X36654Y207567D01*
X36104Y206614D01*
X35819Y205551D01*
Y204450D01*
X36104Y203386D01*
X36654Y202433D01*
X37433Y201654D01*
X38386Y201104D01*
X39450Y200819D01*
X40551D01*
X41614Y201104D01*
X42567Y201654D01*
X43346Y202433D01*
X43896Y203386D01*
X44181Y204450D01*
Y205551D01*
X43896Y206614D01*
X43346Y207567D01*
X42567Y208346D01*
X41614Y208896D01*
X40551Y209181D01*
D02*
G37*
G36*
X332837Y202559D02*
X332163D01*
X331512Y202385D01*
X330929Y202048D01*
X330452Y201571D01*
X330115Y200988D01*
X329941Y200337D01*
Y199663D01*
X330059Y199223D01*
X329755Y198723D01*
X327745D01*
X327441Y199223D01*
X327559Y199663D01*
Y200337D01*
X327385Y200988D01*
X327048Y201571D01*
X326571Y202048D01*
X325988Y202385D01*
X325337Y202559D01*
X324663D01*
X324012Y202385D01*
X323429Y202048D01*
X322952Y201571D01*
X322615Y200988D01*
X322441Y200337D01*
Y199663D01*
X322615Y199012D01*
X322834Y198634D01*
X322677Y198082D01*
X322631Y198043D01*
X321154Y197253D01*
X320189Y196461D01*
X319548Y196571D01*
X319071Y197048D01*
X318788Y197211D01*
Y197789D01*
X319071Y197952D01*
X319548Y198429D01*
X319885Y199012D01*
X320059Y199663D01*
Y200337D01*
X319885Y200988D01*
X319548Y201571D01*
X319071Y202048D01*
X318488Y202385D01*
X317837Y202559D01*
X317163D01*
X316512Y202385D01*
X315929Y202048D01*
X315452Y201571D01*
X315115Y200988D01*
X314941Y200337D01*
Y199663D01*
X315115Y199012D01*
X315452Y198429D01*
X315929Y197952D01*
X316212Y197789D01*
Y197211D01*
X315929Y197048D01*
X315452Y196571D01*
X315115Y195988D01*
X314941Y195337D01*
Y194663D01*
X315115Y194012D01*
X315452Y193429D01*
X315929Y192952D01*
X316009Y192906D01*
X316074Y192410D01*
X310582Y186918D01*
X297387Y173723D01*
X279000D01*
X277298Y173556D01*
X275662Y173059D01*
X274154Y172253D01*
X272832Y171168D01*
X271747Y169846D01*
X270941Y168338D01*
X270444Y166702D01*
X270277Y165000D01*
X270444Y163298D01*
X270941Y161662D01*
X271747Y160154D01*
X272832Y158832D01*
X274154Y157747D01*
X275662Y156941D01*
X277298Y156445D01*
X279000Y156277D01*
X301000D01*
X302702Y156445D01*
X304338Y156941D01*
X305846Y157747D01*
X307168Y158832D01*
X322918Y174582D01*
X325939Y177602D01*
X325988Y177615D01*
X326571Y177952D01*
X327048Y178429D01*
X327385Y179012D01*
X327398Y179062D01*
X329337Y181001D01*
X329623Y180967D01*
X329971Y180447D01*
X329941Y180337D01*
Y179663D01*
X330115Y179012D01*
X330452Y178429D01*
X330929Y177952D01*
X331512Y177615D01*
X332163Y177441D01*
X332837D01*
X333488Y177615D01*
X334071Y177952D01*
X334548Y178429D01*
X334885Y179012D01*
X335059Y179663D01*
Y180337D01*
X334941Y180777D01*
X335245Y181277D01*
X359000D01*
X360702Y181445D01*
X362338Y181941D01*
X363846Y182747D01*
X365168Y183832D01*
X366253Y185154D01*
X367059Y186662D01*
X367555Y188298D01*
X367723Y190000D01*
X367555Y191702D01*
X367059Y193338D01*
X366253Y194846D01*
X365168Y196168D01*
X363846Y197253D01*
X362338Y198059D01*
X360702Y198556D01*
X359000Y198723D01*
X335245D01*
X334941Y199223D01*
X335059Y199663D01*
Y200337D01*
X334885Y200988D01*
X334548Y201571D01*
X334071Y202048D01*
X333488Y202385D01*
X332837Y202559D01*
D02*
G37*
G36*
X289000Y197367D02*
Y195500D01*
X290867D01*
X290516Y196347D01*
X289847Y197016D01*
X289000Y197367D01*
D02*
G37*
G36*
X288000D02*
X287153Y197016D01*
X286484Y196347D01*
X286133Y195500D01*
X288000D01*
Y197367D01*
D02*
G37*
G36*
X290867Y194500D02*
X289000D01*
Y192633D01*
X289847Y192984D01*
X290516Y193653D01*
X290867Y194500D01*
D02*
G37*
G36*
X288000D02*
X286133D01*
X286484Y193653D01*
X287153Y192984D01*
X288000Y192633D01*
Y194500D01*
D02*
G37*
G36*
X40551Y199181D02*
X39450D01*
X38386Y198896D01*
X37433Y198346D01*
X36654Y197567D01*
X36104Y196614D01*
X35819Y195551D01*
Y194449D01*
X36104Y193386D01*
X36654Y192433D01*
X37433Y191654D01*
X38386Y191104D01*
X39450Y190819D01*
X40551D01*
X41614Y191104D01*
X42567Y191654D01*
X43346Y192433D01*
X43896Y193386D01*
X44181Y194449D01*
Y195551D01*
X43896Y196614D01*
X43346Y197567D01*
X42567Y198346D01*
X41614Y198896D01*
X40551Y199181D01*
D02*
G37*
G36*
X143051Y196681D02*
X141949D01*
X140886Y196396D01*
X139933Y195846D01*
X139154Y195067D01*
X138604Y194114D01*
X138319Y193051D01*
Y191949D01*
X138604Y190886D01*
X139154Y189933D01*
X139933Y189154D01*
X140886Y188604D01*
X141949Y188319D01*
X143051D01*
X144114Y188604D01*
X145067Y189154D01*
X145846Y189933D01*
X146396Y190886D01*
X146681Y191949D01*
Y193051D01*
X146396Y194114D01*
X145846Y195067D01*
X145067Y195846D01*
X144114Y196396D01*
X143051Y196681D01*
D02*
G37*
G36*
X289000Y189867D02*
Y188000D01*
X290867D01*
X290516Y188847D01*
X289847Y189516D01*
X289000Y189867D01*
D02*
G37*
G36*
X288000D02*
X287153Y189516D01*
X286484Y188847D01*
X286133Y188000D01*
X288000D01*
Y189867D01*
D02*
G37*
G36*
X290867Y187000D02*
X289000D01*
Y185133D01*
X289847Y185484D01*
X290516Y186153D01*
X290867Y187000D01*
D02*
G37*
G36*
X288000D02*
X286133D01*
X286484Y186153D01*
X287153Y185484D01*
X288000Y185133D01*
Y187000D01*
D02*
G37*
G36*
X218000D02*
X217973D01*
X216956Y186727D01*
X216044Y186201D01*
X215299Y185456D01*
X214773Y184544D01*
X214500Y183527D01*
Y183500D01*
X218000D01*
Y187000D01*
D02*
G37*
G36*
X40551Y189181D02*
X39450D01*
X38386Y188896D01*
X37433Y188346D01*
X36654Y187567D01*
X36104Y186614D01*
X35819Y185550D01*
Y184450D01*
X36104Y183386D01*
X36654Y182433D01*
X37433Y181654D01*
X38386Y181104D01*
X39450Y180819D01*
X40551D01*
X41614Y181104D01*
X42567Y181654D01*
X43346Y182433D01*
X43896Y183386D01*
X44181Y184450D01*
Y185550D01*
X43896Y186614D01*
X43346Y187567D01*
X42567Y188346D01*
X41614Y188896D01*
X40551Y189181D01*
D02*
G37*
G36*
X222500Y182500D02*
X219000D01*
Y179000D01*
X219027D01*
X220044Y179273D01*
X220956Y179799D01*
X221701Y180544D01*
X222227Y181456D01*
X222500Y182473D01*
Y182500D01*
D02*
G37*
G36*
X218000D02*
X214500D01*
Y182473D01*
X214773Y181456D01*
X215299Y180544D01*
X216044Y179799D01*
X216956Y179273D01*
X217973Y179000D01*
X218000D01*
Y182500D01*
D02*
G37*
G36*
X169051Y185181D02*
X167949D01*
X166886Y184896D01*
X165933Y184346D01*
X165154Y183567D01*
X164604Y182614D01*
X164319Y181551D01*
Y180449D01*
X164604Y179386D01*
X165154Y178433D01*
X165933Y177654D01*
X166886Y177104D01*
X167949Y176819D01*
X169051D01*
X170114Y177104D01*
X171067Y177654D01*
X171846Y178433D01*
X172396Y179386D01*
X172681Y180449D01*
Y181551D01*
X172396Y182614D01*
X171846Y183567D01*
X171067Y184346D01*
X170114Y184896D01*
X169051Y185181D01*
D02*
G37*
G36*
X100550Y179181D02*
X99449D01*
X98386Y178896D01*
X97433Y178346D01*
X96654Y177567D01*
X96104Y176614D01*
X95819Y175550D01*
Y174450D01*
X96104Y173386D01*
X96654Y172433D01*
X97433Y171654D01*
X98386Y171104D01*
X99449Y170819D01*
X100550D01*
X101614Y171104D01*
X102567Y171654D01*
X103346Y172433D01*
X103896Y173386D01*
X104181Y174450D01*
Y175550D01*
X103896Y176614D01*
X103346Y177567D01*
X102567Y178346D01*
X101614Y178896D01*
X100550Y179181D01*
D02*
G37*
G36*
X40551D02*
X39450D01*
X38386Y178896D01*
X37433Y178346D01*
X36654Y177567D01*
X36104Y176614D01*
X35819Y175550D01*
Y174450D01*
X36104Y173386D01*
X36654Y172433D01*
X37433Y171654D01*
X38386Y171104D01*
X39450Y170819D01*
X40551D01*
X41614Y171104D01*
X42567Y171654D01*
X43346Y172433D01*
X43896Y173386D01*
X44181Y174450D01*
Y175550D01*
X43896Y176614D01*
X43346Y177567D01*
X42567Y178346D01*
X41614Y178896D01*
X40551Y179181D01*
D02*
G37*
G36*
X199050Y175181D02*
X197950D01*
X196886Y174896D01*
X195933Y174346D01*
X195154Y173567D01*
X194604Y172614D01*
X194319Y171551D01*
Y170449D01*
X194604Y169386D01*
X195154Y168433D01*
X195933Y167654D01*
X196886Y167104D01*
X197950Y166819D01*
X199050D01*
X200114Y167104D01*
X201067Y167654D01*
X201846Y168433D01*
X202396Y169386D01*
X202681Y170449D01*
Y171551D01*
X202396Y172614D01*
X201846Y173567D01*
X201067Y174346D01*
X200114Y174896D01*
X199050Y175181D01*
D02*
G37*
G36*
X100550Y189181D02*
X99449D01*
X98386Y188896D01*
X97433Y188346D01*
X96654Y187567D01*
X96104Y186614D01*
X95819Y185550D01*
Y184450D01*
X96104Y183386D01*
X96654Y182433D01*
X97433Y181654D01*
X98386Y181104D01*
X99449Y180819D01*
X100550D01*
X101502Y181074D01*
X112788Y169788D01*
X113344Y169416D01*
X114000Y169286D01*
X140786D01*
Y163838D01*
X139933Y163346D01*
X139154Y162567D01*
X138604Y161614D01*
X138319Y160550D01*
Y159450D01*
X138604Y158386D01*
X139154Y157433D01*
X139933Y156654D01*
X140886Y156104D01*
X141949Y155819D01*
X143051D01*
X144114Y156104D01*
X145067Y156654D01*
X145846Y157433D01*
X146396Y158386D01*
X146681Y159450D01*
Y160550D01*
X146396Y161614D01*
X145846Y162567D01*
X145067Y163346D01*
X144214Y163838D01*
Y169286D01*
X164662D01*
X165154Y168433D01*
X165933Y167654D01*
X166886Y167104D01*
X167949Y166819D01*
X169051D01*
X170114Y167104D01*
X171067Y167654D01*
X171846Y168433D01*
X172396Y169386D01*
X172681Y170449D01*
Y171551D01*
X172396Y172614D01*
X171846Y173567D01*
X171067Y174346D01*
X170114Y174896D01*
X169051Y175181D01*
X167949D01*
X166886Y174896D01*
X165933Y174346D01*
X165154Y173567D01*
X164662Y172714D01*
X114710D01*
X103926Y183498D01*
X104181Y184450D01*
Y185550D01*
X103896Y186614D01*
X103346Y187567D01*
X102567Y188346D01*
X101614Y188896D01*
X100550Y189181D01*
D02*
G37*
G36*
X169027Y165000D02*
X169000D01*
Y161500D01*
X172500D01*
Y161527D01*
X172227Y162544D01*
X171701Y163456D01*
X170956Y164201D01*
X170044Y164727D01*
X169027Y165000D01*
D02*
G37*
G36*
X168000D02*
X167973D01*
X166956Y164727D01*
X166044Y164201D01*
X165299Y163456D01*
X164773Y162544D01*
X164500Y161527D01*
Y161500D01*
X168000D01*
Y165000D01*
D02*
G37*
G36*
X100550Y169181D02*
X99449D01*
X98386Y168896D01*
X97433Y168346D01*
X96654Y167567D01*
X96104Y166614D01*
X95819Y165550D01*
Y164450D01*
X96104Y163386D01*
X96654Y162433D01*
X97433Y161654D01*
X98386Y161104D01*
X99449Y160819D01*
X100550D01*
X101614Y161104D01*
X102567Y161654D01*
X103346Y162433D01*
X103896Y163386D01*
X104181Y164450D01*
Y165550D01*
X103896Y166614D01*
X103346Y167567D01*
X102567Y168346D01*
X101614Y168896D01*
X100550Y169181D01*
D02*
G37*
G36*
X40551D02*
X39450D01*
X38386Y168896D01*
X37433Y168346D01*
X36654Y167567D01*
X36104Y166614D01*
X35819Y165550D01*
Y164450D01*
X36104Y163386D01*
X36654Y162433D01*
X37433Y161654D01*
X38386Y161104D01*
X39450Y160819D01*
X40551D01*
X41614Y161104D01*
X42567Y161654D01*
X43346Y162433D01*
X43896Y163386D01*
X44181Y164450D01*
Y165550D01*
X43896Y166614D01*
X43346Y167567D01*
X42567Y168346D01*
X41614Y168896D01*
X40551Y169181D01*
D02*
G37*
G36*
X199050Y195181D02*
X197950D01*
X196886Y194896D01*
X195933Y194346D01*
X195154Y193567D01*
X194604Y192614D01*
X194319Y191551D01*
Y190450D01*
X194604Y189386D01*
X195154Y188433D01*
X195933Y187654D01*
X196886Y187104D01*
X197240Y187009D01*
X198568Y185681D01*
X198361Y185181D01*
X197950D01*
X196886Y184896D01*
X195933Y184346D01*
X195154Y183567D01*
X194604Y182614D01*
X194319Y181551D01*
Y180449D01*
X194604Y179386D01*
X195154Y178433D01*
X195933Y177654D01*
X196886Y177104D01*
X197950Y176819D01*
X199050D01*
X200114Y177104D01*
X201067Y177654D01*
X201846Y178433D01*
X202396Y179386D01*
X202681Y180449D01*
Y180861D01*
X203181Y181068D01*
X205287Y178962D01*
Y172500D01*
X205414Y171539D01*
X205785Y170644D01*
X206375Y169875D01*
X214509Y161740D01*
X214604Y161386D01*
X215154Y160433D01*
X215933Y159654D01*
X216886Y159104D01*
X217950Y158819D01*
X219051D01*
X220114Y159104D01*
X221067Y159654D01*
X221846Y160433D01*
X222396Y161386D01*
X222681Y162450D01*
Y163550D01*
X222396Y164614D01*
X221846Y165567D01*
X221067Y166346D01*
X220114Y166896D01*
X219760Y166991D01*
X212713Y174038D01*
Y180500D01*
X212586Y181461D01*
X212215Y182356D01*
X211625Y183125D01*
X202491Y192260D01*
X202396Y192614D01*
X201846Y193567D01*
X201067Y194346D01*
X200114Y194896D01*
X199050Y195181D01*
D02*
G37*
G36*
X172500Y160500D02*
X169000D01*
Y157000D01*
X169027D01*
X170044Y157273D01*
X170956Y157799D01*
X171701Y158544D01*
X172227Y159456D01*
X172500Y160473D01*
Y160500D01*
D02*
G37*
G36*
X168000D02*
X164500D01*
Y160473D01*
X164773Y159456D01*
X165299Y158544D01*
X166044Y157799D01*
X166956Y157273D01*
X167973Y157000D01*
X168000D01*
Y160500D01*
D02*
G37*
G36*
X199050Y165181D02*
X197950D01*
X196886Y164896D01*
X195933Y164346D01*
X195154Y163567D01*
X194604Y162614D01*
X194319Y161550D01*
Y160450D01*
X194604Y159386D01*
X195154Y158433D01*
X195933Y157654D01*
X196886Y157104D01*
X197950Y156819D01*
X199050D01*
X200114Y157104D01*
X201067Y157654D01*
X201846Y158433D01*
X202396Y159386D01*
X202681Y160450D01*
Y161550D01*
X202396Y162614D01*
X201846Y163567D01*
X201067Y164346D01*
X200114Y164896D01*
X199050Y165181D01*
D02*
G37*
G36*
X100527Y159000D02*
X100500D01*
Y155500D01*
X104000D01*
Y155527D01*
X103727Y156544D01*
X103201Y157456D01*
X102456Y158201D01*
X101544Y158727D01*
X100527Y159000D01*
D02*
G37*
G36*
X99500D02*
X99473D01*
X98456Y158727D01*
X97544Y158201D01*
X96799Y157456D01*
X96273Y156544D01*
X96000Y155527D01*
Y155500D01*
X99500D01*
Y159000D01*
D02*
G37*
G36*
X346550Y154181D02*
X345449D01*
X344386Y153896D01*
X343433Y153346D01*
X342654Y152567D01*
X342162Y151714D01*
X325905D01*
X325571Y152048D01*
X324988Y152385D01*
X324337Y152559D01*
X323663D01*
X323012Y152385D01*
X322429Y152048D01*
X321952Y151571D01*
X321615Y150988D01*
X321441Y150337D01*
Y149663D01*
X321615Y149012D01*
X321952Y148429D01*
X322429Y147952D01*
X323012Y147615D01*
X323663Y147441D01*
X324337D01*
X324988Y147615D01*
X325571Y147952D01*
X325905Y148286D01*
X342162D01*
X342654Y147433D01*
X343433Y146654D01*
X344386Y146104D01*
X345449Y145819D01*
X346550D01*
X347614Y146104D01*
X348567Y146654D01*
X349346Y147433D01*
X349896Y148386D01*
X350181Y149450D01*
Y150550D01*
X349896Y151614D01*
X349346Y152567D01*
X348567Y153346D01*
X347614Y153896D01*
X346550Y154181D01*
D02*
G37*
G36*
X292550D02*
X291449D01*
X290386Y153896D01*
X289433Y153346D01*
X288654Y152567D01*
X288162Y151714D01*
X270905D01*
X270571Y152048D01*
X269988Y152385D01*
X269337Y152559D01*
X268663D01*
X268012Y152385D01*
X267429Y152048D01*
X266952Y151571D01*
X266615Y150988D01*
X266441Y150337D01*
Y149663D01*
X266615Y149012D01*
X266952Y148429D01*
X267429Y147952D01*
X268012Y147615D01*
X268663Y147441D01*
X269337D01*
X269988Y147615D01*
X270571Y147952D01*
X270905Y148286D01*
X288162D01*
X288654Y147433D01*
X289433Y146654D01*
X290386Y146104D01*
X291449Y145819D01*
X292550D01*
X293614Y146104D01*
X294567Y146654D01*
X295346Y147433D01*
X295896Y148386D01*
X296181Y149450D01*
Y150550D01*
X295896Y151614D01*
X295346Y152567D01*
X294567Y153346D01*
X293614Y153896D01*
X292550Y154181D01*
D02*
G37*
G36*
X104000Y154500D02*
X100500D01*
Y151000D01*
X100527D01*
X101544Y151273D01*
X102456Y151799D01*
X103201Y152544D01*
X103727Y153456D01*
X104000Y154473D01*
Y154500D01*
D02*
G37*
G36*
X99500D02*
X96000D01*
Y154473D01*
X96273Y153456D01*
X96799Y152544D01*
X97544Y151799D01*
X98456Y151273D01*
X99473Y151000D01*
X99500D01*
Y154500D01*
D02*
G37*
G36*
X40551Y159181D02*
X39450D01*
X38386Y158896D01*
X37433Y158346D01*
X36654Y157567D01*
X36104Y156614D01*
X35819Y155551D01*
Y154449D01*
X36104Y153386D01*
X36654Y152433D01*
X37433Y151654D01*
X38386Y151104D01*
X39450Y150819D01*
X40551D01*
X41614Y151104D01*
X42567Y151654D01*
X43346Y152433D01*
X43896Y153386D01*
X44181Y154449D01*
Y155551D01*
X43896Y156614D01*
X43346Y157567D01*
X42567Y158346D01*
X41614Y158896D01*
X40551Y159181D01*
D02*
G37*
G36*
X219051Y157181D02*
X217950D01*
X216886Y156896D01*
X215933Y156346D01*
X215154Y155567D01*
X214604Y154614D01*
X214319Y153551D01*
Y152450D01*
X214604Y151386D01*
X215154Y150433D01*
X215933Y149654D01*
X216886Y149104D01*
X217950Y148819D01*
X219051D01*
X220114Y149104D01*
X221067Y149654D01*
X221846Y150433D01*
X222396Y151386D01*
X222681Y152450D01*
Y153551D01*
X222396Y154614D01*
X221846Y155567D01*
X221067Y156346D01*
X220114Y156896D01*
X219051Y157181D01*
D02*
G37*
G36*
X100550Y149181D02*
X99449D01*
X98386Y148896D01*
X97433Y148346D01*
X96654Y147567D01*
X96104Y146614D01*
X95819Y145551D01*
Y144449D01*
X96104Y143386D01*
X96654Y142433D01*
X97433Y141654D01*
X98386Y141104D01*
X99449Y140819D01*
X100550D01*
X101614Y141104D01*
X102567Y141654D01*
X103346Y142433D01*
X103896Y143386D01*
X104181Y144449D01*
Y145551D01*
X103896Y146614D01*
X103346Y147567D01*
X102567Y148346D01*
X101614Y148896D01*
X100550Y149181D01*
D02*
G37*
G36*
X40551D02*
X39450D01*
X38386Y148896D01*
X37433Y148346D01*
X36654Y147567D01*
X36104Y146614D01*
X35819Y145551D01*
Y144449D01*
X36104Y143386D01*
X36654Y142433D01*
X37433Y141654D01*
X38386Y141104D01*
X39450Y140819D01*
X40551D01*
X41614Y141104D01*
X42567Y141654D01*
X43346Y142433D01*
X43896Y143386D01*
X44181Y144449D01*
Y145551D01*
X43896Y146614D01*
X43346Y147567D01*
X42567Y148346D01*
X41614Y148896D01*
X40551Y149181D01*
D02*
G37*
G36*
X166000Y142367D02*
Y140500D01*
X167867D01*
X167516Y141347D01*
X166847Y142016D01*
X166000Y142367D01*
D02*
G37*
G36*
X165000D02*
X164153Y142016D01*
X163484Y141347D01*
X163133Y140500D01*
X165000D01*
Y142367D01*
D02*
G37*
G36*
X158500D02*
Y140500D01*
X160367D01*
X160016Y141347D01*
X159347Y142016D01*
X158500Y142367D01*
D02*
G37*
G36*
X157500D02*
X156653Y142016D01*
X155984Y141347D01*
X155633Y140500D01*
X157500D01*
Y142367D01*
D02*
G37*
G36*
X151000D02*
Y140500D01*
X152867D01*
X152516Y141347D01*
X151847Y142016D01*
X151000Y142367D01*
D02*
G37*
G36*
X150000D02*
X149153Y142016D01*
X148484Y141347D01*
X148133Y140500D01*
X150000D01*
Y142367D01*
D02*
G37*
G36*
X143500D02*
Y140500D01*
X145367D01*
X145016Y141347D01*
X144347Y142016D01*
X143500Y142367D01*
D02*
G37*
G36*
X142500D02*
X141653Y142016D01*
X140984Y141347D01*
X140633Y140500D01*
X142500D01*
Y142367D01*
D02*
G37*
G36*
X136000D02*
Y140500D01*
X137867D01*
X137516Y141347D01*
X136847Y142016D01*
X136000Y142367D01*
D02*
G37*
G36*
X135000D02*
X134153Y142016D01*
X133484Y141347D01*
X133133Y140500D01*
X135000D01*
Y142367D01*
D02*
G37*
G36*
X167867Y139500D02*
X166000D01*
Y137633D01*
X166847Y137984D01*
X167516Y138653D01*
X167867Y139500D01*
D02*
G37*
G36*
X165000D02*
X163133D01*
X163484Y138653D01*
X164153Y137984D01*
X165000Y137633D01*
Y139500D01*
D02*
G37*
G36*
X160367D02*
X158500D01*
Y137633D01*
X159347Y137984D01*
X160016Y138653D01*
X160367Y139500D01*
D02*
G37*
G36*
X157500D02*
X155633D01*
X155984Y138653D01*
X156653Y137984D01*
X157500Y137633D01*
Y139500D01*
D02*
G37*
G36*
X152867D02*
X151000D01*
Y137633D01*
X151847Y137984D01*
X152516Y138653D01*
X152867Y139500D01*
D02*
G37*
G36*
X150000D02*
X148133D01*
X148484Y138653D01*
X149153Y137984D01*
X150000Y137633D01*
Y139500D01*
D02*
G37*
G36*
X145367D02*
X143500D01*
Y137633D01*
X144347Y137984D01*
X145016Y138653D01*
X145367Y139500D01*
D02*
G37*
G36*
X142500D02*
X140633D01*
X140984Y138653D01*
X141653Y137984D01*
X142500Y137633D01*
Y139500D01*
D02*
G37*
G36*
X137867D02*
X136000D01*
Y137633D01*
X136847Y137984D01*
X137516Y138653D01*
X137867Y139500D01*
D02*
G37*
G36*
X135000D02*
X133133D01*
X133484Y138653D01*
X134153Y137984D01*
X135000Y137633D01*
Y139500D01*
D02*
G37*
G36*
X40527Y139000D02*
X40500D01*
Y135500D01*
X44000D01*
Y135527D01*
X43727Y136544D01*
X43201Y137456D01*
X42456Y138201D01*
X41544Y138727D01*
X40527Y139000D01*
D02*
G37*
G36*
X39500D02*
X39473D01*
X38456Y138727D01*
X37544Y138201D01*
X36799Y137456D01*
X36273Y136544D01*
X36000Y135527D01*
Y135500D01*
X39500D01*
Y139000D01*
D02*
G37*
G36*
X166000Y134867D02*
Y133000D01*
X167867D01*
X167516Y133847D01*
X166847Y134516D01*
X166000Y134867D01*
D02*
G37*
G36*
X165000D02*
X164153Y134516D01*
X163484Y133847D01*
X163133Y133000D01*
X165000D01*
Y134867D01*
D02*
G37*
G36*
X158500D02*
Y133000D01*
X160367D01*
X160016Y133847D01*
X159347Y134516D01*
X158500Y134867D01*
D02*
G37*
G36*
X157500D02*
X156653Y134516D01*
X155984Y133847D01*
X155633Y133000D01*
X157500D01*
Y134867D01*
D02*
G37*
G36*
X151000D02*
Y133000D01*
X152867D01*
X152516Y133847D01*
X151847Y134516D01*
X151000Y134867D01*
D02*
G37*
G36*
X150000D02*
X149153Y134516D01*
X148484Y133847D01*
X148133Y133000D01*
X150000D01*
Y134867D01*
D02*
G37*
G36*
X143500D02*
Y133000D01*
X145367D01*
X145016Y133847D01*
X144347Y134516D01*
X143500Y134867D01*
D02*
G37*
G36*
X142500D02*
X141653Y134516D01*
X140984Y133847D01*
X140633Y133000D01*
X142500D01*
Y134867D01*
D02*
G37*
G36*
X136000D02*
Y133000D01*
X137867D01*
X137516Y133847D01*
X136847Y134516D01*
X136000Y134867D01*
D02*
G37*
G36*
X135000D02*
X134153Y134516D01*
X133484Y133847D01*
X133133Y133000D01*
X135000D01*
Y134867D01*
D02*
G37*
G36*
X44000Y134500D02*
X40500D01*
Y131000D01*
X40527D01*
X41544Y131273D01*
X42456Y131799D01*
X43201Y132544D01*
X43727Y133456D01*
X44000Y134473D01*
Y134500D01*
D02*
G37*
G36*
X39500D02*
X36000D01*
Y134473D01*
X36273Y133456D01*
X36799Y132544D01*
X37544Y131799D01*
X38456Y131273D01*
X39473Y131000D01*
X39500D01*
Y134500D01*
D02*
G37*
G36*
X100550Y139181D02*
X99449D01*
X98386Y138896D01*
X97433Y138346D01*
X96654Y137567D01*
X96104Y136614D01*
X95819Y135550D01*
Y134450D01*
X96104Y133386D01*
X96654Y132433D01*
X97433Y131654D01*
X98386Y131104D01*
X99449Y130819D01*
X100550D01*
X101614Y131104D01*
X102567Y131654D01*
X103346Y132433D01*
X103896Y133386D01*
X104181Y134450D01*
Y135550D01*
X103896Y136614D01*
X103346Y137567D01*
X102567Y138346D01*
X101614Y138896D01*
X100550Y139181D01*
D02*
G37*
G36*
X17550D02*
X16450D01*
X15386Y138896D01*
X14433Y138346D01*
X13654Y137567D01*
X13104Y136614D01*
X12819Y135550D01*
Y134450D01*
X13104Y133386D01*
X13654Y132433D01*
X14433Y131654D01*
X15386Y131104D01*
X16450Y130819D01*
X17550D01*
X18614Y131104D01*
X19567Y131654D01*
X20346Y132433D01*
X20896Y133386D01*
X21181Y134450D01*
Y135550D01*
X20896Y136614D01*
X20346Y137567D01*
X19567Y138346D01*
X18614Y138896D01*
X17550Y139181D01*
D02*
G37*
G36*
X167867Y132000D02*
X166000D01*
Y130133D01*
X166847Y130484D01*
X167516Y131153D01*
X167867Y132000D01*
D02*
G37*
G36*
X165000D02*
X163133D01*
X163484Y131153D01*
X164153Y130484D01*
X165000Y130133D01*
Y132000D01*
D02*
G37*
G36*
X160367D02*
X158500D01*
Y130133D01*
X159347Y130484D01*
X160016Y131153D01*
X160367Y132000D01*
D02*
G37*
G36*
X157500D02*
X155633D01*
X155984Y131153D01*
X156653Y130484D01*
X157500Y130133D01*
Y132000D01*
D02*
G37*
G36*
X152867D02*
X151000D01*
Y130133D01*
X151847Y130484D01*
X152516Y131153D01*
X152867Y132000D01*
D02*
G37*
G36*
X150000D02*
X148133D01*
X148484Y131153D01*
X149153Y130484D01*
X150000Y130133D01*
Y132000D01*
D02*
G37*
G36*
X145367D02*
X143500D01*
Y130133D01*
X144347Y130484D01*
X145016Y131153D01*
X145367Y132000D01*
D02*
G37*
G36*
X142500D02*
X140633D01*
X140984Y131153D01*
X141653Y130484D01*
X142500Y130133D01*
Y132000D01*
D02*
G37*
G36*
X137867D02*
X136000D01*
Y130133D01*
X136847Y130484D01*
X137516Y131153D01*
X137867Y132000D01*
D02*
G37*
G36*
X135000D02*
X133133D01*
X133484Y131153D01*
X134153Y130484D01*
X135000Y130133D01*
Y132000D01*
D02*
G37*
G36*
X298000Y129867D02*
Y128000D01*
X299867D01*
X299516Y128847D01*
X298847Y129516D01*
X298000Y129867D01*
D02*
G37*
G36*
X297000D02*
X296153Y129516D01*
X295484Y128847D01*
X295133Y128000D01*
X297000D01*
Y129867D01*
D02*
G37*
G36*
X290500D02*
Y128000D01*
X292367D01*
X292016Y128847D01*
X291347Y129516D01*
X290500Y129867D01*
D02*
G37*
G36*
X289500D02*
X288653Y129516D01*
X287984Y128847D01*
X287633Y128000D01*
X289500D01*
Y129867D01*
D02*
G37*
G36*
X166000Y127367D02*
Y125500D01*
X167867D01*
X167516Y126347D01*
X166847Y127016D01*
X166000Y127367D01*
D02*
G37*
G36*
X165000D02*
X164153Y127016D01*
X163484Y126347D01*
X163133Y125500D01*
X165000D01*
Y127367D01*
D02*
G37*
G36*
X158500D02*
Y125500D01*
X160367D01*
X160016Y126347D01*
X159347Y127016D01*
X158500Y127367D01*
D02*
G37*
G36*
X157500D02*
X156653Y127016D01*
X155984Y126347D01*
X155633Y125500D01*
X157500D01*
Y127367D01*
D02*
G37*
G36*
X151000D02*
Y125500D01*
X152867D01*
X152516Y126347D01*
X151847Y127016D01*
X151000Y127367D01*
D02*
G37*
G36*
X150000D02*
X149153Y127016D01*
X148484Y126347D01*
X148133Y125500D01*
X150000D01*
Y127367D01*
D02*
G37*
G36*
X143500D02*
Y125500D01*
X145367D01*
X145016Y126347D01*
X144347Y127016D01*
X143500Y127367D01*
D02*
G37*
G36*
X142500D02*
X141653Y127016D01*
X140984Y126347D01*
X140633Y125500D01*
X142500D01*
Y127367D01*
D02*
G37*
G36*
X136000D02*
Y125500D01*
X137867D01*
X137516Y126347D01*
X136847Y127016D01*
X136000Y127367D01*
D02*
G37*
G36*
X135000D02*
X134153Y127016D01*
X133484Y126347D01*
X133133Y125500D01*
X135000D01*
Y127367D01*
D02*
G37*
G36*
X299867Y127000D02*
X298000D01*
Y125133D01*
X298847Y125484D01*
X299516Y126153D01*
X299867Y127000D01*
D02*
G37*
G36*
X297000D02*
X295133D01*
X295484Y126153D01*
X296153Y125484D01*
X297000Y125133D01*
Y127000D01*
D02*
G37*
G36*
X292367D02*
X290500D01*
Y125133D01*
X291347Y125484D01*
X292016Y126153D01*
X292367Y127000D01*
D02*
G37*
G36*
X289500D02*
X287633D01*
X287984Y126153D01*
X288653Y125484D01*
X289500Y125133D01*
Y127000D01*
D02*
G37*
G36*
X167867Y124500D02*
X166000D01*
Y122633D01*
X166847Y122984D01*
X167516Y123653D01*
X167867Y124500D01*
D02*
G37*
G36*
X165000D02*
X163133D01*
X163484Y123653D01*
X164153Y122984D01*
X165000Y122633D01*
Y124500D01*
D02*
G37*
G36*
X160367D02*
X158500D01*
Y122633D01*
X159347Y122984D01*
X160016Y123653D01*
X160367Y124500D01*
D02*
G37*
G36*
X157500D02*
X155633D01*
X155984Y123653D01*
X156653Y122984D01*
X157500Y122633D01*
Y124500D01*
D02*
G37*
G36*
X152867D02*
X151000D01*
Y122633D01*
X151847Y122984D01*
X152516Y123653D01*
X152867Y124500D01*
D02*
G37*
G36*
X150000D02*
X148133D01*
X148484Y123653D01*
X149153Y122984D01*
X150000Y122633D01*
Y124500D01*
D02*
G37*
G36*
X145367D02*
X143500D01*
Y122633D01*
X144347Y122984D01*
X145016Y123653D01*
X145367Y124500D01*
D02*
G37*
G36*
X142500D02*
X140633D01*
X140984Y123653D01*
X141653Y122984D01*
X142500Y122633D01*
Y124500D01*
D02*
G37*
G36*
X137867D02*
X136000D01*
Y122633D01*
X136847Y122984D01*
X137516Y123653D01*
X137867Y124500D01*
D02*
G37*
G36*
X135000D02*
X133133D01*
X133484Y123653D01*
X134153Y122984D01*
X135000Y122633D01*
Y124500D01*
D02*
G37*
G36*
X100550Y129181D02*
X99449D01*
X98386Y128896D01*
X97433Y128346D01*
X96654Y127567D01*
X96104Y126614D01*
X95819Y125550D01*
Y124450D01*
X96104Y123386D01*
X96654Y122433D01*
X97433Y121654D01*
X98386Y121104D01*
X99449Y120819D01*
X100550D01*
X101614Y121104D01*
X102567Y121654D01*
X103346Y122433D01*
X103896Y123386D01*
X104181Y124450D01*
Y125550D01*
X103896Y126614D01*
X103346Y127567D01*
X102567Y128346D01*
X101614Y128896D01*
X100550Y129181D01*
D02*
G37*
G36*
X40551D02*
X39450D01*
X38386Y128896D01*
X37433Y128346D01*
X36654Y127567D01*
X36104Y126614D01*
X35819Y125550D01*
Y124450D01*
X36104Y123386D01*
X36654Y122433D01*
X37433Y121654D01*
X38386Y121104D01*
X39450Y120819D01*
X40551D01*
X41614Y121104D01*
X42567Y121654D01*
X43346Y122433D01*
X43896Y123386D01*
X44181Y124450D01*
Y125550D01*
X43896Y126614D01*
X43346Y127567D01*
X42567Y128346D01*
X41614Y128896D01*
X40551Y129181D01*
D02*
G37*
G36*
X17527Y119000D02*
X17500D01*
Y115500D01*
X21000D01*
Y115527D01*
X20727Y116544D01*
X20201Y117456D01*
X19456Y118201D01*
X18544Y118727D01*
X17527Y119000D01*
D02*
G37*
G36*
X16500D02*
X16473D01*
X15456Y118727D01*
X14544Y118201D01*
X13799Y117456D01*
X13273Y116544D01*
X13000Y115527D01*
Y115500D01*
X16500D01*
Y119000D01*
D02*
G37*
G36*
X360000Y174723D02*
X358298Y174556D01*
X356662Y174059D01*
X355154Y173253D01*
X353832Y172168D01*
X352747Y170846D01*
X351941Y169338D01*
X351445Y167702D01*
X351277Y166000D01*
Y137613D01*
X328082Y114418D01*
X326026Y112363D01*
X325988Y112385D01*
X325337Y112559D01*
X324663D01*
X324012Y112385D01*
X323429Y112048D01*
X322952Y111571D01*
X322615Y110988D01*
X322441Y110337D01*
Y109663D01*
X322615Y109012D01*
X322638Y108974D01*
X320165Y106502D01*
X319549Y106571D01*
X319538Y106581D01*
X319071Y107048D01*
X318788Y107211D01*
Y107789D01*
X319071Y107952D01*
X319548Y108429D01*
X319885Y109012D01*
X320059Y109663D01*
Y110337D01*
X319885Y110988D01*
X319548Y111571D01*
X319071Y112048D01*
X318488Y112385D01*
X317837Y112559D01*
X317163D01*
X316512Y112385D01*
X315929Y112048D01*
X315452Y111571D01*
X315115Y110988D01*
X314941Y110337D01*
Y109663D01*
X315115Y109012D01*
X315452Y108429D01*
X315929Y107952D01*
X316212Y107789D01*
Y107211D01*
X315929Y107048D01*
X315452Y106571D01*
X315115Y105988D01*
X314941Y105337D01*
Y104663D01*
X315115Y104012D01*
X315452Y103429D01*
X315919Y102962D01*
X316016Y102851D01*
X316074Y102410D01*
X314332Y100668D01*
X297387Y83723D01*
X279000D01*
X277298Y83556D01*
X275662Y83059D01*
X274154Y82253D01*
X272832Y81168D01*
X271747Y79846D01*
X270941Y78338D01*
X270444Y76702D01*
X270277Y75000D01*
X270444Y73298D01*
X270941Y71662D01*
X271747Y70154D01*
X272832Y68832D01*
X274154Y67747D01*
X275662Y66941D01*
X277298Y66444D01*
X279000Y66277D01*
X301000D01*
X302702Y66444D01*
X304338Y66941D01*
X305846Y67747D01*
X307168Y68832D01*
X325939Y87602D01*
X325988Y87615D01*
X326571Y87952D01*
X327048Y88429D01*
X327385Y89012D01*
X327398Y89061D01*
X329830Y91494D01*
X330230Y91187D01*
X330115Y90988D01*
X329941Y90337D01*
Y89663D01*
X330115Y89012D01*
X330452Y88429D01*
X330929Y87952D01*
X331512Y87615D01*
X332163Y87441D01*
X332837D01*
X333488Y87615D01*
X334071Y87952D01*
X334548Y88429D01*
X334885Y89012D01*
X335059Y89663D01*
Y90337D01*
X334885Y90988D01*
X334548Y91571D01*
X334071Y92048D01*
X333788Y92211D01*
Y92789D01*
X334071Y92952D01*
X334548Y93429D01*
X334885Y94012D01*
X335059Y94663D01*
Y95337D01*
X334885Y95988D01*
X334680Y96343D01*
X340418Y102082D01*
X366168Y127832D01*
X367253Y129154D01*
X368059Y130662D01*
X368555Y132298D01*
X368723Y134000D01*
Y166000D01*
X368555Y167702D01*
X368059Y169338D01*
X367253Y170846D01*
X366168Y172168D01*
X364846Y173253D01*
X363338Y174059D01*
X361702Y174556D01*
X360000Y174723D01*
D02*
G37*
G36*
X21000Y114500D02*
X17500D01*
Y111000D01*
X17527D01*
X18544Y111273D01*
X19456Y111799D01*
X20201Y112544D01*
X20727Y113456D01*
X21000Y114473D01*
Y114500D01*
D02*
G37*
G36*
X16500D02*
X13000D01*
Y114473D01*
X13273Y113456D01*
X13799Y112544D01*
X14544Y111799D01*
X15456Y111273D01*
X16473Y111000D01*
X16500D01*
Y114500D01*
D02*
G37*
G36*
X289000Y107367D02*
Y105500D01*
X290867D01*
X290516Y106347D01*
X289847Y107016D01*
X289000Y107367D01*
D02*
G37*
G36*
X288000D02*
X287153Y107016D01*
X286484Y106347D01*
X286133Y105500D01*
X288000D01*
Y107367D01*
D02*
G37*
G36*
X290867Y104500D02*
X289000D01*
Y102633D01*
X289847Y102984D01*
X290516Y103653D01*
X290867Y104500D01*
D02*
G37*
G36*
X288000D02*
X286133D01*
X286484Y103653D01*
X287153Y102984D01*
X288000Y102633D01*
Y104500D01*
D02*
G37*
G36*
X289118Y99842D02*
Y97975D01*
X290985D01*
X290634Y98822D01*
X289965Y99491D01*
X289118Y99842D01*
D02*
G37*
G36*
X288118D02*
X287271Y99491D01*
X286602Y98822D01*
X286251Y97975D01*
X288118D01*
Y99842D01*
D02*
G37*
G36*
X290985Y96975D02*
X289118D01*
Y95109D01*
X289965Y95460D01*
X290634Y96128D01*
X290985Y96975D01*
D02*
G37*
G36*
X288118D02*
X286251D01*
X286602Y96128D01*
X287271Y95460D01*
X288118Y95109D01*
Y96975D01*
D02*
G37*
G36*
X143051Y101681D02*
X141949D01*
X140886Y101396D01*
X139933Y100846D01*
X139154Y100067D01*
X138604Y99114D01*
X138319Y98050D01*
Y96949D01*
X138604Y95886D01*
X139154Y94933D01*
X139933Y94154D01*
X140886Y93604D01*
X141949Y93319D01*
X143051D01*
X144114Y93604D01*
X145067Y94154D01*
X145846Y94933D01*
X146396Y95886D01*
X146681Y96949D01*
Y98050D01*
X146396Y99114D01*
X145846Y100067D01*
X145067Y100846D01*
X144114Y101396D01*
X143051Y101681D01*
D02*
G37*
G36*
X25500Y94867D02*
Y93000D01*
X27367D01*
X27016Y93847D01*
X26347Y94516D01*
X25500Y94867D01*
D02*
G37*
G36*
X24500D02*
X23653Y94516D01*
X22984Y93847D01*
X22633Y93000D01*
X24500D01*
Y94867D01*
D02*
G37*
G36*
X18000D02*
Y93000D01*
X19867D01*
X19516Y93847D01*
X18847Y94516D01*
X18000Y94867D01*
D02*
G37*
G36*
X17000D02*
X16153Y94516D01*
X15484Y93847D01*
X15133Y93000D01*
X17000D01*
Y94867D01*
D02*
G37*
G36*
X219027Y96000D02*
X219000D01*
Y92500D01*
X222500D01*
Y92527D01*
X222227Y93544D01*
X221701Y94456D01*
X220956Y95201D01*
X220044Y95727D01*
X219027Y96000D01*
D02*
G37*
G36*
X218000D02*
X217973D01*
X216956Y95727D01*
X216044Y95201D01*
X215299Y94456D01*
X214773Y93544D01*
X214500Y92527D01*
Y92500D01*
X218000D01*
Y96000D01*
D02*
G37*
G36*
X27367Y92000D02*
X25500D01*
Y90133D01*
X26347Y90484D01*
X27016Y91153D01*
X27367Y92000D01*
D02*
G37*
G36*
X24500D02*
X22633D01*
X22984Y91153D01*
X23653Y90484D01*
X24500Y90133D01*
Y92000D01*
D02*
G37*
G36*
X19867D02*
X18000D01*
Y90133D01*
X18847Y90484D01*
X19516Y91153D01*
X19867Y92000D01*
D02*
G37*
G36*
X17000D02*
X15133D01*
X15484Y91153D01*
X16153Y90484D01*
X17000Y90133D01*
Y92000D01*
D02*
G37*
G36*
X222500Y91500D02*
X219000D01*
Y88000D01*
X219027D01*
X220044Y88273D01*
X220956Y88799D01*
X221701Y89544D01*
X222227Y90456D01*
X222500Y91473D01*
Y91500D01*
D02*
G37*
G36*
X218000D02*
X214500D01*
Y91473D01*
X214773Y90456D01*
X215299Y89544D01*
X216044Y88799D01*
X216956Y88273D01*
X217973Y88000D01*
X218000D01*
Y91500D01*
D02*
G37*
G36*
X169051Y94181D02*
X167949D01*
X166886Y93896D01*
X165933Y93346D01*
X165154Y92567D01*
X164604Y91614D01*
X164319Y90551D01*
Y89450D01*
X164604Y88386D01*
X165154Y87433D01*
X165933Y86654D01*
X166886Y86104D01*
X167949Y85819D01*
X169051D01*
X170114Y86104D01*
X171067Y86654D01*
X171846Y87433D01*
X172396Y88386D01*
X172681Y89450D01*
Y90551D01*
X172396Y91614D01*
X171846Y92567D01*
X171067Y93346D01*
X170114Y93896D01*
X169051Y94181D01*
D02*
G37*
G36*
X25500Y87367D02*
Y85500D01*
X27367D01*
X27016Y86347D01*
X26347Y87016D01*
X25500Y87367D01*
D02*
G37*
G36*
X24500D02*
X23653Y87016D01*
X22984Y86347D01*
X22633Y85500D01*
X24500D01*
Y87367D01*
D02*
G37*
G36*
X18000D02*
Y85500D01*
X19867D01*
X19516Y86347D01*
X18847Y87016D01*
X18000Y87367D01*
D02*
G37*
G36*
X17000D02*
X16153Y87016D01*
X15484Y86347D01*
X15133Y85500D01*
X17000D01*
Y87367D01*
D02*
G37*
G36*
X27367Y84500D02*
X25500D01*
Y82633D01*
X26347Y82984D01*
X27016Y83653D01*
X27367Y84500D01*
D02*
G37*
G36*
X24500D02*
X22633D01*
X22984Y83653D01*
X23653Y82984D01*
X24500Y82633D01*
Y84500D01*
D02*
G37*
G36*
X19867D02*
X18000D01*
Y82633D01*
X18847Y82984D01*
X19516Y83653D01*
X19867Y84500D01*
D02*
G37*
G36*
X17000D02*
X15133D01*
X15484Y83653D01*
X16153Y82984D01*
X17000Y82633D01*
Y84500D01*
D02*
G37*
G36*
X25500Y79867D02*
Y78000D01*
X27367D01*
X27016Y78847D01*
X26347Y79516D01*
X25500Y79867D01*
D02*
G37*
G36*
X24500D02*
X23653Y79516D01*
X22984Y78847D01*
X22633Y78000D01*
X24500D01*
Y79867D01*
D02*
G37*
G36*
X18000D02*
Y78000D01*
X19867D01*
X19516Y78847D01*
X18847Y79516D01*
X18000Y79867D01*
D02*
G37*
G36*
X17000D02*
X16153Y79516D01*
X15484Y78847D01*
X15133Y78000D01*
X17000D01*
Y79867D01*
D02*
G37*
G36*
X199050Y84181D02*
X197950D01*
X196886Y83896D01*
X195933Y83346D01*
X195154Y82567D01*
X194604Y81614D01*
X194319Y80550D01*
Y79449D01*
X194604Y78386D01*
X195154Y77433D01*
X195933Y76654D01*
X196886Y76104D01*
X197950Y75819D01*
X199050D01*
X200114Y76104D01*
X201067Y76654D01*
X201846Y77433D01*
X202396Y78386D01*
X202681Y79449D01*
Y80550D01*
X202396Y81614D01*
X201846Y82567D01*
X201067Y83346D01*
X200114Y83896D01*
X199050Y84181D01*
D02*
G37*
G36*
X169051D02*
X167949D01*
X166886Y83896D01*
X165933Y83346D01*
X165154Y82567D01*
X164604Y81614D01*
X164319Y80550D01*
Y79449D01*
X164604Y78386D01*
X165154Y77433D01*
X165933Y76654D01*
X166886Y76104D01*
X167949Y75819D01*
X169051D01*
X170114Y76104D01*
X171067Y76654D01*
X171846Y77433D01*
X172396Y78386D01*
X172681Y79449D01*
Y80550D01*
X172396Y81614D01*
X171846Y82567D01*
X171067Y83346D01*
X170114Y83896D01*
X169051Y84181D01*
D02*
G37*
G36*
X27367Y77000D02*
X25500D01*
Y75133D01*
X26347Y75484D01*
X27016Y76153D01*
X27367Y77000D01*
D02*
G37*
G36*
X24500D02*
X22633D01*
X22984Y76153D01*
X23653Y75484D01*
X24500Y75133D01*
Y77000D01*
D02*
G37*
G36*
X19867D02*
X18000D01*
Y75133D01*
X18847Y75484D01*
X19516Y76153D01*
X19867Y77000D01*
D02*
G37*
G36*
X17000D02*
X15133D01*
X15484Y76153D01*
X16153Y75484D01*
X17000Y75133D01*
Y77000D01*
D02*
G37*
G36*
X169027Y74000D02*
X169000D01*
Y70500D01*
X172500D01*
Y70527D01*
X172227Y71544D01*
X171701Y72456D01*
X170956Y73201D01*
X170044Y73727D01*
X169027Y74000D01*
D02*
G37*
G36*
X168000D02*
X167973D01*
X166956Y73727D01*
X166044Y73201D01*
X165299Y72456D01*
X164773Y71544D01*
X164500Y70527D01*
Y70500D01*
X168000D01*
Y74000D01*
D02*
G37*
G36*
X25500Y72367D02*
Y70500D01*
X27367D01*
X27016Y71347D01*
X26347Y72016D01*
X25500Y72367D01*
D02*
G37*
G36*
X24500D02*
X23653Y72016D01*
X22984Y71347D01*
X22633Y70500D01*
X24500D01*
Y72367D01*
D02*
G37*
G36*
X18000D02*
Y70500D01*
X19867D01*
X19516Y71347D01*
X18847Y72016D01*
X18000Y72367D01*
D02*
G37*
G36*
X17000D02*
X16153Y72016D01*
X15484Y71347D01*
X15133Y70500D01*
X17000D01*
Y72367D01*
D02*
G37*
G36*
X199050Y104181D02*
X197950D01*
X196886Y103896D01*
X195933Y103346D01*
X195154Y102567D01*
X194604Y101614D01*
X194319Y100550D01*
Y99449D01*
X194604Y98386D01*
X195154Y97433D01*
X195933Y96654D01*
X196886Y96104D01*
X197240Y96009D01*
X198568Y94681D01*
X198361Y94181D01*
X197950D01*
X196886Y93896D01*
X195933Y93346D01*
X195154Y92567D01*
X194604Y91614D01*
X194319Y90551D01*
Y89450D01*
X194604Y88386D01*
X195154Y87433D01*
X195933Y86654D01*
X196886Y86104D01*
X197950Y85819D01*
X199050D01*
X200114Y86104D01*
X201067Y86654D01*
X201846Y87433D01*
X202396Y88386D01*
X202681Y89450D01*
Y89861D01*
X203181Y90068D01*
X205287Y87962D01*
Y81500D01*
X205414Y80539D01*
X205785Y79644D01*
X206375Y78875D01*
X214509Y70740D01*
X214604Y70386D01*
X215154Y69433D01*
X215933Y68654D01*
X216886Y68104D01*
X217950Y67819D01*
X219051D01*
X220114Y68104D01*
X221067Y68654D01*
X221846Y69433D01*
X222396Y70386D01*
X222681Y71450D01*
Y72550D01*
X222396Y73614D01*
X221846Y74567D01*
X221067Y75346D01*
X220114Y75896D01*
X219760Y75991D01*
X212713Y83038D01*
Y89500D01*
X212586Y90461D01*
X212215Y91356D01*
X211625Y92125D01*
X202491Y101260D01*
X202396Y101614D01*
X201846Y102567D01*
X201067Y103346D01*
X200114Y103896D01*
X199050Y104181D01*
D02*
G37*
G36*
X27367Y69500D02*
X25500D01*
Y67633D01*
X26347Y67984D01*
X27016Y68653D01*
X27367Y69500D01*
D02*
G37*
G36*
X24500D02*
X22633D01*
X22984Y68653D01*
X23653Y67984D01*
X24500Y67633D01*
Y69500D01*
D02*
G37*
G36*
X19867D02*
X18000D01*
Y67633D01*
X18847Y67984D01*
X19516Y68653D01*
X19867Y69500D01*
D02*
G37*
G36*
X17000D02*
X15133D01*
X15484Y68653D01*
X16153Y67984D01*
X17000Y67633D01*
Y69500D01*
D02*
G37*
G36*
X172500D02*
X169000D01*
Y66000D01*
X169027D01*
X170044Y66273D01*
X170956Y66799D01*
X171701Y67544D01*
X172227Y68456D01*
X172500Y69473D01*
Y69500D01*
D02*
G37*
G36*
X168000D02*
X164500D01*
Y69473D01*
X164773Y68456D01*
X165299Y67544D01*
X166044Y66799D01*
X166956Y66273D01*
X167973Y66000D01*
X168000D01*
Y69500D01*
D02*
G37*
G36*
X199050Y74181D02*
X197950D01*
X196886Y73896D01*
X195933Y73346D01*
X195154Y72567D01*
X194604Y71614D01*
X194319Y70551D01*
Y69450D01*
X194604Y68386D01*
X195154Y67433D01*
X195933Y66654D01*
X196886Y66104D01*
X197950Y65819D01*
X199050D01*
X200114Y66104D01*
X201067Y66654D01*
X201846Y67433D01*
X202396Y68386D01*
X202681Y69450D01*
Y70551D01*
X202396Y71614D01*
X201846Y72567D01*
X201067Y73346D01*
X200114Y73896D01*
X199050Y74181D01*
D02*
G37*
G36*
X143051D02*
X141949D01*
X140886Y73896D01*
X139933Y73346D01*
X139154Y72567D01*
X138604Y71614D01*
X138319Y70551D01*
Y69450D01*
X138604Y68386D01*
X139154Y67433D01*
X139933Y66654D01*
X140886Y66104D01*
X141949Y65819D01*
X143051D01*
X144114Y66104D01*
X145067Y66654D01*
X145846Y67433D01*
X146396Y68386D01*
X146681Y69450D01*
Y70551D01*
X146396Y71614D01*
X145846Y72567D01*
X145067Y73346D01*
X144114Y73896D01*
X143051Y74181D01*
D02*
G37*
G36*
X68050D02*
X66949D01*
X65886Y73896D01*
X64933Y73346D01*
X64154Y72567D01*
X63604Y71614D01*
X63319Y70551D01*
Y69450D01*
X63604Y68386D01*
X64154Y67433D01*
X64933Y66654D01*
X65886Y66104D01*
X66949Y65819D01*
X68050D01*
X69114Y66104D01*
X70067Y66654D01*
X70846Y67433D01*
X71396Y68386D01*
X71681Y69450D01*
Y70551D01*
X71396Y71614D01*
X70846Y72567D01*
X70067Y73346D01*
X69114Y73896D01*
X68050Y74181D01*
D02*
G37*
G36*
X25500Y64867D02*
Y63000D01*
X27367D01*
X27016Y63847D01*
X26347Y64516D01*
X25500Y64867D01*
D02*
G37*
G36*
X24500D02*
X23653Y64516D01*
X22984Y63847D01*
X22633Y63000D01*
X24500D01*
Y64867D01*
D02*
G37*
G36*
X18000D02*
Y63000D01*
X19867D01*
X19516Y63847D01*
X18847Y64516D01*
X18000Y64867D01*
D02*
G37*
G36*
X17000D02*
X16153Y64516D01*
X15484Y63847D01*
X15133Y63000D01*
X17000D01*
Y64867D01*
D02*
G37*
G36*
X346550Y64181D02*
X345449D01*
X344386Y63896D01*
X343433Y63346D01*
X342654Y62567D01*
X342162Y61714D01*
X325905D01*
X325571Y62048D01*
X324988Y62385D01*
X324337Y62559D01*
X323663D01*
X323012Y62385D01*
X322429Y62048D01*
X321952Y61571D01*
X321615Y60988D01*
X321441Y60337D01*
Y59663D01*
X321615Y59012D01*
X321952Y58429D01*
X322429Y57952D01*
X323012Y57615D01*
X323663Y57441D01*
X324337D01*
X324988Y57615D01*
X325571Y57952D01*
X325905Y58286D01*
X342162D01*
X342654Y57433D01*
X343433Y56654D01*
X344386Y56104D01*
X345449Y55819D01*
X346550D01*
X347614Y56104D01*
X348567Y56654D01*
X349346Y57433D01*
X349896Y58386D01*
X350181Y59449D01*
Y60550D01*
X349896Y61614D01*
X349346Y62567D01*
X348567Y63346D01*
X347614Y63896D01*
X346550Y64181D01*
D02*
G37*
G36*
X292550D02*
X291449D01*
X290386Y63896D01*
X289433Y63346D01*
X288654Y62567D01*
X288162Y61714D01*
X270905D01*
X270571Y62048D01*
X269988Y62385D01*
X269337Y62559D01*
X268663D01*
X268012Y62385D01*
X267429Y62048D01*
X266952Y61571D01*
X266615Y60988D01*
X266441Y60337D01*
Y59663D01*
X266615Y59012D01*
X266952Y58429D01*
X267429Y57952D01*
X268012Y57615D01*
X268663Y57441D01*
X269337D01*
X269988Y57615D01*
X270571Y57952D01*
X270905Y58286D01*
X288162D01*
X288654Y57433D01*
X289433Y56654D01*
X290386Y56104D01*
X291449Y55819D01*
X292550D01*
X293614Y56104D01*
X294567Y56654D01*
X295346Y57433D01*
X295896Y58386D01*
X296181Y59449D01*
Y60550D01*
X295896Y61614D01*
X295346Y62567D01*
X294567Y63346D01*
X293614Y63896D01*
X292550Y64181D01*
D02*
G37*
G36*
X27367Y62000D02*
X25500D01*
Y60133D01*
X26347Y60484D01*
X27016Y61153D01*
X27367Y62000D01*
D02*
G37*
G36*
X24500D02*
X22633D01*
X22984Y61153D01*
X23653Y60484D01*
X24500Y60133D01*
Y62000D01*
D02*
G37*
G36*
X19867D02*
X18000D01*
Y60133D01*
X18847Y60484D01*
X19516Y61153D01*
X19867Y62000D01*
D02*
G37*
G36*
X17000D02*
X15133D01*
X15484Y61153D01*
X16153Y60484D01*
X17000Y60133D01*
Y62000D01*
D02*
G37*
G36*
X219051Y66181D02*
X217950D01*
X216886Y65896D01*
X215933Y65346D01*
X215154Y64567D01*
X214604Y63614D01*
X214319Y62550D01*
Y61449D01*
X214604Y60386D01*
X215154Y59433D01*
X215933Y58654D01*
X216886Y58104D01*
X217950Y57819D01*
X219051D01*
X220114Y58104D01*
X221067Y58654D01*
X221846Y59433D01*
X222396Y60386D01*
X222681Y61449D01*
Y62550D01*
X222396Y63614D01*
X221846Y64567D01*
X221067Y65346D01*
X220114Y65896D01*
X219051Y66181D01*
D02*
G37*
G36*
X25500Y57367D02*
Y55500D01*
X27367D01*
X27016Y56347D01*
X26347Y57016D01*
X25500Y57367D01*
D02*
G37*
G36*
X24500D02*
X23653Y57016D01*
X22984Y56347D01*
X22633Y55500D01*
X24500D01*
Y57367D01*
D02*
G37*
G36*
X18000D02*
Y55500D01*
X19867D01*
X19516Y56347D01*
X18847Y57016D01*
X18000Y57367D01*
D02*
G37*
G36*
X17000D02*
X16153Y57016D01*
X15484Y56347D01*
X15133Y55500D01*
X17000D01*
Y57367D01*
D02*
G37*
G36*
X27367Y54500D02*
X25500D01*
Y52633D01*
X26347Y52984D01*
X27016Y53653D01*
X27367Y54500D01*
D02*
G37*
G36*
X24500D02*
X22633D01*
X22984Y53653D01*
X23653Y52984D01*
X24500Y52633D01*
Y54500D01*
D02*
G37*
G36*
X19867D02*
X18000D01*
Y52633D01*
X18847Y52984D01*
X19516Y53653D01*
X19867Y54500D01*
D02*
G37*
G36*
X17000D02*
X15133D01*
X15484Y53653D01*
X16153Y52984D01*
X17000Y52633D01*
Y54500D01*
D02*
G37*
G36*
X113550Y74181D02*
X112450D01*
X111386Y73896D01*
X110433Y73346D01*
X109654Y72567D01*
X109104Y71614D01*
X108819Y70551D01*
Y69450D01*
X109104Y68386D01*
X109654Y67433D01*
X110433Y66654D01*
X111286Y66162D01*
Y57000D01*
X111416Y56344D01*
X111788Y55788D01*
X124441Y43135D01*
Y42663D01*
X124615Y42012D01*
X124952Y41429D01*
X125429Y40952D01*
X126012Y40615D01*
X126663Y40441D01*
X127337D01*
X127988Y40615D01*
X128571Y40952D01*
X129048Y41429D01*
X129385Y42012D01*
X129559Y42663D01*
Y43337D01*
X129385Y43988D01*
X129048Y44571D01*
X128571Y45048D01*
X127988Y45385D01*
X127337Y45559D01*
X126865D01*
X114714Y57710D01*
Y66162D01*
X115567Y66654D01*
X116346Y67433D01*
X116896Y68386D01*
X117181Y69450D01*
Y70551D01*
X116896Y71614D01*
X116346Y72567D01*
X115567Y73346D01*
X114614Y73896D01*
X113550Y74181D01*
D02*
G37*
G36*
X90551D02*
X89450D01*
X88386Y73896D01*
X87433Y73346D01*
X86654Y72567D01*
X86104Y71614D01*
X85819Y70551D01*
Y69450D01*
X86104Y68386D01*
X86654Y67433D01*
X87433Y66654D01*
X88286Y66162D01*
Y45000D01*
X88416Y44344D01*
X88788Y43788D01*
X89441Y43135D01*
Y42663D01*
X89615Y42012D01*
X89952Y41429D01*
X90429Y40952D01*
X91012Y40615D01*
X91663Y40441D01*
X92337D01*
X92988Y40615D01*
X93571Y40952D01*
X94048Y41429D01*
X94385Y42012D01*
X94559Y42663D01*
Y43337D01*
X94385Y43988D01*
X94048Y44571D01*
X93571Y45048D01*
X92988Y45385D01*
X92337Y45559D01*
X91865D01*
X91714Y45710D01*
Y66162D01*
X92567Y66654D01*
X93346Y67433D01*
X93896Y68386D01*
X94181Y69450D01*
Y70551D01*
X93896Y71614D01*
X93346Y72567D01*
X92567Y73346D01*
X91614Y73896D01*
X90551Y74181D01*
D02*
G37*
G36*
X270500Y29867D02*
Y28000D01*
X272367D01*
X272016Y28847D01*
X271347Y29516D01*
X270500Y29867D01*
D02*
G37*
G36*
X269500D02*
X268653Y29516D01*
X267984Y28847D01*
X267633Y28000D01*
X269500D01*
Y29867D01*
D02*
G37*
G36*
X263000D02*
Y28000D01*
X264867D01*
X264516Y28847D01*
X263847Y29516D01*
X263000Y29867D01*
D02*
G37*
G36*
X262000D02*
X261153Y29516D01*
X260484Y28847D01*
X260133Y28000D01*
X262000D01*
Y29867D01*
D02*
G37*
G36*
X255500D02*
Y28000D01*
X257367D01*
X257016Y28847D01*
X256347Y29516D01*
X255500Y29867D01*
D02*
G37*
G36*
X254500D02*
X253653Y29516D01*
X252984Y28847D01*
X252633Y28000D01*
X254500D01*
Y29867D01*
D02*
G37*
G36*
X248000D02*
Y28000D01*
X249867D01*
X249516Y28847D01*
X248847Y29516D01*
X248000Y29867D01*
D02*
G37*
G36*
X247000D02*
X246153Y29516D01*
X245484Y28847D01*
X245133Y28000D01*
X247000D01*
Y29867D01*
D02*
G37*
G36*
X240500D02*
Y28000D01*
X242367D01*
X242016Y28847D01*
X241347Y29516D01*
X240500Y29867D01*
D02*
G37*
G36*
X239500D02*
X238653Y29516D01*
X237984Y28847D01*
X237633Y28000D01*
X239500D01*
Y29867D01*
D02*
G37*
G36*
X233000D02*
Y28000D01*
X234867D01*
X234516Y28847D01*
X233847Y29516D01*
X233000Y29867D01*
D02*
G37*
G36*
X232000D02*
X231153Y29516D01*
X230484Y28847D01*
X230133Y28000D01*
X232000D01*
Y29867D01*
D02*
G37*
G36*
X225500D02*
Y28000D01*
X227367D01*
X227016Y28847D01*
X226347Y29516D01*
X225500Y29867D01*
D02*
G37*
G36*
X224500D02*
X223653Y29516D01*
X222984Y28847D01*
X222633Y28000D01*
X224500D01*
Y29867D01*
D02*
G37*
G36*
X218000D02*
Y28000D01*
X219867D01*
X219516Y28847D01*
X218847Y29516D01*
X218000Y29867D01*
D02*
G37*
G36*
X217000D02*
X216153Y29516D01*
X215484Y28847D01*
X215133Y28000D01*
X217000D01*
Y29867D01*
D02*
G37*
G36*
X210500D02*
Y28000D01*
X212367D01*
X212016Y28847D01*
X211347Y29516D01*
X210500Y29867D01*
D02*
G37*
G36*
X209500D02*
X208653Y29516D01*
X207984Y28847D01*
X207633Y28000D01*
X209500D01*
Y29867D01*
D02*
G37*
G36*
X203000D02*
Y28000D01*
X204867D01*
X204516Y28847D01*
X203847Y29516D01*
X203000Y29867D01*
D02*
G37*
G36*
X202000D02*
X201153Y29516D01*
X200484Y28847D01*
X200133Y28000D01*
X202000D01*
Y29867D01*
D02*
G37*
G36*
X272367Y27000D02*
X270500D01*
Y25133D01*
X271347Y25484D01*
X272016Y26153D01*
X272367Y27000D01*
D02*
G37*
G36*
X269500D02*
X267633D01*
X267984Y26153D01*
X268653Y25484D01*
X269500Y25133D01*
Y27000D01*
D02*
G37*
G36*
X264867D02*
X263000D01*
Y25133D01*
X263847Y25484D01*
X264516Y26153D01*
X264867Y27000D01*
D02*
G37*
G36*
X262000D02*
X260133D01*
X260484Y26153D01*
X261153Y25484D01*
X262000Y25133D01*
Y27000D01*
D02*
G37*
G36*
X257367D02*
X255500D01*
Y25133D01*
X256347Y25484D01*
X257016Y26153D01*
X257367Y27000D01*
D02*
G37*
G36*
X254500D02*
X252633D01*
X252984Y26153D01*
X253653Y25484D01*
X254500Y25133D01*
Y27000D01*
D02*
G37*
G36*
X249867D02*
X248000D01*
Y25133D01*
X248847Y25484D01*
X249516Y26153D01*
X249867Y27000D01*
D02*
G37*
G36*
X247000D02*
X245133D01*
X245484Y26153D01*
X246153Y25484D01*
X247000Y25133D01*
Y27000D01*
D02*
G37*
G36*
X242367D02*
X240500D01*
Y25133D01*
X241347Y25484D01*
X242016Y26153D01*
X242367Y27000D01*
D02*
G37*
G36*
X239500D02*
X237633D01*
X237984Y26153D01*
X238653Y25484D01*
X239500Y25133D01*
Y27000D01*
D02*
G37*
G36*
X234867D02*
X233000D01*
Y25133D01*
X233847Y25484D01*
X234516Y26153D01*
X234867Y27000D01*
D02*
G37*
G36*
X232000D02*
X230133D01*
X230484Y26153D01*
X231153Y25484D01*
X232000Y25133D01*
Y27000D01*
D02*
G37*
G36*
X227367D02*
X225500D01*
Y25133D01*
X226347Y25484D01*
X227016Y26153D01*
X227367Y27000D01*
D02*
G37*
G36*
X224500D02*
X222633D01*
X222984Y26153D01*
X223653Y25484D01*
X224500Y25133D01*
Y27000D01*
D02*
G37*
G36*
X219867D02*
X218000D01*
Y25133D01*
X218847Y25484D01*
X219516Y26153D01*
X219867Y27000D01*
D02*
G37*
G36*
X217000D02*
X215133D01*
X215484Y26153D01*
X216153Y25484D01*
X217000Y25133D01*
Y27000D01*
D02*
G37*
G36*
X212367D02*
X210500D01*
Y25133D01*
X211347Y25484D01*
X212016Y26153D01*
X212367Y27000D01*
D02*
G37*
G36*
X209500D02*
X207633D01*
X207984Y26153D01*
X208653Y25484D01*
X209500Y25133D01*
Y27000D01*
D02*
G37*
G36*
X204867D02*
X203000D01*
Y25133D01*
X203847Y25484D01*
X204516Y26153D01*
X204867Y27000D01*
D02*
G37*
G36*
X202000D02*
X200133D01*
X200484Y26153D01*
X201153Y25484D01*
X202000Y25133D01*
Y27000D01*
D02*
G37*
G36*
X270500Y22367D02*
Y20500D01*
X272367D01*
X272016Y21347D01*
X271347Y22016D01*
X270500Y22367D01*
D02*
G37*
G36*
X269500D02*
X268653Y22016D01*
X267984Y21347D01*
X267633Y20500D01*
X269500D01*
Y22367D01*
D02*
G37*
G36*
X263000D02*
Y20500D01*
X264867D01*
X264516Y21347D01*
X263847Y22016D01*
X263000Y22367D01*
D02*
G37*
G36*
X262000D02*
X261153Y22016D01*
X260484Y21347D01*
X260133Y20500D01*
X262000D01*
Y22367D01*
D02*
G37*
G36*
X255500D02*
Y20500D01*
X257367D01*
X257016Y21347D01*
X256347Y22016D01*
X255500Y22367D01*
D02*
G37*
G36*
X254500D02*
X253653Y22016D01*
X252984Y21347D01*
X252633Y20500D01*
X254500D01*
Y22367D01*
D02*
G37*
G36*
X248000D02*
Y20500D01*
X249867D01*
X249516Y21347D01*
X248847Y22016D01*
X248000Y22367D01*
D02*
G37*
G36*
X247000D02*
X246153Y22016D01*
X245484Y21347D01*
X245133Y20500D01*
X247000D01*
Y22367D01*
D02*
G37*
G36*
X240500D02*
Y20500D01*
X242367D01*
X242016Y21347D01*
X241347Y22016D01*
X240500Y22367D01*
D02*
G37*
G36*
X239500D02*
X238653Y22016D01*
X237984Y21347D01*
X237633Y20500D01*
X239500D01*
Y22367D01*
D02*
G37*
G36*
X233000D02*
Y20500D01*
X234867D01*
X234516Y21347D01*
X233847Y22016D01*
X233000Y22367D01*
D02*
G37*
G36*
X232000D02*
X231153Y22016D01*
X230484Y21347D01*
X230133Y20500D01*
X232000D01*
Y22367D01*
D02*
G37*
G36*
X225500D02*
Y20500D01*
X227367D01*
X227016Y21347D01*
X226347Y22016D01*
X225500Y22367D01*
D02*
G37*
G36*
X224500D02*
X223653Y22016D01*
X222984Y21347D01*
X222633Y20500D01*
X224500D01*
Y22367D01*
D02*
G37*
G36*
X218000D02*
Y20500D01*
X219867D01*
X219516Y21347D01*
X218847Y22016D01*
X218000Y22367D01*
D02*
G37*
G36*
X217000D02*
X216153Y22016D01*
X215484Y21347D01*
X215133Y20500D01*
X217000D01*
Y22367D01*
D02*
G37*
G36*
X210500D02*
Y20500D01*
X212367D01*
X212016Y21347D01*
X211347Y22016D01*
X210500Y22367D01*
D02*
G37*
G36*
X209500D02*
X208653Y22016D01*
X207984Y21347D01*
X207633Y20500D01*
X209500D01*
Y22367D01*
D02*
G37*
G36*
X203000D02*
Y20500D01*
X204867D01*
X204516Y21347D01*
X203847Y22016D01*
X203000Y22367D01*
D02*
G37*
G36*
X202000D02*
X201153Y22016D01*
X200484Y21347D01*
X200133Y20500D01*
X202000D01*
Y22367D01*
D02*
G37*
G36*
X355339Y32496D02*
X354831D01*
Y20185D01*
X367142D01*
Y20693D01*
X366826Y22685D01*
X366203Y24603D01*
X365288Y26399D01*
X364102Y28031D01*
X362677Y29457D01*
X361045Y30642D01*
X359248Y31558D01*
X357331Y32181D01*
X355339Y32496D01*
D02*
G37*
G36*
X353831D02*
X353323D01*
X351331Y32181D01*
X349413Y31558D01*
X347616Y30642D01*
X345985Y29457D01*
X344559Y28031D01*
X343374Y26399D01*
X342458Y24603D01*
X341835Y22685D01*
X341520Y20693D01*
Y20185D01*
X353831D01*
Y32496D01*
D02*
G37*
G36*
X20693D02*
X20185D01*
Y20185D01*
X32496D01*
Y20693D01*
X32181Y22685D01*
X31558Y24603D01*
X30642Y26399D01*
X29457Y28031D01*
X28031Y29457D01*
X26399Y30642D01*
X24603Y31558D01*
X22685Y32181D01*
X20693Y32496D01*
D02*
G37*
G36*
X19185D02*
X18677D01*
X16685Y32181D01*
X14767Y31558D01*
X12971Y30642D01*
X11339Y29457D01*
X9913Y28031D01*
X8728Y26399D01*
X7813Y24603D01*
X7190Y22685D01*
X6874Y20693D01*
Y20185D01*
X19185D01*
Y32496D01*
D02*
G37*
G36*
X272367Y19500D02*
X270500D01*
Y17633D01*
X271347Y17984D01*
X272016Y18653D01*
X272367Y19500D01*
D02*
G37*
G36*
X269500D02*
X267633D01*
X267984Y18653D01*
X268653Y17984D01*
X269500Y17633D01*
Y19500D01*
D02*
G37*
G36*
X264867D02*
X263000D01*
Y17633D01*
X263847Y17984D01*
X264516Y18653D01*
X264867Y19500D01*
D02*
G37*
G36*
X262000D02*
X260133D01*
X260484Y18653D01*
X261153Y17984D01*
X262000Y17633D01*
Y19500D01*
D02*
G37*
G36*
X257367D02*
X255500D01*
Y17633D01*
X256347Y17984D01*
X257016Y18653D01*
X257367Y19500D01*
D02*
G37*
G36*
X254500D02*
X252633D01*
X252984Y18653D01*
X253653Y17984D01*
X254500Y17633D01*
Y19500D01*
D02*
G37*
G36*
X249867D02*
X248000D01*
Y17633D01*
X248847Y17984D01*
X249516Y18653D01*
X249867Y19500D01*
D02*
G37*
G36*
X247000D02*
X245133D01*
X245484Y18653D01*
X246153Y17984D01*
X247000Y17633D01*
Y19500D01*
D02*
G37*
G36*
X242367D02*
X240500D01*
Y17633D01*
X241347Y17984D01*
X242016Y18653D01*
X242367Y19500D01*
D02*
G37*
G36*
X239500D02*
X237633D01*
X237984Y18653D01*
X238653Y17984D01*
X239500Y17633D01*
Y19500D01*
D02*
G37*
G36*
X234867D02*
X233000D01*
Y17633D01*
X233847Y17984D01*
X234516Y18653D01*
X234867Y19500D01*
D02*
G37*
G36*
X232000D02*
X230133D01*
X230484Y18653D01*
X231153Y17984D01*
X232000Y17633D01*
Y19500D01*
D02*
G37*
G36*
X227367D02*
X225500D01*
Y17633D01*
X226347Y17984D01*
X227016Y18653D01*
X227367Y19500D01*
D02*
G37*
G36*
X224500D02*
X222633D01*
X222984Y18653D01*
X223653Y17984D01*
X224500Y17633D01*
Y19500D01*
D02*
G37*
G36*
X219867D02*
X218000D01*
Y17633D01*
X218847Y17984D01*
X219516Y18653D01*
X219867Y19500D01*
D02*
G37*
G36*
X217000D02*
X215133D01*
X215484Y18653D01*
X216153Y17984D01*
X217000Y17633D01*
Y19500D01*
D02*
G37*
G36*
X212367D02*
X210500D01*
Y17633D01*
X211347Y17984D01*
X212016Y18653D01*
X212367Y19500D01*
D02*
G37*
G36*
X209500D02*
X207633D01*
X207984Y18653D01*
X208653Y17984D01*
X209500Y17633D01*
Y19500D01*
D02*
G37*
G36*
X204867D02*
X203000D01*
Y17633D01*
X203847Y17984D01*
X204516Y18653D01*
X204867Y19500D01*
D02*
G37*
G36*
X202000D02*
X200133D01*
X200484Y18653D01*
X201153Y17984D01*
X202000Y17633D01*
Y19500D01*
D02*
G37*
G36*
X270500Y14867D02*
Y13000D01*
X272367D01*
X272016Y13847D01*
X271347Y14516D01*
X270500Y14867D01*
D02*
G37*
G36*
X269500D02*
X268653Y14516D01*
X267984Y13847D01*
X267633Y13000D01*
X269500D01*
Y14867D01*
D02*
G37*
G36*
X263000D02*
Y13000D01*
X264867D01*
X264516Y13847D01*
X263847Y14516D01*
X263000Y14867D01*
D02*
G37*
G36*
X262000D02*
X261153Y14516D01*
X260484Y13847D01*
X260133Y13000D01*
X262000D01*
Y14867D01*
D02*
G37*
G36*
X255500D02*
Y13000D01*
X257367D01*
X257016Y13847D01*
X256347Y14516D01*
X255500Y14867D01*
D02*
G37*
G36*
X254500D02*
X253653Y14516D01*
X252984Y13847D01*
X252633Y13000D01*
X254500D01*
Y14867D01*
D02*
G37*
G36*
X248000D02*
Y13000D01*
X249867D01*
X249516Y13847D01*
X248847Y14516D01*
X248000Y14867D01*
D02*
G37*
G36*
X247000D02*
X246153Y14516D01*
X245484Y13847D01*
X245133Y13000D01*
X247000D01*
Y14867D01*
D02*
G37*
G36*
X240500D02*
Y13000D01*
X242367D01*
X242016Y13847D01*
X241347Y14516D01*
X240500Y14867D01*
D02*
G37*
G36*
X239500D02*
X238653Y14516D01*
X237984Y13847D01*
X237633Y13000D01*
X239500D01*
Y14867D01*
D02*
G37*
G36*
X233000D02*
Y13000D01*
X234867D01*
X234516Y13847D01*
X233847Y14516D01*
X233000Y14867D01*
D02*
G37*
G36*
X232000D02*
X231153Y14516D01*
X230484Y13847D01*
X230133Y13000D01*
X232000D01*
Y14867D01*
D02*
G37*
G36*
X225500D02*
Y13000D01*
X227367D01*
X227016Y13847D01*
X226347Y14516D01*
X225500Y14867D01*
D02*
G37*
G36*
X224500D02*
X223653Y14516D01*
X222984Y13847D01*
X222633Y13000D01*
X224500D01*
Y14867D01*
D02*
G37*
G36*
X218000D02*
Y13000D01*
X219867D01*
X219516Y13847D01*
X218847Y14516D01*
X218000Y14867D01*
D02*
G37*
G36*
X217000D02*
X216153Y14516D01*
X215484Y13847D01*
X215133Y13000D01*
X217000D01*
Y14867D01*
D02*
G37*
G36*
X210500D02*
Y13000D01*
X212367D01*
X212016Y13847D01*
X211347Y14516D01*
X210500Y14867D01*
D02*
G37*
G36*
X209500D02*
X208653Y14516D01*
X207984Y13847D01*
X207633Y13000D01*
X209500D01*
Y14867D01*
D02*
G37*
G36*
X203000D02*
Y13000D01*
X204867D01*
X204516Y13847D01*
X203847Y14516D01*
X203000Y14867D01*
D02*
G37*
G36*
X202000D02*
X201153Y14516D01*
X200484Y13847D01*
X200133Y13000D01*
X202000D01*
Y14867D01*
D02*
G37*
G36*
X272367Y12000D02*
X270500D01*
Y10133D01*
X271347Y10484D01*
X272016Y11153D01*
X272367Y12000D01*
D02*
G37*
G36*
X269500D02*
X267633D01*
X267984Y11153D01*
X268653Y10484D01*
X269500Y10133D01*
Y12000D01*
D02*
G37*
G36*
X264867D02*
X263000D01*
Y10133D01*
X263847Y10484D01*
X264516Y11153D01*
X264867Y12000D01*
D02*
G37*
G36*
X262000D02*
X260133D01*
X260484Y11153D01*
X261153Y10484D01*
X262000Y10133D01*
Y12000D01*
D02*
G37*
G36*
X257367D02*
X255500D01*
Y10133D01*
X256347Y10484D01*
X257016Y11153D01*
X257367Y12000D01*
D02*
G37*
G36*
X254500D02*
X252633D01*
X252984Y11153D01*
X253653Y10484D01*
X254500Y10133D01*
Y12000D01*
D02*
G37*
G36*
X249867D02*
X248000D01*
Y10133D01*
X248847Y10484D01*
X249516Y11153D01*
X249867Y12000D01*
D02*
G37*
G36*
X247000D02*
X245133D01*
X245484Y11153D01*
X246153Y10484D01*
X247000Y10133D01*
Y12000D01*
D02*
G37*
G36*
X242367D02*
X240500D01*
Y10133D01*
X241347Y10484D01*
X242016Y11153D01*
X242367Y12000D01*
D02*
G37*
G36*
X239500D02*
X237633D01*
X237984Y11153D01*
X238653Y10484D01*
X239500Y10133D01*
Y12000D01*
D02*
G37*
G36*
X234867D02*
X233000D01*
Y10133D01*
X233847Y10484D01*
X234516Y11153D01*
X234867Y12000D01*
D02*
G37*
G36*
X232000D02*
X230133D01*
X230484Y11153D01*
X231153Y10484D01*
X232000Y10133D01*
Y12000D01*
D02*
G37*
G36*
X227367D02*
X225500D01*
Y10133D01*
X226347Y10484D01*
X227016Y11153D01*
X227367Y12000D01*
D02*
G37*
G36*
X224500D02*
X222633D01*
X222984Y11153D01*
X223653Y10484D01*
X224500Y10133D01*
Y12000D01*
D02*
G37*
G36*
X219867D02*
X218000D01*
Y10133D01*
X218847Y10484D01*
X219516Y11153D01*
X219867Y12000D01*
D02*
G37*
G36*
X217000D02*
X215133D01*
X215484Y11153D01*
X216153Y10484D01*
X217000Y10133D01*
Y12000D01*
D02*
G37*
G36*
X212367D02*
X210500D01*
Y10133D01*
X211347Y10484D01*
X212016Y11153D01*
X212367Y12000D01*
D02*
G37*
G36*
X209500D02*
X207633D01*
X207984Y11153D01*
X208653Y10484D01*
X209500Y10133D01*
Y12000D01*
D02*
G37*
G36*
X204867D02*
X203000D01*
Y10133D01*
X203847Y10484D01*
X204516Y11153D01*
X204867Y12000D01*
D02*
G37*
G36*
X202000D02*
X200133D01*
X200484Y11153D01*
X201153Y10484D01*
X202000Y10133D01*
Y12000D01*
D02*
G37*
G36*
X367142Y19185D02*
X354831D01*
Y6874D01*
X355339D01*
X357331Y7190D01*
X359248Y7813D01*
X361045Y8728D01*
X362677Y9913D01*
X364102Y11339D01*
X365288Y12971D01*
X366203Y14767D01*
X366826Y16685D01*
X367142Y18677D01*
Y19185D01*
D02*
G37*
G36*
X353831D02*
X341520D01*
Y18677D01*
X341835Y16685D01*
X342458Y14767D01*
X343374Y12971D01*
X344559Y11339D01*
X345985Y9913D01*
X347616Y8728D01*
X349413Y7813D01*
X351331Y7190D01*
X353323Y6874D01*
X353831D01*
Y19185D01*
D02*
G37*
G36*
X32496D02*
X20185D01*
Y6874D01*
X20693D01*
X22685Y7190D01*
X24603Y7813D01*
X26399Y8728D01*
X28031Y9913D01*
X29457Y11339D01*
X30642Y12971D01*
X31558Y14767D01*
X32181Y16685D01*
X32496Y18677D01*
Y19185D01*
D02*
G37*
G36*
X19185D02*
X6874D01*
Y18677D01*
X7190Y16685D01*
X7813Y14767D01*
X8728Y12971D01*
X9913Y11339D01*
X11339Y9913D01*
X12971Y8728D01*
X14767Y7813D01*
X16685Y7190D01*
X18677Y6874D01*
X19185D01*
Y19185D01*
D02*
G37*
%LPD*%
G36*
X195000Y364000D02*
X198000Y361000D01*
X198000Y329000D01*
X195000Y326000D01*
X130000Y326000D01*
X127000Y329000D01*
X127000Y361000D01*
X130000Y364000D01*
X195000Y364000D01*
D02*
G37*
%LPC*%
G36*
X141000Y351000D02*
X135500D01*
Y345500D01*
X141000D01*
Y351000D01*
D02*
G37*
G36*
X190680Y351905D02*
X190500D01*
Y345500D01*
X196906D01*
Y345680D01*
X196640Y347014D01*
X196120Y348271D01*
X195364Y349402D01*
X194402Y350364D01*
X193271Y351120D01*
X192014Y351640D01*
X190680Y351905D01*
D02*
G37*
G36*
X189500D02*
X189320D01*
X187986Y351640D01*
X186729Y351120D01*
X185598Y350364D01*
X184636Y349402D01*
X183880Y348271D01*
X183360Y347014D01*
X183095Y345680D01*
Y345500D01*
X189500D01*
Y351905D01*
D02*
G37*
G36*
X134500Y351000D02*
X129000D01*
Y345500D01*
X134500D01*
Y351000D01*
D02*
G37*
G36*
X141000Y344500D02*
X135500D01*
Y339000D01*
X141000D01*
Y344500D01*
D02*
G37*
G36*
X134500D02*
X129000D01*
Y339000D01*
X134500D01*
Y344500D01*
D02*
G37*
G36*
X196906D02*
X190500D01*
Y338094D01*
X190680D01*
X192014Y338360D01*
X193271Y338880D01*
X194402Y339636D01*
X195364Y340598D01*
X196120Y341729D01*
X196640Y342986D01*
X196906Y344320D01*
Y344500D01*
D02*
G37*
G36*
X189500D02*
X183095D01*
Y344320D01*
X183360Y342986D01*
X183880Y341729D01*
X184636Y340598D01*
X185598Y339636D01*
X186729Y338880D01*
X187986Y338360D01*
X189320Y338094D01*
X189500D01*
Y344500D01*
D02*
G37*
%LPD*%
G36*
X298882Y364000D02*
X298991Y363978D01*
X299084Y363916D01*
X300500Y362500D01*
X301916Y361084D01*
X301978Y360991D01*
X302000Y360881D01*
X302000Y349083D01*
X301992Y349045D01*
X301742Y348815D01*
X301581Y348744D01*
X301353Y348779D01*
X300527Y349000D01*
X300500D01*
Y345000D01*
Y341000D01*
X300527D01*
X301353Y341221D01*
X301581Y341256D01*
X301741Y341185D01*
X301992Y340955D01*
X302000Y340917D01*
X302000Y329119D01*
X301978Y329009D01*
X301916Y328916D01*
X299084Y326084D01*
X298991Y326022D01*
X298881Y326000D01*
X283499Y326000D01*
X283499Y326000D01*
X283499Y326000D01*
X283000D01*
X282647Y325647D01*
X282647Y325647D01*
X282647Y325647D01*
X280364Y323364D01*
X280364Y323364D01*
X280000Y323000D01*
X260000Y323000D01*
X257353Y325647D01*
X257353Y325647D01*
X257353Y325647D01*
X257000Y326000D01*
X256501D01*
X256501Y326000D01*
X256501Y326000D01*
X244174D01*
X244064Y326022D01*
X243971Y326084D01*
X241139Y328916D01*
X241077Y329009D01*
X241055Y329119D01*
X241055Y346456D01*
Y360881D01*
X241077Y360991D01*
X241139Y361084D01*
X243971Y363916D01*
X244064Y363978D01*
X244174Y364000D01*
X298882Y364000D01*
D02*
G37*
G36*
X262364Y207636D02*
X262364Y207636D01*
X262364Y207636D01*
X264000Y206000D01*
X268402Y201598D01*
X268402Y201598D01*
X270000Y200000D01*
X270000Y180000D01*
X258462Y168462D01*
X258000Y168653D01*
X258000Y211347D01*
X258462Y211538D01*
X262364Y207636D01*
D02*
G37*
%LPC*%
G36*
X299500Y349000D02*
X299473D01*
X298456Y348727D01*
X297544Y348201D01*
X296799Y347456D01*
X296273Y346544D01*
X296000Y345527D01*
Y345500D01*
X299500D01*
Y349000D01*
D02*
G37*
G36*
X249735Y351905D02*
X249555D01*
Y345500D01*
X255961D01*
Y345680D01*
X255695Y347014D01*
X255175Y348271D01*
X254419Y349402D01*
X253457Y350364D01*
X252326Y351120D01*
X251069Y351640D01*
X249735Y351905D01*
D02*
G37*
G36*
X248555D02*
X248375D01*
X247041Y351640D01*
X245784Y351120D01*
X244653Y350364D01*
X243691Y349402D01*
X242935Y348271D01*
X242415Y347014D01*
X242150Y345680D01*
Y345500D01*
X248555D01*
Y351905D01*
D02*
G37*
G36*
X299500Y344500D02*
X296000D01*
Y344473D01*
X296273Y343456D01*
X296799Y342544D01*
X297544Y341799D01*
X298456Y341273D01*
X299473Y341000D01*
X299500D01*
Y344500D01*
D02*
G37*
G36*
X255961D02*
X249555D01*
Y338094D01*
X249735D01*
X251069Y338360D01*
X252326Y338880D01*
X253457Y339636D01*
X254419Y340598D01*
X255175Y341729D01*
X255695Y342986D01*
X255961Y344320D01*
Y344500D01*
D02*
G37*
G36*
X248555D02*
X242150D01*
Y344320D01*
X242415Y342986D01*
X242935Y341729D01*
X243691Y340598D01*
X244653Y339636D01*
X245784Y338880D01*
X247041Y338360D01*
X248375Y338094D01*
X248555D01*
Y344500D01*
D02*
G37*
%LPD*%
D10*
X90000Y45000D02*
Y70000D01*
Y45000D02*
X92000Y43000D01*
X88000Y115500D02*
Y193000D01*
X42500Y70000D02*
X88000Y115500D01*
X142500Y171000D02*
X168500D01*
X114000D02*
X142500D01*
Y160000D02*
Y171000D01*
X143000Y249000D02*
Y249147D01*
X142500Y209500D02*
Y248500D01*
X128000Y195000D02*
X142500Y209500D01*
Y248500D02*
X143000Y249000D01*
Y249147D02*
X145285Y251432D01*
X153000Y259000D02*
X168500D01*
X145285Y251432D02*
X145432D01*
X153000Y259000D01*
X51000Y117000D02*
X66000Y132000D01*
Y191000D02*
X100000Y225000D01*
X66000Y132000D02*
Y191000D01*
X30000Y117000D02*
X51000D01*
X17000Y125000D02*
X22000D01*
X30000Y117000D01*
X88000Y193000D02*
X100000Y205000D01*
X113000Y57000D02*
Y70000D01*
Y57000D02*
X127000Y43000D01*
X117000Y245000D02*
X129000Y233000D01*
Y233000D02*
Y233000D01*
X100000Y245000D02*
X117000D01*
X100000Y205000D02*
X117000D01*
X100000Y195000D02*
X128000D01*
X100000Y185000D02*
X114000Y171000D01*
X324000Y240000D02*
X346000D01*
X269000D02*
X292000D01*
X324000Y150000D02*
X346000D01*
X269000D02*
X292000D01*
X324000Y60000D02*
X346000D01*
X269000D02*
X292000D01*
D33*
X218500Y281000D02*
X269000D01*
X218500Y102000D02*
X218771D01*
X220771Y100000D01*
X261500D02*
X269000D01*
X220771D02*
X261500D01*
X269000Y281000D02*
X270000Y280000D01*
X221771Y190000D02*
X252000D01*
X218500Y193000D02*
X218771D01*
X221771Y190000D01*
X211500Y200000D02*
X218500Y193000D01*
X177500Y109000D02*
X211500D01*
X218500Y102000D01*
Y102000D02*
Y102000D01*
X177500Y200000D02*
X211500D01*
X168500Y100000D02*
X177500Y109000D01*
X168500Y191000D02*
X177500Y200000D01*
Y288000D02*
X211500D01*
X218500Y281000D01*
X168500Y279000D02*
X177500Y288000D01*
X198500Y279000D02*
X209000Y268500D01*
Y260500D02*
Y268500D01*
Y260500D02*
X218500Y251000D01*
X209000Y172500D02*
X218500Y163000D01*
X209000Y172500D02*
Y180500D01*
X198500Y191000D02*
X209000Y180500D01*
X198500Y100000D02*
X209000Y89500D01*
Y81500D02*
Y89500D01*
Y81500D02*
X218500Y72000D01*
D35*
X113000Y70000D02*
D03*
X90000D02*
D03*
X67500D02*
D03*
X42500D02*
D03*
X142500D02*
D03*
Y97500D02*
D03*
Y160000D02*
D03*
Y192500D02*
D03*
Y250000D02*
D03*
Y280000D02*
D03*
X292000Y240000D02*
D03*
X346000D02*
D03*
Y150000D02*
D03*
Y60000D02*
D03*
X292000Y150000D02*
D03*
Y60000D02*
D03*
X218500Y72000D02*
D03*
Y62000D02*
D03*
Y102000D02*
D03*
Y92000D02*
D03*
X168500Y70000D02*
D03*
Y80000D02*
D03*
Y90000D02*
D03*
Y100000D02*
D03*
X198500Y70000D02*
D03*
Y80000D02*
D03*
Y90000D02*
D03*
Y100000D02*
D03*
X168500Y161000D02*
D03*
Y171000D02*
D03*
Y181000D02*
D03*
Y191000D02*
D03*
X198500Y161000D02*
D03*
Y171000D02*
D03*
Y181000D02*
D03*
Y191000D02*
D03*
X218500Y193000D02*
D03*
Y183000D02*
D03*
Y163000D02*
D03*
Y153000D02*
D03*
X168500Y249000D02*
D03*
Y259000D02*
D03*
Y269000D02*
D03*
Y279000D02*
D03*
X198500Y249000D02*
D03*
Y259000D02*
D03*
Y269000D02*
D03*
Y279000D02*
D03*
X218500Y281000D02*
D03*
Y271000D02*
D03*
Y251000D02*
D03*
Y241000D02*
D03*
X100000Y265000D02*
D03*
Y255000D02*
D03*
Y245000D02*
D03*
Y235000D02*
D03*
Y225000D02*
D03*
Y215000D02*
D03*
Y205000D02*
D03*
Y195000D02*
D03*
Y185000D02*
D03*
Y175000D02*
D03*
Y165000D02*
D03*
Y155000D02*
D03*
Y145000D02*
D03*
Y135000D02*
D03*
Y125000D02*
D03*
X40000Y265000D02*
D03*
Y255000D02*
D03*
Y245000D02*
D03*
Y235000D02*
D03*
Y225000D02*
D03*
Y215000D02*
D03*
Y205000D02*
D03*
Y195000D02*
D03*
Y185000D02*
D03*
Y175000D02*
D03*
Y165000D02*
D03*
Y155000D02*
D03*
Y145000D02*
D03*
Y135000D02*
D03*
Y125000D02*
D03*
X300000Y345000D02*
D03*
X310000D02*
D03*
X17000Y135000D02*
D03*
Y125000D02*
D03*
Y115000D02*
D03*
D36*
X360000Y166000D02*
D03*
Y190000D02*
D03*
Y214000D02*
D03*
D37*
X190000Y345000D02*
D03*
X249055D02*
D03*
D38*
X115000D02*
D03*
D39*
X135000D02*
D03*
D40*
X277500Y185000D02*
D03*
Y190000D02*
D03*
Y195000D02*
D03*
X270000Y200000D02*
D03*
Y195000D02*
D03*
Y185000D02*
D03*
X270000Y180000D02*
D03*
X262500Y185000D02*
D03*
Y190000D02*
D03*
Y195000D02*
D03*
Y180000D02*
D03*
Y200000D02*
D03*
X270000Y190000D02*
D03*
X325000Y280000D02*
D03*
Y190000D02*
D03*
Y100000D02*
D03*
X269000D02*
D03*
X270000Y280000D02*
D03*
X317500Y290000D02*
D03*
Y285000D02*
D03*
Y280000D02*
D03*
Y275000D02*
D03*
Y270000D02*
D03*
X332500D02*
D03*
Y275000D02*
D03*
Y280000D02*
D03*
Y285000D02*
D03*
Y290000D02*
D03*
X325000D02*
D03*
Y285000D02*
D03*
Y275000D02*
D03*
Y270000D02*
D03*
X262500Y290000D02*
D03*
Y285000D02*
D03*
Y280000D02*
D03*
Y275000D02*
D03*
Y270000D02*
D03*
X277500D02*
D03*
Y275000D02*
D03*
Y280000D02*
D03*
Y285000D02*
D03*
Y290000D02*
D03*
X270000D02*
D03*
Y285000D02*
D03*
Y275000D02*
D03*
Y270000D02*
D03*
X277500Y180000D02*
D03*
Y200000D02*
D03*
X317500D02*
D03*
Y195000D02*
D03*
Y190000D02*
D03*
Y185000D02*
D03*
Y180000D02*
D03*
X332500D02*
D03*
Y185000D02*
D03*
Y190000D02*
D03*
Y195000D02*
D03*
Y200000D02*
D03*
X325000D02*
D03*
Y195000D02*
D03*
Y185000D02*
D03*
Y180000D02*
D03*
X276500Y90000D02*
D03*
X269000Y95000D02*
D03*
X276500Y100000D02*
D03*
Y95000D02*
D03*
X261500Y105000D02*
D03*
X269000Y110000D02*
D03*
Y105000D02*
D03*
X288618Y97475D02*
D03*
X276500Y110000D02*
D03*
X269000Y90000D02*
D03*
X261500Y100000D02*
D03*
Y110000D02*
D03*
X276500Y105000D02*
D03*
X261500Y90000D02*
D03*
Y95000D02*
D03*
X288500Y105000D02*
D03*
X317500Y110000D02*
D03*
Y105000D02*
D03*
Y100000D02*
D03*
Y95000D02*
D03*
Y90000D02*
D03*
X332500D02*
D03*
Y95000D02*
D03*
Y100000D02*
D03*
Y105000D02*
D03*
Y110000D02*
D03*
X325000D02*
D03*
Y105000D02*
D03*
Y95000D02*
D03*
Y90000D02*
D03*
X142500Y315000D02*
D03*
X120000D02*
D03*
X135000D02*
D03*
X127500D02*
D03*
X150000D02*
D03*
X112500D02*
D03*
X255000Y20000D02*
D03*
X262500D02*
D03*
X270000D02*
D03*
X255000Y27500D02*
D03*
X262500D02*
D03*
X270000D02*
D03*
X240000D02*
D03*
Y20000D02*
D03*
Y12500D02*
D03*
X247500Y27500D02*
D03*
Y20000D02*
D03*
Y12500D02*
D03*
X270000D02*
D03*
X262500D02*
D03*
X255000D02*
D03*
X29500Y20000D02*
D03*
X27000Y26000D02*
D03*
X11500Y13500D02*
D03*
X27000Y13000D02*
D03*
X19500Y29500D02*
D03*
Y9500D02*
D03*
X9500Y20000D02*
D03*
X12500Y26500D02*
D03*
X364500Y20000D02*
D03*
X362000Y26000D02*
D03*
X346500Y13500D02*
D03*
X362000Y13000D02*
D03*
X354500Y29500D02*
D03*
Y9500D02*
D03*
X344500Y20000D02*
D03*
X347500Y26500D02*
D03*
X364500Y354500D02*
D03*
X362000Y360500D02*
D03*
X346500Y348000D02*
D03*
X362000Y347500D02*
D03*
X354500Y364000D02*
D03*
Y344000D02*
D03*
X344500Y354500D02*
D03*
X347500Y361000D02*
D03*
X12500Y361500D02*
D03*
X9500Y355000D02*
D03*
X19500Y344500D02*
D03*
Y364500D02*
D03*
X27000Y348000D02*
D03*
X11500Y348500D02*
D03*
X27000Y361000D02*
D03*
X29500Y355000D02*
D03*
X187500Y315000D02*
D03*
X165000D02*
D03*
X157500D02*
D03*
X180000D02*
D03*
X172500D02*
D03*
X210000D02*
D03*
X202500D02*
D03*
X195000D02*
D03*
X232500D02*
D03*
X225000D02*
D03*
X217500D02*
D03*
X232500Y307500D02*
D03*
X165000D02*
D03*
X157500D02*
D03*
X150000D02*
D03*
X187500D02*
D03*
X180000D02*
D03*
X172500D02*
D03*
X210000D02*
D03*
X202500D02*
D03*
X195000D02*
D03*
X225000D02*
D03*
X217500D02*
D03*
X120000D02*
D03*
X142500D02*
D03*
X135000D02*
D03*
X127500D02*
D03*
X40000Y317500D02*
D03*
X112500Y307500D02*
D03*
X47500Y317500D02*
D03*
X55000D02*
D03*
X70000D02*
D03*
X62500D02*
D03*
X40000Y325000D02*
D03*
Y332500D02*
D03*
X47500D02*
D03*
Y325000D02*
D03*
X55000D02*
D03*
X62500D02*
D03*
X70000D02*
D03*
X55000Y332500D02*
D03*
X62500D02*
D03*
X70000D02*
D03*
X357500Y287500D02*
D03*
X350000D02*
D03*
Y295000D02*
D03*
X357500D02*
D03*
X350000Y302500D02*
D03*
X357500D02*
D03*
X342500Y325000D02*
D03*
X357500Y317500D02*
D03*
X342500D02*
D03*
X350000D02*
D03*
Y325000D02*
D03*
X342500Y310000D02*
D03*
X350000D02*
D03*
X357500D02*
D03*
Y325000D02*
D03*
X117000Y205000D02*
D03*
X92000Y43000D02*
D03*
X127000D02*
D03*
X129000Y233000D02*
D03*
X25000Y55000D02*
D03*
Y62500D02*
D03*
Y70000D02*
D03*
X17500Y55000D02*
D03*
Y62500D02*
D03*
Y70000D02*
D03*
X217500Y12500D02*
D03*
X225000D02*
D03*
X232500D02*
D03*
X150500Y125000D02*
D03*
X158000D02*
D03*
X165500D02*
D03*
X297500Y307500D02*
D03*
X290000D02*
D03*
X288500Y277500D02*
D03*
Y285000D02*
D03*
Y187500D02*
D03*
Y195000D02*
D03*
X290000Y217500D02*
D03*
X297500D02*
D03*
Y127500D02*
D03*
X290000D02*
D03*
X210000Y12500D02*
D03*
Y20000D02*
D03*
Y27500D02*
D03*
X202500Y12500D02*
D03*
Y20000D02*
D03*
Y27500D02*
D03*
X232500D02*
D03*
X225000D02*
D03*
X217500D02*
D03*
X232500Y20000D02*
D03*
X225000D02*
D03*
X217500D02*
D03*
X150500Y132500D02*
D03*
X158000D02*
D03*
X165500D02*
D03*
X150500Y140000D02*
D03*
X158000D02*
D03*
X165500D02*
D03*
X135500D02*
D03*
Y132500D02*
D03*
Y125000D02*
D03*
X143000Y140000D02*
D03*
Y132500D02*
D03*
Y125000D02*
D03*
X25000Y77500D02*
D03*
Y85000D02*
D03*
Y92500D02*
D03*
X17500Y77500D02*
D03*
Y85000D02*
D03*
Y92500D02*
D03*
X324000Y60000D02*
D03*
X269000D02*
D03*
Y150000D02*
D03*
X324000D02*
D03*
Y240000D02*
D03*
X269000D02*
D03*
X279000Y75000D02*
D03*
Y165000D02*
D03*
Y255000D02*
D03*
D41*
X19500Y354500D02*
D03*
X354331Y354331D02*
D03*
Y19685D02*
D03*
X19685D02*
D03*
D42*
X252000Y190000D02*
Y262000D01*
Y118000D02*
Y190000D01*
X270000D01*
X252000Y262000D02*
X270000Y280000D01*
X252000Y118000D02*
X269000Y101000D01*
X270000Y280000D02*
Y285000D01*
Y290000D02*
Y342400D01*
Y285000D02*
Y290000D01*
D43*
X318000Y280000D02*
X334000D01*
X293000Y255000D02*
X312750Y274750D01*
X318000Y280000D01*
X301000Y165000D02*
X316750Y180750D01*
X321750Y185750D02*
X326000Y190000D01*
X316750Y180750D02*
X321750Y185750D01*
X332500Y190000D02*
X359000D01*
X326000D02*
X332500D01*
X326000Y100000D02*
X334250Y108250D01*
X320500Y94500D02*
X326000Y100000D01*
X334250Y108250D02*
X360000Y134000D01*
X301000Y75000D02*
X320500Y94500D01*
X360000Y134000D02*
Y166000D01*
X326000Y100000D02*
X326000D01*
X326000D02*
X326000D01*
X279000Y165000D02*
X301000D01*
X326000Y190000D02*
X326000D01*
X279000Y255000D02*
X293000D01*
X360000Y215000D02*
Y254000D01*
X334000Y280000D02*
X360000Y254000D01*
X279000Y75000D02*
X301000D01*
M02*
